  0
SECTION
  2
BLOCKS
  0
ENDSEC
  0
SECTION
  2
ENTITIES
  0
LINE
  8
0
 10
-39.845
 11
-38.923
 20
8
 21
9.598
  0
LINE
  8
0
 10
-38.923
 11
-37.078
 20
9.598
 21
9.598
  0
LINE
  8
0
 10
-37.078
 11
-36.155
 20
9.598
 21
8
  0
LINE
  8
0
 10
-36.155
 11
-37.078
 20
8
 21
6.402
  0
LINE
  8
0
 10
-37.078
 11
-38.923
 20
6.402
 21
6.402
  0
LINE
  8
0
 10
-38.923
 11
-39.845
 20
6.402
 21
8
  0
LINE
  8
0
 10
-39.845
 11
-38.923
 20
16
 21
17.598
  0
LINE
  8
0
 10
-38.923
 11
-37.078
 20
17.598
 21
17.598
  0
LINE
  8
0
 10
-37.078
 11
-36.155
 20
17.598
 21
16
  0
LINE
  8
0
 10
-36.155
 11
-37.078
 20
16
 21
14.402
  0
LINE
  8
0
 10
-37.078
 11
-38.923
 20
14.402
 21
14.402
  0
LINE
  8
0
 10
-38.923
 11
-39.845
 20
14.402
 21
16
  0
LINE
  8
0
 10
-34
 11
-33.5
 20
-12
 21
-10.461
  0
LINE
  8
0
 10
-33.5
 11
-33.5
 20
-10.461
 21
-9.5
  0
LINE
  8
0
 10
-33.5
 11
-32.413
 20
-9.5
 21
-9.5
  0
LINE
  8
0
 10
-32.413
 11
-31.927
 20
-9.5
 21
-9.147
  0
LINE
  8
0
 10
-31.927
 11
-30.073
 20
-9.147
 21
-9.147
  0
LINE
  8
0
 10
-30.073
 11
-29.587
 20
-9.147
 21
-9.5
  0
LINE
  8
0
 10
-29.587
 11
-28.5
 20
-9.5
 21
-9.5
  0
LINE
  8
0
 10
-28.5
 11
-28.5
 20
-9.5
 21
-10.461
  0
LINE
  8
0
 10
-28.5
 11
-28
 20
-10.461
 21
-12
  0
LINE
  8
0
 10
-28
 11
-28.5
 20
-12
 21
-13.539
  0
LINE
  8
0
 10
-28.5
 11
-28.5
 20
-13.539
 21
-14.5
  0
LINE
  8
0
 10
-28.5
 11
-29.587
 20
-14.5
 21
-14.5
  0
LINE
  8
0
 10
-29.587
 11
-30.073
 20
-14.5
 21
-14.853
  0
LINE
  8
0
 10
-30.073
 11
-31.927
 20
-14.853
 21
-14.853
  0
LINE
  8
0
 10
-31.927
 11
-32.413
 20
-14.853
 21
-14.5
  0
LINE
  8
0
 10
-32.413
 11
-33.5
 20
-14.5
 21
-14.5
  0
LINE
  8
0
 10
-33.5
 11
-33.5
 20
-14.5
 21
-13.539
  0
LINE
  8
0
 10
-33.5
 11
-34
 20
-13.539
 21
-12
  0
LINE
  8
0
 10
-32.845
 11
-31.923
 20
0
 21
1.598
  0
LINE
  8
0
 10
-31.923
 11
-30.077
 20
1.598
 21
1.598
  0
LINE
  8
0
 10
-30.077
 11
-29.155
 20
1.598
 21
0
  0
LINE
  8
0
 10
-29.155
 11
-30.077
 20
0
 21
-1.598
  0
LINE
  8
0
 10
-30.077
 11
-31.923
 20
-1.598
 21
-1.598
  0
LINE
  8
0
 10
-31.923
 11
-32.845
 20
-1.598
 21
0
  0
LINE
  8
0
 10
-24
 11
-23.5
 20
-12
 21
-10.461
  0
LINE
  8
0
 10
-23.5
 11
-23.5
 20
-10.461
 21
-9.5
  0
LINE
  8
0
 10
-23.5
 11
-22.413
 20
-9.5
 21
-9.5
  0
LINE
  8
0
 10
-22.413
 11
-21.927
 20
-9.5
 21
-9.147
  0
LINE
  8
0
 10
-21.927
 11
-20.073
 20
-9.147
 21
-9.147
  0
LINE
  8
0
 10
-20.073
 11
-19.587
 20
-9.147
 21
-9.5
  0
LINE
  8
0
 10
-19.587
 11
-18.5
 20
-9.5
 21
-9.5
  0
LINE
  8
0
 10
-18.5
 11
-18.5
 20
-9.5
 21
-10.461
  0
LINE
  8
0
 10
-18.5
 11
-18
 20
-10.461
 21
-12
  0
LINE
  8
0
 10
-18
 11
-18.5
 20
-12
 21
-13.539
  0
LINE
  8
0
 10
-18.5
 11
-18.5
 20
-13.539
 21
-14.5
  0
LINE
  8
0
 10
-18.5
 11
-19.587
 20
-14.5
 21
-14.5
  0
LINE
  8
0
 10
-19.587
 11
-20.073
 20
-14.5
 21
-14.853
  0
LINE
  8
0
 10
-20.073
 11
-21.927
 20
-14.853
 21
-14.853
  0
LINE
  8
0
 10
-21.927
 11
-22.413
 20
-14.853
 21
-14.5
  0
LINE
  8
0
 10
-22.413
 11
-23.5
 20
-14.5
 21
-14.5
  0
LINE
  8
0
 10
-23.5
 11
-23.5
 20
-14.5
 21
-13.539
  0
LINE
  8
0
 10
-23.5
 11
-24
 20
-13.539
 21
-12
  0
LINE
  8
0
 10
-22.845
 11
-21.923
 20
0
 21
1.598
  0
LINE
  8
0
 10
-21.923
 11
-20.078
 20
1.598
 21
1.598
  0
LINE
  8
0
 10
-20.078
 11
-19.155
 20
1.598
 21
0
  0
LINE
  8
0
 10
-19.155
 11
-20.078
 20
0
 21
-1.598
  0
LINE
  8
0
 10
-20.078
 11
-21.923
 20
-1.598
 21
-1.598
  0
LINE
  8
0
 10
-21.923
 11
-22.845
 20
-1.598
 21
0
  0
LINE
  8
0
 10
-14
 11
-13.5
 20
-12
 21
-10.461
  0
LINE
  8
0
 10
-13.5
 11
-13.5
 20
-10.461
 21
-9.5
  0
LINE
  8
0
 10
-13.5
 11
-12.413
 20
-9.5
 21
-9.5
  0
LINE
  8
0
 10
-12.413
 11
-11.927
 20
-9.5
 21
-9.147
  0
LINE
  8
0
 10
-11.927
 11
-10.073
 20
-9.147
 21
-9.147
  0
LINE
  8
0
 10
-10.073
 11
-9.587
 20
-9.147
 21
-9.5
  0
LINE
  8
0
 10
-9.587
 11
-8.5
 20
-9.5
 21
-9.5
  0
LINE
  8
0
 10
-8.5
 11
-8.5
 20
-9.5
 21
-10.461
  0
LINE
  8
0
 10
-8.5
 11
-8
 20
-10.461
 21
-12
  0
LINE
  8
0
 10
-8
 11
-8.5
 20
-12
 21
-13.539
  0
LINE
  8
0
 10
-8.5
 11
-8.5
 20
-13.539
 21
-14.5
  0
LINE
  8
0
 10
-8.5
 11
-9.587
 20
-14.5
 21
-14.5
  0
LINE
  8
0
 10
-9.587
 11
-10.073
 20
-14.5
 21
-14.853
  0
LINE
  8
0
 10
-10.073
 11
-11.927
 20
-14.853
 21
-14.853
  0
LINE
  8
0
 10
-11.927
 11
-12.413
 20
-14.853
 21
-14.5
  0
LINE
  8
0
 10
-12.413
 11
-13.5
 20
-14.5
 21
-14.5
  0
LINE
  8
0
 10
-13.5
 11
-13.5
 20
-14.5
 21
-13.539
  0
LINE
  8
0
 10
-13.5
 11
-14
 20
-13.539
 21
-12
  0
LINE
  8
0
 10
-12.845
 11
-11.923
 20
0
 21
1.598
  0
LINE
  8
0
 10
-11.923
 11
-10.077
 20
1.598
 21
1.598
  0
LINE
  8
0
 10
-10.077
 11
-9.155
 20
1.598
 21
0
  0
LINE
  8
0
 10
-9.155
 11
-10.077
 20
0
 21
-1.598
  0
LINE
  8
0
 10
-10.077
 11
-11.923
 20
-1.598
 21
-1.598
  0
LINE
  8
0
 10
-11.923
 11
-12.845
 20
-1.598
 21
0
  0
LINE
  8
0
 10
-4
 11
-3.5
 20
-12
 21
-10.461
  0
LINE
  8
0
 10
-3.5
 11
-3.5
 20
-10.461
 21
-9.5
  0
LINE
  8
0
 10
-3.5
 11
-2.413
 20
-9.5
 21
-9.5
  0
LINE
  8
0
 10
-2.413
 11
-1.927
 20
-9.5
 21
-9.147
  0
LINE
  8
0
 10
-1.927
 11
-0.073
 20
-9.147
 21
-9.147
  0
LINE
  8
0
 10
-0.073
 11
0.413
 20
-9.147
 21
-9.5
  0
LINE
  8
0
 10
0.413
 11
1.5
 20
-9.5
 21
-9.5
  0
LINE
  8
0
 10
1.5
 11
1.5
 20
-9.5
 21
-10.461
  0
LINE
  8
0
 10
1.5
 11
2
 20
-10.461
 21
-12
  0
LINE
  8
0
 10
2
 11
1.5
 20
-12
 21
-13.539
  0
LINE
  8
0
 10
1.5
 11
1.5
 20
-13.539
 21
-14.5
  0
LINE
  8
0
 10
1.5
 11
0.413
 20
-14.5
 21
-14.5
  0
LINE
  8
0
 10
0.413
 11
-0.073
 20
-14.5
 21
-14.853
  0
LINE
  8
0
 10
-0.073
 11
-1.927
 20
-14.853
 21
-14.853
  0
LINE
  8
0
 10
-1.927
 11
-2.413
 20
-14.853
 21
-14.5
  0
LINE
  8
0
 10
-2.413
 11
-3.5
 20
-14.5
 21
-14.5
  0
LINE
  8
0
 10
-3.5
 11
-3.5
 20
-14.5
 21
-13.539
  0
LINE
  8
0
 10
-3.5
 11
-4
 20
-13.539
 21
-12
  0
LINE
  8
0
 10
-2.845
 11
-1.922
 20
0
 21
1.598
  0
LINE
  8
0
 10
-1.922
 11
-0.078
 20
1.598
 21
1.598
  0
LINE
  8
0
 10
-0.078
 11
0.845
 20
1.598
 21
0
  0
LINE
  8
0
 10
0.845
 11
-0.078
 20
0
 21
-1.598
  0
LINE
  8
0
 10
-0.078
 11
-1.922
 20
-1.598
 21
-1.598
  0
LINE
  8
0
 10
-1.922
 11
-2.845
 20
-1.598
 21
0
  0
LINE
  8
0
 10
9
 11
9
 20
-19.5
 21
-12.5
  0
LINE
  8
0
 10
9
 11
16
 20
-12.5
 21
-12.5
  0
LINE
  8
0
 10
16
 11
16
 20
-12.5
 21
-12.536
  0
LINE
  8
0
 10
16
 11
26.5
 20
-12.536
 21
-12.536
  0
LINE
  8
0
 10
26.5
 11
26.5
 20
-12.536
 21
-19.464
  0
LINE
  8
0
 10
26.5
 11
16
 20
-19.464
 21
-19.464
  0
LINE
  8
0
 10
16
 11
16
 20
-19.464
 21
-19.5
  0
LINE
  8
0
 10
16
 11
9
 20
-19.5
 21
-19.5
  0
LINE
  8
0
 10
9
 11
9
 20
-3.5
 21
3.5
  0
LINE
  8
0
 10
9
 11
16
 20
3.5
 21
3.5
  0
LINE
  8
0
 10
16
 11
16
 20
3.5
 21
3.464
  0
LINE
  8
0
 10
16
 11
26.5
 20
3.464
 21
3.464
  0
LINE
  8
0
 10
26.5
 11
26.5
 20
3.464
 21
-3.464
  0
LINE
  8
0
 10
26.5
 11
16
 20
-3.464
 21
-3.464
  0
LINE
  8
0
 10
16
 11
16
 20
-3.464
 21
-3.5
  0
LINE
  8
0
 10
16
 11
9
 20
-3.5
 21
-3.5
  0
LINE
  8
0
 10
9
 11
9
 20
12.5
 21
19.5
  0
LINE
  8
0
 10
9
 11
16
 20
19.5
 21
19.5
  0
LINE
  8
0
 10
16
 11
16
 20
19.5
 21
19.464
  0
LINE
  8
0
 10
16
 11
26.5
 20
19.464
 21
19.464
  0
LINE
  8
0
 10
26.5
 11
26.5
 20
19.464
 21
12.536
  0
LINE
  8
0
 10
26.5
 11
16
 20
12.536
 21
12.536
  0
LINE
  8
0
 10
16
 11
16
 20
12.536
 21
12.5
  0
LINE
  8
0
 10
16
 11
9
 20
12.5
 21
12.5
  0
ENDSEC
  0
SECTION
  2
OBJECTS
  0
DICTIONARY
  0
ENDSEC
  0
EOF
