  0
SECTION
  2
BLOCKS
  0
ENDSEC
  0
SECTION
  2
ENTITIES
  0
LINE
  8
0
 10
-39.845
 11
-38.923
 20
8
 21
9.598
  0
LINE
  8
0
 10
-38.923
 11
-37.078
 20
9.598
 21
9.598
  0
LINE
  8
0
 10
-37.078
 11
-36.155
 20
9.598
 21
8
  0
LINE
  8
0
 10
-36.155
 11
-37.078
 20
8
 21
6.402
  0
LINE
  8
0
 10
-37.078
 11
-38.923
 20
6.402
 21
6.402
  0
LINE
  8
0
 10
-38.923
 11
-39.845
 20
6.402
 21
8
  0
LINE
  8
0
 10
-39.845
 11
-38.923
 20
16
 21
17.598
  0
LINE
  8
0
 10
-38.923
 11
-37.078
 20
17.598
 21
17.598
  0
LINE
  8
0
 10
-37.078
 11
-36.155
 20
17.598
 21
16
  0
LINE
  8
0
 10
-36.155
 11
-37.078
 20
16
 21
14.402
  0
LINE
  8
0
 10
-37.078
 11
-38.923
 20
14.402
 21
14.402
  0
LINE
  8
0
 10
-38.923
 11
-39.845
 20
14.402
 21
16
  0
LINE
  8
0
 10
-34
 11
-33.5
 20
-12
 21
-10.461
  0
LINE
  8
0
 10
-33.5
 11
-33.5
 20
-10.461
 21
-9.5
  0
LINE
  8
0
 10
-33.5
 11
-32.413
 20
-9.5
 21
-9.5
  0
LINE
  8
0
 10
-32.413
 11
-31.927
 20
-9.5
 21
-9.147
  0
LINE
  8
0
 10
-31.927
 11
-30.073
 20
-9.147
 21
-9.147
  0
LINE
  8
0
 10
-30.073
 11
-29.587
 20
-9.147
 21
-9.5
  0
LINE
  8
0
 10
-29.587
 11
-28.5
 20
-9.5
 21
-9.5
  0
LINE
  8
0
 10
-28.5
 11
-28.5
 20
-9.5
 21
-10.461
  0
LINE
  8
0
 10
-28.5
 11
-28
 20
-10.461
 21
-12
  0
LINE
  8
0
 10
-28
 11
-28.5
 20
-12
 21
-13.539
  0
LINE
  8
0
 10
-28.5
 11
-28.5
 20
-13.539
 21
-14.5
  0
LINE
  8
0
 10
-28.5
 11
-29.587
 20
-14.5
 21
-14.5
  0
LINE
  8
0
 10
-29.587
 11
-30.073
 20
-14.5
 21
-14.853
  0
LINE
  8
0
 10
-30.073
 11
-31.927
 20
-14.853
 21
-14.853
  0
LINE
  8
0
 10
-31.927
 11
-32.413
 20
-14.853
 21
-14.5
  0
LINE
  8
0
 10
-32.413
 11
-33.5
 20
-14.5
 21
-14.5
  0
LINE
  8
0
 10
-33.5
 11
-33.5
 20
-14.5
 21
-13.539
  0
LINE
  8
0
 10
-33.5
 11
-34
 20
-13.539
 21
-12
  0
LINE
  8
0
 10
-32.845
 11
-31.923
 20
0
 21
1.598
  0
LINE
  8
0
 10
-31.923
 11
-30.077
 20
1.598
 21
1.598
  0
LINE
  8
0
 10
-30.077
 11
-29.155
 20
1.598
 21
0
  0
LINE
  8
0
 10
-29.155
 11
-30.077
 20
0
 21
-1.598
  0
LINE
  8
0
 10
-30.077
 11
-31.923
 20
-1.598
 21
-1.598
  0
LINE
  8
0
 10
-31.923
 11
-32.845
 20
-1.598
 21
0
  0
LINE
  8
0
 10
-30
 11
-30
 20
24.5
 21
27
  0
LINE
  8
0
 10
-30
 11
-22.5
 20
27
 21
27
  0
LINE
  8
0
 10
-22.5
 11
-22.5
 20
27
 21
24.5
  0
LINE
  8
0
 10
-22.5
 11
-30
 20
24.5
 21
24.5
  0
LINE
  8
0
 10
-24
 11
-23.5
 20
-12
 21
-10.461
  0
LINE
  8
0
 10
-23.5
 11
-23.5
 20
-10.461
 21
-9.5
  0
LINE
  8
0
 10
-23.5
 11
-22.413
 20
-9.5
 21
-9.5
  0
LINE
  8
0
 10
-22.413
 11
-21.927
 20
-9.5
 21
-9.147
  0
LINE
  8
0
 10
-21.927
 11
-20.073
 20
-9.147
 21
-9.147
  0
LINE
  8
0
 10
-20.073
 11
-19.587
 20
-9.147
 21
-9.5
  0
LINE
  8
0
 10
-19.587
 11
-18.5
 20
-9.5
 21
-9.5
  0
LINE
  8
0
 10
-18.5
 11
-18.5
 20
-9.5
 21
-10.461
  0
LINE
  8
0
 10
-18.5
 11
-18
 20
-10.461
 21
-12
  0
LINE
  8
0
 10
-18
 11
-18.5
 20
-12
 21
-13.539
  0
LINE
  8
0
 10
-18.5
 11
-18.5
 20
-13.539
 21
-14.5
  0
LINE
  8
0
 10
-18.5
 11
-19.587
 20
-14.5
 21
-14.5
  0
LINE
  8
0
 10
-19.587
 11
-20.073
 20
-14.5
 21
-14.853
  0
LINE
  8
0
 10
-20.073
 11
-21.927
 20
-14.853
 21
-14.853
  0
LINE
  8
0
 10
-21.927
 11
-22.413
 20
-14.853
 21
-14.5
  0
LINE
  8
0
 10
-22.413
 11
-23.5
 20
-14.5
 21
-14.5
  0
LINE
  8
0
 10
-23.5
 11
-23.5
 20
-14.5
 21
-13.539
  0
LINE
  8
0
 10
-23.5
 11
-24
 20
-13.539
 21
-12
  0
LINE
  8
0
 10
-22.845
 11
-21.923
 20
0
 21
1.598
  0
LINE
  8
0
 10
-21.923
 11
-20.078
 20
1.598
 21
1.598
  0
LINE
  8
0
 10
-20.078
 11
-19.155
 20
1.598
 21
0
  0
LINE
  8
0
 10
-19.155
 11
-20.078
 20
0
 21
-1.598
  0
LINE
  8
0
 10
-20.078
 11
-21.923
 20
-1.598
 21
-1.598
  0
LINE
  8
0
 10
-21.923
 11
-22.845
 20
-1.598
 21
0
  0
LINE
  8
0
 10
-20
 11
-20
 20
5.185
 21
5.785
  0
LINE
  8
0
 10
-20
 11
-14.54
 20
5.785
 21
5.785
  0
LINE
  8
0
 10
-14.54
 11
-14.54
 20
5.785
 21
7.725
  0
LINE
  8
0
 10
-14.54
 11
-20
 20
7.725
 21
7.725
  0
LINE
  8
0
 10
-20
 11
-20
 20
7.725
 21
8.325
  0
LINE
  8
0
 10
-20
 11
-14.54
 20
8.325
 21
8.325
  0
LINE
  8
0
 10
-14.54
 11
-14.54
 20
8.325
 21
10.265
  0
LINE
  8
0
 10
-14.54
 11
-20
 20
10.265
 21
10.265
  0
LINE
  8
0
 10
-20
 11
-20
 20
10.265
 21
10.865
  0
LINE
  8
0
 10
-20
 11
-14.54
 20
10.865
 21
10.865
  0
LINE
  8
0
 10
-14.54
 11
-14.54
 20
10.865
 21
12.805
  0
LINE
  8
0
 10
-14.54
 11
-20
 20
12.805
 21
12.805
  0
LINE
  8
0
 10
-20
 11
-20
 20
12.805
 21
13.405
  0
LINE
  8
0
 10
-20
 11
-14.54
 20
13.405
 21
13.405
  0
LINE
  8
0
 10
-14.54
 11
-14.54
 20
13.405
 21
14.41
  0
LINE
  8
0
 10
-14.54
 11
-12
 20
14.41
 21
14.41
  0
LINE
  8
0
 10
-12
 11
-12
 20
14.41
 21
13.405
  0
LINE
  8
0
 10
-12
 11
-8.5
 20
13.405
 21
13.405
  0
LINE
  8
0
 10
-8.5
 11
-8.5
 20
13.405
 21
12.805
  0
LINE
  8
0
 10
-8.5
 11
-12
 20
12.805
 21
12.805
  0
LINE
  8
0
 10
-12
 11
-12
 20
12.805
 21
10.865
  0
LINE
  8
0
 10
-12
 11
-8.5
 20
10.865
 21
10.865
  0
LINE
  8
0
 10
-8.5
 11
-8.5
 20
10.865
 21
10.265
  0
LINE
  8
0
 10
-8.5
 11
-12
 20
10.265
 21
10.265
  0
LINE
  8
0
 10
-12
 11
-12
 20
10.265
 21
8.325
  0
LINE
  8
0
 10
-12
 11
-8.5
 20
8.325
 21
8.325
  0
LINE
  8
0
 10
-8.5
 11
-8.5
 20
8.325
 21
7.725
  0
LINE
  8
0
 10
-8.5
 11
-12
 20
7.725
 21
7.725
  0
LINE
  8
0
 10
-12
 11
-12
 20
7.725
 21
5.785
  0
LINE
  8
0
 10
-12
 11
-8.5
 20
5.785
 21
5.785
  0
LINE
  8
0
 10
-8.5
 11
-8.5
 20
5.785
 21
5.185
  0
LINE
  8
0
 10
-8.5
 11
-12
 20
5.185
 21
5.185
  0
LINE
  8
0
 10
-12
 11
-12
 20
5.185
 21
4.25
  0
LINE
  8
0
 10
-12
 11
-14.54
 20
4.25
 21
4.25
  0
LINE
  8
0
 10
-14.54
 11
-14.54
 20
4.25
 21
5.185
  0
LINE
  8
0
 10
-14.54
 11
-20
 20
5.185
 21
5.185
  0
LINE
  8
0
 10
-14
 11
-13.5
 20
-12
 21
-10.461
  0
LINE
  8
0
 10
-13.5
 11
-13.5
 20
-10.461
 21
-9.5
  0
LINE
  8
0
 10
-13.5
 11
-12.413
 20
-9.5
 21
-9.5
  0
LINE
  8
0
 10
-12.413
 11
-11.927
 20
-9.5
 21
-9.147
  0
LINE
  8
0
 10
-11.927
 11
-10.073
 20
-9.147
 21
-9.147
  0
LINE
  8
0
 10
-10.073
 11
-9.587
 20
-9.147
 21
-9.5
  0
LINE
  8
0
 10
-9.587
 11
-8.5
 20
-9.5
 21
-9.5
  0
LINE
  8
0
 10
-8.5
 11
-8.5
 20
-9.5
 21
-10.461
  0
LINE
  8
0
 10
-8.5
 11
-8
 20
-10.461
 21
-12
  0
LINE
  8
0
 10
-8
 11
-8.5
 20
-12
 21
-13.539
  0
LINE
  8
0
 10
-8.5
 11
-8.5
 20
-13.539
 21
-14.5
  0
LINE
  8
0
 10
-8.5
 11
-9.587
 20
-14.5
 21
-14.5
  0
LINE
  8
0
 10
-9.587
 11
-10.073
 20
-14.5
 21
-14.853
  0
LINE
  8
0
 10
-10.073
 11
-11.927
 20
-14.853
 21
-14.853
  0
LINE
  8
0
 10
-11.927
 11
-12.413
 20
-14.853
 21
-14.5
  0
LINE
  8
0
 10
-12.413
 11
-13.5
 20
-14.5
 21
-14.5
  0
LINE
  8
0
 10
-13.5
 11
-13.5
 20
-14.5
 21
-13.539
  0
LINE
  8
0
 10
-13.5
 11
-14
 20
-13.539
 21
-12
  0
LINE
  8
0
 10
-12.845
 11
-11.923
 20
0
 21
1.598
  0
LINE
  8
0
 10
-11.923
 11
-10.077
 20
1.598
 21
1.598
  0
LINE
  8
0
 10
-10.077
 11
-9.155
 20
1.598
 21
0
  0
LINE
  8
0
 10
-9.155
 11
-10.077
 20
0
 21
-1.598
  0
LINE
  8
0
 10
-10.077
 11
-11.923
 20
-1.598
 21
-1.598
  0
LINE
  8
0
 10
-11.923
 11
-12.845
 20
-1.598
 21
0
  0
LINE
  8
0
 10
-4
 11
-3.5
 20
-12
 21
-10.461
  0
LINE
  8
0
 10
-3.5
 11
-3.5
 20
-10.461
 21
-9.5
  0
LINE
  8
0
 10
-3.5
 11
-2.413
 20
-9.5
 21
-9.5
  0
LINE
  8
0
 10
-2.413
 11
-1.927
 20
-9.5
 21
-9.147
  0
LINE
  8
0
 10
-1.927
 11
-0.073
 20
-9.147
 21
-9.147
  0
LINE
  8
0
 10
-0.073
 11
0.413
 20
-9.147
 21
-9.5
  0
LINE
  8
0
 10
0.413
 11
1.5
 20
-9.5
 21
-9.5
  0
LINE
  8
0
 10
1.5
 11
1.5
 20
-9.5
 21
-10.461
  0
LINE
  8
0
 10
1.5
 11
2
 20
-10.461
 21
-12
  0
LINE
  8
0
 10
2
 11
1.5
 20
-12
 21
-13.539
  0
LINE
  8
0
 10
1.5
 11
1.5
 20
-13.539
 21
-14.5
  0
LINE
  8
0
 10
1.5
 11
0.413
 20
-14.5
 21
-14.5
  0
LINE
  8
0
 10
0.413
 11
-0.073
 20
-14.5
 21
-14.853
  0
LINE
  8
0
 10
-0.073
 11
-1.927
 20
-14.853
 21
-14.853
  0
LINE
  8
0
 10
-1.927
 11
-2.413
 20
-14.853
 21
-14.5
  0
LINE
  8
0
 10
-2.413
 11
-3.5
 20
-14.5
 21
-14.5
  0
LINE
  8
0
 10
-3.5
 11
-3.5
 20
-14.5
 21
-13.539
  0
LINE
  8
0
 10
-3.5
 11
-4
 20
-13.539
 21
-12
  0
LINE
  8
0
 10
-2.845
 11
-1.922
 20
0
 21
1.598
  0
LINE
  8
0
 10
-1.922
 11
-0.078
 20
1.598
 21
1.598
  0
LINE
  8
0
 10
-0.078
 11
0.845
 20
1.598
 21
0
  0
LINE
  8
0
 10
0.845
 11
-0.078
 20
0
 21
-1.598
  0
LINE
  8
0
 10
-0.078
 11
-1.922
 20
-1.598
 21
-1.598
  0
LINE
  8
0
 10
-1.922
 11
-2.845
 20
-1.598
 21
0
  0
LINE
  8
0
 10
9
 11
9
 20
-19.5
 21
-12.5
  0
LINE
  8
0
 10
9
 11
16
 20
-12.5
 21
-12.5
  0
LINE
  8
0
 10
16
 11
16
 20
-12.5
 21
-12.536
  0
LINE
  8
0
 10
16
 11
26.5
 20
-12.536
 21
-12.536
  0
LINE
  8
0
 10
26.5
 11
26.5
 20
-12.536
 21
-19.464
  0
LINE
  8
0
 10
26.5
 11
16
 20
-19.464
 21
-19.464
  0
LINE
  8
0
 10
16
 11
16
 20
-19.464
 21
-19.5
  0
LINE
  8
0
 10
16
 11
9
 20
-19.5
 21
-19.5
  0
LINE
  8
0
 10
9
 11
9
 20
-3.5
 21
3.5
  0
LINE
  8
0
 10
9
 11
16
 20
3.5
 21
3.5
  0
LINE
  8
0
 10
16
 11
16
 20
3.5
 21
3.464
  0
LINE
  8
0
 10
16
 11
26.5
 20
3.464
 21
3.464
  0
LINE
  8
0
 10
26.5
 11
26.5
 20
3.464
 21
-3.464
  0
LINE
  8
0
 10
26.5
 11
16
 20
-3.464
 21
-3.464
  0
LINE
  8
0
 10
16
 11
16
 20
-3.464
 21
-3.5
  0
LINE
  8
0
 10
16
 11
9
 20
-3.5
 21
-3.5
  0
LINE
  8
0
 10
9
 11
9
 20
12.5
 21
19.5
  0
LINE
  8
0
 10
9
 11
16
 20
19.5
 21
19.5
  0
LINE
  8
0
 10
16
 11
16
 20
19.5
 21
19.464
  0
LINE
  8
0
 10
16
 11
26.5
 20
19.464
 21
19.464
  0
LINE
  8
0
 10
26.5
 11
26.5
 20
19.464
 21
12.536
  0
LINE
  8
0
 10
26.5
 11
16
 20
12.536
 21
12.536
  0
LINE
  8
0
 10
16
 11
16
 20
12.536
 21
12.5
  0
LINE
  8
0
 10
16
 11
9
 20
12.5
 21
12.5
  0
LINE
  8
0
 10
15.5
 11
15.5
 20
5.185
 21
5.785
  0
LINE
  8
0
 10
15.5
 11
19
 20
5.785
 21
5.785
  0
LINE
  8
0
 10
19
 11
19
 20
5.785
 21
7.725
  0
LINE
  8
0
 10
19
 11
15.5
 20
7.725
 21
7.725
  0
LINE
  8
0
 10
15.5
 11
15.5
 20
7.725
 21
8.325
  0
LINE
  8
0
 10
15.5
 11
19
 20
8.325
 21
8.325
  0
LINE
  8
0
 10
19
 11
19
 20
8.325
 21
10.265
  0
LINE
  8
0
 10
19
 11
15.5
 20
10.265
 21
10.265
  0
LINE
  8
0
 10
15.5
 11
15.5
 20
10.265
 21
10.865
  0
LINE
  8
0
 10
15.5
 11
19
 20
10.865
 21
10.865
  0
LINE
  8
0
 10
19
 11
19
 20
10.865
 21
11.87
  0
LINE
  8
0
 10
19
 11
21.54
 20
11.87
 21
11.87
  0
LINE
  8
0
 10
21.54
 11
21.54
 20
11.87
 21
10.865
  0
LINE
  8
0
 10
21.54
 11
27
 20
10.865
 21
10.865
  0
LINE
  8
0
 10
27
 11
27
 20
10.865
 21
10.265
  0
LINE
  8
0
 10
27
 11
21.54
 20
10.265
 21
10.265
  0
LINE
  8
0
 10
21.54
 11
21.54
 20
10.265
 21
8.325
  0
LINE
  8
0
 10
21.54
 11
27
 20
8.325
 21
8.325
  0
LINE
  8
0
 10
27
 11
27
 20
8.325
 21
7.725
  0
LINE
  8
0
 10
27
 11
21.54
 20
7.725
 21
7.725
  0
LINE
  8
0
 10
21.54
 11
21.54
 20
7.725
 21
5.785
  0
LINE
  8
0
 10
21.54
 11
27
 20
5.785
 21
5.785
  0
LINE
  8
0
 10
27
 11
27
 20
5.785
 21
5.185
  0
LINE
  8
0
 10
27
 11
21.54
 20
5.185
 21
5.185
  0
LINE
  8
0
 10
21.54
 11
21.54
 20
5.185
 21
4.25
  0
LINE
  8
0
 10
21.54
 11
19
 20
4.25
 21
4.25
  0
LINE
  8
0
 10
19
 11
19
 20
4.25
 21
5.185
  0
LINE
  8
0
 10
19
 11
15.5
 20
5.185
 21
5.185
  0
LINE
  8
0
 10
67.5
 11
67.5
 20
-25.25
 21
25.25
  0
LINE
  8
0
 10
67.5
 11
67.506
 20
25.25
 21
25.438
  0
LINE
  8
0
 10
67.506
 11
67.524
 20
25.438
 21
25.626
  0
LINE
  8
0
 10
67.524
 11
67.553
 20
25.626
 21
25.812
  0
LINE
  8
0
 10
67.553
 11
67.594
 20
25.812
 21
25.996
  0
LINE
  8
0
 10
67.594
 11
67.647
 20
25.996
 21
26.177
  0
LINE
  8
0
 10
67.647
 11
67.711
 20
26.177
 21
26.354
  0
LINE
  8
0
 10
67.711
 11
67.786
 20
26.354
 21
26.527
  0
LINE
  8
0
 10
67.786
 11
67.871
 20
26.527
 21
26.695
  0
LINE
  8
0
 10
67.871
 11
67.967
 20
26.695
 21
26.857
  0
LINE
  8
0
 10
67.967
 11
68.073
 20
26.857
 21
27.013
  0
LINE
  8
0
 10
68.073
 11
68.188
 20
27.013
 21
27.162
  0
LINE
  8
0
 10
68.188
 11
68.313
 20
27.162
 21
27.304
  0
LINE
  8
0
 10
68.313
 11
68.446
 20
27.304
 21
27.437
  0
LINE
  8
0
 10
68.446
 11
68.588
 20
27.437
 21
27.562
  0
LINE
  8
0
 10
68.588
 11
68.737
 20
27.562
 21
27.677
  0
LINE
  8
0
 10
68.737
 11
68.893
 20
27.677
 21
27.783
  0
LINE
  8
0
 10
68.893
 11
69.055
 20
27.783
 21
27.879
  0
LINE
  8
0
 10
69.055
 11
69.223
 20
27.879
 21
27.964
  0
LINE
  8
0
 10
69.223
 11
69.396
 20
27.964
 21
28.039
  0
LINE
  8
0
 10
69.396
 11
69.573
 20
28.039
 21
28.103
  0
LINE
  8
0
 10
69.573
 11
69.754
 20
28.103
 21
28.156
  0
LINE
  8
0
 10
69.754
 11
69.938
 20
28.156
 21
28.197
  0
LINE
  8
0
 10
69.938
 11
70.124
 20
28.197
 21
28.226
  0
LINE
  8
0
 10
70.124
 11
70.312
 20
28.226
 21
28.244
  0
LINE
  8
0
 10
70.312
 11
70.5
 20
28.244
 21
28.25
  0
LINE
  8
0
 10
70.5
 11
129.5
 20
28.25
 21
28.25
  0
LINE
  8
0
 10
129.5
 11
129.688
 20
28.25
 21
28.244
  0
LINE
  8
0
 10
129.688
 11
129.876
 20
28.244
 21
28.226
  0
LINE
  8
0
 10
129.876
 11
130.062
 20
28.226
 21
28.197
  0
LINE
  8
0
 10
130.062
 11
130.246
 20
28.197
 21
28.156
  0
LINE
  8
0
 10
130.246
 11
130.427
 20
28.156
 21
28.103
  0
LINE
  8
0
 10
130.427
 11
130.604
 20
28.103
 21
28.039
  0
LINE
  8
0
 10
130.604
 11
130.777
 20
28.039
 21
27.964
  0
LINE
  8
0
 10
130.777
 11
130.945
 20
27.964
 21
27.879
  0
LINE
  8
0
 10
130.945
 11
131.107
 20
27.879
 21
27.783
  0
LINE
  8
0
 10
131.107
 11
131.263
 20
27.783
 21
27.677
  0
LINE
  8
0
 10
131.263
 11
131.412
 20
27.677
 21
27.562
  0
LINE
  8
0
 10
131.412
 11
131.554
 20
27.562
 21
27.437
  0
LINE
  8
0
 10
131.554
 11
131.687
 20
27.437
 21
27.304
  0
LINE
  8
0
 10
131.687
 11
131.812
 20
27.304
 21
27.162
  0
LINE
  8
0
 10
131.812
 11
131.927
 20
27.162
 21
27.013
  0
LINE
  8
0
 10
131.927
 11
132.033
 20
27.013
 21
26.857
  0
LINE
  8
0
 10
132.033
 11
132.129
 20
26.857
 21
26.695
  0
LINE
  8
0
 10
132.129
 11
132.214
 20
26.695
 21
26.527
  0
LINE
  8
0
 10
132.214
 11
132.289
 20
26.527
 21
26.354
  0
LINE
  8
0
 10
132.289
 11
132.353
 20
26.354
 21
26.177
  0
LINE
  8
0
 10
132.353
 11
132.406
 20
26.177
 21
25.996
  0
LINE
  8
0
 10
132.406
 11
132.447
 20
25.996
 21
25.812
  0
LINE
  8
0
 10
132.447
 11
132.476
 20
25.812
 21
25.626
  0
LINE
  8
0
 10
132.476
 11
132.494
 20
25.626
 21
25.438
  0
LINE
  8
0
 10
132.494
 11
132.5
 20
25.438
 21
25.25
  0
LINE
  8
0
 10
132.5
 11
132.5
 20
25.25
 21
-25.25
  0
LINE
  8
0
 10
132.5
 11
132.494
 20
-25.25
 21
-25.438
  0
LINE
  8
0
 10
132.494
 11
132.476
 20
-25.438
 21
-25.626
  0
LINE
  8
0
 10
132.476
 11
132.447
 20
-25.626
 21
-25.812
  0
LINE
  8
0
 10
132.447
 11
132.406
 20
-25.812
 21
-25.996
  0
LINE
  8
0
 10
132.406
 11
132.353
 20
-25.996
 21
-26.177
  0
LINE
  8
0
 10
132.353
 11
132.289
 20
-26.177
 21
-26.354
  0
LINE
  8
0
 10
132.289
 11
132.214
 20
-26.354
 21
-26.527
  0
LINE
  8
0
 10
132.214
 11
132.129
 20
-26.527
 21
-26.695
  0
LINE
  8
0
 10
132.129
 11
132.033
 20
-26.695
 21
-26.857
  0
LINE
  8
0
 10
132.033
 11
131.927
 20
-26.857
 21
-27.013
  0
LINE
  8
0
 10
131.927
 11
131.812
 20
-27.013
 21
-27.162
  0
LINE
  8
0
 10
131.812
 11
131.687
 20
-27.162
 21
-27.304
  0
LINE
  8
0
 10
131.687
 11
131.554
 20
-27.304
 21
-27.437
  0
LINE
  8
0
 10
131.554
 11
131.412
 20
-27.437
 21
-27.562
  0
LINE
  8
0
 10
131.412
 11
131.263
 20
-27.562
 21
-27.677
  0
LINE
  8
0
 10
131.263
 11
131.107
 20
-27.677
 21
-27.783
  0
LINE
  8
0
 10
131.107
 11
130.945
 20
-27.783
 21
-27.879
  0
LINE
  8
0
 10
130.945
 11
130.777
 20
-27.879
 21
-27.964
  0
LINE
  8
0
 10
130.777
 11
130.604
 20
-27.964
 21
-28.039
  0
LINE
  8
0
 10
130.604
 11
130.427
 20
-28.039
 21
-28.103
  0
LINE
  8
0
 10
130.427
 11
130.246
 20
-28.103
 21
-28.156
  0
LINE
  8
0
 10
130.246
 11
130.062
 20
-28.156
 21
-28.197
  0
LINE
  8
0
 10
130.062
 11
129.876
 20
-28.197
 21
-28.226
  0
LINE
  8
0
 10
129.876
 11
129.688
 20
-28.226
 21
-28.244
  0
LINE
  8
0
 10
129.688
 11
129.5
 20
-28.244
 21
-28.25
  0
LINE
  8
0
 10
129.5
 11
109
 20
-28.25
 21
-28.25
  0
LINE
  8
0
 10
109
 11
109
 20
-28.25
 21
-15.75
  0
LINE
  8
0
 10
109
 11
80
 20
-15.75
 21
-15.75
  0
LINE
  8
0
 10
80
 11
80
 20
-15.75
 21
-28.25
  0
LINE
  8
0
 10
80
 11
70.5
 20
-28.25
 21
-28.25
  0
LINE
  8
0
 10
70.5
 11
70.312
 20
-28.25
 21
-28.244
  0
LINE
  8
0
 10
70.312
 11
70.124
 20
-28.244
 21
-28.226
  0
LINE
  8
0
 10
70.124
 11
69.938
 20
-28.226
 21
-28.197
  0
LINE
  8
0
 10
69.938
 11
69.754
 20
-28.197
 21
-28.156
  0
LINE
  8
0
 10
69.754
 11
69.573
 20
-28.156
 21
-28.103
  0
LINE
  8
0
 10
69.573
 11
69.396
 20
-28.103
 21
-28.039
  0
LINE
  8
0
 10
69.396
 11
69.223
 20
-28.039
 21
-27.964
  0
LINE
  8
0
 10
69.223
 11
69.055
 20
-27.964
 21
-27.879
  0
LINE
  8
0
 10
69.055
 11
68.893
 20
-27.879
 21
-27.783
  0
LINE
  8
0
 10
68.893
 11
68.737
 20
-27.783
 21
-27.677
  0
LINE
  8
0
 10
68.737
 11
68.588
 20
-27.677
 21
-27.562
  0
LINE
  8
0
 10
68.588
 11
68.446
 20
-27.562
 21
-27.437
  0
LINE
  8
0
 10
68.446
 11
68.313
 20
-27.437
 21
-27.304
  0
LINE
  8
0
 10
68.313
 11
68.188
 20
-27.304
 21
-27.162
  0
LINE
  8
0
 10
68.188
 11
68.073
 20
-27.162
 21
-27.013
  0
LINE
  8
0
 10
68.073
 11
67.967
 20
-27.013
 21
-26.857
  0
LINE
  8
0
 10
67.967
 11
67.871
 20
-26.857
 21
-26.695
  0
LINE
  8
0
 10
67.871
 11
67.786
 20
-26.695
 21
-26.527
  0
LINE
  8
0
 10
67.786
 11
67.711
 20
-26.527
 21
-26.354
  0
LINE
  8
0
 10
67.711
 11
67.647
 20
-26.354
 21
-26.177
  0
LINE
  8
0
 10
67.647
 11
67.594
 20
-26.177
 21
-25.996
  0
LINE
  8
0
 10
67.594
 11
67.553
 20
-25.996
 21
-25.812
  0
LINE
  8
0
 10
67.553
 11
67.524
 20
-25.812
 21
-25.626
  0
LINE
  8
0
 10
67.524
 11
67.506
 20
-25.626
 21
-25.438
  0
LINE
  8
0
 10
67.506
 11
67.5
 20
-25.438
 21
-25.25
  0
LINE
  8
0
 10
70
 11
70.002
 20
-24.5
 21
-24.437
  0
LINE
  8
0
 10
70.002
 11
70.008
 20
-24.437
 21
-24.375
  0
LINE
  8
0
 10
70.008
 11
70.018
 20
-24.375
 21
-24.313
  0
LINE
  8
0
 10
70.018
 11
70.031
 20
-24.313
 21
-24.251
  0
LINE
  8
0
 10
70.031
 11
70.049
 20
-24.251
 21
-24.191
  0
LINE
  8
0
 10
70.049
 11
70.07
 20
-24.191
 21
-24.132
  0
LINE
  8
0
 10
70.07
 11
70.095
 20
-24.132
 21
-24.074
  0
LINE
  8
0
 10
70.095
 11
70.124
 20
-24.074
 21
-24.018
  0
LINE
  8
0
 10
70.124
 11
70.156
 20
-24.018
 21
-23.964
  0
LINE
  8
0
 10
70.156
 11
70.191
 20
-23.964
 21
-23.912
  0
LINE
  8
0
 10
70.191
 11
70.229
 20
-23.912
 21
-23.863
  0
LINE
  8
0
 10
70.229
 11
70.271
 20
-23.863
 21
-23.815
  0
LINE
  8
0
 10
70.271
 11
70.315
 20
-23.815
 21
-23.771
  0
LINE
  8
0
 10
70.315
 11
70.363
 20
-23.771
 21
-23.729
  0
LINE
  8
0
 10
70.363
 11
70.412
 20
-23.729
 21
-23.691
  0
LINE
  8
0
 10
70.412
 11
70.464
 20
-23.691
 21
-23.656
  0
LINE
  8
0
 10
70.464
 11
70.518
 20
-23.656
 21
-23.624
  0
LINE
  8
0
 10
70.518
 11
70.574
 20
-23.624
 21
-23.595
  0
LINE
  8
0
 10
70.574
 11
70.632
 20
-23.595
 21
-23.57
  0
LINE
  8
0
 10
70.632
 11
70.691
 20
-23.57
 21
-23.549
  0
LINE
  8
0
 10
70.691
 11
70.751
 20
-23.549
 21
-23.531
  0
LINE
  8
0
 10
70.751
 11
70.813
 20
-23.531
 21
-23.518
  0
LINE
  8
0
 10
70.813
 11
70.875
 20
-23.518
 21
-23.508
  0
LINE
  8
0
 10
70.875
 11
70.937
 20
-23.508
 21
-23.502
  0
LINE
  8
0
 10
70.937
 11
71
 20
-23.502
 21
-23.5
  0
LINE
  8
0
 10
71
 11
71.063
 20
-23.5
 21
-23.502
  0
LINE
  8
0
 10
71.063
 11
71.125
 20
-23.502
 21
-23.508
  0
LINE
  8
0
 10
71.125
 11
71.187
 20
-23.508
 21
-23.518
  0
LINE
  8
0
 10
71.187
 11
71.249
 20
-23.518
 21
-23.531
  0
LINE
  8
0
 10
71.249
 11
71.309
 20
-23.531
 21
-23.549
  0
LINE
  8
0
 10
71.309
 11
71.368
 20
-23.549
 21
-23.57
  0
LINE
  8
0
 10
71.368
 11
71.426
 20
-23.57
 21
-23.595
  0
LINE
  8
0
 10
71.426
 11
71.482
 20
-23.595
 21
-23.624
  0
LINE
  8
0
 10
71.482
 11
71.536
 20
-23.624
 21
-23.656
  0
LINE
  8
0
 10
71.536
 11
71.588
 20
-23.656
 21
-23.691
  0
LINE
  8
0
 10
71.588
 11
71.637
 20
-23.691
 21
-23.729
  0
LINE
  8
0
 10
71.637
 11
71.685
 20
-23.729
 21
-23.771
  0
LINE
  8
0
 10
71.685
 11
71.729
 20
-23.771
 21
-23.815
  0
LINE
  8
0
 10
71.729
 11
71.771
 20
-23.815
 21
-23.863
  0
LINE
  8
0
 10
71.771
 11
71.809
 20
-23.863
 21
-23.912
  0
LINE
  8
0
 10
71.809
 11
71.844
 20
-23.912
 21
-23.964
  0
LINE
  8
0
 10
71.844
 11
71.876
 20
-23.964
 21
-24.018
  0
LINE
  8
0
 10
71.876
 11
71.905
 20
-24.018
 21
-24.074
  0
LINE
  8
0
 10
71.905
 11
71.93
 20
-24.074
 21
-24.132
  0
LINE
  8
0
 10
71.93
 11
71.951
 20
-24.132
 21
-24.191
  0
LINE
  8
0
 10
71.951
 11
71.969
 20
-24.191
 21
-24.251
  0
LINE
  8
0
 10
71.969
 11
71.982
 20
-24.251
 21
-24.313
  0
LINE
  8
0
 10
71.982
 11
71.992
 20
-24.313
 21
-24.375
  0
LINE
  8
0
 10
71.992
 11
71.998
 20
-24.375
 21
-24.437
  0
LINE
  8
0
 10
71.998
 11
72
 20
-24.437
 21
-24.5
  0
LINE
  8
0
 10
72
 11
71.998
 20
-24.5
 21
-24.563
  0
LINE
  8
0
 10
71.998
 11
71.992
 20
-24.563
 21
-24.625
  0
LINE
  8
0
 10
71.992
 11
71.982
 20
-24.625
 21
-24.687
  0
LINE
  8
0
 10
71.982
 11
71.969
 20
-24.687
 21
-24.749
  0
LINE
  8
0
 10
71.969
 11
71.951
 20
-24.749
 21
-24.809
  0
LINE
  8
0
 10
71.951
 11
71.93
 20
-24.809
 21
-24.868
  0
LINE
  8
0
 10
71.93
 11
71.905
 20
-24.868
 21
-24.926
  0
LINE
  8
0
 10
71.905
 11
71.876
 20
-24.926
 21
-24.982
  0
LINE
  8
0
 10
71.876
 11
71.844
 20
-24.982
 21
-25.036
  0
LINE
  8
0
 10
71.844
 11
71.809
 20
-25.036
 21
-25.088
  0
LINE
  8
0
 10
71.809
 11
71.771
 20
-25.088
 21
-25.137
  0
LINE
  8
0
 10
71.771
 11
71.729
 20
-25.137
 21
-25.185
  0
LINE
  8
0
 10
71.729
 11
71.685
 20
-25.185
 21
-25.229
  0
LINE
  8
0
 10
71.685
 11
71.637
 20
-25.229
 21
-25.271
  0
LINE
  8
0
 10
71.637
 11
71.588
 20
-25.271
 21
-25.309
  0
LINE
  8
0
 10
71.588
 11
71.536
 20
-25.309
 21
-25.344
  0
LINE
  8
0
 10
71.536
 11
71.482
 20
-25.344
 21
-25.376
  0
LINE
  8
0
 10
71.482
 11
71.426
 20
-25.376
 21
-25.405
  0
LINE
  8
0
 10
71.426
 11
71.368
 20
-25.405
 21
-25.43
  0
LINE
  8
0
 10
71.368
 11
71.309
 20
-25.43
 21
-25.451
  0
LINE
  8
0
 10
71.309
 11
71.249
 20
-25.451
 21
-25.469
  0
LINE
  8
0
 10
71.249
 11
71.187
 20
-25.469
 21
-25.482
  0
LINE
  8
0
 10
71.187
 11
71.125
 20
-25.482
 21
-25.492
  0
LINE
  8
0
 10
71.125
 11
71.063
 20
-25.492
 21
-25.498
  0
LINE
  8
0
 10
71.063
 11
71
 20
-25.498
 21
-25.5
  0
LINE
  8
0
 10
71
 11
70.937
 20
-25.5
 21
-25.498
  0
LINE
  8
0
 10
70.937
 11
70.875
 20
-25.498
 21
-25.492
  0
LINE
  8
0
 10
70.875
 11
70.813
 20
-25.492
 21
-25.482
  0
LINE
  8
0
 10
70.813
 11
70.751
 20
-25.482
 21
-25.469
  0
LINE
  8
0
 10
70.751
 11
70.691
 20
-25.469
 21
-25.451
  0
LINE
  8
0
 10
70.691
 11
70.632
 20
-25.451
 21
-25.43
  0
LINE
  8
0
 10
70.632
 11
70.574
 20
-25.43
 21
-25.405
  0
LINE
  8
0
 10
70.574
 11
70.518
 20
-25.405
 21
-25.376
  0
LINE
  8
0
 10
70.518
 11
70.464
 20
-25.376
 21
-25.344
  0
LINE
  8
0
 10
70.464
 11
70.412
 20
-25.344
 21
-25.309
  0
LINE
  8
0
 10
70.412
 11
70.363
 20
-25.309
 21
-25.271
  0
LINE
  8
0
 10
70.363
 11
70.315
 20
-25.271
 21
-25.229
  0
LINE
  8
0
 10
70.315
 11
70.271
 20
-25.229
 21
-25.185
  0
LINE
  8
0
 10
70.271
 11
70.229
 20
-25.185
 21
-25.137
  0
LINE
  8
0
 10
70.229
 11
70.191
 20
-25.137
 21
-25.088
  0
LINE
  8
0
 10
70.191
 11
70.156
 20
-25.088
 21
-25.036
  0
LINE
  8
0
 10
70.156
 11
70.124
 20
-25.036
 21
-24.982
  0
LINE
  8
0
 10
70.124
 11
70.095
 20
-24.982
 21
-24.926
  0
LINE
  8
0
 10
70.095
 11
70.07
 20
-24.926
 21
-24.868
  0
LINE
  8
0
 10
70.07
 11
70.049
 20
-24.868
 21
-24.809
  0
LINE
  8
0
 10
70.049
 11
70.031
 20
-24.809
 21
-24.749
  0
LINE
  8
0
 10
70.031
 11
70.018
 20
-24.749
 21
-24.687
  0
LINE
  8
0
 10
70.018
 11
70.008
 20
-24.687
 21
-24.625
  0
LINE
  8
0
 10
70.008
 11
70.002
 20
-24.625
 21
-24.563
  0
LINE
  8
0
 10
70.002
 11
70
 20
-24.563
 21
-24.5
  0
LINE
  8
0
 10
70
 11
70.002
 20
24.5
 21
24.563
  0
LINE
  8
0
 10
70.002
 11
70.008
 20
24.563
 21
24.625
  0
LINE
  8
0
 10
70.008
 11
70.018
 20
24.625
 21
24.687
  0
LINE
  8
0
 10
70.018
 11
70.031
 20
24.687
 21
24.749
  0
LINE
  8
0
 10
70.031
 11
70.049
 20
24.749
 21
24.809
  0
LINE
  8
0
 10
70.049
 11
70.07
 20
24.809
 21
24.868
  0
LINE
  8
0
 10
70.07
 11
70.095
 20
24.868
 21
24.926
  0
LINE
  8
0
 10
70.095
 11
70.124
 20
24.926
 21
24.982
  0
LINE
  8
0
 10
70.124
 11
70.156
 20
24.982
 21
25.036
  0
LINE
  8
0
 10
70.156
 11
70.191
 20
25.036
 21
25.088
  0
LINE
  8
0
 10
70.191
 11
70.229
 20
25.088
 21
25.137
  0
LINE
  8
0
 10
70.229
 11
70.271
 20
25.137
 21
25.185
  0
LINE
  8
0
 10
70.271
 11
70.315
 20
25.185
 21
25.229
  0
LINE
  8
0
 10
70.315
 11
70.363
 20
25.229
 21
25.271
  0
LINE
  8
0
 10
70.363
 11
70.412
 20
25.271
 21
25.309
  0
LINE
  8
0
 10
70.412
 11
70.464
 20
25.309
 21
25.344
  0
LINE
  8
0
 10
70.464
 11
70.518
 20
25.344
 21
25.376
  0
LINE
  8
0
 10
70.518
 11
70.574
 20
25.376
 21
25.405
  0
LINE
  8
0
 10
70.574
 11
70.632
 20
25.405
 21
25.43
  0
LINE
  8
0
 10
70.632
 11
70.691
 20
25.43
 21
25.451
  0
LINE
  8
0
 10
70.691
 11
70.751
 20
25.451
 21
25.469
  0
LINE
  8
0
 10
70.751
 11
70.813
 20
25.469
 21
25.482
  0
LINE
  8
0
 10
70.813
 11
70.875
 20
25.482
 21
25.492
  0
LINE
  8
0
 10
70.875
 11
70.937
 20
25.492
 21
25.498
  0
LINE
  8
0
 10
70.937
 11
71
 20
25.498
 21
25.5
  0
LINE
  8
0
 10
71
 11
71.063
 20
25.5
 21
25.498
  0
LINE
  8
0
 10
71.063
 11
71.125
 20
25.498
 21
25.492
  0
LINE
  8
0
 10
71.125
 11
71.187
 20
25.492
 21
25.482
  0
LINE
  8
0
 10
71.187
 11
71.249
 20
25.482
 21
25.469
  0
LINE
  8
0
 10
71.249
 11
71.309
 20
25.469
 21
25.451
  0
LINE
  8
0
 10
71.309
 11
71.368
 20
25.451
 21
25.43
  0
LINE
  8
0
 10
71.368
 11
71.426
 20
25.43
 21
25.405
  0
LINE
  8
0
 10
71.426
 11
71.482
 20
25.405
 21
25.376
  0
LINE
  8
0
 10
71.482
 11
71.536
 20
25.376
 21
25.344
  0
LINE
  8
0
 10
71.536
 11
71.588
 20
25.344
 21
25.309
  0
LINE
  8
0
 10
71.588
 11
71.637
 20
25.309
 21
25.271
  0
LINE
  8
0
 10
71.637
 11
71.685
 20
25.271
 21
25.229
  0
LINE
  8
0
 10
71.685
 11
71.729
 20
25.229
 21
25.185
  0
LINE
  8
0
 10
71.729
 11
71.771
 20
25.185
 21
25.137
  0
LINE
  8
0
 10
71.771
 11
71.809
 20
25.137
 21
25.088
  0
LINE
  8
0
 10
71.809
 11
71.844
 20
25.088
 21
25.036
  0
LINE
  8
0
 10
71.844
 11
71.876
 20
25.036
 21
24.982
  0
LINE
  8
0
 10
71.876
 11
71.905
 20
24.982
 21
24.926
  0
LINE
  8
0
 10
71.905
 11
71.93
 20
24.926
 21
24.868
  0
LINE
  8
0
 10
71.93
 11
71.951
 20
24.868
 21
24.809
  0
LINE
  8
0
 10
71.951
 11
71.969
 20
24.809
 21
24.749
  0
LINE
  8
0
 10
71.969
 11
71.982
 20
24.749
 21
24.687
  0
LINE
  8
0
 10
71.982
 11
71.992
 20
24.687
 21
24.625
  0
LINE
  8
0
 10
71.992
 11
71.998
 20
24.625
 21
24.563
  0
LINE
  8
0
 10
71.998
 11
72
 20
24.563
 21
24.5
  0
LINE
  8
0
 10
72
 11
71.998
 20
24.5
 21
24.437
  0
LINE
  8
0
 10
71.998
 11
71.992
 20
24.437
 21
24.375
  0
LINE
  8
0
 10
71.992
 11
71.982
 20
24.375
 21
24.313
  0
LINE
  8
0
 10
71.982
 11
71.969
 20
24.313
 21
24.251
  0
LINE
  8
0
 10
71.969
 11
71.951
 20
24.251
 21
24.191
  0
LINE
  8
0
 10
71.951
 11
71.93
 20
24.191
 21
24.132
  0
LINE
  8
0
 10
71.93
 11
71.905
 20
24.132
 21
24.074
  0
LINE
  8
0
 10
71.905
 11
71.876
 20
24.074
 21
24.018
  0
LINE
  8
0
 10
71.876
 11
71.844
 20
24.018
 21
23.964
  0
LINE
  8
0
 10
71.844
 11
71.809
 20
23.964
 21
23.912
  0
LINE
  8
0
 10
71.809
 11
71.771
 20
23.912
 21
23.863
  0
LINE
  8
0
 10
71.771
 11
71.729
 20
23.863
 21
23.815
  0
LINE
  8
0
 10
71.729
 11
71.685
 20
23.815
 21
23.771
  0
LINE
  8
0
 10
71.685
 11
71.637
 20
23.771
 21
23.729
  0
LINE
  8
0
 10
71.637
 11
71.588
 20
23.729
 21
23.691
  0
LINE
  8
0
 10
71.588
 11
71.536
 20
23.691
 21
23.656
  0
LINE
  8
0
 10
71.536
 11
71.482
 20
23.656
 21
23.624
  0
LINE
  8
0
 10
71.482
 11
71.426
 20
23.624
 21
23.595
  0
LINE
  8
0
 10
71.426
 11
71.368
 20
23.595
 21
23.57
  0
LINE
  8
0
 10
71.368
 11
71.309
 20
23.57
 21
23.549
  0
LINE
  8
0
 10
71.309
 11
71.249
 20
23.549
 21
23.531
  0
LINE
  8
0
 10
71.249
 11
71.187
 20
23.531
 21
23.518
  0
LINE
  8
0
 10
71.187
 11
71.125
 20
23.518
 21
23.508
  0
LINE
  8
0
 10
71.125
 11
71.063
 20
23.508
 21
23.502
  0
LINE
  8
0
 10
71.063
 11
71
 20
23.502
 21
23.5
  0
LINE
  8
0
 10
71
 11
70.937
 20
23.5
 21
23.502
  0
LINE
  8
0
 10
70.937
 11
70.875
 20
23.502
 21
23.508
  0
LINE
  8
0
 10
70.875
 11
70.813
 20
23.508
 21
23.518
  0
LINE
  8
0
 10
70.813
 11
70.751
 20
23.518
 21
23.531
  0
LINE
  8
0
 10
70.751
 11
70.691
 20
23.531
 21
23.549
  0
LINE
  8
0
 10
70.691
 11
70.632
 20
23.549
 21
23.57
  0
LINE
  8
0
 10
70.632
 11
70.574
 20
23.57
 21
23.595
  0
LINE
  8
0
 10
70.574
 11
70.518
 20
23.595
 21
23.624
  0
LINE
  8
0
 10
70.518
 11
70.464
 20
23.624
 21
23.656
  0
LINE
  8
0
 10
70.464
 11
70.412
 20
23.656
 21
23.691
  0
LINE
  8
0
 10
70.412
 11
70.363
 20
23.691
 21
23.729
  0
LINE
  8
0
 10
70.363
 11
70.315
 20
23.729
 21
23.771
  0
LINE
  8
0
 10
70.315
 11
70.271
 20
23.771
 21
23.815
  0
LINE
  8
0
 10
70.271
 11
70.229
 20
23.815
 21
23.863
  0
LINE
  8
0
 10
70.229
 11
70.191
 20
23.863
 21
23.912
  0
LINE
  8
0
 10
70.191
 11
70.156
 20
23.912
 21
23.964
  0
LINE
  8
0
 10
70.156
 11
70.124
 20
23.964
 21
24.018
  0
LINE
  8
0
 10
70.124
 11
70.095
 20
24.018
 21
24.074
  0
LINE
  8
0
 10
70.095
 11
70.07
 20
24.074
 21
24.132
  0
LINE
  8
0
 10
70.07
 11
70.049
 20
24.132
 21
24.191
  0
LINE
  8
0
 10
70.049
 11
70.031
 20
24.191
 21
24.251
  0
LINE
  8
0
 10
70.031
 11
70.018
 20
24.251
 21
24.313
  0
LINE
  8
0
 10
70.018
 11
70.008
 20
24.313
 21
24.375
  0
LINE
  8
0
 10
70.008
 11
70.002
 20
24.375
 21
24.437
  0
LINE
  8
0
 10
70.002
 11
70
 20
24.437
 21
24.5
  0
LINE
  8
0
 10
128
 11
128.002
 20
-24.5
 21
-24.437
  0
LINE
  8
0
 10
128.002
 11
128.008
 20
-24.437
 21
-24.375
  0
LINE
  8
0
 10
128.008
 11
128.018
 20
-24.375
 21
-24.313
  0
LINE
  8
0
 10
128.018
 11
128.031
 20
-24.313
 21
-24.251
  0
LINE
  8
0
 10
128.031
 11
128.049
 20
-24.251
 21
-24.191
  0
LINE
  8
0
 10
128.049
 11
128.07
 20
-24.191
 21
-24.132
  0
LINE
  8
0
 10
128.07
 11
128.095
 20
-24.132
 21
-24.074
  0
LINE
  8
0
 10
128.095
 11
128.124
 20
-24.074
 21
-24.018
  0
LINE
  8
0
 10
128.124
 11
128.156
 20
-24.018
 21
-23.964
  0
LINE
  8
0
 10
128.156
 11
128.191
 20
-23.964
 21
-23.912
  0
LINE
  8
0
 10
128.191
 11
128.229
 20
-23.912
 21
-23.863
  0
LINE
  8
0
 10
128.229
 11
128.271
 20
-23.863
 21
-23.815
  0
LINE
  8
0
 10
128.271
 11
128.315
 20
-23.815
 21
-23.771
  0
LINE
  8
0
 10
128.315
 11
128.363
 20
-23.771
 21
-23.729
  0
LINE
  8
0
 10
128.363
 11
128.412
 20
-23.729
 21
-23.691
  0
LINE
  8
0
 10
128.412
 11
128.464
 20
-23.691
 21
-23.656
  0
LINE
  8
0
 10
128.464
 11
128.518
 20
-23.656
 21
-23.624
  0
LINE
  8
0
 10
128.518
 11
128.574
 20
-23.624
 21
-23.595
  0
LINE
  8
0
 10
128.574
 11
128.632
 20
-23.595
 21
-23.57
  0
LINE
  8
0
 10
128.632
 11
128.691
 20
-23.57
 21
-23.549
  0
LINE
  8
0
 10
128.691
 11
128.751
 20
-23.549
 21
-23.531
  0
LINE
  8
0
 10
128.751
 11
128.813
 20
-23.531
 21
-23.518
  0
LINE
  8
0
 10
128.813
 11
128.875
 20
-23.518
 21
-23.508
  0
LINE
  8
0
 10
128.875
 11
128.937
 20
-23.508
 21
-23.502
  0
LINE
  8
0
 10
128.937
 11
129
 20
-23.502
 21
-23.5
  0
LINE
  8
0
 10
129
 11
129.063
 20
-23.5
 21
-23.502
  0
LINE
  8
0
 10
129.063
 11
129.125
 20
-23.502
 21
-23.508
  0
LINE
  8
0
 10
129.125
 11
129.187
 20
-23.508
 21
-23.518
  0
LINE
  8
0
 10
129.187
 11
129.249
 20
-23.518
 21
-23.531
  0
LINE
  8
0
 10
129.249
 11
129.309
 20
-23.531
 21
-23.549
  0
LINE
  8
0
 10
129.309
 11
129.368
 20
-23.549
 21
-23.57
  0
LINE
  8
0
 10
129.368
 11
129.426
 20
-23.57
 21
-23.595
  0
LINE
  8
0
 10
129.426
 11
129.482
 20
-23.595
 21
-23.624
  0
LINE
  8
0
 10
129.482
 11
129.536
 20
-23.624
 21
-23.656
  0
LINE
  8
0
 10
129.536
 11
129.588
 20
-23.656
 21
-23.691
  0
LINE
  8
0
 10
129.588
 11
129.637
 20
-23.691
 21
-23.729
  0
LINE
  8
0
 10
129.637
 11
129.685
 20
-23.729
 21
-23.771
  0
LINE
  8
0
 10
129.685
 11
129.729
 20
-23.771
 21
-23.815
  0
LINE
  8
0
 10
129.729
 11
129.771
 20
-23.815
 21
-23.863
  0
LINE
  8
0
 10
129.771
 11
129.809
 20
-23.863
 21
-23.912
  0
LINE
  8
0
 10
129.809
 11
129.844
 20
-23.912
 21
-23.964
  0
LINE
  8
0
 10
129.844
 11
129.876
 20
-23.964
 21
-24.018
  0
LINE
  8
0
 10
129.876
 11
129.905
 20
-24.018
 21
-24.074
  0
LINE
  8
0
 10
129.905
 11
129.93
 20
-24.074
 21
-24.132
  0
LINE
  8
0
 10
129.93
 11
129.951
 20
-24.132
 21
-24.191
  0
LINE
  8
0
 10
129.951
 11
129.969
 20
-24.191
 21
-24.251
  0
LINE
  8
0
 10
129.969
 11
129.982
 20
-24.251
 21
-24.313
  0
LINE
  8
0
 10
129.982
 11
129.992
 20
-24.313
 21
-24.375
  0
LINE
  8
0
 10
129.992
 11
129.998
 20
-24.375
 21
-24.437
  0
LINE
  8
0
 10
129.998
 11
130
 20
-24.437
 21
-24.5
  0
LINE
  8
0
 10
130
 11
129.998
 20
-24.5
 21
-24.563
  0
LINE
  8
0
 10
129.998
 11
129.992
 20
-24.563
 21
-24.625
  0
LINE
  8
0
 10
129.992
 11
129.982
 20
-24.625
 21
-24.687
  0
LINE
  8
0
 10
129.982
 11
129.969
 20
-24.687
 21
-24.749
  0
LINE
  8
0
 10
129.969
 11
129.951
 20
-24.749
 21
-24.809
  0
LINE
  8
0
 10
129.951
 11
129.93
 20
-24.809
 21
-24.868
  0
LINE
  8
0
 10
129.93
 11
129.905
 20
-24.868
 21
-24.926
  0
LINE
  8
0
 10
129.905
 11
129.876
 20
-24.926
 21
-24.982
  0
LINE
  8
0
 10
129.876
 11
129.844
 20
-24.982
 21
-25.036
  0
LINE
  8
0
 10
129.844
 11
129.809
 20
-25.036
 21
-25.088
  0
LINE
  8
0
 10
129.809
 11
129.771
 20
-25.088
 21
-25.137
  0
LINE
  8
0
 10
129.771
 11
129.729
 20
-25.137
 21
-25.185
  0
LINE
  8
0
 10
129.729
 11
129.685
 20
-25.185
 21
-25.229
  0
LINE
  8
0
 10
129.685
 11
129.637
 20
-25.229
 21
-25.271
  0
LINE
  8
0
 10
129.637
 11
129.588
 20
-25.271
 21
-25.309
  0
LINE
  8
0
 10
129.588
 11
129.536
 20
-25.309
 21
-25.344
  0
LINE
  8
0
 10
129.536
 11
129.482
 20
-25.344
 21
-25.376
  0
LINE
  8
0
 10
129.482
 11
129.426
 20
-25.376
 21
-25.405
  0
LINE
  8
0
 10
129.426
 11
129.368
 20
-25.405
 21
-25.43
  0
LINE
  8
0
 10
129.368
 11
129.309
 20
-25.43
 21
-25.451
  0
LINE
  8
0
 10
129.309
 11
129.249
 20
-25.451
 21
-25.469
  0
LINE
  8
0
 10
129.249
 11
129.187
 20
-25.469
 21
-25.482
  0
LINE
  8
0
 10
129.187
 11
129.125
 20
-25.482
 21
-25.492
  0
LINE
  8
0
 10
129.125
 11
129.063
 20
-25.492
 21
-25.498
  0
LINE
  8
0
 10
129.063
 11
129
 20
-25.498
 21
-25.5
  0
LINE
  8
0
 10
129
 11
128.937
 20
-25.5
 21
-25.498
  0
LINE
  8
0
 10
128.937
 11
128.875
 20
-25.498
 21
-25.492
  0
LINE
  8
0
 10
128.875
 11
128.813
 20
-25.492
 21
-25.482
  0
LINE
  8
0
 10
128.813
 11
128.751
 20
-25.482
 21
-25.469
  0
LINE
  8
0
 10
128.751
 11
128.691
 20
-25.469
 21
-25.451
  0
LINE
  8
0
 10
128.691
 11
128.632
 20
-25.451
 21
-25.43
  0
LINE
  8
0
 10
128.632
 11
128.574
 20
-25.43
 21
-25.405
  0
LINE
  8
0
 10
128.574
 11
128.518
 20
-25.405
 21
-25.376
  0
LINE
  8
0
 10
128.518
 11
128.464
 20
-25.376
 21
-25.344
  0
LINE
  8
0
 10
128.464
 11
128.412
 20
-25.344
 21
-25.309
  0
LINE
  8
0
 10
128.412
 11
128.363
 20
-25.309
 21
-25.271
  0
LINE
  8
0
 10
128.363
 11
128.315
 20
-25.271
 21
-25.229
  0
LINE
  8
0
 10
128.315
 11
128.271
 20
-25.229
 21
-25.185
  0
LINE
  8
0
 10
128.271
 11
128.229
 20
-25.185
 21
-25.137
  0
LINE
  8
0
 10
128.229
 11
128.191
 20
-25.137
 21
-25.088
  0
LINE
  8
0
 10
128.191
 11
128.156
 20
-25.088
 21
-25.036
  0
LINE
  8
0
 10
128.156
 11
128.124
 20
-25.036
 21
-24.982
  0
LINE
  8
0
 10
128.124
 11
128.095
 20
-24.982
 21
-24.926
  0
LINE
  8
0
 10
128.095
 11
128.07
 20
-24.926
 21
-24.868
  0
LINE
  8
0
 10
128.07
 11
128.049
 20
-24.868
 21
-24.809
  0
LINE
  8
0
 10
128.049
 11
128.031
 20
-24.809
 21
-24.749
  0
LINE
  8
0
 10
128.031
 11
128.018
 20
-24.749
 21
-24.687
  0
LINE
  8
0
 10
128.018
 11
128.008
 20
-24.687
 21
-24.625
  0
LINE
  8
0
 10
128.008
 11
128.002
 20
-24.625
 21
-24.563
  0
LINE
  8
0
 10
128.002
 11
128
 20
-24.563
 21
-24.5
  0
LINE
  8
0
 10
128
 11
128.002
 20
24.5
 21
24.563
  0
LINE
  8
0
 10
128.002
 11
128.008
 20
24.563
 21
24.625
  0
LINE
  8
0
 10
128.008
 11
128.018
 20
24.625
 21
24.687
  0
LINE
  8
0
 10
128.018
 11
128.031
 20
24.687
 21
24.749
  0
LINE
  8
0
 10
128.031
 11
128.049
 20
24.749
 21
24.809
  0
LINE
  8
0
 10
128.049
 11
128.07
 20
24.809
 21
24.868
  0
LINE
  8
0
 10
128.07
 11
128.095
 20
24.868
 21
24.926
  0
LINE
  8
0
 10
128.095
 11
128.124
 20
24.926
 21
24.982
  0
LINE
  8
0
 10
128.124
 11
128.156
 20
24.982
 21
25.036
  0
LINE
  8
0
 10
128.156
 11
128.191
 20
25.036
 21
25.088
  0
LINE
  8
0
 10
128.191
 11
128.229
 20
25.088
 21
25.137
  0
LINE
  8
0
 10
128.229
 11
128.271
 20
25.137
 21
25.185
  0
LINE
  8
0
 10
128.271
 11
128.315
 20
25.185
 21
25.229
  0
LINE
  8
0
 10
128.315
 11
128.363
 20
25.229
 21
25.271
  0
LINE
  8
0
 10
128.363
 11
128.412
 20
25.271
 21
25.309
  0
LINE
  8
0
 10
128.412
 11
128.464
 20
25.309
 21
25.344
  0
LINE
  8
0
 10
128.464
 11
128.518
 20
25.344
 21
25.376
  0
LINE
  8
0
 10
128.518
 11
128.574
 20
25.376
 21
25.405
  0
LINE
  8
0
 10
128.574
 11
128.632
 20
25.405
 21
25.43
  0
LINE
  8
0
 10
128.632
 11
128.691
 20
25.43
 21
25.451
  0
LINE
  8
0
 10
128.691
 11
128.751
 20
25.451
 21
25.469
  0
LINE
  8
0
 10
128.751
 11
128.813
 20
25.469
 21
25.482
  0
LINE
  8
0
 10
128.813
 11
128.875
 20
25.482
 21
25.492
  0
LINE
  8
0
 10
128.875
 11
128.937
 20
25.492
 21
25.498
  0
LINE
  8
0
 10
128.937
 11
129
 20
25.498
 21
25.5
  0
LINE
  8
0
 10
129
 11
129.063
 20
25.5
 21
25.498
  0
LINE
  8
0
 10
129.063
 11
129.125
 20
25.498
 21
25.492
  0
LINE
  8
0
 10
129.125
 11
129.187
 20
25.492
 21
25.482
  0
LINE
  8
0
 10
129.187
 11
129.249
 20
25.482
 21
25.469
  0
LINE
  8
0
 10
129.249
 11
129.309
 20
25.469
 21
25.451
  0
LINE
  8
0
 10
129.309
 11
129.368
 20
25.451
 21
25.43
  0
LINE
  8
0
 10
129.368
 11
129.426
 20
25.43
 21
25.405
  0
LINE
  8
0
 10
129.426
 11
129.482
 20
25.405
 21
25.376
  0
LINE
  8
0
 10
129.482
 11
129.536
 20
25.376
 21
25.344
  0
LINE
  8
0
 10
129.536
 11
129.588
 20
25.344
 21
25.309
  0
LINE
  8
0
 10
129.588
 11
129.637
 20
25.309
 21
25.271
  0
LINE
  8
0
 10
129.637
 11
129.685
 20
25.271
 21
25.229
  0
LINE
  8
0
 10
129.685
 11
129.729
 20
25.229
 21
25.185
  0
LINE
  8
0
 10
129.729
 11
129.771
 20
25.185
 21
25.137
  0
LINE
  8
0
 10
129.771
 11
129.809
 20
25.137
 21
25.088
  0
LINE
  8
0
 10
129.809
 11
129.844
 20
25.088
 21
25.036
  0
LINE
  8
0
 10
129.844
 11
129.876
 20
25.036
 21
24.982
  0
LINE
  8
0
 10
129.876
 11
129.905
 20
24.982
 21
24.926
  0
LINE
  8
0
 10
129.905
 11
129.93
 20
24.926
 21
24.868
  0
LINE
  8
0
 10
129.93
 11
129.951
 20
24.868
 21
24.809
  0
LINE
  8
0
 10
129.951
 11
129.969
 20
24.809
 21
24.749
  0
LINE
  8
0
 10
129.969
 11
129.982
 20
24.749
 21
24.687
  0
LINE
  8
0
 10
129.982
 11
129.992
 20
24.687
 21
24.625
  0
LINE
  8
0
 10
129.992
 11
129.998
 20
24.625
 21
24.563
  0
LINE
  8
0
 10
129.998
 11
130
 20
24.563
 21
24.5
  0
LINE
  8
0
 10
130
 11
129.998
 20
24.5
 21
24.437
  0
LINE
  8
0
 10
129.998
 11
129.992
 20
24.437
 21
24.375
  0
LINE
  8
0
 10
129.992
 11
129.982
 20
24.375
 21
24.313
  0
LINE
  8
0
 10
129.982
 11
129.969
 20
24.313
 21
24.251
  0
LINE
  8
0
 10
129.969
 11
129.951
 20
24.251
 21
24.191
  0
LINE
  8
0
 10
129.951
 11
129.93
 20
24.191
 21
24.132
  0
LINE
  8
0
 10
129.93
 11
129.905
 20
24.132
 21
24.074
  0
LINE
  8
0
 10
129.905
 11
129.876
 20
24.074
 21
24.018
  0
LINE
  8
0
 10
129.876
 11
129.844
 20
24.018
 21
23.964
  0
LINE
  8
0
 10
129.844
 11
129.809
 20
23.964
 21
23.912
  0
LINE
  8
0
 10
129.809
 11
129.771
 20
23.912
 21
23.863
  0
LINE
  8
0
 10
129.771
 11
129.729
 20
23.863
 21
23.815
  0
LINE
  8
0
 10
129.729
 11
129.685
 20
23.815
 21
23.771
  0
LINE
  8
0
 10
129.685
 11
129.637
 20
23.771
 21
23.729
  0
LINE
  8
0
 10
129.637
 11
129.588
 20
23.729
 21
23.691
  0
LINE
  8
0
 10
129.588
 11
129.536
 20
23.691
 21
23.656
  0
LINE
  8
0
 10
129.536
 11
129.482
 20
23.656
 21
23.624
  0
LINE
  8
0
 10
129.482
 11
129.426
 20
23.624
 21
23.595
  0
LINE
  8
0
 10
129.426
 11
129.368
 20
23.595
 21
23.57
  0
LINE
  8
0
 10
129.368
 11
129.309
 20
23.57
 21
23.549
  0
LINE
  8
0
 10
129.309
 11
129.249
 20
23.549
 21
23.531
  0
LINE
  8
0
 10
129.249
 11
129.187
 20
23.531
 21
23.518
  0
LINE
  8
0
 10
129.187
 11
129.125
 20
23.518
 21
23.508
  0
LINE
  8
0
 10
129.125
 11
129.063
 20
23.508
 21
23.502
  0
LINE
  8
0
 10
129.063
 11
129
 20
23.502
 21
23.5
  0
LINE
  8
0
 10
129
 11
128.937
 20
23.5
 21
23.502
  0
LINE
  8
0
 10
128.937
 11
128.875
 20
23.502
 21
23.508
  0
LINE
  8
0
 10
128.875
 11
128.813
 20
23.508
 21
23.518
  0
LINE
  8
0
 10
128.813
 11
128.751
 20
23.518
 21
23.531
  0
LINE
  8
0
 10
128.751
 11
128.691
 20
23.531
 21
23.549
  0
LINE
  8
0
 10
128.691
 11
128.632
 20
23.549
 21
23.57
  0
LINE
  8
0
 10
128.632
 11
128.574
 20
23.57
 21
23.595
  0
LINE
  8
0
 10
128.574
 11
128.518
 20
23.595
 21
23.624
  0
LINE
  8
0
 10
128.518
 11
128.464
 20
23.624
 21
23.656
  0
LINE
  8
0
 10
128.464
 11
128.412
 20
23.656
 21
23.691
  0
LINE
  8
0
 10
128.412
 11
128.363
 20
23.691
 21
23.729
  0
LINE
  8
0
 10
128.363
 11
128.315
 20
23.729
 21
23.771
  0
LINE
  8
0
 10
128.315
 11
128.271
 20
23.771
 21
23.815
  0
LINE
  8
0
 10
128.271
 11
128.229
 20
23.815
 21
23.863
  0
LINE
  8
0
 10
128.229
 11
128.191
 20
23.863
 21
23.912
  0
LINE
  8
0
 10
128.191
 11
128.156
 20
23.912
 21
23.964
  0
LINE
  8
0
 10
128.156
 11
128.124
 20
23.964
 21
24.018
  0
LINE
  8
0
 10
128.124
 11
128.095
 20
24.018
 21
24.074
  0
LINE
  8
0
 10
128.095
 11
128.07
 20
24.074
 21
24.132
  0
LINE
  8
0
 10
128.07
 11
128.049
 20
24.132
 21
24.191
  0
LINE
  8
0
 10
128.049
 11
128.031
 20
24.191
 21
24.251
  0
LINE
  8
0
 10
128.031
 11
128.018
 20
24.251
 21
24.313
  0
LINE
  8
0
 10
128.018
 11
128.008
 20
24.313
 21
24.375
  0
LINE
  8
0
 10
128.008
 11
128.002
 20
24.375
 21
24.437
  0
LINE
  8
0
 10
128.002
 11
128
 20
24.437
 21
24.5
  0
ENDSEC
  0
SECTION
  2
OBJECTS
  0
DICTIONARY
  0
ENDSEC
  0
EOF
