<?xml version="1.0" standalone="no"?>
<!DOCTYPE svg PUBLIC "-//W3C//DTD SVG 1.1//EN" "http://www.w3.org/Graphics/SVG/1.1/DTD/svg11.dtd">
<svg width="73" height="58" viewBox="-40 -29 73 58" xmlns="http://www.w3.org/2000/svg" version="1.1">
<title>OpenSCAD Model</title>
<path d="
M -19.9326,28.4907 L -19.8701,28.4636 L -19.8173,28.4206 L -19.778,28.365 L -19.7552,28.3009 L -19.75,28.25
 L -19.75,16 L 8.75,16 L 8.75,28.25 L 8.75928,28.3174 L 8.78639,28.3799 L 8.82936,28.4327
 L 8.88498,28.472 L 8.94914,28.4948 L 9,28.5 L 29.5079,28.4999 L 29.7119,28.493 L 29.9151,28.4733
 L 30.1167,28.4408 L 30.3158,28.3958 L 30.5117,28.3384 L 30.7037,28.2688 L 30.8908,28.1872 L 31.0725,28.0941
 L 31.248,27.9897 L 31.4166,27.8746 L 31.5776,27.7491 L 31.7304,27.6137 L 31.8744,27.469 L 32.0091,27.3155
 L 32.1338,27.1539 L 32.2482,26.9847 L 32.3517,26.8087 L 32.4439,26.6266 L 32.5245,26.4391 L 32.5932,26.2468
 L 32.6497,26.0506 L 32.6938,25.8512 L 32.7252,25.6495 L 32.744,25.4462 L 32.75,25.25 L 32.7499,-25.2579
 L 32.743,-25.4619 L 32.7233,-25.6651 L 32.6908,-25.8667 L 32.6458,-26.0658 L 32.5884,-26.2617 L 32.5188,-26.4537
 L 32.4372,-26.6408 L 32.3441,-26.8225 L 32.2397,-26.998 L 32.1246,-27.1666 L 31.9991,-27.3276 L 31.8637,-27.4804
 L 31.719,-27.6244 L 31.5655,-27.7591 L 31.4039,-27.8838 L 31.2347,-27.9982 L 31.0588,-28.1017 L 30.8766,-28.1939
 L 30.6891,-28.2745 L 30.4968,-28.3432 L 30.3006,-28.3997 L 30.1012,-28.4438 L 29.8995,-28.4752 L 29.6962,-28.494
 L 29.5,-28.5 L -29.5079,-28.4999 L -29.7119,-28.493 L -29.9151,-28.4733 L -30.1167,-28.4408 L -30.3158,-28.3958
 L -30.5117,-28.3384 L -30.7037,-28.2688 L -30.8908,-28.1872 L -31.0725,-28.0941 L -31.248,-27.9897 L -31.4166,-27.8746
 L -31.5776,-27.7491 L -31.7304,-27.6137 L -31.8744,-27.469 L -32.0091,-27.3155 L -32.1338,-27.1539 L -32.2482,-26.9847
 L -32.3517,-26.8087 L -32.4439,-26.6266 L -32.5245,-26.4391 L -32.5932,-26.2468 L -32.6497,-26.0506 L -32.6938,-25.8512
 L -32.7252,-25.6495 L -32.744,-25.4462 L -32.75,-25.25 L -32.7499,-0.529129 L -32.8278,-0.251221 L -32.8278,0.251221
 L -32.7499,0.529129 L -32.7499,9.5 L -33.5,9.5 L -33.5,10.391 L -33.7516,10.8048 L -33.972,11.5915
 L -33.972,12.4085 L -33.7516,13.1952 L -33.5,13.609 L -33.5,14.5 L -32.7499,14.5 L -32.7499,25.2579
 L -32.743,25.4619 L -32.7233,25.6651 L -32.6908,25.8667 L -32.6458,26.0658 L -32.5884,26.2617 L -32.5188,26.4537
 L -32.4372,26.6408 L -32.3441,26.8225 L -32.2397,26.998 L -32.1246,27.1666 L -31.9991,27.3276 L -31.8637,27.4804
 L -31.719,27.6244 L -31.5655,27.7591 L -31.4039,27.8838 L -31.2347,27.9982 L -31.0588,28.1017 L -30.8766,28.1939
 L -30.6891,28.2745 L -30.4968,28.3432 L -30.3006,28.3997 L -30.1012,28.4438 L -29.8995,28.4752 L -29.6962,28.494
 L -29.5,28.5 L -20,28.5 z
M -29.496,28 L -29.6727,27.9944 L -29.8447,27.9782 L -30.0151,27.9512 L -30.1841,27.9134 L -30.3497,27.8653
 L -30.5121,27.8068 L -30.6709,27.7381 L -30.8249,27.6597 L -30.9735,27.5718 L -31.1162,27.4748 L -31.2528,27.3688
 L -31.3825,27.2545 L -31.5045,27.1325 L -31.6188,27.0028 L -31.7248,26.8662 L -31.8217,26.7236 L -31.9098,26.5747
 L -31.9881,26.421 L -32.0568,26.2621 L -32.1153,26.0997 L -32.1634,25.9341 L -32.2012,25.7651 L -32.2282,25.5947
 L -32.2444,25.4227 L -32.25,25.246 L -32.25,14.6996 L -32.0046,14.8268 L -31.2047,14.993 L -30.3896,14.9372
 L -29.6198,14.6637 L -29.388,14.5 L -28.5,14.5 L -28.5,13.6365 L -28.4367,13.5587 L -28.1112,12.8094
 L -28,12 L -28.1112,11.1906 L -28.4367,10.4412 L -28.5,10.3635 L -28.5,9.5 L -29.3879,9.5
 L -29.6198,9.33633 L -30.3896,9.06274 L -31.2047,9.00699 L -32.0046,9.1732 L -32.25,9.30034 L -32.25,1.33357
 L -32.064,1.50731 L -31.6178,1.73846 L -31.1259,1.8407 L -30.6246,1.8064 L -30.1512,1.63814 L -29.7407,1.34839
 L -29.4236,0.958618 L -29.2234,0.497772 L -29.155,-0 L -29.2234,-0.497772 L -29.4236,-0.958618 L -29.7407,-1.34839
 L -30.1512,-1.63814 L -30.6246,-1.8064 L -31.1259,-1.8407 L -31.6178,-1.73846 L -32.064,-1.50731 L -32.25,-1.33357
 L -32.25,-25.246 L -32.2444,-25.4227 L -32.2282,-25.5947 L -32.2012,-25.7651 L -32.1634,-25.9341 L -32.1153,-26.0997
 L -32.0568,-26.2621 L -31.9881,-26.421 L -31.9098,-26.5747 L -31.8217,-26.7236 L -31.7248,-26.8662 L -31.6188,-27.0028
 L -31.5045,-27.1325 L -31.3825,-27.2545 L -31.2528,-27.3688 L -31.1162,-27.4748 L -30.9735,-27.5718 L -30.8249,-27.6597
 L -30.6709,-27.7381 L -30.5121,-27.8068 L -30.3497,-27.8653 L -30.1841,-27.9134 L -30.0151,-27.9512 L -29.8447,-27.9782
 L -29.6727,-27.9944 L -29.496,-28 L 29.496,-28 L 29.6727,-27.9944 L 29.8447,-27.9782 L 30.0151,-27.9512
 L 30.1841,-27.9134 L 30.3497,-27.8653 L 30.5121,-27.8068 L 30.6709,-27.7381 L 30.8249,-27.6597 L 30.9735,-27.5718
 L 31.1162,-27.4748 L 31.2528,-27.3688 L 31.3825,-27.2545 L 31.5045,-27.1325 L 31.6188,-27.0028 L 31.7248,-26.8662
 L 31.8217,-26.7236 L 31.9098,-26.5747 L 31.9881,-26.421 L 32.0568,-26.2621 L 32.1153,-26.0997 L 32.1634,-25.9341
 L 32.2012,-25.7651 L 32.2282,-25.5947 L 32.2444,-25.4227 L 32.25,-25.246 L 32.25,25.246 L 32.2444,25.4227
 L 32.2282,25.5947 L 32.2012,25.7651 L 32.1634,25.9341 L 32.1153,26.0997 L 32.0568,26.2621 L 31.9881,26.421
 L 31.9098,26.5747 L 31.8217,26.7236 L 31.7248,26.8662 L 31.6188,27.0028 L 31.5045,27.1325 L 31.3825,27.2545
 L 31.2528,27.3688 L 31.1162,27.4748 L 30.9735,27.5718 L 30.8249,27.6597 L 30.6709,27.7381 L 30.5121,27.8068
 L 30.3497,27.8653 L 30.1841,27.9134 L 30.0151,27.9512 L 29.8447,27.9782 L 29.6727,27.9944 L 29.496,28
 L 9.25,28 L 9.25,19.5 L 16,19.5 L 16,19.4918 L 26.5,19.4918 L 26.5,12.5081
 L 16,12.5081 L 16,12.5 L 9,12.5 L 9,15.5 L -20,15.5 L -20.0509,15.5052
 L -20.115,15.528 L -20.1706,15.5673 L -20.2136,15.6201 L -20.2407,15.6826 L -20.25,15.75 L -20.25,28
 z
M -28.9058,-22.8778 L -28.8041,-22.8869 L -28.7032,-22.9024 L -28.6035,-22.9242 L -28.5054,-22.9522 L -28.4091,-22.9863
 L -28.3153,-23.0264 L -28.2241,-23.0723 L -28.136,-23.1238 L -28.0513,-23.1808 L -27.9703,-23.243 L -27.8934,-23.3102
 L -27.8209,-23.382 L -27.753,-23.4582 L -27.6901,-23.5385 L -27.6323,-23.6227 L -27.5799,-23.7104 L -27.5331,-23.8011
 L -27.4921,-23.8945 L -27.4571,-23.9904 L -27.4281,-24.0883 L -27.4054,-24.1878 L -27.3889,-24.2885 L -27.3788,-24.3901
 L -27.3753,-24.5 L -22.5,-24.5 L -22.5,-27 L -30,-27 L -30,-25.7798 L -30.0297,-25.757
 L -30.1066,-25.6898 L -30.1791,-25.618 L -30.247,-25.5418 L -30.3099,-25.4614 L -30.3677,-25.3773 L -30.4201,-25.2896
 L -30.4669,-25.1989 L -30.5079,-25.1055 L -30.5429,-25.0096 L -30.5719,-24.9117 L -30.5946,-24.8121 L -30.6111,-24.7115
 L -30.6212,-24.6099 L -30.6249,-24.5079 L -30.6222,-24.4058 L -30.613,-24.3041 L -30.5975,-24.2032 L -30.5758,-24.1035
 L -30.5478,-24.0053 L -30.5137,-23.9091 L -30.4736,-23.8152 L -30.4277,-23.7241 L -30.3762,-23.636 L -30.3192,-23.5513
 L -30.257,-23.4703 L -30.1898,-23.3934 L -30.118,-23.3209 L -30.0418,-23.253 L -29.9614,-23.1901 L -29.8773,-23.1323
 L -29.7896,-23.0799 L -29.6989,-23.0331 L -29.6055,-22.9921 L -29.5096,-22.9571 L -29.4117,-22.9281 L -29.3122,-22.9054
 L -29.2115,-22.8889 L -29.1099,-22.8788 L -28.9922,-22.8751 z
M -29.0707,-23.3773 L -29.141,-23.384 L -29.2108,-23.3951 L -29.2796,-23.4104 L -29.3477,-23.4302 L -29.414,-23.4541
 L -29.4791,-23.4823 L -29.5418,-23.5142 L -29.6028,-23.5503 L -29.6612,-23.5899 L -29.717,-23.6332 L -29.7701,-23.6801
 L -29.8199,-23.7299 L -29.8667,-23.783 L -29.91,-23.8388 L -29.9497,-23.8972 L -29.9858,-23.9582 L -30.0177,-24.0209
 L -30.0459,-24.0859 L -30.0698,-24.1525 L -30.0895,-24.2202 L -30.1049,-24.2893 L -30.116,-24.359 L -30.1227,-24.4293
 L -30.1249,-24.5 L -30.1227,-24.5707 L -30.116,-24.641 L -30.1049,-24.7108 L -30.0896,-24.7797 L -30.0698,-24.8476
 L -30.0459,-24.914 L -30.0177,-24.9791 L -30,-25.0139 L -30,-24.5 L -27.8751,-24.5 L -27.8773,-24.4293
 L -27.884,-24.359 L -27.8951,-24.2892 L -27.9104,-24.2203 L -27.9302,-24.1524 L -27.9541,-24.086 L -27.9823,-24.0209
 L -28.0142,-23.9582 L -28.0503,-23.8972 L -28.0899,-23.8388 L -28.1332,-23.783 L -28.1801,-23.7299 L -28.2299,-23.6801
 L -28.283,-23.6332 L -28.3388,-23.5899 L -28.3972,-23.5503 L -28.4582,-23.5142 L -28.5209,-23.4823 L -28.586,-23.4541
 L -28.6524,-23.4302 L -28.7203,-23.4104 L -28.7892,-23.3951 L -28.859,-23.384 L -28.9293,-23.3773 L -29,-23.3751
 z
M 29.0941,-22.8778 L 29.1959,-22.8869 L 29.2968,-22.9024 L 29.3965,-22.9242 L 29.4946,-22.9522 L 29.5909,-22.9863
 L 29.6847,-23.0264 L 29.7759,-23.0723 L 29.864,-23.1238 L 29.9487,-23.1808 L 30.0297,-23.243 L 30.1066,-23.3102
 L 30.1791,-23.382 L 30.247,-23.4582 L 30.3099,-23.5385 L 30.3677,-23.6227 L 30.4201,-23.7104 L 30.4669,-23.8011
 L 30.5079,-23.8945 L 30.5429,-23.9904 L 30.5719,-24.0883 L 30.5946,-24.1878 L 30.6111,-24.2885 L 30.6212,-24.3901
 L 30.6249,-24.4921 L 30.6222,-24.5942 L 30.613,-24.6959 L 30.5975,-24.7968 L 30.5758,-24.8964 L 30.5478,-24.9947
 L 30.5137,-25.0908 L 30.4736,-25.1848 L 30.4277,-25.2759 L 30.3762,-25.364 L 30.3192,-25.4487 L 30.257,-25.5297
 L 30.1898,-25.6066 L 30.118,-25.6791 L 30.0418,-25.747 L 29.9614,-25.8099 L 29.8773,-25.8677 L 29.7896,-25.9201
 L 29.6989,-25.9669 L 29.6055,-26.0079 L 29.5096,-26.0429 L 29.4117,-26.0719 L 29.3121,-26.0946 L 29.2115,-26.1111
 L 29.1099,-26.1212 L 29.0079,-26.1249 L 28.9058,-26.1222 L 28.8041,-26.113 L 28.7032,-26.0975 L 28.6035,-26.0758
 L 28.5053,-26.0478 L 28.4091,-26.0137 L 28.3152,-25.9736 L 28.2241,-25.9277 L 28.136,-25.8762 L 28.0513,-25.8192
 L 27.9703,-25.757 L 27.8934,-25.6898 L 27.8209,-25.618 L 27.753,-25.5418 L 27.6901,-25.4614 L 27.6323,-25.3773
 L 27.5799,-25.2896 L 27.5331,-25.1989 L 27.4921,-25.1055 L 27.4571,-25.0096 L 27.4281,-24.9117 L 27.4054,-24.8122
 L 27.3889,-24.7115 L 27.3788,-24.6099 L 27.3751,-24.5078 L 27.3778,-24.4058 L 27.3869,-24.3041 L 27.4024,-24.2032
 L 27.4242,-24.1035 L 27.4522,-24.0054 L 27.4863,-23.9091 L 27.5264,-23.8153 L 27.5723,-23.7241 L 27.6238,-23.636
 L 27.6808,-23.5513 L 27.743,-23.4703 L 27.8102,-23.3934 L 27.882,-23.3209 L 27.9582,-23.253 L 28.0385,-23.1901
 L 28.1227,-23.1323 L 28.2104,-23.0799 L 28.3011,-23.0331 L 28.3945,-22.9921 L 28.4904,-22.9571 L 28.5883,-22.9281
 L 28.6878,-22.9054 L 28.7885,-22.8889 L 28.8901,-22.8788 L 29.0078,-22.8751 z
M 28.9293,-23.3773 L 28.859,-23.384 L 28.7892,-23.3951 L 28.7203,-23.4104 L 28.6524,-23.4302 L 28.586,-23.4541
 L 28.5209,-23.4823 L 28.4582,-23.5142 L 28.3972,-23.5503 L 28.3388,-23.5899 L 28.283,-23.6332 L 28.2299,-23.6801
 L 28.1801,-23.7299 L 28.1332,-23.783 L 28.0899,-23.8388 L 28.0503,-23.8972 L 28.0142,-23.9582 L 27.9823,-24.0209
 L 27.9541,-24.086 L 27.9302,-24.1524 L 27.9104,-24.2203 L 27.8951,-24.2892 L 27.884,-24.359 L 27.8773,-24.4293
 L 27.8751,-24.5 L 27.8773,-24.5707 L 27.884,-24.641 L 27.8951,-24.7108 L 27.9104,-24.7796 L 27.9302,-24.8477
 L 27.9541,-24.914 L 27.9823,-24.9791 L 28.0142,-25.0418 L 28.0503,-25.1028 L 28.0899,-25.1612 L 28.1332,-25.217
 L 28.1801,-25.2701 L 28.2299,-25.3199 L 28.283,-25.3667 L 28.3388,-25.41 L 28.3972,-25.4497 L 28.4582,-25.4858
 L 28.5209,-25.5177 L 28.5859,-25.5459 L 28.6525,-25.5698 L 28.7202,-25.5895 L 28.7893,-25.6049 L 28.859,-25.616
 L 28.9293,-25.6227 L 29,-25.6249 L 29.0707,-25.6227 L 29.141,-25.616 L 29.2108,-25.6049 L 29.2797,-25.5896
 L 29.3476,-25.5698 L 29.414,-25.5459 L 29.4791,-25.5177 L 29.5418,-25.4858 L 29.6028,-25.4497 L 29.6612,-25.41
 L 29.717,-25.3667 L 29.7701,-25.3199 L 29.8199,-25.2701 L 29.8667,-25.217 L 29.91,-25.1612 L 29.9497,-25.1028
 L 29.9858,-25.0418 L 30.0177,-24.9791 L 30.0459,-24.914 L 30.0698,-24.8476 L 30.0896,-24.7797 L 30.1049,-24.7108
 L 30.116,-24.641 L 30.1227,-24.5707 L 30.1249,-24.5 L 30.1227,-24.4293 L 30.116,-24.359 L 30.1049,-24.2893
 L 30.0895,-24.2202 L 30.0698,-24.1525 L 30.0459,-24.0859 L 30.0177,-24.0209 L 29.9858,-23.9582 L 29.9497,-23.8972
 L 29.91,-23.8388 L 29.8667,-23.783 L 29.8199,-23.7299 L 29.7701,-23.6801 L 29.717,-23.6332 L 29.6612,-23.5899
 L 29.6028,-23.5503 L 29.5418,-23.5142 L 29.4791,-23.4823 L 29.414,-23.4541 L 29.3477,-23.4302 L 29.2796,-23.4104
 L 29.2108,-23.3951 L 29.141,-23.384 L 29.0707,-23.3773 L 29,-23.3751 z
M 16,-12.5081 L 26.5,-12.5081 L 26.5,-19.4918 L 16,-19.4918 L 16,-19.5 L 9,-19.5
 L 9,-12.5 L 16,-12.5 z
M -12,-5.185 L -8.5,-5.185 L -8.5,-5.78499 L -12,-5.78499 L -12,-7.72499 L -8.5,-7.72499
 L -8.5,-8.325 L -12,-8.325 L -12,-10.265 L -8.5,-10.265 L -8.5,-10.865 L -12,-10.865
 L -12,-12.805 L -8.5,-12.805 L -8.5,-13.405 L -12,-13.405 L -12,-14.41 L -14.54,-14.41
 L -14.54,-13.405 L -20,-13.405 L -20,-12.805 L -14.54,-12.805 L -14.54,-10.865 L -20,-10.865
 L -20,-10.265 L -14.54,-10.265 L -14.54,-8.325 L -20,-8.325 L -20,-7.72499 L -14.54,-7.72499
 L -14.54,-5.78499 L -20,-5.78499 L -20,-5.185 L -14.54,-5.185 L -14.54,-4.25 L -12,-4.25
 z
M 16,3.49184 L 26.5,3.49184 L 26.5,-3.49184 L 16,-3.49184 L 16,-3.5 L 9,-3.5
 L 9,3.5 L 16,3.5 z
M -20.6246,1.8064 L -20.1512,1.63814 L -19.7407,1.34839 L -19.4236,0.958618 L -19.2234,0.497772 L -19.155,-0
 L -19.2234,-0.497772 L -19.4236,-0.958618 L -19.7407,-1.34839 L -20.1512,-1.63814 L -20.6246,-1.8064 L -21.1259,-1.8407
 L -21.6178,-1.73846 L -22.064,-1.50731 L -22.4312,-1.16435 L -22.6922,-0.735046 L -22.8278,-0.251221 L -22.8278,0.251221
 L -22.6922,0.735046 L -22.4312,1.16435 L -22.064,1.50731 L -21.6178,1.73846 L -21.1259,1.8407 z
M -0.624619,1.8064 L -0.151169,1.63814 L 0.259308,1.34839 L 0.576401,0.958618 L 0.776581,0.497772 L 0.844986,-0
 L 0.776581,-0.497772 L 0.576401,-0.958618 L 0.259308,-1.34839 L -0.151169,-1.63814 L -0.624619,-1.8064 L -1.1259,-1.8407
 L -1.61784,-1.73846 L -2.06396,-1.50731 L -2.43118,-1.16435 L -2.69225,-0.735046 L -2.8278,-0.251221 L -2.8278,0.251221
 L -2.69225,0.735046 L -2.43118,1.16435 L -2.06396,1.50731 L -1.61784,1.73846 L -1.1259,1.8407 z
M -10.6246,1.8064 L -10.1512,1.63814 L -9.74068,1.34839 L -9.42358,0.958618 L -9.2234,0.497772 L -9.155,-0
 L -9.2234,-0.497772 L -9.42358,-0.958618 L -9.74068,-1.34839 L -10.1512,-1.63814 L -10.6246,-1.8064 L -11.1259,-1.8407
 L -11.6178,-1.73846 L -12.064,-1.50731 L -12.4312,-1.16435 L -12.6922,-0.735046 L -12.8278,-0.251221 L -12.8278,0.251221
 L -12.6922,0.735046 L -12.4312,1.16435 L -12.064,1.50731 L -11.6178,1.73846 L -11.1259,1.8407 z
M 21.54,10.815 L 27,10.815 L 27,10.215 L 21.54,10.215 L 21.54,8.27499 L 27,8.27499
 L 27,7.67499 L 21.54,7.67499 L 21.54,5.735 L 27,5.735 L 27,5.13499 L 21.54,5.13499
 L 21.54,4.12999 L 19,4.12999 L 19,5.13499 L 15.5,5.13499 L 15.5,5.735 L 19,5.735
 L 19,7.67499 L 15.5,7.67499 L 15.5,8.27499 L 19,8.27499 L 19,10.215 L 15.5,10.215
 L 15.5,10.815 L 19,10.815 L 19,11.75 L 21.54,11.75 z
M -10.3896,14.9372 L -9.6198,14.6637 L -9.38795,14.5 L -8.5,14.5 L -8.5,13.6365 L -8.43674,13.5587
 L -8.11124,12.8094 L -8,12 L -8.11124,11.1906 L -8.43674,10.4412 L -8.5,10.3635 L -8.5,9.5
 L -9.38794,9.5 L -9.6198,9.33633 L -10.3896,9.06274 L -11.2047,9.00699 L -12.0046,9.1732 L -12.6353,9.5
 L -13.5,9.5 L -13.5,10.391 L -13.7516,10.8048 L -13.972,11.5915 L -13.972,12.4085 L -13.7516,13.1952
 L -13.5,13.609 L -13.5,14.5 L -12.6353,14.5 L -12.0046,14.8268 L -11.2047,14.993 z
M -20.3896,14.9372 L -19.6198,14.6637 L -19.388,14.5 L -18.5,14.5 L -18.5,13.6365 L -18.4367,13.5587
 L -18.1112,12.8094 L -18,12 L -18.1112,11.1906 L -18.4367,10.4412 L -18.5,10.3635 L -18.5,9.5
 L -19.3879,9.5 L -19.6198,9.33633 L -20.3896,9.06274 L -21.2047,9.00699 L -22.0046,9.1732 L -22.6353,9.5
 L -23.5,9.5 L -23.5,10.391 L -23.7516,10.8048 L -23.972,11.5915 L -23.972,12.4085 L -23.7516,13.1952
 L -23.5,13.609 L -23.5,14.5 L -22.6353,14.5 L -22.0046,14.8268 L -21.2047,14.993 z
M -0.389618,14.9372 L 0.380188,14.6637 L 0.61203,14.5 L 1.5,14.5 L 1.5,13.6365 L 1.56325,13.5587
 L 1.88875,12.8094 L 2,12 L 1.88875,11.1906 L 1.56325,10.4412 L 1.5,10.3635 L 1.5,9.5
 L 0.612045,9.5 L 0.380188,9.33633 L -0.389618,9.06274 L -1.20473,9.00699 L -2.00464,9.1732 L -2.6353,9.5
 L -3.5,9.5 L -3.5,10.391 L -3.75163,10.8048 L -3.97205,11.5915 L -3.97205,12.4085 L -3.75163,13.1952
 L -3.5,13.609 L -3.5,14.5 L -2.63527,14.5 L -2.00464,14.8268 L -1.20473,14.993 z
M 29.0942,26.1222 L 29.1959,26.113 L 29.2968,26.0975 L 29.3964,26.0758 L 29.4947,26.0478 L 29.5908,26.0137
 L 29.6848,25.9736 L 29.7759,25.9277 L 29.864,25.8762 L 29.9487,25.8192 L 30.0297,25.757 L 30.1066,25.6898
 L 30.1791,25.618 L 30.247,25.5418 L 30.3099,25.4614 L 30.3677,25.3773 L 30.4201,25.2896 L 30.4669,25.1989
 L 30.5079,25.1055 L 30.5429,25.0096 L 30.5719,24.9117 L 30.5946,24.8121 L 30.6111,24.7115 L 30.6212,24.6099
 L 30.6249,24.5079 L 30.6222,24.4058 L 30.613,24.3041 L 30.5975,24.2032 L 30.5758,24.1035 L 30.5478,24.0053
 L 30.5137,23.9091 L 30.4736,23.8152 L 30.4277,23.7241 L 30.3762,23.636 L 30.3192,23.5513 L 30.257,23.4703
 L 30.1898,23.3934 L 30.118,23.3209 L 30.0418,23.253 L 29.9614,23.1901 L 29.8773,23.1323 L 29.7896,23.0799
 L 29.6989,23.0331 L 29.6055,22.9921 L 29.5096,22.9571 L 29.4117,22.9281 L 29.3122,22.9054 L 29.2115,22.8889
 L 29.1099,22.8788 L 29.0078,22.8751 L 28.9058,22.8778 L 28.8041,22.8869 L 28.7032,22.9024 L 28.6035,22.9242
 L 28.5054,22.9522 L 28.4091,22.9863 L 28.3153,23.0264 L 28.2241,23.0723 L 28.136,23.1238 L 28.0513,23.1808
 L 27.9703,23.243 L 27.8934,23.3102 L 27.8209,23.382 L 27.753,23.4582 L 27.6901,23.5385 L 27.6323,23.6227
 L 27.5799,23.7104 L 27.5331,23.8011 L 27.4921,23.8945 L 27.4571,23.9904 L 27.4281,24.0883 L 27.4054,24.1878
 L 27.3889,24.2885 L 27.3788,24.3901 L 27.3751,24.4922 L 27.3778,24.5941 L 27.3869,24.6959 L 27.4024,24.7968
 L 27.4242,24.8965 L 27.4522,24.9946 L 27.4863,25.0909 L 27.5264,25.1847 L 27.5723,25.2759 L 27.6238,25.364
 L 27.6808,25.4487 L 27.743,25.5297 L 27.8102,25.6066 L 27.882,25.6791 L 27.9582,25.747 L 28.0385,25.8099
 L 28.1227,25.8677 L 28.2104,25.9201 L 28.3011,25.9669 L 28.3945,26.0079 L 28.4904,26.0429 L 28.5883,26.0719
 L 28.6878,26.0946 L 28.7885,26.1111 L 28.8901,26.1212 L 29.0079,26.1249 z
M 28.9293,25.6227 L 28.859,25.616 L 28.7893,25.6049 L 28.7202,25.5895 L 28.6525,25.5698 L 28.5859,25.5459
 L 28.5209,25.5177 L 28.4582,25.4858 L 28.3972,25.4497 L 28.3388,25.41 L 28.283,25.3667 L 28.2299,25.3199
 L 28.1801,25.2701 L 28.1332,25.217 L 28.0899,25.1612 L 28.0503,25.1028 L 28.0142,25.0418 L 27.9823,24.9791
 L 27.9541,24.914 L 27.9302,24.8477 L 27.9104,24.7796 L 27.8951,24.7108 L 27.884,24.641 L 27.8773,24.5707
 L 27.8751,24.5 L 27.8773,24.4293 L 27.884,24.359 L 27.8951,24.2892 L 27.9104,24.2203 L 27.9302,24.1524
 L 27.9541,24.086 L 27.9823,24.0209 L 28.0142,23.9582 L 28.0503,23.8972 L 28.0899,23.8388 L 28.1332,23.783
 L 28.1801,23.7299 L 28.2299,23.6801 L 28.283,23.6332 L 28.3388,23.5899 L 28.3972,23.5503 L 28.4582,23.5142
 L 28.5209,23.4823 L 28.586,23.4541 L 28.6524,23.4302 L 28.7203,23.4104 L 28.7892,23.3951 L 28.859,23.384
 L 28.9293,23.3773 L 29,23.3751 L 29.0707,23.3773 L 29.141,23.384 L 29.2108,23.3951 L 29.2796,23.4104
 L 29.3477,23.4302 L 29.414,23.4541 L 29.4791,23.4823 L 29.5418,23.5142 L 29.6028,23.5503 L 29.6612,23.5899
 L 29.717,23.6332 L 29.7701,23.6801 L 29.8199,23.7299 L 29.8667,23.783 L 29.91,23.8388 L 29.9497,23.8972
 L 29.9858,23.9582 L 30.0177,24.0209 L 30.0459,24.0859 L 30.0698,24.1525 L 30.0895,24.2202 L 30.1049,24.2893
 L 30.116,24.359 L 30.1227,24.4293 L 30.1249,24.5 L 30.1227,24.5707 L 30.116,24.641 L 30.1049,24.7108
 L 30.0896,24.7797 L 30.0698,24.8476 L 30.0459,24.914 L 30.0177,24.9791 L 29.9858,25.0418 L 29.9497,25.1028
 L 29.91,25.1612 L 29.8667,25.217 L 29.8199,25.2701 L 29.7701,25.3199 L 29.717,25.3667 L 29.6612,25.41
 L 29.6028,25.4497 L 29.5418,25.4858 L 29.4791,25.5177 L 29.414,25.5459 L 29.3476,25.5698 L 29.2797,25.5896
 L 29.2108,25.6049 L 29.141,25.616 L 29.0707,25.6227 L 29,25.6249 z
M -28.9058,26.1222 L -28.8041,26.113 L -28.7032,26.0975 L -28.6035,26.0758 L -28.5053,26.0478 L -28.4091,26.0137
 L -28.3152,25.9736 L -28.2241,25.9277 L -28.136,25.8762 L -28.0513,25.8192 L -27.9703,25.757 L -27.8934,25.6898
 L -27.8209,25.618 L -27.753,25.5418 L -27.6901,25.4614 L -27.6323,25.3773 L -27.5799,25.2896 L -27.5331,25.1989
 L -27.4921,25.1055 L -27.4571,25.0096 L -27.4281,24.9117 L -27.4054,24.8122 L -27.3889,24.7115 L -27.3788,24.6099
 L -27.3751,24.5078 L -27.3778,24.4058 L -27.3869,24.3041 L -27.4024,24.2032 L -27.4242,24.1035 L -27.4522,24.0054
 L -27.4863,23.9091 L -27.5264,23.8153 L -27.5723,23.7241 L -27.6238,23.636 L -27.6808,23.5513 L -27.743,23.4703
 L -27.8102,23.3934 L -27.882,23.3209 L -27.9582,23.253 L -28.0385,23.1901 L -28.1227,23.1323 L -28.2104,23.0799
 L -28.3011,23.0331 L -28.3945,22.9921 L -28.4904,22.9571 L -28.5883,22.9281 L -28.6878,22.9054 L -28.7885,22.8889
 L -28.8901,22.8788 L -28.9922,22.8751 L -29.0941,22.8778 L -29.1959,22.8869 L -29.2968,22.9024 L -29.3965,22.9242
 L -29.4946,22.9522 L -29.5909,22.9863 L -29.6847,23.0264 L -29.7759,23.0723 L -29.864,23.1238 L -29.9487,23.1808
 L -30.0297,23.243 L -30.1066,23.3102 L -30.1791,23.382 L -30.247,23.4582 L -30.3099,23.5385 L -30.3677,23.6227
 L -30.4201,23.7104 L -30.4669,23.8011 L -30.5079,23.8945 L -30.5429,23.9904 L -30.5719,24.0883 L -30.5946,24.1878
 L -30.6111,24.2885 L -30.6212,24.3901 L -30.6249,24.4921 L -30.6222,24.5942 L -30.613,24.6959 L -30.5975,24.7968
 L -30.5758,24.8964 L -30.5478,24.9947 L -30.5137,25.0908 L -30.4736,25.1848 L -30.4277,25.2759 L -30.3762,25.364
 L -30.3192,25.4487 L -30.257,25.5297 L -30.1898,25.6066 L -30.118,25.6791 L -30.0418,25.747 L -29.9614,25.8099
 L -29.8773,25.8677 L -29.7896,25.9201 L -29.6989,25.9669 L -29.6055,26.0079 L -29.5096,26.0429 L -29.4117,26.0719
 L -29.3121,26.0946 L -29.2115,26.1111 L -29.1099,26.1212 L -28.9921,26.1249 z
M -29.0707,25.6227 L -29.141,25.616 L -29.2108,25.6049 L -29.2797,25.5896 L -29.3476,25.5698 L -29.414,25.5459
 L -29.4791,25.5177 L -29.5418,25.4858 L -29.6028,25.4497 L -29.6612,25.41 L -29.717,25.3667 L -29.7701,25.3199
 L -29.8199,25.2701 L -29.8667,25.217 L -29.91,25.1612 L -29.9497,25.1028 L -29.9858,25.0418 L -30.0177,24.9791
 L -30.0459,24.914 L -30.0698,24.8476 L -30.0896,24.7797 L -30.1049,24.7108 L -30.116,24.641 L -30.1227,24.5707
 L -30.1249,24.5 L -30.1227,24.4293 L -30.116,24.359 L -30.1049,24.2893 L -30.0895,24.2202 L -30.0698,24.1525
 L -30.0459,24.0859 L -30.0177,24.0209 L -29.9858,23.9582 L -29.9497,23.8972 L -29.91,23.8388 L -29.8667,23.783
 L -29.8199,23.7299 L -29.7701,23.6801 L -29.717,23.6332 L -29.6612,23.5899 L -29.6028,23.5503 L -29.5418,23.5142
 L -29.4791,23.4823 L -29.414,23.4541 L -29.3477,23.4302 L -29.2796,23.4104 L -29.2108,23.3951 L -29.141,23.384
 L -29.0707,23.3773 L -29,23.3751 L -28.9293,23.3773 L -28.859,23.384 L -28.7892,23.3951 L -28.7203,23.4104
 L -28.6524,23.4302 L -28.586,23.4541 L -28.5209,23.4823 L -28.4582,23.5142 L -28.3972,23.5503 L -28.3388,23.5899
 L -28.283,23.6332 L -28.2299,23.6801 L -28.1801,23.7299 L -28.1332,23.783 L -28.0899,23.8388 L -28.0503,23.8972
 L -28.0142,23.9582 L -27.9823,24.0209 L -27.9541,24.086 L -27.9302,24.1524 L -27.9104,24.2203 L -27.8951,24.2892
 L -27.884,24.359 L -27.8773,24.4293 L -27.8751,24.5 L -27.8773,24.5707 L -27.884,24.641 L -27.8951,24.7108
 L -27.9104,24.7796 L -27.9302,24.8477 L -27.9541,24.914 L -27.9823,24.9791 L -28.0142,25.0418 L -28.0503,25.1028
 L -28.0899,25.1612 L -28.1332,25.217 L -28.1801,25.2701 L -28.2299,25.3199 L -28.283,25.3667 L -28.3388,25.41
 L -28.3972,25.4497 L -28.4582,25.4858 L -28.5209,25.5177 L -28.5859,25.5459 L -28.6525,25.5698 L -28.7202,25.5895
 L -28.7893,25.6049 L -28.859,25.616 L -28.9293,25.6227 L -29,25.6249 z
M -37.6246,-14.1936 L -37.1512,-14.3618 L -36.7407,-14.6516 L -36.4236,-15.0414 L -36.2234,-15.5022 L -36.155,-16
 L -36.2234,-16.4978 L -36.4236,-16.9586 L -36.7407,-17.3484 L -37.1512,-17.6381 L -37.6246,-17.8064 L -38.1259,-17.8407
 L -38.6178,-17.7385 L -39.064,-17.5073 L -39.4312,-17.1644 L -39.6922,-16.735 L -39.8278,-16.2512 L -39.8278,-15.7488
 L -39.6922,-15.2649 L -39.4312,-14.8356 L -39.064,-14.4927 L -38.6178,-14.2615 L -38.1259,-14.1593 z
M -37.6246,-6.19359 L -37.1512,-6.36185 L -36.7407,-6.6516 L -36.4236,-7.04137 L -36.2234,-7.50221 L -36.155,-8
 L -36.2234,-8.49777 L -36.4236,-8.95862 L -36.7407,-9.34839 L -37.1512,-9.63814 L -37.6246,-9.8064 L -38.1259,-9.8407
 L -38.6178,-9.73846 L -39.064,-9.50731 L -39.4312,-9.16435 L -39.6922,-8.73505 L -39.8278,-8.25122 L -39.8278,-7.74876
 L -39.6922,-7.26494 L -39.4312,-6.83563 L -39.064,-6.49269 L -38.6178,-6.26152 L -38.1259,-6.1593 z
" stroke="black" fill="lightgray" stroke-width="0.5"/></svg>
