solid OpenSCAD_Model
  facet normal 0.990686 0.136166 0
    outer loop
      vertex -8 -12 6.2
      vertex -8.11125 -11.1906 -0.0300005
      vertex -8.11125 -11.1906 6.2
    endloop
  endfacet
  facet normal 0.990686 0.136166 0
    outer loop
      vertex -8.11125 -11.1906 -0.0300005
      vertex -8 -12 6.2
      vertex -8 -12 -0.0300005
    endloop
  endfacet
  facet normal -1 0 0
    outer loop
      vertex -13.9721 -12.4085 -0.0300005
      vertex -13.9721 -11.5915 6.2
      vertex -13.9721 -11.5915 -0.0300005
    endloop
  endfacet
  facet normal -1 -0 0
    outer loop
      vertex -13.9721 -11.5915 6.2
      vertex -13.9721 -12.4085 -0.0300005
      vertex -13.9721 -12.4085 6.2
    endloop
  endfacet
  facet normal -0.203456 0.979084 0
    outer loop
      vertex -11.2047 -9.00699 -0.0300005
      vertex -12.0046 -9.17322 6.2
      vertex -11.2047 -9.00699 6.2
    endloop
  endfacet
  facet normal -0.203456 0.979084 0
    outer loop
      vertex -12.0046 -9.17322 6.2
      vertex -11.2047 -9.00699 -0.0300005
      vertex -12.0046 -9.17322 -0.0300005
    endloop
  endfacet
  facet normal -0.682553 -0.730836 0
    outer loop
      vertex -13.3271 -13.8933 2.49
      vertex -12.73 -14.4509 6.2
      vertex -13.3271 -13.8933 6.2
    endloop
  endfacet
  facet normal -0.682553 -0.730836 -0
    outer loop
      vertex -12.73 -14.4509 6.2
      vertex -13.3271 -13.8933 2.49
      vertex -12.73 -14.4509 2.49
    endloop
  endfacet
  facet normal 0 0 -1
    outer loop
      vertex -8.11125 -12.8094 -0.0300005
      vertex -8.11125 -11.1906 -0.0300005
      vertex -8 -12 -0.0300005
    endloop
  endfacet
  facet normal 0 0 -1
    outer loop
      vertex -8.5 -13.6365 -0.0300005
      vertex -8.11125 -12.8094 -0.0300005
      vertex -8.43674 -13.5588 -0.0300005
    endloop
  endfacet
  facet normal -0 0 -1
    outer loop
      vertex -8.11125 -12.8094 -0.0300005
      vertex -8.5 -13.6365 -0.0300005
      vertex -8.11125 -11.1906 -0.0300005
    endloop
  endfacet
  facet normal 0 0 -1
    outer loop
      vertex -8.5 -10.3635 -0.0300005
      vertex -8.11125 -11.1906 -0.0300005
      vertex -8.5 -13.6365 -0.0300005
    endloop
  endfacet
  facet normal 0 0 -1
    outer loop
      vertex -8.11125 -11.1906 -0.0300005
      vertex -8.5 -10.3635 -0.0300005
      vertex -8.43674 -10.4412 -0.0300005
    endloop
  endfacet
  facet normal 0 0 -1
    outer loop
      vertex -13.9721 -12.4085 -0.0300005
      vertex -13.5 -13.609 -0.0300005
      vertex -13.7516 -13.1952 -0.0300005
    endloop
  endfacet
  facet normal 0 0 -1
    outer loop
      vertex -13.5 -13.609 -0.0300005
      vertex -13.9721 -12.4085 -0.0300005
      vertex -13.5 -10.391 -0.0300005
    endloop
  endfacet
  facet normal 0 0 -1
    outer loop
      vertex -13.9721 -11.5915 -0.0300005
      vertex -13.5 -10.391 -0.0300005
      vertex -13.9721 -12.4085 -0.0300005
    endloop
  endfacet
  facet normal 0 0 -1
    outer loop
      vertex -13.5 -10.391 -0.0300005
      vertex -13.9721 -11.5915 -0.0300005
      vertex -13.7516 -10.8048 -0.0300005
    endloop
  endfacet
  facet normal 0 0 -1
    outer loop
      vertex -9.38796 -9.5 -0.0300005
      vertex -10.3896 -9.06275 -0.0300005
      vertex -9.6198 -9.33634 -0.0300005
    endloop
  endfacet
  facet normal 0 0 -1
    outer loop
      vertex -9.38796 -9.5 -0.0300005
      vertex -11.2047 -9.00699 -0.0300005
      vertex -10.3896 -9.06275 -0.0300005
    endloop
  endfacet
  facet normal 0 0 -1
    outer loop
      vertex -9.38796 -9.5 -0.0300005
      vertex -12.0046 -9.17322 -0.0300005
      vertex -11.2047 -9.00699 -0.0300005
    endloop
  endfacet
  facet normal 0 -0 -1
    outer loop
      vertex -12.0046 -9.17322 -0.0300005
      vertex -9.38796 -9.5 -0.0300005
      vertex -12.6353 -9.5 -0.0300005
    endloop
  endfacet
  facet normal 0 0 -1
    outer loop
      vertex -10.3896 -14.9373 -0.0300005
      vertex -9.38796 -14.5 -0.0300005
      vertex -9.6198 -14.6637 -0.0300005
    endloop
  endfacet
  facet normal 0 0 -1
    outer loop
      vertex -11.2047 -14.993 -0.0300005
      vertex -9.38796 -14.5 -0.0300005
      vertex -10.3896 -14.9373 -0.0300005
    endloop
  endfacet
  facet normal 0 0 -1
    outer loop
      vertex -12.0046 -14.8268 -0.0300005
      vertex -9.38796 -14.5 -0.0300005
      vertex -11.2047 -14.993 -0.0300005
    endloop
  endfacet
  facet normal -0 0 -1
    outer loop
      vertex -9.38796 -14.5 -0.0300005
      vertex -12.0046 -14.8268 -0.0300005
      vertex -12.6353 -14.5 -0.0300005
    endloop
  endfacet
  facet normal 0.57668 0.81697 0
    outer loop
      vertex -9.38796 -9.5 2.49
      vertex -8.95234 -9.80749 6.2
      vertex -8.95234 -9.80749 2.49
    endloop
  endfacet
  facet normal 0.57668 0.81697 -6.08462e-08
    outer loop
      vertex -8.95234 -9.80749 6.2
      vertex -9.38796 -9.5 2.49
      vertex -9.6198 -9.33634 6.2
    endloop
  endfacet
  facet normal 0.576681 0.81697 0
    outer loop
      vertex -9.6198 -9.33634 -0.0300005
      vertex -9.38796 -9.5 2.49
      vertex -9.38796 -9.5 -0.0300005
    endloop
  endfacet
  facet normal 0.576681 0.81697 0
    outer loop
      vertex -9.38796 -9.5 2.49
      vertex -9.6198 -9.33634 -0.0300005
      vertex -9.6198 -9.33634 6.2
    endloop
  endfacet
  facet normal 0.917212 0.3984 0
    outer loop
      vertex -8.11125 -11.1906 6.2
      vertex -8.43674 -10.4412 -0.0300005
      vertex -8.43674 -10.4412 6.2
    endloop
  endfacet
  facet normal 0.917212 0.3984 0
    outer loop
      vertex -8.43674 -10.4412 -0.0300005
      vertex -8.11125 -11.1906 6.2
      vertex -8.11125 -11.1906 -0.0300005
    endloop
  endfacet
  facet normal 0.33488 0.942261 -0
    outer loop
      vertex -9.6198 -9.33634 -0.0300005
      vertex -10.3896 -9.06275 6.2
      vertex -9.6198 -9.33634 6.2
    endloop
  endfacet
  facet normal 0.33488 0.942261 0
    outer loop
      vertex -10.3896 -9.06275 6.2
      vertex -9.6198 -9.33634 -0.0300005
      vertex -10.3896 -9.06275 -0.0300005
    endloop
  endfacet
  facet normal -0.854419 0.519584 0
    outer loop
      vertex -13.5 -10.391 -0.0300005
      vertex -13.7516 -10.8048 -0.0300005
      vertex -13.5 -10.391 2.49
    endloop
  endfacet
  facet normal -0.854419 0.519584 0
    outer loop
      vertex -13.5 -10.391 2.49
      vertex -13.3271 -10.1067 6.2
      vertex -13.3271 -10.1067 2.49
    endloop
  endfacet
  facet normal -0.854419 0.519584 0
    outer loop
      vertex -13.7516 -10.8048 6.2
      vertex -13.5 -10.391 2.49
      vertex -13.7516 -10.8048 -0.0300005
    endloop
  endfacet
  facet normal -0.854419 0.519584 -2.31392e-08
    outer loop
      vertex -13.5 -10.391 2.49
      vertex -13.7516 -10.8048 6.2
      vertex -13.3271 -10.1067 6.2
    endloop
  endfacet
  facet normal -0.962917 0.269797 0
    outer loop
      vertex -13.9721 -11.5915 -0.0300005
      vertex -13.7516 -10.8048 6.2
      vertex -13.7516 -10.8048 -0.0300005
    endloop
  endfacet
  facet normal -0.962917 0.269797 0
    outer loop
      vertex -13.7516 -10.8048 6.2
      vertex -13.9721 -11.5915 -0.0300005
      vertex -13.9721 -11.5915 6.2
    endloop
  endfacet
  facet normal 0 0 1
    outer loop
      vertex -8.11125 -11.1906 6.2
      vertex -8.11125 -12.8094 6.2
      vertex -8 -12 6.2
    endloop
  endfacet
  facet normal 0 0 1
    outer loop
      vertex -8.43674 -10.4412 6.2
      vertex -8.11125 -12.8094 6.2
      vertex -8.11125 -11.1906 6.2
    endloop
  endfacet
  facet normal 0 0 1
    outer loop
      vertex -8.43674 -10.4412 6.2
      vertex -8.43674 -13.5588 6.2
      vertex -8.11125 -12.8094 6.2
    endloop
  endfacet
  facet normal 0 0 1
    outer loop
      vertex -8.95234 -9.80749 6.2
      vertex -8.43674 -13.5588 6.2
      vertex -8.43674 -10.4412 6.2
    endloop
  endfacet
  facet normal 0 0 1
    outer loop
      vertex -8.95234 -9.80749 6.2
      vertex -8.95234 -14.1925 6.2
      vertex -8.43674 -13.5588 6.2
    endloop
  endfacet
  facet normal 0 0 1
    outer loop
      vertex -9.6198 -9.33634 6.2
      vertex -8.95234 -14.1925 6.2
      vertex -8.95234 -9.80749 6.2
    endloop
  endfacet
  facet normal 0 0 1
    outer loop
      vertex -9.6198 -9.33634 6.2
      vertex -9.6198 -14.6637 6.2
      vertex -8.95234 -14.1925 6.2
    endloop
  endfacet
  facet normal 0 0 1
    outer loop
      vertex -10.3896 -9.06275 6.2
      vertex -9.6198 -14.6637 6.2
      vertex -9.6198 -9.33634 6.2
    endloop
  endfacet
  facet normal 0 0 1
    outer loop
      vertex -10.3896 -9.06275 6.2
      vertex -10.3896 -14.9373 6.2
      vertex -9.6198 -14.6637 6.2
    endloop
  endfacet
  facet normal 0 0 1
    outer loop
      vertex -11.2047 -9.00699 6.2
      vertex -10.3896 -14.9373 6.2
      vertex -10.3896 -9.06275 6.2
    endloop
  endfacet
  facet normal 0 0 1
    outer loop
      vertex -11.2047 -9.00699 6.2
      vertex -11.2047 -14.993 6.2
      vertex -10.3896 -14.9373 6.2
    endloop
  endfacet
  facet normal -0 0 1
    outer loop
      vertex -12.0046 -9.17322 6.2
      vertex -11.2047 -14.993 6.2
      vertex -11.2047 -9.00699 6.2
    endloop
  endfacet
  facet normal 0 0 1
    outer loop
      vertex -12.0046 -9.17322 6.2
      vertex -12.0046 -14.8268 6.2
      vertex -11.2047 -14.993 6.2
    endloop
  endfacet
  facet normal -0 0 1
    outer loop
      vertex -12.73 -9.54909 6.2
      vertex -12.0046 -14.8268 6.2
      vertex -12.0046 -9.17322 6.2
    endloop
  endfacet
  facet normal 0 0 1
    outer loop
      vertex -12.73 -9.54909 6.2
      vertex -12.73 -14.4509 6.2
      vertex -12.0046 -14.8268 6.2
    endloop
  endfacet
  facet normal -0 0 1
    outer loop
      vertex -13.3271 -10.1067 6.2
      vertex -12.73 -14.4509 6.2
      vertex -12.73 -9.54909 6.2
    endloop
  endfacet
  facet normal 0 0 1
    outer loop
      vertex -13.3271 -10.1067 6.2
      vertex -13.3271 -13.8933 6.2
      vertex -12.73 -14.4509 6.2
    endloop
  endfacet
  facet normal -0 0 1
    outer loop
      vertex -13.7516 -10.8048 6.2
      vertex -13.3271 -13.8933 6.2
      vertex -13.3271 -10.1067 6.2
    endloop
  endfacet
  facet normal 0 0 1
    outer loop
      vertex -13.7516 -10.8048 6.2
      vertex -13.7516 -13.1952 6.2
      vertex -13.3271 -13.8933 6.2
    endloop
  endfacet
  facet normal -0 0 1
    outer loop
      vertex -13.9721 -11.5915 6.2
      vertex -13.7516 -13.1952 6.2
      vertex -13.7516 -10.8048 6.2
    endloop
  endfacet
  facet normal 0 0 1
    outer loop
      vertex -13.7516 -13.1952 6.2
      vertex -13.9721 -11.5915 6.2
      vertex -13.9721 -12.4085 6.2
    endloop
  endfacet
  facet normal -0.460065 0.887885 4.75129e-08
    outer loop
      vertex -12.0046 -9.17322 6.2
      vertex -12.6353 -9.5 2.49
      vertex -12.73 -9.54909 6.2
    endloop
  endfacet
  facet normal -0.460064 0.887886 0
    outer loop
      vertex -12.0046 -9.17322 -0.0300005
      vertex -12.6353 -9.5 2.49
      vertex -12.0046 -9.17322 6.2
    endloop
  endfacet
  facet normal -0.460064 0.887886 0
    outer loop
      vertex -12.6353 -9.5 2.49
      vertex -12.0046 -9.17322 -0.0300005
      vertex -12.6353 -9.5 -0.0300005
    endloop
  endfacet
  facet normal -0.460066 0.887885 0
    outer loop
      vertex -12.73 -9.54909 6.2
      vertex -12.6353 -9.5 2.49
      vertex -12.73 -9.54909 2.49
    endloop
  endfacet
  facet normal 0.917212 -0.3984 0
    outer loop
      vertex -8.43674 -13.5588 6.2
      vertex -8.11125 -12.8094 -0.0300005
      vertex -8.11125 -12.8094 6.2
    endloop
  endfacet
  facet normal 0.917212 -0.3984 0
    outer loop
      vertex -8.11125 -12.8094 -0.0300005
      vertex -8.43674 -13.5588 6.2
      vertex -8.43674 -13.5588 -0.0300005
    endloop
  endfacet
  facet normal -0.962917 -0.269797 0
    outer loop
      vertex -13.7516 -13.1952 -0.0300005
      vertex -13.9721 -12.4085 6.2
      vertex -13.9721 -12.4085 -0.0300005
    endloop
  endfacet
  facet normal -0.962917 -0.269797 0
    outer loop
      vertex -13.9721 -12.4085 6.2
      vertex -13.7516 -13.1952 -0.0300005
      vertex -13.7516 -13.1952 6.2
    endloop
  endfacet
  facet normal 0.775711 0.631088 0
    outer loop
      vertex -8.95234 -9.80749 6.2
      vertex -8.5 -10.3635 2.49
      vertex -8.95234 -9.80749 2.49
    endloop
  endfacet
  facet normal 0.775711 0.631088 2.6528e-09
    outer loop
      vertex -8.43674 -10.4412 6.2
      vertex -8.5 -10.3635 2.49
      vertex -8.95234 -9.80749 6.2
    endloop
  endfacet
  facet normal 0.775711 0.631088 -0
    outer loop
      vertex -8.43674 -10.4412 -0.0300005
      vertex -8.5 -10.3635 2.49
      vertex -8.43674 -10.4412 6.2
    endloop
  endfacet
  facet normal 0.775711 0.631088 0
    outer loop
      vertex -8.5 -10.3635 2.49
      vertex -8.43674 -10.4412 -0.0300005
      vertex -8.5 -10.3635 -0.0300005
    endloop
  endfacet
  facet normal 0.068242 0.997669 -0
    outer loop
      vertex -10.3896 -9.06275 -0.0300005
      vertex -11.2047 -9.00699 6.2
      vertex -10.3896 -9.06275 6.2
    endloop
  endfacet
  facet normal 0.068242 0.997669 0
    outer loop
      vertex -11.2047 -9.00699 6.2
      vertex -10.3896 -9.06275 -0.0300005
      vertex -11.2047 -9.00699 -0.0300005
    endloop
  endfacet
  facet normal -0.682553 0.730836 0
    outer loop
      vertex -12.73 -9.54909 2.49
      vertex -13.3271 -10.1067 6.2
      vertex -12.73 -9.54909 6.2
    endloop
  endfacet
  facet normal -0.682553 0.730836 0
    outer loop
      vertex -13.3271 -10.1067 6.2
      vertex -12.73 -9.54909 2.49
      vertex -13.3271 -10.1067 2.49
    endloop
  endfacet
  facet normal 0.990686 -0.136167 0
    outer loop
      vertex -8.11125 -12.8094 6.2
      vertex -8 -12 -0.0300005
      vertex -8 -12 6.2
    endloop
  endfacet
  facet normal 0.990686 -0.136167 0
    outer loop
      vertex -8 -12 -0.0300005
      vertex -8.11125 -12.8094 6.2
      vertex -8.11125 -12.8094 -0.0300005
    endloop
  endfacet
  facet normal 0.33488 -0.942261 0
    outer loop
      vertex -10.3896 -14.9373 -0.0300005
      vertex -9.6198 -14.6637 6.2
      vertex -10.3896 -14.9373 6.2
    endloop
  endfacet
  facet normal 0.33488 -0.942261 0
    outer loop
      vertex -9.6198 -14.6637 6.2
      vertex -10.3896 -14.9373 -0.0300005
      vertex -9.6198 -14.6637 -0.0300005
    endloop
  endfacet
  facet normal 0.775711 -0.631088 0
    outer loop
      vertex -8.43674 -13.5588 6.2
      vertex -8.5 -13.6365 2.49
      vertex -8.43674 -13.5588 -0.0300005
    endloop
  endfacet
  facet normal 0.775711 -0.631088 2.6528e-09
    outer loop
      vertex -8.95234 -14.1925 6.2
      vertex -8.5 -13.6365 2.49
      vertex -8.43674 -13.5588 6.2
    endloop
  endfacet
  facet normal 0.775711 -0.631088 0
    outer loop
      vertex -8.5 -13.6365 2.49
      vertex -8.95234 -14.1925 6.2
      vertex -8.95234 -14.1925 2.49
    endloop
  endfacet
  facet normal 0.775711 -0.631088 0
    outer loop
      vertex -8.43674 -13.5588 -0.0300005
      vertex -8.5 -13.6365 2.49
      vertex -8.5 -13.6365 -0.0300005
    endloop
  endfacet
  facet normal -0.460066 -0.887885 0
    outer loop
      vertex -12.6353 -14.5 2.49
      vertex -12.73 -14.4509 6.2
      vertex -12.73 -14.4509 2.49
    endloop
  endfacet
  facet normal -0.460065 -0.887885 3.92244e-08
    outer loop
      vertex -12.73 -14.4509 6.2
      vertex -12.6353 -14.5 2.49
      vertex -12.0046 -14.8268 6.2
    endloop
  endfacet
  facet normal -0.460065 -0.887885 0
    outer loop
      vertex -12.0046 -14.8268 -0.0300005
      vertex -12.6353 -14.5 2.49
      vertex -12.6353 -14.5 -0.0300005
    endloop
  endfacet
  facet normal -0.460065 -0.887885 0
    outer loop
      vertex -12.6353 -14.5 2.49
      vertex -12.0046 -14.8268 -0.0300005
      vertex -12.0046 -14.8268 6.2
    endloop
  endfacet
  facet normal 0.068242 -0.997669 0
    outer loop
      vertex -11.2047 -14.993 -0.0300005
      vertex -10.3896 -14.9373 6.2
      vertex -11.2047 -14.993 6.2
    endloop
  endfacet
  facet normal 0.068242 -0.997669 0
    outer loop
      vertex -10.3896 -14.9373 6.2
      vertex -11.2047 -14.993 -0.0300005
      vertex -10.3896 -14.9373 -0.0300005
    endloop
  endfacet
  facet normal -0.854419 -0.519584 -0
    outer loop
      vertex -13.5 -13.609 2.49
      vertex -13.7516 -13.1952 -0.0300005
      vertex -13.5 -13.609 -0.0300005
    endloop
  endfacet
  facet normal -0.854419 -0.519584 0
    outer loop
      vertex -13.7516 -13.1952 -0.0300005
      vertex -13.5 -13.609 2.49
      vertex -13.7516 -13.1952 6.2
    endloop
  endfacet
  facet normal -0.854419 -0.519584 -0
    outer loop
      vertex -13.3271 -13.8933 6.2
      vertex -13.5 -13.609 2.49
      vertex -13.3271 -13.8933 2.49
    endloop
  endfacet
  facet normal -0.854419 -0.519584 -2.31392e-08
    outer loop
      vertex -13.5 -13.609 2.49
      vertex -13.3271 -13.8933 6.2
      vertex -13.7516 -13.1952 6.2
    endloop
  endfacet
  facet normal 0.57668 -0.81697 9.21476e-10
    outer loop
      vertex -9.6198 -14.6637 6.2
      vertex -9.38796 -14.5 2.49
      vertex -8.95234 -14.1925 6.2
    endloop
  endfacet
  facet normal 0.57668 -0.81697 0
    outer loop
      vertex -9.6198 -14.6637 -0.0300005
      vertex -9.38796 -14.5 2.49
      vertex -9.6198 -14.6637 6.2
    endloop
  endfacet
  facet normal 0.57668 -0.81697 0
    outer loop
      vertex -9.38796 -14.5 2.49
      vertex -9.6198 -14.6637 -0.0300005
      vertex -9.38796 -14.5 -0.0300005
    endloop
  endfacet
  facet normal 0.57668 -0.81697 0
    outer loop
      vertex -8.95234 -14.1925 6.2
      vertex -9.38796 -14.5 2.49
      vertex -8.95234 -14.1925 2.49
    endloop
  endfacet
  facet normal -0.203456 -0.979084 0
    outer loop
      vertex -12.0046 -14.8268 -0.0300005
      vertex -11.2047 -14.993 6.2
      vertex -12.0046 -14.8268 6.2
    endloop
  endfacet
  facet normal -0.203456 -0.979084 -0
    outer loop
      vertex -11.2047 -14.993 6.2
      vertex -12.0046 -14.8268 -0.0300005
      vertex -11.2047 -14.993 -0.0300005
    endloop
  endfacet
  facet normal -1 0 0
    outer loop
      vertex -13.5 -9.5 -0.05
      vertex -13.5 -10.391 -0.0300005
      vertex -13.5 -9.5 2.49
    endloop
  endfacet
  facet normal -1 0 0
    outer loop
      vertex -13.5 -9.5 -0.05
      vertex -13.5 -13.609 -0.0300005
      vertex -13.5 -10.391 -0.0300005
    endloop
  endfacet
  facet normal -1 0 0
    outer loop
      vertex -13.5 -14.5 -0.05
      vertex -13.5 -13.609 -0.0300005
      vertex -13.5 -9.5 -0.05
    endloop
  endfacet
  facet normal -1 0 0
    outer loop
      vertex -13.5 -14.5 2.49
      vertex -13.5 -13.609 -0.0300005
      vertex -13.5 -14.5 -0.05
    endloop
  endfacet
  facet normal -1 0 0
    outer loop
      vertex -13.5 -13.609 -0.0300005
      vertex -13.5 -14.5 2.49
      vertex -13.5 -13.609 2.49
    endloop
  endfacet
  facet normal -1 -0 0
    outer loop
      vertex -13.5 -9.5 2.49
      vertex -13.5 -10.391 -0.0300005
      vertex -13.5 -10.391 2.49
    endloop
  endfacet
  facet normal 0 0 1
    outer loop
      vertex -12.73 -14.4509 2.49
      vertex -13.5 -14.5 2.49
      vertex -12.6353 -14.5 2.49
    endloop
  endfacet
  facet normal 0 0 1
    outer loop
      vertex -13.3271 -13.8933 2.49
      vertex -13.5 -14.5 2.49
      vertex -12.73 -14.4509 2.49
    endloop
  endfacet
  facet normal 0 0 1
    outer loop
      vertex -13.5 -14.5 2.49
      vertex -13.3271 -13.8933 2.49
      vertex -13.5 -13.609 2.49
    endloop
  endfacet
  facet normal -0 0 1
    outer loop
      vertex -8.95234 -14.1925 2.49
      vertex -8.5 -14.5 2.49
      vertex -8.5 -13.6365 2.49
    endloop
  endfacet
  facet normal 0 0 1
    outer loop
      vertex -8.5 -14.5 2.49
      vertex -8.95234 -14.1925 2.49
      vertex -9.38796 -14.5 2.49
    endloop
  endfacet
  facet normal 0 0 1
    outer loop
      vertex -8.5 -9.5 2.49
      vertex -8.95234 -9.80749 2.49
      vertex -8.5 -10.3635 2.49
    endloop
  endfacet
  facet normal 0 -0 1
    outer loop
      vertex -8.95234 -9.80749 2.49
      vertex -8.5 -9.5 2.49
      vertex -9.38796 -9.5 2.49
    endloop
  endfacet
  facet normal -0 0 1
    outer loop
      vertex -13.5 -9.5 2.49
      vertex -12.73 -9.54909 2.49
      vertex -12.6353 -9.5 2.49
    endloop
  endfacet
  facet normal 0 0 1
    outer loop
      vertex -13.5 -9.5 2.49
      vertex -13.3271 -10.1067 2.49
      vertex -12.73 -9.54909 2.49
    endloop
  endfacet
  facet normal 0 0 1
    outer loop
      vertex -13.3271 -10.1067 2.49
      vertex -13.5 -9.5 2.49
      vertex -13.5 -10.391 2.49
    endloop
  endfacet
  facet normal 1 0 0
    outer loop
      vertex -8.5 -13.6365 2.49
      vertex -8.5 -14.5 2.49
      vertex -8.5 -13.6365 -0.0300005
    endloop
  endfacet
  facet normal 1 0 0
    outer loop
      vertex -8.5 -10.3635 -0.0300005
      vertex -8.5 -9.5 2.49
      vertex -8.5 -10.3635 2.49
    endloop
  endfacet
  facet normal 1 0 0
    outer loop
      vertex -8.5 -9.5 2.49
      vertex -8.5 -10.3635 -0.0300005
      vertex -8.5 -9.5 -0.05
    endloop
  endfacet
  facet normal 1 -0 0
    outer loop
      vertex -8.5 -13.6365 -0.0300005
      vertex -8.5 -9.5 -0.05
      vertex -8.5 -10.3635 -0.0300005
    endloop
  endfacet
  facet normal 1 0 0
    outer loop
      vertex -8.5 -13.6365 -0.0300005
      vertex -8.5 -14.5 -0.05
      vertex -8.5 -9.5 -0.05
    endloop
  endfacet
  facet normal 1 0 0
    outer loop
      vertex -8.5 -14.5 -0.05
      vertex -8.5 -13.6365 -0.0300005
      vertex -8.5 -14.5 2.49
    endloop
  endfacet
  facet normal 0 1 0
    outer loop
      vertex -8.5 -9.5 2.49
      vertex -9.38796 -9.5 -0.0300005
      vertex -9.38796 -9.5 2.49
    endloop
  endfacet
  facet normal 0 1 0
    outer loop
      vertex -9.38796 -9.5 -0.0300005
      vertex -8.5 -9.5 -0.05
      vertex -12.6353 -9.5 -0.0300005
    endloop
  endfacet
  facet normal 0 1 -0
    outer loop
      vertex -8.5 -9.5 -0.05
      vertex -9.38796 -9.5 -0.0300005
      vertex -8.5 -9.5 2.49
    endloop
  endfacet
  facet normal 0 1 -0
    outer loop
      vertex -12.6353 -9.5 -0.0300005
      vertex -13.5 -9.5 2.49
      vertex -12.6353 -9.5 2.49
    endloop
  endfacet
  facet normal 0 1 0
    outer loop
      vertex -12.6353 -9.5 -0.0300005
      vertex -13.5 -9.5 -0.05
      vertex -13.5 -9.5 2.49
    endloop
  endfacet
  facet normal 0 1 0
    outer loop
      vertex -13.5 -9.5 -0.05
      vertex -12.6353 -9.5 -0.0300005
      vertex -8.5 -9.5 -0.05
    endloop
  endfacet
  facet normal 0 0 -1
    outer loop
      vertex -13.5 -14.5 -0.05
      vertex -8.5 -9.5 -0.05
      vertex -8.5 -14.5 -0.05
    endloop
  endfacet
  facet normal -0 0 -1
    outer loop
      vertex -8.5 -9.5 -0.05
      vertex -13.5 -14.5 -0.05
      vertex -13.5 -9.5 -0.05
    endloop
  endfacet
  facet normal 0 -1 0
    outer loop
      vertex -13.5 -14.5 2.49
      vertex -12.6353 -14.5 -0.0300005
      vertex -12.6353 -14.5 2.49
    endloop
  endfacet
  facet normal 0 -1 -0
    outer loop
      vertex -12.6353 -14.5 -0.0300005
      vertex -13.5 -14.5 -0.05
      vertex -9.38796 -14.5 -0.0300005
    endloop
  endfacet
  facet normal 0 -1 0
    outer loop
      vertex -13.5 -14.5 -0.05
      vertex -12.6353 -14.5 -0.0300005
      vertex -13.5 -14.5 2.49
    endloop
  endfacet
  facet normal 0 -1 0
    outer loop
      vertex -9.38796 -14.5 -0.0300005
      vertex -8.5 -14.5 2.49
      vertex -9.38796 -14.5 2.49
    endloop
  endfacet
  facet normal 0 -1 0
    outer loop
      vertex -9.38796 -14.5 -0.0300005
      vertex -8.5 -14.5 -0.05
      vertex -8.5 -14.5 2.49
    endloop
  endfacet
  facet normal 0 -1 0
    outer loop
      vertex -8.5 -14.5 -0.05
      vertex -9.38796 -14.5 -0.0300005
      vertex -13.5 -14.5 -0.05
    endloop
  endfacet
  facet normal 0.990686 0.136166 0
    outer loop
      vertex -18 -12 6.2
      vertex -18.1112 -11.1906 -0.0300005
      vertex -18.1112 -11.1906 6.2
    endloop
  endfacet
  facet normal 0.990686 0.136166 0
    outer loop
      vertex -18.1112 -11.1906 -0.0300005
      vertex -18 -12 6.2
      vertex -18 -12 -0.0300005
    endloop
  endfacet
  facet normal -1 0 0
    outer loop
      vertex -23.9721 -12.4085 -0.0300005
      vertex -23.9721 -11.5915 6.2
      vertex -23.9721 -11.5915 -0.0300005
    endloop
  endfacet
  facet normal -1 -0 0
    outer loop
      vertex -23.9721 -11.5915 6.2
      vertex -23.9721 -12.4085 -0.0300005
      vertex -23.9721 -12.4085 6.2
    endloop
  endfacet
  facet normal 0.33488 0.942261 -0
    outer loop
      vertex -19.6198 -9.33634 -0.0300005
      vertex -20.3896 -9.06275 6.2
      vertex -19.6198 -9.33634 6.2
    endloop
  endfacet
  facet normal 0.33488 0.942261 0
    outer loop
      vertex -20.3896 -9.06275 6.2
      vertex -19.6198 -9.33634 -0.0300005
      vertex -20.3896 -9.06275 -0.0300005
    endloop
  endfacet
  facet normal 0.068242 -0.997669 0
    outer loop
      vertex -21.2047 -14.993 -0.0300005
      vertex -20.3896 -14.9373 6.2
      vertex -21.2047 -14.993 6.2
    endloop
  endfacet
  facet normal 0.068242 -0.997669 0
    outer loop
      vertex -20.3896 -14.9373 6.2
      vertex -21.2047 -14.993 -0.0300005
      vertex -20.3896 -14.9373 -0.0300005
    endloop
  endfacet
  facet normal 0.917212 0.3984 0
    outer loop
      vertex -18.1112 -11.1906 6.2
      vertex -18.4367 -10.4412 -0.0300005
      vertex -18.4367 -10.4412 6.2
    endloop
  endfacet
  facet normal 0.917212 0.3984 0
    outer loop
      vertex -18.4367 -10.4412 -0.0300005
      vertex -18.1112 -11.1906 6.2
      vertex -18.1112 -11.1906 -0.0300005
    endloop
  endfacet
  facet normal -0.460064 0.887886 -1.73566e-07
    outer loop
      vertex -22.0046 -9.17322 6.2
      vertex -22.6353 -9.5 2.49
      vertex -22.73 -9.54909 6.2
    endloop
  endfacet
  facet normal -0.460065 0.887885 0
    outer loop
      vertex -22.0046 -9.17322 -0.0300005
      vertex -22.6353 -9.5 2.49
      vertex -22.0046 -9.17322 6.2
    endloop
  endfacet
  facet normal -0.460065 0.887885 0
    outer loop
      vertex -22.6353 -9.5 2.49
      vertex -22.0046 -9.17322 -0.0300005
      vertex -22.6353 -9.5 -0.0300005
    endloop
  endfacet
  facet normal -0.460059 0.887888 0
    outer loop
      vertex -22.73 -9.54909 6.2
      vertex -22.6353 -9.5 2.49
      vertex -22.73 -9.54909 2.49
    endloop
  endfacet
  facet normal 0.775711 -0.631088 0
    outer loop
      vertex -18.4367 -13.5588 6.2
      vertex -18.5 -13.6365 2.49
      vertex -18.4367 -13.5588 -0.0300005
    endloop
  endfacet
  facet normal 0.775712 -0.631087 -2.18118e-08
    outer loop
      vertex -18.9523 -14.1925 6.2
      vertex -18.5 -13.6365 2.49
      vertex -18.4367 -13.5588 6.2
    endloop
  endfacet
  facet normal 0.775712 -0.631087 0
    outer loop
      vertex -18.5 -13.6365 2.49
      vertex -18.9523 -14.1925 6.2
      vertex -18.9523 -14.1925 2.49
    endloop
  endfacet
  facet normal 0.775711 -0.631088 0
    outer loop
      vertex -18.4367 -13.5588 -0.0300005
      vertex -18.5 -13.6365 2.49
      vertex -18.5 -13.6365 -0.0300005
    endloop
  endfacet
  facet normal -0.962917 -0.269798 0
    outer loop
      vertex -23.7516 -13.1952 -0.0300005
      vertex -23.9721 -12.4085 6.2
      vertex -23.9721 -12.4085 -0.0300005
    endloop
  endfacet
  facet normal -0.962917 -0.269798 0
    outer loop
      vertex -23.9721 -12.4085 6.2
      vertex -23.7516 -13.1952 -0.0300005
      vertex -23.7516 -13.1952 6.2
    endloop
  endfacet
  facet normal 0 0 -1
    outer loop
      vertex -18.1112 -12.8094 -0.0300005
      vertex -18.1112 -11.1906 -0.0300005
      vertex -18 -12 -0.0300005
    endloop
  endfacet
  facet normal 0 0 -1
    outer loop
      vertex -18.5 -13.6365 -0.0300005
      vertex -18.1112 -12.8094 -0.0300005
      vertex -18.4367 -13.5588 -0.0300005
    endloop
  endfacet
  facet normal -0 0 -1
    outer loop
      vertex -18.1112 -12.8094 -0.0300005
      vertex -18.5 -13.6365 -0.0300005
      vertex -18.1112 -11.1906 -0.0300005
    endloop
  endfacet
  facet normal 0 0 -1
    outer loop
      vertex -18.5 -10.3635 -0.0300005
      vertex -18.1112 -11.1906 -0.0300005
      vertex -18.5 -13.6365 -0.0300005
    endloop
  endfacet
  facet normal 0 0 -1
    outer loop
      vertex -18.1112 -11.1906 -0.0300005
      vertex -18.5 -10.3635 -0.0300005
      vertex -18.4367 -10.4412 -0.0300005
    endloop
  endfacet
  facet normal 0 0 -1
    outer loop
      vertex -23.9721 -12.4085 -0.0300005
      vertex -23.5 -13.609 -0.0300005
      vertex -23.7516 -13.1952 -0.0300005
    endloop
  endfacet
  facet normal 0 0 -1
    outer loop
      vertex -23.5 -13.609 -0.0300005
      vertex -23.9721 -12.4085 -0.0300005
      vertex -23.5 -10.391 -0.0300005
    endloop
  endfacet
  facet normal 0 0 -1
    outer loop
      vertex -23.9721 -11.5915 -0.0300005
      vertex -23.5 -10.391 -0.0300005
      vertex -23.9721 -12.4085 -0.0300005
    endloop
  endfacet
  facet normal 0 0 -1
    outer loop
      vertex -23.5 -10.391 -0.0300005
      vertex -23.9721 -11.5915 -0.0300005
      vertex -23.7516 -10.8048 -0.0300005
    endloop
  endfacet
  facet normal 0 0 -1
    outer loop
      vertex -19.388 -9.5 -0.0300005
      vertex -20.3896 -9.06275 -0.0300005
      vertex -19.6198 -9.33634 -0.0300005
    endloop
  endfacet
  facet normal 0 0 -1
    outer loop
      vertex -19.388 -9.5 -0.0300005
      vertex -21.2047 -9.00699 -0.0300005
      vertex -20.3896 -9.06275 -0.0300005
    endloop
  endfacet
  facet normal 0 0 -1
    outer loop
      vertex -19.388 -9.5 -0.0300005
      vertex -22.0046 -9.17322 -0.0300005
      vertex -21.2047 -9.00699 -0.0300005
    endloop
  endfacet
  facet normal 0 -0 -1
    outer loop
      vertex -22.0046 -9.17322 -0.0300005
      vertex -19.388 -9.5 -0.0300005
      vertex -22.6353 -9.5 -0.0300005
    endloop
  endfacet
  facet normal 0 0 -1
    outer loop
      vertex -20.3896 -14.9373 -0.0300005
      vertex -19.388 -14.5 -0.0300005
      vertex -19.6198 -14.6637 -0.0300005
    endloop
  endfacet
  facet normal 0 0 -1
    outer loop
      vertex -21.2047 -14.993 -0.0300005
      vertex -19.388 -14.5 -0.0300005
      vertex -20.3896 -14.9373 -0.0300005
    endloop
  endfacet
  facet normal 0 0 -1
    outer loop
      vertex -22.0046 -14.8268 -0.0300005
      vertex -19.388 -14.5 -0.0300005
      vertex -21.2047 -14.993 -0.0300005
    endloop
  endfacet
  facet normal -0 0 -1
    outer loop
      vertex -19.388 -14.5 -0.0300005
      vertex -22.0046 -14.8268 -0.0300005
      vertex -22.6353 -14.5 -0.0300005
    endloop
  endfacet
  facet normal 0.775712 0.631087 0
    outer loop
      vertex -18.9523 -9.80749 6.2
      vertex -18.5 -10.3635 2.49
      vertex -18.9523 -9.80749 2.49
    endloop
  endfacet
  facet normal 0.775712 0.631087 -2.18118e-08
    outer loop
      vertex -18.4367 -10.4412 6.2
      vertex -18.5 -10.3635 2.49
      vertex -18.9523 -9.80749 6.2
    endloop
  endfacet
  facet normal 0.775711 0.631088 -0
    outer loop
      vertex -18.4367 -10.4412 -0.0300005
      vertex -18.5 -10.3635 2.49
      vertex -18.4367 -10.4412 6.2
    endloop
  endfacet
  facet normal 0.775711 0.631088 0
    outer loop
      vertex -18.5 -10.3635 2.49
      vertex -18.4367 -10.4412 -0.0300005
      vertex -18.5 -10.3635 -0.0300005
    endloop
  endfacet
  facet normal 0.576679 0.816971 0
    outer loop
      vertex -19.388 -9.5 2.49
      vertex -18.9523 -9.80749 6.2
      vertex -18.9523 -9.80749 2.49
    endloop
  endfacet
  facet normal 0.57668 0.81697 -1.12338e-07
    outer loop
      vertex -18.9523 -9.80749 6.2
      vertex -19.388 -9.5 2.49
      vertex -19.6198 -9.33634 6.2
    endloop
  endfacet
  facet normal 0.576681 0.81697 0
    outer loop
      vertex -19.6198 -9.33634 -0.0300005
      vertex -19.388 -9.5 2.49
      vertex -19.388 -9.5 -0.0300005
    endloop
  endfacet
  facet normal 0.576681 0.81697 0
    outer loop
      vertex -19.388 -9.5 2.49
      vertex -19.6198 -9.33634 -0.0300005
      vertex -19.6198 -9.33634 6.2
    endloop
  endfacet
  facet normal -0.203456 0.979084 0
    outer loop
      vertex -21.2047 -9.00699 -0.0300005
      vertex -22.0046 -9.17322 6.2
      vertex -21.2047 -9.00699 6.2
    endloop
  endfacet
  facet normal -0.203456 0.979084 0
    outer loop
      vertex -22.0046 -9.17322 6.2
      vertex -21.2047 -9.00699 -0.0300005
      vertex -22.0046 -9.17322 -0.0300005
    endloop
  endfacet
  facet normal 0 0 1
    outer loop
      vertex -18.1112 -11.1906 6.2
      vertex -18.1112 -12.8094 6.2
      vertex -18 -12 6.2
    endloop
  endfacet
  facet normal 0 0 1
    outer loop
      vertex -18.4367 -10.4412 6.2
      vertex -18.1112 -12.8094 6.2
      vertex -18.1112 -11.1906 6.2
    endloop
  endfacet
  facet normal 0 0 1
    outer loop
      vertex -18.4367 -10.4412 6.2
      vertex -18.4367 -13.5588 6.2
      vertex -18.1112 -12.8094 6.2
    endloop
  endfacet
  facet normal 0 0 1
    outer loop
      vertex -18.9523 -9.80749 6.2
      vertex -18.4367 -13.5588 6.2
      vertex -18.4367 -10.4412 6.2
    endloop
  endfacet
  facet normal 0 0 1
    outer loop
      vertex -18.9523 -9.80749 6.2
      vertex -18.9523 -14.1925 6.2
      vertex -18.4367 -13.5588 6.2
    endloop
  endfacet
  facet normal 0 0 1
    outer loop
      vertex -19.6198 -9.33634 6.2
      vertex -18.9523 -14.1925 6.2
      vertex -18.9523 -9.80749 6.2
    endloop
  endfacet
  facet normal 0 0 1
    outer loop
      vertex -19.6198 -9.33634 6.2
      vertex -19.6198 -14.6637 6.2
      vertex -18.9523 -14.1925 6.2
    endloop
  endfacet
  facet normal 0 0 1
    outer loop
      vertex -20.3896 -9.06275 6.2
      vertex -19.6198 -14.6637 6.2
      vertex -19.6198 -9.33634 6.2
    endloop
  endfacet
  facet normal 0 0 1
    outer loop
      vertex -20.3896 -9.06275 6.2
      vertex -20.3896 -14.9373 6.2
      vertex -19.6198 -14.6637 6.2
    endloop
  endfacet
  facet normal 0 0 1
    outer loop
      vertex -21.2047 -9.00699 6.2
      vertex -20.3896 -14.9373 6.2
      vertex -20.3896 -9.06275 6.2
    endloop
  endfacet
  facet normal 0 0 1
    outer loop
      vertex -21.2047 -9.00699 6.2
      vertex -21.2047 -14.993 6.2
      vertex -20.3896 -14.9373 6.2
    endloop
  endfacet
  facet normal -0 0 1
    outer loop
      vertex -22.0046 -9.17322 6.2
      vertex -21.2047 -14.993 6.2
      vertex -21.2047 -9.00699 6.2
    endloop
  endfacet
  facet normal 0 0 1
    outer loop
      vertex -22.0046 -9.17322 6.2
      vertex -22.0046 -14.8268 6.2
      vertex -21.2047 -14.993 6.2
    endloop
  endfacet
  facet normal -0 0 1
    outer loop
      vertex -22.73 -9.54909 6.2
      vertex -22.0046 -14.8268 6.2
      vertex -22.0046 -9.17322 6.2
    endloop
  endfacet
  facet normal 0 0 1
    outer loop
      vertex -22.73 -9.54909 6.2
      vertex -22.73 -14.4509 6.2
      vertex -22.0046 -14.8268 6.2
    endloop
  endfacet
  facet normal -0 0 1
    outer loop
      vertex -23.3271 -10.1067 6.2
      vertex -22.73 -14.4509 6.2
      vertex -22.73 -9.54909 6.2
    endloop
  endfacet
  facet normal 0 0 1
    outer loop
      vertex -23.3271 -10.1067 6.2
      vertex -23.3271 -13.8933 6.2
      vertex -22.73 -14.4509 6.2
    endloop
  endfacet
  facet normal -0 0 1
    outer loop
      vertex -23.7516 -10.8048 6.2
      vertex -23.3271 -13.8933 6.2
      vertex -23.3271 -10.1067 6.2
    endloop
  endfacet
  facet normal 0 0 1
    outer loop
      vertex -23.7516 -10.8048 6.2
      vertex -23.7516 -13.1952 6.2
      vertex -23.3271 -13.8933 6.2
    endloop
  endfacet
  facet normal -0 0 1
    outer loop
      vertex -23.9721 -11.5915 6.2
      vertex -23.7516 -13.1952 6.2
      vertex -23.7516 -10.8048 6.2
    endloop
  endfacet
  facet normal 0 0 1
    outer loop
      vertex -23.7516 -13.1952 6.2
      vertex -23.9721 -11.5915 6.2
      vertex -23.9721 -12.4085 6.2
    endloop
  endfacet
  facet normal -0.962917 0.269798 0
    outer loop
      vertex -23.9721 -11.5915 -0.0300005
      vertex -23.7516 -10.8048 6.2
      vertex -23.7516 -10.8048 -0.0300005
    endloop
  endfacet
  facet normal -0.962917 0.269798 0
    outer loop
      vertex -23.7516 -10.8048 6.2
      vertex -23.9721 -11.5915 -0.0300005
      vertex -23.9721 -11.5915 6.2
    endloop
  endfacet
  facet normal -0.682554 0.730835 0
    outer loop
      vertex -22.73 -9.54909 2.49
      vertex -23.3271 -10.1067 6.2
      vertex -22.73 -9.54909 6.2
    endloop
  endfacet
  facet normal -0.682554 0.730835 0
    outer loop
      vertex -23.3271 -10.1067 6.2
      vertex -22.73 -9.54909 2.49
      vertex -23.3271 -10.1067 2.49
    endloop
  endfacet
  facet normal -0.85442 0.519583 0
    outer loop
      vertex -23.5 -10.391 -0.0300005
      vertex -23.7516 -10.8048 -0.0300005
      vertex -23.5 -10.391 2.49
    endloop
  endfacet
  facet normal -0.854419 0.519584 0
    outer loop
      vertex -23.5 -10.391 2.49
      vertex -23.3271 -10.1067 6.2
      vertex -23.3271 -10.1067 2.49
    endloop
  endfacet
  facet normal -0.85442 0.519583 0
    outer loop
      vertex -23.7516 -10.8048 6.2
      vertex -23.5 -10.391 2.49
      vertex -23.7516 -10.8048 -0.0300005
    endloop
  endfacet
  facet normal -0.85442 0.519583 6.63007e-08
    outer loop
      vertex -23.5 -10.391 2.49
      vertex -23.7516 -10.8048 6.2
      vertex -23.3271 -10.1067 6.2
    endloop
  endfacet
  facet normal 0.917212 -0.3984 0
    outer loop
      vertex -18.4367 -13.5588 6.2
      vertex -18.1112 -12.8094 -0.0300005
      vertex -18.1112 -12.8094 6.2
    endloop
  endfacet
  facet normal 0.917212 -0.3984 0
    outer loop
      vertex -18.1112 -12.8094 -0.0300005
      vertex -18.4367 -13.5588 6.2
      vertex -18.4367 -13.5588 -0.0300005
    endloop
  endfacet
  facet normal 0.33488 -0.942261 0
    outer loop
      vertex -20.3896 -14.9373 -0.0300005
      vertex -19.6198 -14.6637 6.2
      vertex -20.3896 -14.9373 6.2
    endloop
  endfacet
  facet normal 0.33488 -0.942261 0
    outer loop
      vertex -19.6198 -14.6637 6.2
      vertex -20.3896 -14.9373 -0.0300005
      vertex -19.6198 -14.6637 -0.0300005
    endloop
  endfacet
  facet normal 0.57668 -0.81697 -1.98808e-07
    outer loop
      vertex -19.6198 -14.6637 6.2
      vertex -19.388 -14.5 2.49
      vertex -18.9523 -14.1925 6.2
    endloop
  endfacet
  facet normal 0.576682 -0.816969 0
    outer loop
      vertex -19.6198 -14.6637 -0.0300005
      vertex -19.388 -14.5 2.49
      vertex -19.6198 -14.6637 6.2
    endloop
  endfacet
  facet normal 0.576682 -0.816969 0
    outer loop
      vertex -19.388 -14.5 2.49
      vertex -19.6198 -14.6637 -0.0300005
      vertex -19.388 -14.5 -0.0300005
    endloop
  endfacet
  facet normal 0.576678 -0.816971 0
    outer loop
      vertex -18.9523 -14.1925 6.2
      vertex -19.388 -14.5 2.49
      vertex -18.9523 -14.1925 2.49
    endloop
  endfacet
  facet normal -0.460059 -0.887889 0
    outer loop
      vertex -22.6353 -14.5 2.49
      vertex -22.73 -14.4509 6.2
      vertex -22.73 -14.4509 2.49
    endloop
  endfacet
  facet normal -0.460064 -0.887886 -1.81854e-07
    outer loop
      vertex -22.73 -14.4509 6.2
      vertex -22.6353 -14.5 2.49
      vertex -22.0046 -14.8268 6.2
    endloop
  endfacet
  facet normal -0.460065 -0.887885 0
    outer loop
      vertex -22.0046 -14.8268 -0.0300005
      vertex -22.6353 -14.5 2.49
      vertex -22.6353 -14.5 -0.0300005
    endloop
  endfacet
  facet normal -0.460065 -0.887885 0
    outer loop
      vertex -22.6353 -14.5 2.49
      vertex -22.0046 -14.8268 -0.0300005
      vertex -22.0046 -14.8268 6.2
    endloop
  endfacet
  facet normal -0.85442 -0.519583 -0
    outer loop
      vertex -23.5 -13.609 2.49
      vertex -23.7516 -13.1952 -0.0300005
      vertex -23.5 -13.609 -0.0300005
    endloop
  endfacet
  facet normal -0.85442 -0.519583 0
    outer loop
      vertex -23.7516 -13.1952 -0.0300005
      vertex -23.5 -13.609 2.49
      vertex -23.7516 -13.1952 6.2
    endloop
  endfacet
  facet normal -0.854419 -0.519584 -0
    outer loop
      vertex -23.3271 -13.8933 6.2
      vertex -23.5 -13.609 2.49
      vertex -23.3271 -13.8933 2.49
    endloop
  endfacet
  facet normal -0.85442 -0.519583 6.63007e-08
    outer loop
      vertex -23.5 -13.609 2.49
      vertex -23.3271 -13.8933 6.2
      vertex -23.7516 -13.1952 6.2
    endloop
  endfacet
  facet normal 0.068242 0.997669 -0
    outer loop
      vertex -20.3896 -9.06275 -0.0300005
      vertex -21.2047 -9.00699 6.2
      vertex -20.3896 -9.06275 6.2
    endloop
  endfacet
  facet normal 0.068242 0.997669 0
    outer loop
      vertex -21.2047 -9.00699 6.2
      vertex -20.3896 -9.06275 -0.0300005
      vertex -21.2047 -9.00699 -0.0300005
    endloop
  endfacet
  facet normal 0.990686 -0.136167 0
    outer loop
      vertex -18.1112 -12.8094 6.2
      vertex -18 -12 -0.0300005
      vertex -18 -12 6.2
    endloop
  endfacet
  facet normal 0.990686 -0.136167 0
    outer loop
      vertex -18 -12 -0.0300005
      vertex -18.1112 -12.8094 6.2
      vertex -18.1112 -12.8094 -0.0300005
    endloop
  endfacet
  facet normal -0.203456 -0.979084 0
    outer loop
      vertex -22.0046 -14.8268 -0.0300005
      vertex -21.2047 -14.993 6.2
      vertex -22.0046 -14.8268 6.2
    endloop
  endfacet
  facet normal -0.203456 -0.979084 -0
    outer loop
      vertex -21.2047 -14.993 6.2
      vertex -22.0046 -14.8268 -0.0300005
      vertex -21.2047 -14.993 -0.0300005
    endloop
  endfacet
  facet normal -0.682554 -0.730835 0
    outer loop
      vertex -23.3271 -13.8933 2.49
      vertex -22.73 -14.4509 6.2
      vertex -23.3271 -13.8933 6.2
    endloop
  endfacet
  facet normal -0.682554 -0.730835 -0
    outer loop
      vertex -22.73 -14.4509 6.2
      vertex -23.3271 -13.8933 2.49
      vertex -22.73 -14.4509 2.49
    endloop
  endfacet
  facet normal -1 0 0
    outer loop
      vertex -23.5 -9.5 -0.05
      vertex -23.5 -10.391 -0.0300005
      vertex -23.5 -9.5 2.49
    endloop
  endfacet
  facet normal -1 0 0
    outer loop
      vertex -23.5 -9.5 -0.05
      vertex -23.5 -13.609 -0.0300005
      vertex -23.5 -10.391 -0.0300005
    endloop
  endfacet
  facet normal -1 0 0
    outer loop
      vertex -23.5 -14.5 -0.05
      vertex -23.5 -13.609 -0.0300005
      vertex -23.5 -9.5 -0.05
    endloop
  endfacet
  facet normal -1 0 0
    outer loop
      vertex -23.5 -14.5 2.49
      vertex -23.5 -13.609 -0.0300005
      vertex -23.5 -14.5 -0.05
    endloop
  endfacet
  facet normal -1 0 0
    outer loop
      vertex -23.5 -13.609 -0.0300005
      vertex -23.5 -14.5 2.49
      vertex -23.5 -13.609 2.49
    endloop
  endfacet
  facet normal -1 -0 0
    outer loop
      vertex -23.5 -9.5 2.49
      vertex -23.5 -10.391 -0.0300005
      vertex -23.5 -10.391 2.49
    endloop
  endfacet
  facet normal 0 0 1
    outer loop
      vertex -22.73 -14.4509 2.49
      vertex -23.5 -14.5 2.49
      vertex -22.6353 -14.5 2.49
    endloop
  endfacet
  facet normal 0 0 1
    outer loop
      vertex -23.3271 -13.8933 2.49
      vertex -23.5 -14.5 2.49
      vertex -22.73 -14.4509 2.49
    endloop
  endfacet
  facet normal 0 0 1
    outer loop
      vertex -23.5 -14.5 2.49
      vertex -23.3271 -13.8933 2.49
      vertex -23.5 -13.609 2.49
    endloop
  endfacet
  facet normal -0 0 1
    outer loop
      vertex -18.9523 -14.1925 2.49
      vertex -18.5 -14.5 2.49
      vertex -18.5 -13.6365 2.49
    endloop
  endfacet
  facet normal 0 0 1
    outer loop
      vertex -18.5 -14.5 2.49
      vertex -18.9523 -14.1925 2.49
      vertex -19.388 -14.5 2.49
    endloop
  endfacet
  facet normal 0 0 1
    outer loop
      vertex -18.5 -9.5 2.49
      vertex -18.9523 -9.80749 2.49
      vertex -18.5 -10.3635 2.49
    endloop
  endfacet
  facet normal 0 -0 1
    outer loop
      vertex -18.9523 -9.80749 2.49
      vertex -18.5 -9.5 2.49
      vertex -19.388 -9.5 2.49
    endloop
  endfacet
  facet normal -0 0 1
    outer loop
      vertex -23.5 -9.5 2.49
      vertex -22.73 -9.54909 2.49
      vertex -22.6353 -9.5 2.49
    endloop
  endfacet
  facet normal 0 0 1
    outer loop
      vertex -23.5 -9.5 2.49
      vertex -23.3271 -10.1067 2.49
      vertex -22.73 -9.54909 2.49
    endloop
  endfacet
  facet normal 0 0 1
    outer loop
      vertex -23.3271 -10.1067 2.49
      vertex -23.5 -9.5 2.49
      vertex -23.5 -10.391 2.49
    endloop
  endfacet
  facet normal 1 0 0
    outer loop
      vertex -18.5 -13.6365 2.49
      vertex -18.5 -14.5 2.49
      vertex -18.5 -13.6365 -0.0300005
    endloop
  endfacet
  facet normal 1 0 0
    outer loop
      vertex -18.5 -10.3635 -0.0300005
      vertex -18.5 -9.5 2.49
      vertex -18.5 -10.3635 2.49
    endloop
  endfacet
  facet normal 1 0 0
    outer loop
      vertex -18.5 -9.5 2.49
      vertex -18.5 -10.3635 -0.0300005
      vertex -18.5 -9.5 -0.05
    endloop
  endfacet
  facet normal 1 -0 0
    outer loop
      vertex -18.5 -13.6365 -0.0300005
      vertex -18.5 -9.5 -0.05
      vertex -18.5 -10.3635 -0.0300005
    endloop
  endfacet
  facet normal 1 0 0
    outer loop
      vertex -18.5 -13.6365 -0.0300005
      vertex -18.5 -14.5 -0.05
      vertex -18.5 -9.5 -0.05
    endloop
  endfacet
  facet normal 1 0 0
    outer loop
      vertex -18.5 -14.5 -0.05
      vertex -18.5 -13.6365 -0.0300005
      vertex -18.5 -14.5 2.49
    endloop
  endfacet
  facet normal 0 0 -1
    outer loop
      vertex -23.5 -14.5 -0.05
      vertex -18.5 -9.5 -0.05
      vertex -18.5 -14.5 -0.05
    endloop
  endfacet
  facet normal -0 0 -1
    outer loop
      vertex -18.5 -9.5 -0.05
      vertex -23.5 -14.5 -0.05
      vertex -23.5 -9.5 -0.05
    endloop
  endfacet
  facet normal 0 -1 0
    outer loop
      vertex -23.5 -14.5 2.49
      vertex -22.6353 -14.5 -0.0300005
      vertex -22.6353 -14.5 2.49
    endloop
  endfacet
  facet normal 0 -1 -0
    outer loop
      vertex -22.6353 -14.5 -0.0300005
      vertex -23.5 -14.5 -0.05
      vertex -19.388 -14.5 -0.0300005
    endloop
  endfacet
  facet normal 0 -1 0
    outer loop
      vertex -23.5 -14.5 -0.05
      vertex -22.6353 -14.5 -0.0300005
      vertex -23.5 -14.5 2.49
    endloop
  endfacet
  facet normal 0 -1 0
    outer loop
      vertex -19.388 -14.5 -0.0300005
      vertex -18.5 -14.5 2.49
      vertex -19.388 -14.5 2.49
    endloop
  endfacet
  facet normal 0 -1 0
    outer loop
      vertex -19.388 -14.5 -0.0300005
      vertex -18.5 -14.5 -0.05
      vertex -18.5 -14.5 2.49
    endloop
  endfacet
  facet normal 0 -1 0
    outer loop
      vertex -18.5 -14.5 -0.05
      vertex -19.388 -14.5 -0.0300005
      vertex -23.5 -14.5 -0.05
    endloop
  endfacet
  facet normal 0 1 0
    outer loop
      vertex -18.5 -9.5 2.49
      vertex -19.388 -9.5 -0.0300005
      vertex -19.388 -9.5 2.49
    endloop
  endfacet
  facet normal 0 1 0
    outer loop
      vertex -19.388 -9.5 -0.0300005
      vertex -18.5 -9.5 -0.05
      vertex -22.6353 -9.5 -0.0300005
    endloop
  endfacet
  facet normal 0 1 -0
    outer loop
      vertex -18.5 -9.5 -0.05
      vertex -19.388 -9.5 -0.0300005
      vertex -18.5 -9.5 2.49
    endloop
  endfacet
  facet normal 0 1 -0
    outer loop
      vertex -22.6353 -9.5 -0.0300005
      vertex -23.5 -9.5 2.49
      vertex -22.6353 -9.5 2.49
    endloop
  endfacet
  facet normal 0 1 0
    outer loop
      vertex -22.6353 -9.5 -0.0300005
      vertex -23.5 -9.5 -0.05
      vertex -23.5 -9.5 2.49
    endloop
  endfacet
  facet normal 0 1 0
    outer loop
      vertex -23.5 -9.5 -0.05
      vertex -22.6353 -9.5 -0.0300005
      vertex -18.5 -9.5 -0.05
    endloop
  endfacet
  facet normal 0.990686 0.136168 0
    outer loop
      vertex 2 -12 6.2
      vertex 1.88875 -11.1906 -0.0300005
      vertex 1.88875 -11.1906 6.2
    endloop
  endfacet
  facet normal 0.990686 0.136168 0
    outer loop
      vertex 1.88875 -11.1906 -0.0300005
      vertex 2 -12 6.2
      vertex 2 -12 -0.0300005
    endloop
  endfacet
  facet normal -1 0 0
    outer loop
      vertex -3.97206 -12.4085 -0.0300005
      vertex -3.97206 -11.5915 6.2
      vertex -3.97206 -11.5915 -0.0300005
    endloop
  endfacet
  facet normal -1 -0 0
    outer loop
      vertex -3.97206 -11.5915 6.2
      vertex -3.97206 -12.4085 -0.0300005
      vertex -3.97206 -12.4085 6.2
    endloop
  endfacet
  facet normal -0.203456 0.979084 0
    outer loop
      vertex -1.20473 -9.00699 -0.0300005
      vertex -2.00464 -9.17322 6.2
      vertex -1.20473 -9.00699 6.2
    endloop
  endfacet
  facet normal -0.203456 0.979084 0
    outer loop
      vertex -2.00464 -9.17322 6.2
      vertex -1.20473 -9.00699 -0.0300005
      vertex -2.00464 -9.17322 -0.0300005
    endloop
  endfacet
  facet normal 0 0 -1
    outer loop
      vertex 1.88875 -12.8094 -0.0300005
      vertex 1.88875 -11.1906 -0.0300005
      vertex 2 -12 -0.0300005
    endloop
  endfacet
  facet normal 0 0 -1
    outer loop
      vertex 1.5 -13.6365 -0.0300005
      vertex 1.88875 -12.8094 -0.0300005
      vertex 1.56326 -13.5588 -0.0300005
    endloop
  endfacet
  facet normal -0 0 -1
    outer loop
      vertex 1.88875 -12.8094 -0.0300005
      vertex 1.5 -13.6365 -0.0300005
      vertex 1.88875 -11.1906 -0.0300005
    endloop
  endfacet
  facet normal 0 0 -1
    outer loop
      vertex 1.5 -10.3635 -0.0300005
      vertex 1.88875 -11.1906 -0.0300005
      vertex 1.5 -13.6365 -0.0300005
    endloop
  endfacet
  facet normal 0 0 -1
    outer loop
      vertex 1.88875 -11.1906 -0.0300005
      vertex 1.5 -10.3635 -0.0300005
      vertex 1.56326 -10.4412 -0.0300005
    endloop
  endfacet
  facet normal 0 0 -1
    outer loop
      vertex -3.97206 -12.4085 -0.0300005
      vertex -3.5 -13.609 -0.0300005
      vertex -3.75163 -13.1952 -0.0300005
    endloop
  endfacet
  facet normal 0 0 -1
    outer loop
      vertex -3.5 -13.609 -0.0300005
      vertex -3.97206 -12.4085 -0.0300005
      vertex -3.5 -10.391 -0.0300005
    endloop
  endfacet
  facet normal 0 0 -1
    outer loop
      vertex -3.97206 -11.5915 -0.0300005
      vertex -3.5 -10.391 -0.0300005
      vertex -3.97206 -12.4085 -0.0300005
    endloop
  endfacet
  facet normal 0 0 -1
    outer loop
      vertex -3.5 -10.391 -0.0300005
      vertex -3.97206 -11.5915 -0.0300005
      vertex -3.75163 -10.8048 -0.0300005
    endloop
  endfacet
  facet normal 0 0 -1
    outer loop
      vertex 0.612043 -9.5 -0.0300005
      vertex -0.389631 -9.06275 -0.0300005
      vertex 0.380195 -9.33634 -0.0300005
    endloop
  endfacet
  facet normal 0 0 -1
    outer loop
      vertex 0.612043 -9.5 -0.0300005
      vertex -1.20473 -9.00699 -0.0300005
      vertex -0.389631 -9.06275 -0.0300005
    endloop
  endfacet
  facet normal 0 0 -1
    outer loop
      vertex 0.612043 -9.5 -0.0300005
      vertex -2.00464 -9.17322 -0.0300005
      vertex -1.20473 -9.00699 -0.0300005
    endloop
  endfacet
  facet normal 0 -0 -1
    outer loop
      vertex -2.00464 -9.17322 -0.0300005
      vertex 0.612043 -9.5 -0.0300005
      vertex -2.6353 -9.5 -0.0300005
    endloop
  endfacet
  facet normal 0 0 -1
    outer loop
      vertex -0.389631 -14.9373 -0.0300005
      vertex 0.612041 -14.5 -0.0300005
      vertex 0.380195 -14.6637 -0.0300005
    endloop
  endfacet
  facet normal 0 0 -1
    outer loop
      vertex -1.20473 -14.993 -0.0300005
      vertex 0.612041 -14.5 -0.0300005
      vertex -0.389631 -14.9373 -0.0300005
    endloop
  endfacet
  facet normal 0 0 -1
    outer loop
      vertex -2.00464 -14.8268 -0.0300005
      vertex 0.612041 -14.5 -0.0300005
      vertex -1.20473 -14.993 -0.0300005
    endloop
  endfacet
  facet normal -0 0 -1
    outer loop
      vertex 0.612041 -14.5 -0.0300005
      vertex -2.00464 -14.8268 -0.0300005
      vertex -2.6353 -14.5 -0.0300005
    endloop
  endfacet
  facet normal 0.57668 0.81697 0
    outer loop
      vertex 0.612043 -9.5 2.49
      vertex 1.04766 -9.80749 6.2
      vertex 1.04766 -9.80749 2.49
    endloop
  endfacet
  facet normal 0.57668 0.81697 4.00813e-09
    outer loop
      vertex 1.04766 -9.80749 6.2
      vertex 0.612043 -9.5 2.49
      vertex 0.380195 -9.33634 6.2
    endloop
  endfacet
  facet normal 0.57668 0.81697 0
    outer loop
      vertex 0.380195 -9.33634 -0.0300005
      vertex 0.612043 -9.5 2.49
      vertex 0.612043 -9.5 -0.0300005
    endloop
  endfacet
  facet normal 0.57668 0.81697 0
    outer loop
      vertex 0.612043 -9.5 2.49
      vertex 0.380195 -9.33634 -0.0300005
      vertex 0.380195 -9.33634 6.2
    endloop
  endfacet
  facet normal 0.917212 0.3984 0
    outer loop
      vertex 1.88875 -11.1906 6.2
      vertex 1.56326 -10.4412 -0.0300005
      vertex 1.56326 -10.4412 6.2
    endloop
  endfacet
  facet normal 0.917212 0.3984 0
    outer loop
      vertex 1.56326 -10.4412 -0.0300005
      vertex 1.88875 -11.1906 6.2
      vertex 1.88875 -11.1906 -0.0300005
    endloop
  endfacet
  facet normal 0.33488 0.942261 -0
    outer loop
      vertex 0.380195 -9.33634 -0.0300005
      vertex -0.389631 -9.06275 6.2
      vertex 0.380195 -9.33634 6.2
    endloop
  endfacet
  facet normal 0.33488 0.942261 0
    outer loop
      vertex -0.389631 -9.06275 6.2
      vertex 0.380195 -9.33634 -0.0300005
      vertex -0.389631 -9.06275 -0.0300005
    endloop
  endfacet
  facet normal -0.854419 0.519584 0
    outer loop
      vertex -3.5 -10.391 -0.0300005
      vertex -3.75163 -10.8048 -0.0300005
      vertex -3.5 -10.391 2.49
    endloop
  endfacet
  facet normal -0.854419 0.519584 0
    outer loop
      vertex -3.5 -10.391 2.49
      vertex -3.32713 -10.1067 6.2
      vertex -3.32713 -10.1067 2.49
    endloop
  endfacet
  facet normal -0.854419 0.519584 0
    outer loop
      vertex -3.75163 -10.8048 6.2
      vertex -3.5 -10.391 2.49
      vertex -3.75163 -10.8048 -0.0300005
    endloop
  endfacet
  facet normal -0.854419 0.519584 -2.31392e-08
    outer loop
      vertex -3.5 -10.391 2.49
      vertex -3.75163 -10.8048 6.2
      vertex -3.32713 -10.1067 6.2
    endloop
  endfacet
  facet normal -0.962917 0.269797 0
    outer loop
      vertex -3.97206 -11.5915 -0.0300005
      vertex -3.75163 -10.8048 6.2
      vertex -3.75163 -10.8048 -0.0300005
    endloop
  endfacet
  facet normal -0.962917 0.269797 0
    outer loop
      vertex -3.75163 -10.8048 6.2
      vertex -3.97206 -11.5915 -0.0300005
      vertex -3.97206 -11.5915 6.2
    endloop
  endfacet
  facet normal 0 0 1
    outer loop
      vertex 1.88875 -11.1906 6.2
      vertex 1.88875 -12.8094 6.2
      vertex 2 -12 6.2
    endloop
  endfacet
  facet normal 0 0 1
    outer loop
      vertex 1.56326 -10.4412 6.2
      vertex 1.88875 -12.8094 6.2
      vertex 1.88875 -11.1906 6.2
    endloop
  endfacet
  facet normal 0 0 1
    outer loop
      vertex 1.56326 -10.4412 6.2
      vertex 1.56326 -13.5588 6.2
      vertex 1.88875 -12.8094 6.2
    endloop
  endfacet
  facet normal 0 0 1
    outer loop
      vertex 1.04766 -9.80749 6.2
      vertex 1.56326 -13.5588 6.2
      vertex 1.56326 -10.4412 6.2
    endloop
  endfacet
  facet normal 0 0 1
    outer loop
      vertex 1.04766 -9.80749 6.2
      vertex 1.04766 -14.1925 6.2
      vertex 1.56326 -13.5588 6.2
    endloop
  endfacet
  facet normal 0 0 1
    outer loop
      vertex 0.380195 -9.33634 6.2
      vertex 1.04766 -14.1925 6.2
      vertex 1.04766 -9.80749 6.2
    endloop
  endfacet
  facet normal 0 0 1
    outer loop
      vertex 0.380195 -9.33634 6.2
      vertex 0.380195 -14.6637 6.2
      vertex 1.04766 -14.1925 6.2
    endloop
  endfacet
  facet normal 0 0 1
    outer loop
      vertex -0.389631 -9.06275 6.2
      vertex 0.380195 -14.6637 6.2
      vertex 0.380195 -9.33634 6.2
    endloop
  endfacet
  facet normal 0 0 1
    outer loop
      vertex -0.389631 -9.06275 6.2
      vertex -0.389631 -14.9373 6.2
      vertex 0.380195 -14.6637 6.2
    endloop
  endfacet
  facet normal 0 0 1
    outer loop
      vertex -1.20473 -9.00699 6.2
      vertex -0.389631 -14.9373 6.2
      vertex -0.389631 -9.06275 6.2
    endloop
  endfacet
  facet normal 0 0 1
    outer loop
      vertex -1.20473 -9.00699 6.2
      vertex -1.20473 -14.993 6.2
      vertex -0.389631 -14.9373 6.2
    endloop
  endfacet
  facet normal -0 0 1
    outer loop
      vertex -2.00464 -9.17322 6.2
      vertex -1.20473 -14.993 6.2
      vertex -1.20473 -9.00699 6.2
    endloop
  endfacet
  facet normal 0 0 1
    outer loop
      vertex -2.00464 -9.17322 6.2
      vertex -2.00464 -14.8268 6.2
      vertex -1.20473 -14.993 6.2
    endloop
  endfacet
  facet normal -0 0 1
    outer loop
      vertex -2.73004 -9.54909 6.2
      vertex -2.00464 -14.8268 6.2
      vertex -2.00464 -9.17322 6.2
    endloop
  endfacet
  facet normal 0 0 1
    outer loop
      vertex -2.73004 -9.54909 6.2
      vertex -2.73004 -14.4509 6.2
      vertex -2.00464 -14.8268 6.2
    endloop
  endfacet
  facet normal -0 0 1
    outer loop
      vertex -3.32713 -10.1067 6.2
      vertex -2.73004 -14.4509 6.2
      vertex -2.73004 -9.54909 6.2
    endloop
  endfacet
  facet normal 0 0 1
    outer loop
      vertex -3.32713 -10.1067 6.2
      vertex -3.32713 -13.8933 6.2
      vertex -2.73004 -14.4509 6.2
    endloop
  endfacet
  facet normal -0 0 1
    outer loop
      vertex -3.75163 -10.8048 6.2
      vertex -3.32713 -13.8933 6.2
      vertex -3.32713 -10.1067 6.2
    endloop
  endfacet
  facet normal 0 0 1
    outer loop
      vertex -3.75163 -10.8048 6.2
      vertex -3.75163 -13.1952 6.2
      vertex -3.32713 -13.8933 6.2
    endloop
  endfacet
  facet normal -0 0 1
    outer loop
      vertex -3.97206 -11.5915 6.2
      vertex -3.75163 -13.1952 6.2
      vertex -3.75163 -10.8048 6.2
    endloop
  endfacet
  facet normal 0 0 1
    outer loop
      vertex -3.75163 -13.1952 6.2
      vertex -3.97206 -11.5915 6.2
      vertex -3.97206 -12.4085 6.2
    endloop
  endfacet
  facet normal -0.460065 0.887885 -1.16181e-08
    outer loop
      vertex -2.00464 -9.17322 6.2
      vertex -2.6353 -9.5 2.49
      vertex -2.73004 -9.54909 6.2
    endloop
  endfacet
  facet normal -0.460065 0.887885 0
    outer loop
      vertex -2.00464 -9.17322 -0.0300005
      vertex -2.6353 -9.5 2.49
      vertex -2.00464 -9.17322 6.2
    endloop
  endfacet
  facet normal -0.460065 0.887885 0
    outer loop
      vertex -2.6353 -9.5 2.49
      vertex -2.00464 -9.17322 -0.0300005
      vertex -2.6353 -9.5 -0.0300005
    endloop
  endfacet
  facet normal -0.460064 0.887886 0
    outer loop
      vertex -2.73004 -9.54909 6.2
      vertex -2.6353 -9.5 2.49
      vertex -2.73004 -9.54909 2.49
    endloop
  endfacet
  facet normal 0.917212 -0.3984 0
    outer loop
      vertex 1.56326 -13.5588 6.2
      vertex 1.88875 -12.8094 -0.0300005
      vertex 1.88875 -12.8094 6.2
    endloop
  endfacet
  facet normal 0.917212 -0.3984 0
    outer loop
      vertex 1.88875 -12.8094 -0.0300005
      vertex 1.56326 -13.5588 6.2
      vertex 1.56326 -13.5588 -0.0300005
    endloop
  endfacet
  facet normal -0.962917 -0.269797 0
    outer loop
      vertex -3.75163 -13.1952 -0.0300005
      vertex -3.97206 -12.4085 6.2
      vertex -3.97206 -12.4085 -0.0300005
    endloop
  endfacet
  facet normal -0.962917 -0.269797 0
    outer loop
      vertex -3.97206 -12.4085 6.2
      vertex -3.75163 -13.1952 -0.0300005
      vertex -3.75163 -13.1952 6.2
    endloop
  endfacet
  facet normal 0.775711 0.631088 0
    outer loop
      vertex 1.04766 -9.80749 6.2
      vertex 1.5 -10.3635 2.49
      vertex 1.04766 -9.80749 2.49
    endloop
  endfacet
  facet normal 0.775711 0.631088 3.9829e-08
    outer loop
      vertex 1.56326 -10.4412 6.2
      vertex 1.5 -10.3635 2.49
      vertex 1.04766 -9.80749 6.2
    endloop
  endfacet
  facet normal 0.775712 0.631087 -0
    outer loop
      vertex 1.56326 -10.4412 -0.0300005
      vertex 1.5 -10.3635 2.49
      vertex 1.56326 -10.4412 6.2
    endloop
  endfacet
  facet normal 0.775712 0.631087 0
    outer loop
      vertex 1.5 -10.3635 2.49
      vertex 1.56326 -10.4412 -0.0300005
      vertex 1.5 -10.3635 -0.0300005
    endloop
  endfacet
  facet normal 0.068242 0.997669 -0
    outer loop
      vertex -0.389631 -9.06275 -0.0300005
      vertex -1.20473 -9.00699 6.2
      vertex -0.389631 -9.06275 6.2
    endloop
  endfacet
  facet normal 0.068242 0.997669 0
    outer loop
      vertex -1.20473 -9.00699 6.2
      vertex -0.389631 -9.06275 -0.0300005
      vertex -1.20473 -9.00699 -0.0300005
    endloop
  endfacet
  facet normal -0.682553 0.730836 0
    outer loop
      vertex -2.73004 -9.54909 2.49
      vertex -3.32713 -10.1067 6.2
      vertex -2.73004 -9.54909 6.2
    endloop
  endfacet
  facet normal -0.682553 0.730836 0
    outer loop
      vertex -3.32713 -10.1067 6.2
      vertex -2.73004 -9.54909 2.49
      vertex -3.32713 -10.1067 2.49
    endloop
  endfacet
  facet normal 0.990686 -0.136168 0
    outer loop
      vertex 1.88875 -12.8094 6.2
      vertex 2 -12 -0.0300005
      vertex 2 -12 6.2
    endloop
  endfacet
  facet normal 0.990686 -0.136168 0
    outer loop
      vertex 2 -12 -0.0300005
      vertex 1.88875 -12.8094 6.2
      vertex 1.88875 -12.8094 -0.0300005
    endloop
  endfacet
  facet normal 0.33488 -0.942261 0
    outer loop
      vertex -0.389631 -14.9373 -0.0300005
      vertex 0.380195 -14.6637 6.2
      vertex -0.389631 -14.9373 6.2
    endloop
  endfacet
  facet normal 0.33488 -0.942261 0
    outer loop
      vertex 0.380195 -14.6637 6.2
      vertex -0.389631 -14.9373 -0.0300005
      vertex 0.380195 -14.6637 -0.0300005
    endloop
  endfacet
  facet normal 0.775712 -0.631087 0
    outer loop
      vertex 1.56326 -13.5588 6.2
      vertex 1.5 -13.6365 2.49
      vertex 1.56326 -13.5588 -0.0300005
    endloop
  endfacet
  facet normal 0.775711 -0.631088 3.9829e-08
    outer loop
      vertex 1.04766 -14.1925 6.2
      vertex 1.5 -13.6365 2.49
      vertex 1.56326 -13.5588 6.2
    endloop
  endfacet
  facet normal 0.775711 -0.631088 0
    outer loop
      vertex 1.5 -13.6365 2.49
      vertex 1.04766 -14.1925 6.2
      vertex 1.04766 -14.1925 2.49
    endloop
  endfacet
  facet normal 0.775712 -0.631087 0
    outer loop
      vertex 1.56326 -13.5588 -0.0300005
      vertex 1.5 -13.6365 2.49
      vertex 1.5 -13.6365 -0.0300005
    endloop
  endfacet
  facet normal -0.460065 -0.887885 0
    outer loop
      vertex -2.6353 -14.5 2.49
      vertex -2.73004 -14.4509 6.2
      vertex -2.73004 -14.4509 2.49
    endloop
  endfacet
  facet normal -0.460065 -0.887885 9.65893e-09
    outer loop
      vertex -2.73004 -14.4509 6.2
      vertex -2.6353 -14.5 2.49
      vertex -2.00464 -14.8268 6.2
    endloop
  endfacet
  facet normal -0.460065 -0.887885 0
    outer loop
      vertex -2.00464 -14.8268 -0.0300005
      vertex -2.6353 -14.5 2.49
      vertex -2.6353 -14.5 -0.0300005
    endloop
  endfacet
  facet normal -0.460065 -0.887885 0
    outer loop
      vertex -2.6353 -14.5 2.49
      vertex -2.00464 -14.8268 -0.0300005
      vertex -2.00464 -14.8268 6.2
    endloop
  endfacet
  facet normal 0.068242 -0.997669 0
    outer loop
      vertex -1.20473 -14.993 -0.0300005
      vertex -0.389631 -14.9373 6.2
      vertex -1.20473 -14.993 6.2
    endloop
  endfacet
  facet normal 0.068242 -0.997669 0
    outer loop
      vertex -0.389631 -14.9373 6.2
      vertex -1.20473 -14.993 -0.0300005
      vertex -0.389631 -14.9373 -0.0300005
    endloop
  endfacet
  facet normal -0.854419 -0.519584 -0
    outer loop
      vertex -3.5 -13.609 2.49
      vertex -3.75163 -13.1952 -0.0300005
      vertex -3.5 -13.609 -0.0300005
    endloop
  endfacet
  facet normal -0.854419 -0.519584 0
    outer loop
      vertex -3.75163 -13.1952 -0.0300005
      vertex -3.5 -13.609 2.49
      vertex -3.75163 -13.1952 6.2
    endloop
  endfacet
  facet normal -0.854419 -0.519584 -0
    outer loop
      vertex -3.32713 -13.8933 6.2
      vertex -3.5 -13.609 2.49
      vertex -3.32713 -13.8933 2.49
    endloop
  endfacet
  facet normal -0.854419 -0.519584 -2.31392e-08
    outer loop
      vertex -3.5 -13.609 2.49
      vertex -3.32713 -13.8933 6.2
      vertex -3.75163 -13.1952 6.2
    endloop
  endfacet
  facet normal 0.57668 -0.81697 9.21476e-10
    outer loop
      vertex 0.380195 -14.6637 6.2
      vertex 0.612041 -14.5 2.49
      vertex 1.04766 -14.1925 6.2
    endloop
  endfacet
  facet normal 0.57668 -0.81697 0
    outer loop
      vertex 0.380195 -14.6637 -0.0300005
      vertex 0.612041 -14.5 2.49
      vertex 0.380195 -14.6637 6.2
    endloop
  endfacet
  facet normal 0.57668 -0.81697 0
    outer loop
      vertex 0.612041 -14.5 2.49
      vertex 0.380195 -14.6637 -0.0300005
      vertex 0.612041 -14.5 -0.0300005
    endloop
  endfacet
  facet normal 0.57668 -0.81697 0
    outer loop
      vertex 1.04766 -14.1925 6.2
      vertex 0.612041 -14.5 2.49
      vertex 1.04766 -14.1925 2.49
    endloop
  endfacet
  facet normal -0.203456 -0.979084 0
    outer loop
      vertex -2.00464 -14.8268 -0.0300005
      vertex -1.20473 -14.993 6.2
      vertex -2.00464 -14.8268 6.2
    endloop
  endfacet
  facet normal -0.203456 -0.979084 -0
    outer loop
      vertex -1.20473 -14.993 6.2
      vertex -2.00464 -14.8268 -0.0300005
      vertex -1.20473 -14.993 -0.0300005
    endloop
  endfacet
  facet normal -0.682553 -0.730836 0
    outer loop
      vertex -3.32713 -13.8933 2.49
      vertex -2.73004 -14.4509 6.2
      vertex -3.32713 -13.8933 6.2
    endloop
  endfacet
  facet normal -0.682553 -0.730836 -0
    outer loop
      vertex -2.73004 -14.4509 6.2
      vertex -3.32713 -13.8933 2.49
      vertex -2.73004 -14.4509 2.49
    endloop
  endfacet
  facet normal -1 0 0
    outer loop
      vertex -3.5 -9.5 -0.05
      vertex -3.5 -10.391 -0.0300005
      vertex -3.5 -9.5 2.49
    endloop
  endfacet
  facet normal -1 0 0
    outer loop
      vertex -3.5 -9.5 -0.05
      vertex -3.5 -13.609 -0.0300005
      vertex -3.5 -10.391 -0.0300005
    endloop
  endfacet
  facet normal -1 0 0
    outer loop
      vertex -3.5 -14.5 -0.05
      vertex -3.5 -13.609 -0.0300005
      vertex -3.5 -9.5 -0.05
    endloop
  endfacet
  facet normal -1 0 0
    outer loop
      vertex -3.5 -14.5 2.49
      vertex -3.5 -13.609 -0.0300005
      vertex -3.5 -14.5 -0.05
    endloop
  endfacet
  facet normal -1 0 0
    outer loop
      vertex -3.5 -13.609 -0.0300005
      vertex -3.5 -14.5 2.49
      vertex -3.5 -13.609 2.49
    endloop
  endfacet
  facet normal -1 -0 0
    outer loop
      vertex -3.5 -9.5 2.49
      vertex -3.5 -10.391 -0.0300005
      vertex -3.5 -10.391 2.49
    endloop
  endfacet
  facet normal 0 0 1
    outer loop
      vertex -2.73004 -14.4509 2.49
      vertex -3.5 -14.5 2.49
      vertex -2.6353 -14.5 2.49
    endloop
  endfacet
  facet normal 0 0 1
    outer loop
      vertex -3.32713 -13.8933 2.49
      vertex -3.5 -14.5 2.49
      vertex -2.73004 -14.4509 2.49
    endloop
  endfacet
  facet normal 0 0 1
    outer loop
      vertex -3.5 -14.5 2.49
      vertex -3.32713 -13.8933 2.49
      vertex -3.5 -13.609 2.49
    endloop
  endfacet
  facet normal -0 0 1
    outer loop
      vertex 1.04766 -14.1925 2.49
      vertex 1.5 -14.5 2.49
      vertex 1.5 -13.6365 2.49
    endloop
  endfacet
  facet normal 0 0 1
    outer loop
      vertex 1.5 -14.5 2.49
      vertex 1.04766 -14.1925 2.49
      vertex 0.612041 -14.5 2.49
    endloop
  endfacet
  facet normal 0 0 1
    outer loop
      vertex 1.5 -9.5 2.49
      vertex 1.04766 -9.80749 2.49
      vertex 1.5 -10.3635 2.49
    endloop
  endfacet
  facet normal 0 -0 1
    outer loop
      vertex 1.04766 -9.80749 2.49
      vertex 1.5 -9.5 2.49
      vertex 0.612043 -9.5 2.49
    endloop
  endfacet
  facet normal -0 0 1
    outer loop
      vertex -3.5 -9.5 2.49
      vertex -2.73004 -9.54909 2.49
      vertex -2.6353 -9.5 2.49
    endloop
  endfacet
  facet normal 0 0 1
    outer loop
      vertex -3.5 -9.5 2.49
      vertex -3.32713 -10.1067 2.49
      vertex -2.73004 -9.54909 2.49
    endloop
  endfacet
  facet normal 0 0 1
    outer loop
      vertex -3.32713 -10.1067 2.49
      vertex -3.5 -9.5 2.49
      vertex -3.5 -10.391 2.49
    endloop
  endfacet
  facet normal 1 0 0
    outer loop
      vertex 1.5 -13.6365 2.49
      vertex 1.5 -14.5 2.49
      vertex 1.5 -13.6365 -0.0300005
    endloop
  endfacet
  facet normal 1 0 0
    outer loop
      vertex 1.5 -10.3635 -0.0300005
      vertex 1.5 -9.5 2.49
      vertex 1.5 -10.3635 2.49
    endloop
  endfacet
  facet normal 1 0 0
    outer loop
      vertex 1.5 -9.5 2.49
      vertex 1.5 -10.3635 -0.0300005
      vertex 1.5 -9.5 -0.05
    endloop
  endfacet
  facet normal 1 -0 0
    outer loop
      vertex 1.5 -13.6365 -0.0300005
      vertex 1.5 -9.5 -0.05
      vertex 1.5 -10.3635 -0.0300005
    endloop
  endfacet
  facet normal 1 0 0
    outer loop
      vertex 1.5 -13.6365 -0.0300005
      vertex 1.5 -14.5 -0.05
      vertex 1.5 -9.5 -0.05
    endloop
  endfacet
  facet normal 1 0 0
    outer loop
      vertex 1.5 -14.5 -0.05
      vertex 1.5 -13.6365 -0.0300005
      vertex 1.5 -14.5 2.49
    endloop
  endfacet
  facet normal 0 0 -1
    outer loop
      vertex -3.5 -14.5 -0.05
      vertex 1.5 -9.5 -0.05
      vertex 1.5 -14.5 -0.05
    endloop
  endfacet
  facet normal -0 0 -1
    outer loop
      vertex 1.5 -9.5 -0.05
      vertex -3.5 -14.5 -0.05
      vertex -3.5 -9.5 -0.05
    endloop
  endfacet
  facet normal 0 -1 0
    outer loop
      vertex -3.5 -14.5 2.49
      vertex -2.6353 -14.5 -0.0300005
      vertex -2.6353 -14.5 2.49
    endloop
  endfacet
  facet normal 0 -1 -0
    outer loop
      vertex -2.6353 -14.5 -0.0300005
      vertex -3.5 -14.5 -0.05
      vertex 0.612041 -14.5 -0.0300005
    endloop
  endfacet
  facet normal 0 -1 0
    outer loop
      vertex -3.5 -14.5 -0.05
      vertex -2.6353 -14.5 -0.0300005
      vertex -3.5 -14.5 2.49
    endloop
  endfacet
  facet normal 0 -1 0
    outer loop
      vertex 0.612041 -14.5 -0.0300005
      vertex 1.5 -14.5 2.49
      vertex 0.612041 -14.5 2.49
    endloop
  endfacet
  facet normal 0 -1 0
    outer loop
      vertex 0.612041 -14.5 -0.0300005
      vertex 1.5 -14.5 -0.05
      vertex 1.5 -14.5 2.49
    endloop
  endfacet
  facet normal 0 -1 0
    outer loop
      vertex 1.5 -14.5 -0.05
      vertex 0.612041 -14.5 -0.0300005
      vertex -3.5 -14.5 -0.05
    endloop
  endfacet
  facet normal 0 1 0
    outer loop
      vertex 1.5 -9.5 2.49
      vertex 0.612043 -9.5 -0.0300005
      vertex 0.612043 -9.5 2.49
    endloop
  endfacet
  facet normal 0 1 0
    outer loop
      vertex 0.612043 -9.5 -0.0300005
      vertex 1.5 -9.5 -0.05
      vertex -2.6353 -9.5 -0.0300005
    endloop
  endfacet
  facet normal 0 1 -0
    outer loop
      vertex 1.5 -9.5 -0.05
      vertex 0.612043 -9.5 -0.0300005
      vertex 1.5 -9.5 2.49
    endloop
  endfacet
  facet normal 0 1 -0
    outer loop
      vertex -2.6353 -9.5 -0.0300005
      vertex -3.5 -9.5 2.49
      vertex -2.6353 -9.5 2.49
    endloop
  endfacet
  facet normal 0 1 0
    outer loop
      vertex -2.6353 -9.5 -0.0300005
      vertex -3.5 -9.5 -0.05
      vertex -3.5 -9.5 2.49
    endloop
  endfacet
  facet normal 0 1 0
    outer loop
      vertex -3.5 -9.5 -0.05
      vertex -2.6353 -9.5 -0.0300005
      vertex 1.5 -9.5 -0.05
    endloop
  endfacet
  facet normal 0.990686 0.136166 0
    outer loop
      vertex -28 -12 6.2
      vertex -28.1112 -11.1906 -0.0300005
      vertex -28.1112 -11.1906 6.2
    endloop
  endfacet
  facet normal 0.990686 0.136166 0
    outer loop
      vertex -28.1112 -11.1906 -0.0300005
      vertex -28 -12 6.2
      vertex -28 -12 -0.0300005
    endloop
  endfacet
  facet normal -1 0 0
    outer loop
      vertex -33.9721 -12.4085 -0.0300005
      vertex -33.9721 -11.5915 6.2
      vertex -33.9721 -11.5915 -0.0300005
    endloop
  endfacet
  facet normal -1 -0 0
    outer loop
      vertex -33.9721 -11.5915 6.2
      vertex -33.9721 -12.4085 -0.0300005
      vertex -33.9721 -12.4085 6.2
    endloop
  endfacet
  facet normal 0.33488 0.942261 -0
    outer loop
      vertex -29.6198 -9.33634 -0.0300005
      vertex -30.3896 -9.06275 6.2
      vertex -29.6198 -9.33634 6.2
    endloop
  endfacet
  facet normal 0.33488 0.942261 0
    outer loop
      vertex -30.3896 -9.06275 6.2
      vertex -29.6198 -9.33634 -0.0300005
      vertex -30.3896 -9.06275 -0.0300005
    endloop
  endfacet
  facet normal 0.068242 -0.997669 0
    outer loop
      vertex -31.2047 -14.993 -0.0300005
      vertex -30.3896 -14.9373 6.2
      vertex -31.2047 -14.993 6.2
    endloop
  endfacet
  facet normal 0.068242 -0.997669 0
    outer loop
      vertex -30.3896 -14.9373 6.2
      vertex -31.2047 -14.993 -0.0300005
      vertex -30.3896 -14.9373 -0.0300005
    endloop
  endfacet
  facet normal 0.917212 0.3984 0
    outer loop
      vertex -28.1112 -11.1906 6.2
      vertex -28.4367 -10.4412 -0.0300005
      vertex -28.4367 -10.4412 6.2
    endloop
  endfacet
  facet normal 0.917212 0.3984 0
    outer loop
      vertex -28.4367 -10.4412 -0.0300005
      vertex -28.1112 -11.1906 6.2
      vertex -28.1112 -11.1906 -0.0300005
    endloop
  endfacet
  facet normal -0.460064 0.887886 6.2958e-08
    outer loop
      vertex -32.0046 -9.17322 6.2
      vertex -32.6353 -9.5 2.49
      vertex -32.73 -9.54909 6.2
    endloop
  endfacet
  facet normal -0.460064 0.887886 0
    outer loop
      vertex -32.0046 -9.17322 -0.0300005
      vertex -32.6353 -9.5 2.49
      vertex -32.0046 -9.17322 6.2
    endloop
  endfacet
  facet normal -0.460064 0.887886 0
    outer loop
      vertex -32.6353 -9.5 2.49
      vertex -32.0046 -9.17322 -0.0300005
      vertex -32.6353 -9.5 -0.0300005
    endloop
  endfacet
  facet normal -0.460066 0.887885 0
    outer loop
      vertex -32.73 -9.54909 6.2
      vertex -32.6353 -9.5 2.49
      vertex -32.73 -9.54909 2.49
    endloop
  endfacet
  facet normal 0.775711 -0.631088 0
    outer loop
      vertex -28.4367 -13.5588 6.2
      vertex -28.5 -13.6365 2.49
      vertex -28.4367 -13.5588 -0.0300005
    endloop
  endfacet
  facet normal 0.775712 -0.631087 -2.18118e-08
    outer loop
      vertex -28.9523 -14.1925 6.2
      vertex -28.5 -13.6365 2.49
      vertex -28.4367 -13.5588 6.2
    endloop
  endfacet
  facet normal 0.775712 -0.631087 0
    outer loop
      vertex -28.5 -13.6365 2.49
      vertex -28.9523 -14.1925 6.2
      vertex -28.9523 -14.1925 2.49
    endloop
  endfacet
  facet normal 0.775711 -0.631088 0
    outer loop
      vertex -28.4367 -13.5588 -0.0300005
      vertex -28.5 -13.6365 2.49
      vertex -28.5 -13.6365 -0.0300005
    endloop
  endfacet
  facet normal -0.962917 -0.269798 0
    outer loop
      vertex -33.7516 -13.1952 -0.0300005
      vertex -33.9721 -12.4085 6.2
      vertex -33.9721 -12.4085 -0.0300005
    endloop
  endfacet
  facet normal -0.962917 -0.269798 0
    outer loop
      vertex -33.9721 -12.4085 6.2
      vertex -33.7516 -13.1952 -0.0300005
      vertex -33.7516 -13.1952 6.2
    endloop
  endfacet
  facet normal 0 0 -1
    outer loop
      vertex -28.1112 -12.8094 -0.0300005
      vertex -28.1112 -11.1906 -0.0300005
      vertex -28 -12 -0.0300005
    endloop
  endfacet
  facet normal 0 0 -1
    outer loop
      vertex -28.5 -13.6365 -0.0300005
      vertex -28.1112 -12.8094 -0.0300005
      vertex -28.4367 -13.5588 -0.0300005
    endloop
  endfacet
  facet normal -0 0 -1
    outer loop
      vertex -28.1112 -12.8094 -0.0300005
      vertex -28.5 -13.6365 -0.0300005
      vertex -28.1112 -11.1906 -0.0300005
    endloop
  endfacet
  facet normal 0 0 -1
    outer loop
      vertex -28.5 -10.3635 -0.0300005
      vertex -28.1112 -11.1906 -0.0300005
      vertex -28.5 -13.6365 -0.0300005
    endloop
  endfacet
  facet normal 0 0 -1
    outer loop
      vertex -28.1112 -11.1906 -0.0300005
      vertex -28.5 -10.3635 -0.0300005
      vertex -28.4367 -10.4412 -0.0300005
    endloop
  endfacet
  facet normal 0 0 -1
    outer loop
      vertex -33.9721 -12.4085 -0.0300005
      vertex -33.5 -13.609 -0.0300005
      vertex -33.7516 -13.1952 -0.0300005
    endloop
  endfacet
  facet normal 0 0 -1
    outer loop
      vertex -33.5 -13.609 -0.0300005
      vertex -33.9721 -12.4085 -0.0300005
      vertex -33.5 -10.391 -0.0300005
    endloop
  endfacet
  facet normal 0 0 -1
    outer loop
      vertex -33.9721 -11.5915 -0.0300005
      vertex -33.5 -10.391 -0.0300005
      vertex -33.9721 -12.4085 -0.0300005
    endloop
  endfacet
  facet normal 0 0 -1
    outer loop
      vertex -33.5 -10.391 -0.0300005
      vertex -33.9721 -11.5915 -0.0300005
      vertex -33.7516 -10.8048 -0.0300005
    endloop
  endfacet
  facet normal 0 0 -1
    outer loop
      vertex -29.388 -9.5 -0.0300005
      vertex -30.3896 -9.06275 -0.0300005
      vertex -29.6198 -9.33634 -0.0300005
    endloop
  endfacet
  facet normal 0 0 -1
    outer loop
      vertex -29.388 -9.5 -0.0300005
      vertex -31.2047 -9.00699 -0.0300005
      vertex -30.3896 -9.06275 -0.0300005
    endloop
  endfacet
  facet normal 0 0 -1
    outer loop
      vertex -29.388 -9.5 -0.0300005
      vertex -32.0046 -9.17322 -0.0300005
      vertex -31.2047 -9.00699 -0.0300005
    endloop
  endfacet
  facet normal 0 -0 -1
    outer loop
      vertex -32.0046 -9.17322 -0.0300005
      vertex -29.388 -9.5 -0.0300005
      vertex -32.6353 -9.5 -0.0300005
    endloop
  endfacet
  facet normal 0 0 -1
    outer loop
      vertex -30.3896 -14.9373 -0.0300005
      vertex -29.388 -14.5 -0.0300005
      vertex -29.6198 -14.6637 -0.0300005
    endloop
  endfacet
  facet normal 0 0 -1
    outer loop
      vertex -31.2047 -14.993 -0.0300005
      vertex -29.388 -14.5 -0.0300005
      vertex -30.3896 -14.9373 -0.0300005
    endloop
  endfacet
  facet normal 0 0 -1
    outer loop
      vertex -32.0046 -14.8268 -0.0300005
      vertex -29.388 -14.5 -0.0300005
      vertex -31.2047 -14.993 -0.0300005
    endloop
  endfacet
  facet normal -0 0 -1
    outer loop
      vertex -29.388 -14.5 -0.0300005
      vertex -32.0046 -14.8268 -0.0300005
      vertex -32.6353 -14.5 -0.0300005
    endloop
  endfacet
  facet normal 0.775712 0.631087 0
    outer loop
      vertex -28.9523 -9.80749 6.2
      vertex -28.5 -10.3635 2.49
      vertex -28.9523 -9.80749 2.49
    endloop
  endfacet
  facet normal 0.775712 0.631087 -2.18118e-08
    outer loop
      vertex -28.4367 -10.4412 6.2
      vertex -28.5 -10.3635 2.49
      vertex -28.9523 -9.80749 6.2
    endloop
  endfacet
  facet normal 0.775711 0.631088 -0
    outer loop
      vertex -28.4367 -10.4412 -0.0300005
      vertex -28.5 -10.3635 2.49
      vertex -28.4367 -10.4412 6.2
    endloop
  endfacet
  facet normal 0.775711 0.631088 0
    outer loop
      vertex -28.5 -10.3635 2.49
      vertex -28.4367 -10.4412 -0.0300005
      vertex -28.5 -10.3635 -0.0300005
    endloop
  endfacet
  facet normal 0.576679 0.816971 0
    outer loop
      vertex -29.388 -9.5 2.49
      vertex -28.9523 -9.80749 6.2
      vertex -28.9523 -9.80749 2.49
    endloop
  endfacet
  facet normal 0.57668 0.81697 -1.12338e-07
    outer loop
      vertex -28.9523 -9.80749 6.2
      vertex -29.388 -9.5 2.49
      vertex -29.6198 -9.33634 6.2
    endloop
  endfacet
  facet normal 0.576681 0.81697 0
    outer loop
      vertex -29.6198 -9.33634 -0.0300005
      vertex -29.388 -9.5 2.49
      vertex -29.388 -9.5 -0.0300005
    endloop
  endfacet
  facet normal 0.576681 0.81697 0
    outer loop
      vertex -29.388 -9.5 2.49
      vertex -29.6198 -9.33634 -0.0300005
      vertex -29.6198 -9.33634 6.2
    endloop
  endfacet
  facet normal -0.203456 0.979084 0
    outer loop
      vertex -31.2047 -9.00699 -0.0300005
      vertex -32.0046 -9.17322 6.2
      vertex -31.2047 -9.00699 6.2
    endloop
  endfacet
  facet normal -0.203456 0.979084 0
    outer loop
      vertex -32.0046 -9.17322 6.2
      vertex -31.2047 -9.00699 -0.0300005
      vertex -32.0046 -9.17322 -0.0300005
    endloop
  endfacet
  facet normal 0.068242 0.997669 -0
    outer loop
      vertex -30.3896 -9.06275 -0.0300005
      vertex -31.2047 -9.00699 6.2
      vertex -30.3896 -9.06275 6.2
    endloop
  endfacet
  facet normal 0.068242 0.997669 0
    outer loop
      vertex -31.2047 -9.00699 6.2
      vertex -30.3896 -9.06275 -0.0300005
      vertex -31.2047 -9.00699 -0.0300005
    endloop
  endfacet
  facet normal 0 0 1
    outer loop
      vertex -28.1112 -11.1906 6.2
      vertex -28.1112 -12.8094 6.2
      vertex -28 -12 6.2
    endloop
  endfacet
  facet normal 0 0 1
    outer loop
      vertex -28.4367 -10.4412 6.2
      vertex -28.1112 -12.8094 6.2
      vertex -28.1112 -11.1906 6.2
    endloop
  endfacet
  facet normal 0 0 1
    outer loop
      vertex -28.4367 -10.4412 6.2
      vertex -28.4367 -13.5588 6.2
      vertex -28.1112 -12.8094 6.2
    endloop
  endfacet
  facet normal 0 0 1
    outer loop
      vertex -28.9523 -9.80749 6.2
      vertex -28.4367 -13.5588 6.2
      vertex -28.4367 -10.4412 6.2
    endloop
  endfacet
  facet normal 0 0 1
    outer loop
      vertex -28.9523 -9.80749 6.2
      vertex -28.9523 -14.1925 6.2
      vertex -28.4367 -13.5588 6.2
    endloop
  endfacet
  facet normal 0 0 1
    outer loop
      vertex -29.6198 -9.33634 6.2
      vertex -28.9523 -14.1925 6.2
      vertex -28.9523 -9.80749 6.2
    endloop
  endfacet
  facet normal 0 0 1
    outer loop
      vertex -29.6198 -9.33634 6.2
      vertex -29.6198 -14.6637 6.2
      vertex -28.9523 -14.1925 6.2
    endloop
  endfacet
  facet normal 0 0 1
    outer loop
      vertex -30.3896 -9.06275 6.2
      vertex -29.6198 -14.6637 6.2
      vertex -29.6198 -9.33634 6.2
    endloop
  endfacet
  facet normal 0 0 1
    outer loop
      vertex -30.3896 -9.06275 6.2
      vertex -30.3896 -14.9373 6.2
      vertex -29.6198 -14.6637 6.2
    endloop
  endfacet
  facet normal 0 0 1
    outer loop
      vertex -31.2047 -9.00699 6.2
      vertex -30.3896 -14.9373 6.2
      vertex -30.3896 -9.06275 6.2
    endloop
  endfacet
  facet normal 0 0 1
    outer loop
      vertex -31.2047 -9.00699 6.2
      vertex -31.2047 -14.993 6.2
      vertex -30.3896 -14.9373 6.2
    endloop
  endfacet
  facet normal -0 0 1
    outer loop
      vertex -32.0046 -9.17322 6.2
      vertex -31.2047 -14.993 6.2
      vertex -31.2047 -9.00699 6.2
    endloop
  endfacet
  facet normal 0 0 1
    outer loop
      vertex -32.0046 -9.17322 6.2
      vertex -32.0046 -14.8268 6.2
      vertex -31.2047 -14.993 6.2
    endloop
  endfacet
  facet normal -0 0 1
    outer loop
      vertex -32.73 -9.54909 6.2
      vertex -32.0046 -14.8268 6.2
      vertex -32.0046 -9.17322 6.2
    endloop
  endfacet
  facet normal 0 0 1
    outer loop
      vertex -32.73 -9.54909 6.2
      vertex -32.73 -14.4509 6.2
      vertex -32.0046 -14.8268 6.2
    endloop
  endfacet
  facet normal -0 0 1
    outer loop
      vertex -33.3271 -10.1067 6.2
      vertex -32.73 -14.4509 6.2
      vertex -32.73 -9.54909 6.2
    endloop
  endfacet
  facet normal 0 0 1
    outer loop
      vertex -33.3271 -10.1067 6.2
      vertex -33.3271 -13.8933 6.2
      vertex -32.73 -14.4509 6.2
    endloop
  endfacet
  facet normal -0 0 1
    outer loop
      vertex -33.7516 -10.8048 6.2
      vertex -33.3271 -13.8933 6.2
      vertex -33.3271 -10.1067 6.2
    endloop
  endfacet
  facet normal 0 0 1
    outer loop
      vertex -33.7516 -10.8048 6.2
      vertex -33.7516 -13.1952 6.2
      vertex -33.3271 -13.8933 6.2
    endloop
  endfacet
  facet normal -0 0 1
    outer loop
      vertex -33.9721 -11.5915 6.2
      vertex -33.7516 -13.1952 6.2
      vertex -33.7516 -10.8048 6.2
    endloop
  endfacet
  facet normal 0 0 1
    outer loop
      vertex -33.7516 -13.1952 6.2
      vertex -33.9721 -11.5915 6.2
      vertex -33.9721 -12.4085 6.2
    endloop
  endfacet
  facet normal -0.962917 0.269798 0
    outer loop
      vertex -33.9721 -11.5915 -0.0300005
      vertex -33.7516 -10.8048 6.2
      vertex -33.7516 -10.8048 -0.0300005
    endloop
  endfacet
  facet normal -0.962917 0.269798 0
    outer loop
      vertex -33.7516 -10.8048 6.2
      vertex -33.9721 -11.5915 -0.0300005
      vertex -33.9721 -11.5915 6.2
    endloop
  endfacet
  facet normal -0.682554 0.730835 0
    outer loop
      vertex -32.73 -9.54909 2.49
      vertex -33.3271 -10.1067 6.2
      vertex -32.73 -9.54909 6.2
    endloop
  endfacet
  facet normal -0.682554 0.730835 0
    outer loop
      vertex -33.3271 -10.1067 6.2
      vertex -32.73 -9.54909 2.49
      vertex -33.3271 -10.1067 2.49
    endloop
  endfacet
  facet normal -0.85442 0.519583 0
    outer loop
      vertex -33.5 -10.391 -0.0300005
      vertex -33.7516 -10.8048 -0.0300005
      vertex -33.5 -10.391 2.49
    endloop
  endfacet
  facet normal -0.854419 0.519584 0
    outer loop
      vertex -33.5 -10.391 2.49
      vertex -33.3271 -10.1067 6.2
      vertex -33.3271 -10.1067 2.49
    endloop
  endfacet
  facet normal -0.85442 0.519583 0
    outer loop
      vertex -33.7516 -10.8048 6.2
      vertex -33.5 -10.391 2.49
      vertex -33.7516 -10.8048 -0.0300005
    endloop
  endfacet
  facet normal -0.85442 0.519583 6.63007e-08
    outer loop
      vertex -33.5 -10.391 2.49
      vertex -33.7516 -10.8048 6.2
      vertex -33.3271 -10.1067 6.2
    endloop
  endfacet
  facet normal 0.917212 -0.3984 0
    outer loop
      vertex -28.4367 -13.5588 6.2
      vertex -28.1112 -12.8094 -0.0300005
      vertex -28.1112 -12.8094 6.2
    endloop
  endfacet
  facet normal 0.917212 -0.3984 0
    outer loop
      vertex -28.1112 -12.8094 -0.0300005
      vertex -28.4367 -13.5588 6.2
      vertex -28.4367 -13.5588 -0.0300005
    endloop
  endfacet
  facet normal 0.33488 -0.942261 0
    outer loop
      vertex -30.3896 -14.9373 -0.0300005
      vertex -29.6198 -14.6637 6.2
      vertex -30.3896 -14.9373 6.2
    endloop
  endfacet
  facet normal 0.33488 -0.942261 0
    outer loop
      vertex -29.6198 -14.6637 6.2
      vertex -30.3896 -14.9373 -0.0300005
      vertex -29.6198 -14.6637 -0.0300005
    endloop
  endfacet
  facet normal 0.57668 -0.81697 -1.98808e-07
    outer loop
      vertex -29.6198 -14.6637 6.2
      vertex -29.388 -14.5 2.49
      vertex -28.9523 -14.1925 6.2
    endloop
  endfacet
  facet normal 0.576682 -0.816969 0
    outer loop
      vertex -29.6198 -14.6637 -0.0300005
      vertex -29.388 -14.5 2.49
      vertex -29.6198 -14.6637 6.2
    endloop
  endfacet
  facet normal 0.576682 -0.816969 0
    outer loop
      vertex -29.388 -14.5 2.49
      vertex -29.6198 -14.6637 -0.0300005
      vertex -29.388 -14.5 -0.0300005
    endloop
  endfacet
  facet normal 0.576678 -0.816971 0
    outer loop
      vertex -28.9523 -14.1925 6.2
      vertex -29.388 -14.5 2.49
      vertex -28.9523 -14.1925 2.49
    endloop
  endfacet
  facet normal -0.460059 -0.887889 0
    outer loop
      vertex -32.6353 -14.5 2.49
      vertex -32.73 -14.4509 6.2
      vertex -32.73 -14.4509 2.49
    endloop
  endfacet
  facet normal -0.460064 -0.887886 -1.81854e-07
    outer loop
      vertex -32.73 -14.4509 6.2
      vertex -32.6353 -14.5 2.49
      vertex -32.0046 -14.8268 6.2
    endloop
  endfacet
  facet normal -0.460065 -0.887885 0
    outer loop
      vertex -32.0046 -14.8268 -0.0300005
      vertex -32.6353 -14.5 2.49
      vertex -32.6353 -14.5 -0.0300005
    endloop
  endfacet
  facet normal -0.460065 -0.887885 0
    outer loop
      vertex -32.6353 -14.5 2.49
      vertex -32.0046 -14.8268 -0.0300005
      vertex -32.0046 -14.8268 6.2
    endloop
  endfacet
  facet normal -0.85442 -0.519583 -0
    outer loop
      vertex -33.5 -13.609 2.49
      vertex -33.7516 -13.1952 -0.0300005
      vertex -33.5 -13.609 -0.0300005
    endloop
  endfacet
  facet normal -0.85442 -0.519583 0
    outer loop
      vertex -33.7516 -13.1952 -0.0300005
      vertex -33.5 -13.609 2.49
      vertex -33.7516 -13.1952 6.2
    endloop
  endfacet
  facet normal -0.854419 -0.519584 -0
    outer loop
      vertex -33.3271 -13.8933 6.2
      vertex -33.5 -13.609 2.49
      vertex -33.3271 -13.8933 2.49
    endloop
  endfacet
  facet normal -0.85442 -0.519583 6.63007e-08
    outer loop
      vertex -33.5 -13.609 2.49
      vertex -33.3271 -13.8933 6.2
      vertex -33.7516 -13.1952 6.2
    endloop
  endfacet
  facet normal 0.990686 -0.136167 0
    outer loop
      vertex -28.1112 -12.8094 6.2
      vertex -28 -12 -0.0300005
      vertex -28 -12 6.2
    endloop
  endfacet
  facet normal 0.990686 -0.136167 0
    outer loop
      vertex -28 -12 -0.0300005
      vertex -28.1112 -12.8094 6.2
      vertex -28.1112 -12.8094 -0.0300005
    endloop
  endfacet
  facet normal -0.203456 -0.979084 0
    outer loop
      vertex -32.0046 -14.8268 -0.0300005
      vertex -31.2047 -14.993 6.2
      vertex -32.0046 -14.8268 6.2
    endloop
  endfacet
  facet normal -0.203456 -0.979084 -0
    outer loop
      vertex -31.2047 -14.993 6.2
      vertex -32.0046 -14.8268 -0.0300005
      vertex -31.2047 -14.993 -0.0300005
    endloop
  endfacet
  facet normal -0.682554 -0.730835 0
    outer loop
      vertex -33.3271 -13.8933 2.49
      vertex -32.73 -14.4509 6.2
      vertex -33.3271 -13.8933 6.2
    endloop
  endfacet
  facet normal -0.682554 -0.730835 -0
    outer loop
      vertex -32.73 -14.4509 6.2
      vertex -33.3271 -13.8933 2.49
      vertex -32.73 -14.4509 2.49
    endloop
  endfacet
  facet normal -1 0 0
    outer loop
      vertex -33.5 -9.5 -0.05
      vertex -33.5 -10.391 -0.0300005
      vertex -33.5 -9.5 2.49
    endloop
  endfacet
  facet normal -1 0 0
    outer loop
      vertex -33.5 -9.5 -0.05
      vertex -33.5 -13.609 -0.0300005
      vertex -33.5 -10.391 -0.0300005
    endloop
  endfacet
  facet normal -1 0 0
    outer loop
      vertex -33.5 -14.5 -0.05
      vertex -33.5 -13.609 -0.0300005
      vertex -33.5 -9.5 -0.05
    endloop
  endfacet
  facet normal -1 0 0
    outer loop
      vertex -33.5 -14.5 2.49
      vertex -33.5 -13.609 -0.0300005
      vertex -33.5 -14.5 -0.05
    endloop
  endfacet
  facet normal -1 0 0
    outer loop
      vertex -33.5 -13.609 -0.0300005
      vertex -33.5 -14.5 2.49
      vertex -33.5 -13.609 2.49
    endloop
  endfacet
  facet normal -1 -0 0
    outer loop
      vertex -33.5 -9.5 2.49
      vertex -33.5 -10.391 -0.0300005
      vertex -33.5 -10.391 2.49
    endloop
  endfacet
  facet normal 0 0 1
    outer loop
      vertex -32.73 -14.4509 2.49
      vertex -33.5 -14.5 2.49
      vertex -32.6353 -14.5 2.49
    endloop
  endfacet
  facet normal 0 0 1
    outer loop
      vertex -33.3271 -13.8933 2.49
      vertex -33.5 -14.5 2.49
      vertex -32.73 -14.4509 2.49
    endloop
  endfacet
  facet normal 0 0 1
    outer loop
      vertex -33.5 -14.5 2.49
      vertex -33.3271 -13.8933 2.49
      vertex -33.5 -13.609 2.49
    endloop
  endfacet
  facet normal -0 0 1
    outer loop
      vertex -28.9523 -14.1925 2.49
      vertex -28.5 -14.5 2.49
      vertex -28.5 -13.6365 2.49
    endloop
  endfacet
  facet normal 0 0 1
    outer loop
      vertex -28.5 -14.5 2.49
      vertex -28.9523 -14.1925 2.49
      vertex -29.388 -14.5 2.49
    endloop
  endfacet
  facet normal 0 0 1
    outer loop
      vertex -28.5 -9.5 2.49
      vertex -28.9523 -9.80749 2.49
      vertex -28.5 -10.3635 2.49
    endloop
  endfacet
  facet normal 0 -0 1
    outer loop
      vertex -28.9523 -9.80749 2.49
      vertex -28.5 -9.5 2.49
      vertex -29.388 -9.5 2.49
    endloop
  endfacet
  facet normal -0 0 1
    outer loop
      vertex -33.5 -9.5 2.49
      vertex -32.73 -9.54909 2.49
      vertex -32.6353 -9.5 2.49
    endloop
  endfacet
  facet normal 0 0 1
    outer loop
      vertex -33.5 -9.5 2.49
      vertex -33.3271 -10.1067 2.49
      vertex -32.73 -9.54909 2.49
    endloop
  endfacet
  facet normal 0 0 1
    outer loop
      vertex -33.3271 -10.1067 2.49
      vertex -33.5 -9.5 2.49
      vertex -33.5 -10.391 2.49
    endloop
  endfacet
  facet normal 1 0 0
    outer loop
      vertex -28.5 -13.6365 2.49
      vertex -28.5 -14.5 2.49
      vertex -28.5 -13.6365 -0.0300005
    endloop
  endfacet
  facet normal 1 0 0
    outer loop
      vertex -28.5 -10.3635 -0.0300005
      vertex -28.5 -9.5 2.49
      vertex -28.5 -10.3635 2.49
    endloop
  endfacet
  facet normal 1 0 0
    outer loop
      vertex -28.5 -9.5 2.49
      vertex -28.5 -10.3635 -0.0300005
      vertex -28.5 -9.5 -0.05
    endloop
  endfacet
  facet normal 1 -0 0
    outer loop
      vertex -28.5 -13.6365 -0.0300005
      vertex -28.5 -9.5 -0.05
      vertex -28.5 -10.3635 -0.0300005
    endloop
  endfacet
  facet normal 1 0 0
    outer loop
      vertex -28.5 -13.6365 -0.0300005
      vertex -28.5 -14.5 -0.05
      vertex -28.5 -9.5 -0.05
    endloop
  endfacet
  facet normal 1 0 0
    outer loop
      vertex -28.5 -14.5 -0.05
      vertex -28.5 -13.6365 -0.0300005
      vertex -28.5 -14.5 2.49
    endloop
  endfacet
  facet normal 0 1 0
    outer loop
      vertex -28.5 -9.5 2.49
      vertex -29.388 -9.5 -0.0300005
      vertex -29.388 -9.5 2.49
    endloop
  endfacet
  facet normal 0 1 0
    outer loop
      vertex -29.388 -9.5 -0.0300005
      vertex -28.5 -9.5 -0.05
      vertex -32.6353 -9.5 -0.0300005
    endloop
  endfacet
  facet normal 0 1 -0
    outer loop
      vertex -28.5 -9.5 -0.05
      vertex -29.388 -9.5 -0.0300005
      vertex -28.5 -9.5 2.49
    endloop
  endfacet
  facet normal 0 1 -0
    outer loop
      vertex -32.6353 -9.5 -0.0300005
      vertex -33.5 -9.5 2.49
      vertex -32.6353 -9.5 2.49
    endloop
  endfacet
  facet normal 0 1 0
    outer loop
      vertex -32.6353 -9.5 -0.0300005
      vertex -33.5 -9.5 -0.05
      vertex -33.5 -9.5 2.49
    endloop
  endfacet
  facet normal 0 1 0
    outer loop
      vertex -33.5 -9.5 -0.05
      vertex -32.6353 -9.5 -0.0300005
      vertex -28.5 -9.5 -0.05
    endloop
  endfacet
  facet normal 0 0 -1
    outer loop
      vertex -33.5 -14.5 -0.05
      vertex -28.5 -9.5 -0.05
      vertex -28.5 -14.5 -0.05
    endloop
  endfacet
  facet normal -0 0 -1
    outer loop
      vertex -28.5 -9.5 -0.05
      vertex -33.5 -14.5 -0.05
      vertex -33.5 -9.5 -0.05
    endloop
  endfacet
  facet normal 0 -1 0
    outer loop
      vertex -33.5 -14.5 2.49
      vertex -32.6353 -14.5 -0.0300005
      vertex -32.6353 -14.5 2.49
    endloop
  endfacet
  facet normal 0 -1 -0
    outer loop
      vertex -32.6353 -14.5 -0.0300005
      vertex -33.5 -14.5 -0.05
      vertex -29.388 -14.5 -0.0300005
    endloop
  endfacet
  facet normal 0 -1 0
    outer loop
      vertex -33.5 -14.5 -0.05
      vertex -32.6353 -14.5 -0.0300005
      vertex -33.5 -14.5 2.49
    endloop
  endfacet
  facet normal 0 -1 0
    outer loop
      vertex -29.388 -14.5 -0.0300005
      vertex -28.5 -14.5 2.49
      vertex -29.388 -14.5 2.49
    endloop
  endfacet
  facet normal 0 -1 0
    outer loop
      vertex -29.388 -14.5 -0.0300005
      vertex -28.5 -14.5 -0.05
      vertex -28.5 -14.5 2.49
    endloop
  endfacet
  facet normal 0 -1 0
    outer loop
      vertex -28.5 -14.5 -0.05
      vertex -29.388 -14.5 -0.0300005
      vertex -33.5 -14.5 -0.05
    endloop
  endfacet
endsolid OpenSCAD_Model
