<?xml version="1.0" standalone="no"?>
<!DOCTYPE svg PUBLIC "-//W3C//DTD SVG 1.1//EN" "http://www.w3.org/Graphics/SVG/1.1/DTD/svg11.dtd">
<svg width="70" height="58" viewBox="-43 -29 70 58" xmlns="http://www.w3.org/2000/svg" version="1.1">
<title>OpenSCAD Model</title>
<path d="
M -29.9326,28.4907 L -29.8701,28.4636 L -29.8173,28.4206 L -29.778,28.365 L -29.7552,28.3009 L -29.75,28.25
 L -29.75,16 L -1.25,16 L -1.25,28.25 L -1.24072,28.3174 L -1.21361,28.3799 L -1.17064,28.4327
 L -1.11502,28.472 L -1.05086,28.4948 L -1,28.5 L 19.5079,28.4999 L 19.7119,28.493 L 19.9151,28.4733
 L 20.1167,28.4408 L 20.3158,28.3958 L 20.5117,28.3384 L 20.7037,28.2688 L 20.8908,28.1872 L 21.0725,28.0941
 L 21.248,27.9897 L 21.4166,27.8746 L 21.5776,27.7491 L 21.7304,27.6137 L 21.8744,27.469 L 22.0091,27.3155
 L 22.1338,27.1539 L 22.2482,26.9847 L 22.3517,26.8087 L 22.4439,26.6266 L 22.5245,26.4391 L 22.5932,26.2468
 L 22.6497,26.0506 L 22.6938,25.8512 L 22.7252,25.6495 L 22.744,25.4462 L 22.75,25.25 L 22.75,19.4918
 L 26.5,19.4918 L 26.5,12.5081 L 22.75,12.5081 L 22.75,10.815 L 27,10.815 L 27,10.215
 L 22.75,10.215 L 22.75,8.27499 L 27,8.27499 L 27,7.67499 L 22.75,7.67499 L 22.75,5.735
 L 27,5.735 L 27,5.13499 L 22.75,5.13499 L 22.75,3.49184 L 26.5,3.49184 L 26.5,-3.49184
 L 22.7499,-3.49184 L 22.7499,-12.5081 L 26.5,-12.5081 L 26.5,-19.4918 L 22.7499,-19.4918 L 22.7499,-25.2579
 L 22.743,-25.4619 L 22.7233,-25.6651 L 22.6908,-25.8667 L 22.6458,-26.0658 L 22.5884,-26.2617 L 22.5188,-26.4537
 L 22.4372,-26.6408 L 22.3441,-26.8225 L 22.2397,-26.998 L 22.1246,-27.1666 L 21.9991,-27.3276 L 21.8637,-27.4804
 L 21.719,-27.6244 L 21.5655,-27.7591 L 21.4039,-27.8838 L 21.2347,-27.9982 L 21.0588,-28.1017 L 20.8766,-28.1939
 L 20.6891,-28.2745 L 20.4968,-28.3432 L 20.3006,-28.3997 L 20.1012,-28.4438 L 19.8995,-28.4752 L 19.6962,-28.494
 L 19.5,-28.5 L -39.5079,-28.4999 L -39.7119,-28.493 L -39.9151,-28.4733 L -40.1167,-28.4408 L -40.3158,-28.3958
 L -40.5117,-28.3384 L -40.7037,-28.2688 L -40.8908,-28.1872 L -41.0725,-28.0941 L -41.248,-27.9897 L -41.4166,-27.8746
 L -41.5776,-27.7491 L -41.7304,-27.6137 L -41.8744,-27.469 L -42.0091,-27.3155 L -42.1338,-27.1539 L -42.2482,-26.9847
 L -42.3517,-26.8087 L -42.4439,-26.6266 L -42.5245,-26.4391 L -42.5932,-26.2468 L -42.6497,-26.0506 L -42.6938,-25.8512
 L -42.7252,-25.6495 L -42.744,-25.4462 L -42.75,-25.25 L -42.7499,25.2579 L -42.743,25.4619 L -42.7233,25.6651
 L -42.6908,25.8667 L -42.6458,26.0658 L -42.5884,26.2617 L -42.5188,26.4537 L -42.4372,26.6408 L -42.3441,26.8225
 L -42.2397,26.998 L -42.1246,27.1666 L -41.9991,27.3276 L -41.8637,27.4804 L -41.719,27.6244 L -41.5655,27.7591
 L -41.4039,27.8838 L -41.2347,27.9982 L -41.0588,28.1017 L -40.8766,28.1939 L -40.6891,28.2745 L -40.4968,28.3432
 L -40.3006,28.3997 L -40.1012,28.4438 L -39.8995,28.4752 L -39.6962,28.494 L -39.5,28.5 L -30,28.5
 z
M -39.5,28.25 L -39.6884,28.2441 L -39.876,28.2263 L -40.0621,28.1969 L -40.2461,28.1557 L -40.427,28.1032
 L -40.6044,28.0393 L -40.7773,27.9645 L -40.9453,27.8789 L -41.1075,27.783 L -41.2634,27.677 L -41.4123,27.5615
 L -41.5536,27.4369 L -41.6869,27.3036 L -41.8115,27.1623 L -41.927,27.0134 L -42.033,26.8575 L -42.1289,26.6953
 L -42.2145,26.5273 L -42.2893,26.3544 L -42.3532,26.177 L -42.4057,25.9961 L -42.4469,25.8121 L -42.4763,25.626
 L -42.4941,25.4384 L -42.5,25.25 L -42.5,-25.25 L -42.4941,-25.4384 L -42.4763,-25.626 L -42.4469,-25.8121
 L -42.4057,-25.9961 L -42.3532,-26.177 L -42.2893,-26.3544 L -42.2145,-26.5273 L -42.1289,-26.6953 L -42.033,-26.8575
 L -41.927,-27.0134 L -41.8115,-27.1623 L -41.6869,-27.3036 L -41.5536,-27.4369 L -41.4123,-27.5615 L -41.2634,-27.677
 L -41.1075,-27.783 L -40.9453,-27.8789 L -40.7773,-27.9645 L -40.6044,-28.0393 L -40.427,-28.1032 L -40.2461,-28.1557
 L -40.0621,-28.1969 L -39.876,-28.2263 L -39.6884,-28.2441 L -39.5,-28.25 L 19.5,-28.25 L 19.6884,-28.2441
 L 19.876,-28.2263 L 20.0621,-28.1969 L 20.2461,-28.1557 L 20.427,-28.1032 L 20.6044,-28.0393 L 20.7773,-27.9645
 L 20.9453,-27.8789 L 21.1075,-27.783 L 21.2634,-27.677 L 21.4123,-27.5615 L 21.5536,-27.4369 L 21.6869,-27.3036
 L 21.8115,-27.1623 L 21.927,-27.0134 L 22.033,-26.8575 L 22.1289,-26.6953 L 22.2145,-26.5273 L 22.2893,-26.3544
 L 22.3532,-26.177 L 22.4057,-25.9961 L 22.4469,-25.8121 L 22.4763,-25.626 L 22.4941,-25.4384 L 22.5,-25.25
 L 22.5,-19.4918 L 16,-19.4918 L 16,-19.5 L 9,-19.5 L 9,-12.5 L 16,-12.5
 L 16,-12.5081 L 22.5,-12.5081 L 22.5,-3.49184 L 16,-3.49184 L 16,-3.5 L 9,-3.5
 L 9,3.5 L 16,3.5 L 16,3.49184 L 22.5,3.49184 L 22.5,5.13499 L 21.54,5.13499
 L 21.54,4.12999 L 19,4.12999 L 19,5.13499 L 15.5,5.13499 L 15.5,5.735 L 19,5.735
 L 19,7.67499 L 15.5,7.67499 L 15.5,8.27499 L 19,8.27499 L 19,10.215 L 15.5,10.215
 L 15.5,10.815 L 19,10.815 L 19,11.75 L 21.54,11.75 L 21.54,10.815 L 22.5,10.815
 L 22.5,12.5081 L 16,12.5081 L 16,12.5 L 9,12.5 L 9,19.5 L 16,19.5
 L 16,19.4918 L 22.5,19.4918 L 22.5,25.25 L 22.4941,25.4384 L 22.4763,25.626 L 22.4469,25.8121
 L 22.4057,25.9961 L 22.3532,26.177 L 22.2893,26.3544 L 22.2145,26.5273 L 22.1289,26.6953 L 22.033,26.8575
 L 21.927,27.0134 L 21.8115,27.1623 L 21.6869,27.3036 L 21.5536,27.4369 L 21.4123,27.5615 L 21.2634,27.677
 L 21.1075,27.783 L 20.9453,27.8789 L 20.7773,27.9645 L 20.6044,28.0393 L 20.427,28.1032 L 20.2461,28.1557
 L 20.0621,28.1969 L 19.876,28.2263 L 19.6884,28.2441 L 19.5,28.25 L -1,28.25 L -1,15.75
 L -30,15.75 L -30,28.25 z
M 15.4674,-21.7193 L 15.5299,-21.7464 L 15.5827,-21.7894 L 15.622,-21.845 L 15.6448,-21.9091 L 15.65,-21.96
 L 15.65,-27.04 L 15.6407,-27.1074 L 15.6136,-27.1699 L 15.5706,-27.2227 L 15.515,-27.262 L 15.4509,-27.2848
 L 15.4,-27.29 L -35.4,-27.29 L -35.4674,-27.2807 L -35.5299,-27.2536 L -35.5827,-27.2106 L -35.622,-27.155
 L -35.6448,-27.0909 L -35.65,-27.04 L -35.65,-21.96 L -35.6407,-21.8925 L -35.6136,-21.8301 L -35.5706,-21.7773
 L -35.515,-21.738 L -35.4509,-21.7152 L -35.4,-21.71 L 15.4,-21.71 z
M -35.4,-21.96 L -35.4,-27.04 L 15.4,-27.04 L 15.4,-21.96 z
M -22.5,-27 L -30,-27 L -30,-24.5 L -22.5,-24.5 z
M -38.9137,-23.1277 L -38.8277,-23.1358 L -38.7423,-23.1494 L -38.6581,-23.1682 L -38.5751,-23.1923 L -38.4938,-23.2216
 L -38.4146,-23.2559 L -38.3376,-23.2951 L -38.2632,-23.339 L -38.1918,-23.3876 L -38.1235,-23.4405 L -38.0587,-23.4977
 L -37.9977,-23.5587 L -37.9405,-23.6235 L -37.8876,-23.6918 L -37.839,-23.7632 L -37.7951,-23.8376 L -37.7559,-23.9146
 L -37.7216,-23.9938 L -37.6923,-24.0751 L -37.6682,-24.1581 L -37.6494,-24.2423 L -37.6358,-24.3277 L -37.6277,-24.4137
 L -37.625,-24.5 L -37.6277,-24.5863 L -37.6358,-24.6723 L -37.6494,-24.7576 L -37.6682,-24.8419 L -37.6923,-24.9249
 L -37.7216,-25.0062 L -37.7559,-25.0854 L -37.7951,-25.1624 L -37.839,-25.2368 L -37.8876,-25.3082 L -37.9405,-25.3764
 L -37.9977,-25.4412 L -38.0587,-25.5023 L -38.1235,-25.5594 L -38.1918,-25.6124 L -38.2632,-25.6609 L -38.3376,-25.7049
 L -38.4146,-25.7441 L -38.4938,-25.7784 L -38.5751,-25.8077 L -38.6581,-25.8318 L -38.7423,-25.8506 L -38.8277,-25.8642
 L -38.9137,-25.8723 L -39,-25.875 L -39.0863,-25.8723 L -39.1723,-25.8642 L -39.2576,-25.8506 L -39.3419,-25.8318
 L -39.4249,-25.8077 L -39.5062,-25.7784 L -39.5854,-25.7441 L -39.6624,-25.7049 L -39.7368,-25.6609 L -39.8082,-25.6124
 L -39.8764,-25.5594 L -39.9412,-25.5023 L -40.0023,-25.4412 L -40.0594,-25.3764 L -40.1124,-25.3082 L -40.1609,-25.2368
 L -40.2049,-25.1624 L -40.2441,-25.0854 L -40.2784,-25.0062 L -40.3077,-24.9249 L -40.3318,-24.8419 L -40.3506,-24.7576
 L -40.3642,-24.6723 L -40.3723,-24.5863 L -40.375,-24.5 L -40.3723,-24.4137 L -40.3642,-24.3277 L -40.3506,-24.2423
 L -40.3318,-24.1581 L -40.3077,-24.0751 L -40.2784,-23.9938 L -40.2441,-23.9146 L -40.2049,-23.8376 L -40.1609,-23.7632
 L -40.1124,-23.6918 L -40.0594,-23.6235 L -40.0023,-23.5587 L -39.9412,-23.4977 L -39.8764,-23.4405 L -39.8082,-23.3876
 L -39.7368,-23.339 L -39.6624,-23.2951 L -39.5854,-23.2559 L -39.5062,-23.2216 L -39.4249,-23.1923 L -39.3419,-23.1682
 L -39.2576,-23.1494 L -39.1723,-23.1358 L -39.0863,-23.1277 L -39,-23.125 z
M -39.0707,-23.3773 L -39.141,-23.384 L -39.2108,-23.3951 L -39.2796,-23.4104 L -39.3477,-23.4302 L -39.414,-23.4541
 L -39.4791,-23.4823 L -39.5418,-23.5142 L -39.6028,-23.5503 L -39.6612,-23.5899 L -39.717,-23.6332 L -39.7701,-23.6801
 L -39.8199,-23.7299 L -39.8667,-23.783 L -39.91,-23.8388 L -39.9497,-23.8972 L -39.9858,-23.9582 L -40.0177,-24.0209
 L -40.0459,-24.0859 L -40.0698,-24.1525 L -40.0895,-24.2202 L -40.1049,-24.2893 L -40.116,-24.359 L -40.1227,-24.4293
 L -40.1249,-24.5 L -40.1227,-24.5707 L -40.116,-24.641 L -40.1049,-24.7108 L -40.0896,-24.7797 L -40.0698,-24.8476
 L -40.0459,-24.914 L -40.0177,-24.9791 L -39.9858,-25.0418 L -39.9497,-25.1028 L -39.91,-25.1612 L -39.8667,-25.217
 L -39.8199,-25.2701 L -39.7701,-25.3199 L -39.717,-25.3667 L -39.6612,-25.41 L -39.6028,-25.4497 L -39.5418,-25.4858
 L -39.4791,-25.5177 L -39.414,-25.5459 L -39.3476,-25.5698 L -39.2797,-25.5896 L -39.2108,-25.6049 L -39.141,-25.616
 L -39.0707,-25.6227 L -39,-25.6249 L -38.9293,-25.6227 L -38.859,-25.616 L -38.7893,-25.6049 L -38.7202,-25.5895
 L -38.6525,-25.5698 L -38.5859,-25.5459 L -38.5209,-25.5177 L -38.4582,-25.4858 L -38.3972,-25.4497 L -38.3388,-25.41
 L -38.283,-25.3667 L -38.2299,-25.3199 L -38.1801,-25.2701 L -38.1332,-25.217 L -38.0899,-25.1612 L -38.0503,-25.1028
 L -38.0142,-25.0418 L -37.9823,-24.9791 L -37.9541,-24.914 L -37.9302,-24.8477 L -37.9104,-24.7796 L -37.8951,-24.7108
 L -37.884,-24.641 L -37.8773,-24.5707 L -37.8751,-24.5 L -37.8773,-24.4293 L -37.884,-24.359 L -37.8951,-24.2892
 L -37.9104,-24.2203 L -37.9302,-24.1524 L -37.9541,-24.086 L -37.9823,-24.0209 L -38.0142,-23.9582 L -38.0503,-23.8972
 L -38.0899,-23.8388 L -38.1332,-23.783 L -38.1801,-23.7299 L -38.2299,-23.6801 L -38.283,-23.6332 L -38.3388,-23.5899
 L -38.3972,-23.5503 L -38.4582,-23.5142 L -38.5209,-23.4823 L -38.586,-23.4541 L -38.6524,-23.4302 L -38.7203,-23.4104
 L -38.7892,-23.3951 L -38.859,-23.384 L -38.9293,-23.3773 L -39,-23.3751 z
M 19.0863,-23.1277 L 19.1723,-23.1358 L 19.2576,-23.1494 L 19.3419,-23.1682 L 19.4249,-23.1923 L 19.5062,-23.2216
 L 19.5854,-23.2559 L 19.6624,-23.2951 L 19.7368,-23.339 L 19.8082,-23.3876 L 19.8764,-23.4405 L 19.9412,-23.4977
 L 20.0023,-23.5587 L 20.0594,-23.6235 L 20.1124,-23.6918 L 20.1609,-23.7632 L 20.2049,-23.8376 L 20.2441,-23.9146
 L 20.2784,-23.9938 L 20.3077,-24.0751 L 20.3318,-24.1581 L 20.3506,-24.2423 L 20.3642,-24.3277 L 20.3723,-24.4137
 L 20.375,-24.5 L 20.3723,-24.5863 L 20.3642,-24.6723 L 20.3506,-24.7576 L 20.3318,-24.8419 L 20.3077,-24.9249
 L 20.2784,-25.0062 L 20.2441,-25.0854 L 20.2049,-25.1624 L 20.1609,-25.2368 L 20.1124,-25.3082 L 20.0594,-25.3764
 L 20.0023,-25.4412 L 19.9412,-25.5023 L 19.8764,-25.5594 L 19.8082,-25.6124 L 19.7368,-25.6609 L 19.6624,-25.7049
 L 19.5854,-25.7441 L 19.5062,-25.7784 L 19.4249,-25.8077 L 19.3419,-25.8318 L 19.2576,-25.8506 L 19.1723,-25.8642
 L 19.0863,-25.8723 L 19,-25.875 L 18.9137,-25.8723 L 18.8277,-25.8642 L 18.7423,-25.8506 L 18.6581,-25.8318
 L 18.5751,-25.8077 L 18.4938,-25.7784 L 18.4146,-25.7441 L 18.3376,-25.7049 L 18.2632,-25.6609 L 18.1918,-25.6124
 L 18.1235,-25.5594 L 18.0587,-25.5023 L 17.9977,-25.4412 L 17.9405,-25.3764 L 17.8876,-25.3082 L 17.839,-25.2368
 L 17.7951,-25.1624 L 17.7559,-25.0854 L 17.7216,-25.0062 L 17.6923,-24.9249 L 17.6682,-24.8419 L 17.6494,-24.7576
 L 17.6358,-24.6723 L 17.6277,-24.5863 L 17.625,-24.5 L 17.6277,-24.4137 L 17.6358,-24.3277 L 17.6494,-24.2423
 L 17.6682,-24.1581 L 17.6923,-24.0751 L 17.7216,-23.9938 L 17.7559,-23.9146 L 17.7951,-23.8376 L 17.839,-23.7632
 L 17.8876,-23.6918 L 17.9405,-23.6235 L 17.9977,-23.5587 L 18.0587,-23.4977 L 18.1235,-23.4405 L 18.1918,-23.3876
 L 18.2632,-23.339 L 18.3376,-23.2951 L 18.4146,-23.2559 L 18.4938,-23.2216 L 18.5751,-23.1923 L 18.6581,-23.1682
 L 18.7423,-23.1494 L 18.8277,-23.1358 L 18.9137,-23.1277 L 19,-23.125 z
M 18.9293,-23.3773 L 18.859,-23.384 L 18.7892,-23.3951 L 18.7203,-23.4104 L 18.6524,-23.4302 L 18.586,-23.4541
 L 18.5209,-23.4823 L 18.4582,-23.5142 L 18.3972,-23.5503 L 18.3388,-23.5899 L 18.283,-23.6332 L 18.2299,-23.6801
 L 18.1801,-23.7299 L 18.1332,-23.783 L 18.0899,-23.8388 L 18.0503,-23.8972 L 18.0142,-23.9582 L 17.9823,-24.0209
 L 17.9541,-24.086 L 17.9302,-24.1524 L 17.9104,-24.2203 L 17.8951,-24.2892 L 17.884,-24.359 L 17.8773,-24.4293
 L 17.8751,-24.5 L 17.8773,-24.5707 L 17.884,-24.641 L 17.8951,-24.7108 L 17.9104,-24.7796 L 17.9302,-24.8477
 L 17.9541,-24.914 L 17.9823,-24.9791 L 18.0142,-25.0418 L 18.0503,-25.1028 L 18.0899,-25.1612 L 18.1332,-25.217
 L 18.1801,-25.2701 L 18.2299,-25.3199 L 18.283,-25.3667 L 18.3388,-25.41 L 18.3972,-25.4497 L 18.4582,-25.4858
 L 18.5209,-25.5177 L 18.5859,-25.5459 L 18.6525,-25.5698 L 18.7202,-25.5895 L 18.7893,-25.6049 L 18.859,-25.616
 L 18.9293,-25.6227 L 19,-25.6249 L 19.0707,-25.6227 L 19.141,-25.616 L 19.2108,-25.6049 L 19.2797,-25.5896
 L 19.3476,-25.5698 L 19.414,-25.5459 L 19.4791,-25.5177 L 19.5418,-25.4858 L 19.6028,-25.4497 L 19.6612,-25.41
 L 19.717,-25.3667 L 19.7701,-25.3199 L 19.8199,-25.2701 L 19.8667,-25.217 L 19.91,-25.1612 L 19.9497,-25.1028
 L 19.9858,-25.0418 L 20.0177,-24.9791 L 20.0459,-24.914 L 20.0698,-24.8476 L 20.0896,-24.7797 L 20.1049,-24.7108
 L 20.116,-24.641 L 20.1227,-24.5707 L 20.1249,-24.5 L 20.1227,-24.4293 L 20.116,-24.359 L 20.1049,-24.2893
 L 20.0895,-24.2202 L 20.0698,-24.1525 L 20.0459,-24.0859 L 20.0177,-24.0209 L 19.9858,-23.9582 L 19.9497,-23.8972
 L 19.91,-23.8388 L 19.8667,-23.783 L 19.8199,-23.7299 L 19.7701,-23.6801 L 19.717,-23.6332 L 19.6612,-23.5899
 L 19.6028,-23.5503 L 19.5418,-23.5142 L 19.4791,-23.4823 L 19.414,-23.4541 L 19.3477,-23.4302 L 19.2796,-23.4104
 L 19.2108,-23.3951 L 19.141,-23.384 L 19.0707,-23.3773 L 19,-23.3751 z
M -37.6246,-14.1936 L -37.1512,-14.3618 L -36.7407,-14.6516 L -36.4236,-15.0414 L -36.2234,-15.5022 L -36.155,-16
 L -36.2234,-16.4978 L -36.4236,-16.9586 L -36.7407,-17.3484 L -37.1512,-17.6381 L -37.6246,-17.8064 L -38.1259,-17.8407
 L -38.6178,-17.7385 L -39.064,-17.5073 L -39.4312,-17.1644 L -39.6922,-16.735 L -39.8278,-16.2512 L -39.8278,-15.7488
 L -39.6922,-15.2649 L -39.4312,-14.8356 L -39.064,-14.4927 L -38.6178,-14.2615 L -38.1259,-14.1593 z
M -12,-5.185 L -8.5,-5.185 L -8.5,-5.78499 L -12,-5.78499 L -12,-7.72499 L -8.5,-7.72499
 L -8.5,-8.325 L -12,-8.325 L -12,-10.265 L -8.5,-10.265 L -8.5,-10.865 L -12,-10.865
 L -12,-12.805 L -8.5,-12.805 L -8.5,-13.405 L -12,-13.405 L -12,-14.41 L -14.54,-14.41
 L -14.54,-13.405 L -20,-13.405 L -20,-12.805 L -14.54,-12.805 L -14.54,-10.865 L -20,-10.865
 L -20,-10.265 L -14.54,-10.265 L -14.54,-8.325 L -20,-8.325 L -20,-7.72499 L -14.54,-7.72499
 L -14.54,-5.78499 L -20,-5.78499 L -20,-5.185 L -14.54,-5.185 L -14.54,-4.25 L -12,-4.25
 z
M -37.6246,-6.19359 L -37.1512,-6.36185 L -36.7407,-6.6516 L -36.4236,-7.04137 L -36.2234,-7.50221 L -36.155,-8
 L -36.2234,-8.49777 L -36.4236,-8.95862 L -36.7407,-9.34839 L -37.1512,-9.63814 L -37.6246,-9.8064 L -38.1259,-9.8407
 L -38.6178,-9.73846 L -39.064,-9.50731 L -39.4312,-9.16435 L -39.6922,-8.73505 L -39.8278,-8.25122 L -39.8278,-7.74876
 L -39.6922,-7.26494 L -39.4312,-6.83563 L -39.064,-6.49269 L -38.6178,-6.26152 L -38.1259,-6.1593 z
M -10.6246,1.8064 L -10.1512,1.63814 L -9.74068,1.34839 L -9.42358,0.958618 L -9.2234,0.497772 L -9.155,-0
 L -9.2234,-0.497772 L -9.42358,-0.958618 L -9.74068,-1.34839 L -10.1512,-1.63814 L -10.6246,-1.8064 L -11.1259,-1.8407
 L -11.6178,-1.73846 L -12.064,-1.50731 L -12.4312,-1.16435 L -12.6922,-0.735046 L -12.8278,-0.251221 L -12.8278,0.251221
 L -12.6922,0.735046 L -12.4312,1.16435 L -12.064,1.50731 L -11.6178,1.73846 L -11.1259,1.8407 z
M -0.624619,1.8064 L -0.151169,1.63814 L 0.259308,1.34839 L 0.576401,0.958618 L 0.776581,0.497772 L 0.844986,-0
 L 0.776581,-0.497772 L 0.576401,-0.958618 L 0.259308,-1.34839 L -0.151169,-1.63814 L -0.624619,-1.8064 L -1.1259,-1.8407
 L -1.61784,-1.73846 L -2.06396,-1.50731 L -2.43118,-1.16435 L -2.69225,-0.735046 L -2.8278,-0.251221 L -2.8278,0.251221
 L -2.69225,0.735046 L -2.43118,1.16435 L -2.06396,1.50731 L -1.61784,1.73846 L -1.1259,1.8407 z
M -30.6246,1.8064 L -30.1512,1.63814 L -29.7407,1.34839 L -29.4236,0.958618 L -29.2234,0.497772 L -29.155,-0
 L -29.2234,-0.497772 L -29.4236,-0.958618 L -29.7407,-1.34839 L -30.1512,-1.63814 L -30.6246,-1.8064 L -31.1259,-1.8407
 L -31.6178,-1.73846 L -32.064,-1.50731 L -32.4312,-1.16435 L -32.6922,-0.735046 L -32.8278,-0.251221 L -32.8278,0.251221
 L -32.6922,0.735046 L -32.4312,1.16435 L -32.064,1.50731 L -31.6178,1.73846 L -31.1259,1.8407 z
M -20.6246,1.8064 L -20.1512,1.63814 L -19.7407,1.34839 L -19.4236,0.958618 L -19.2234,0.497772 L -19.155,-0
 L -19.2234,-0.497772 L -19.4236,-0.958618 L -19.7407,-1.34839 L -20.1512,-1.63814 L -20.6246,-1.8064 L -21.1259,-1.8407
 L -21.6178,-1.73846 L -22.064,-1.50731 L -22.4312,-1.16435 L -22.6922,-0.735046 L -22.8278,-0.251221 L -22.8278,0.251221
 L -22.6922,0.735046 L -22.4312,1.16435 L -22.064,1.50731 L -21.6178,1.73846 L -21.1259,1.8407 z
M -30.3896,14.9372 L -29.6198,14.6637 L -29.388,14.5 L -28.5,14.5 L -28.5,13.6365 L -28.4367,13.5587
 L -28.1112,12.8094 L -28,12 L -28.1112,11.1906 L -28.4367,10.4412 L -28.5,10.3635 L -28.5,9.5
 L -29.3879,9.5 L -29.6198,9.33633 L -30.3896,9.06274 L -31.2047,9.00699 L -32.0046,9.1732 L -32.6353,9.5
 L -33.5,9.5 L -33.5,10.391 L -33.7516,10.8048 L -33.972,11.5915 L -33.972,12.4085 L -33.7516,13.1952
 L -33.5,13.609 L -33.5,14.5 L -32.6353,14.5 L -32.0046,14.8268 L -31.2047,14.993 z
M -0.389618,14.9372 L 0.380188,14.6637 L 0.61203,14.5 L 1.5,14.5 L 1.5,13.6365 L 1.56325,13.5587
 L 1.88875,12.8094 L 2,12 L 1.88875,11.1906 L 1.56325,10.4412 L 1.5,10.3635 L 1.5,9.5
 L 0.612045,9.5 L 0.380188,9.33633 L -0.389618,9.06274 L -1.20473,9.00699 L -2.00464,9.1732 L -2.6353,9.5
 L -3.5,9.5 L -3.5,10.391 L -3.75163,10.8048 L -3.97205,11.5915 L -3.97205,12.4085 L -3.75163,13.1952
 L -3.5,13.609 L -3.5,14.5 L -2.63527,14.5 L -2.00464,14.8268 L -1.20473,14.993 z
M -10.3896,14.9372 L -9.6198,14.6637 L -9.38795,14.5 L -8.5,14.5 L -8.5,13.6365 L -8.43674,13.5587
 L -8.11124,12.8094 L -8,12 L -8.11124,11.1906 L -8.43674,10.4412 L -8.5,10.3635 L -8.5,9.5
 L -9.38794,9.5 L -9.6198,9.33633 L -10.3896,9.06274 L -11.2047,9.00699 L -12.0046,9.1732 L -12.6353,9.5
 L -13.5,9.5 L -13.5,10.391 L -13.7516,10.8048 L -13.972,11.5915 L -13.972,12.4085 L -13.7516,13.1952
 L -13.5,13.609 L -13.5,14.5 L -12.6353,14.5 L -12.0046,14.8268 L -11.2047,14.993 z
M -20.3896,14.9372 L -19.6198,14.6637 L -19.388,14.5 L -18.5,14.5 L -18.5,13.6365 L -18.4367,13.5587
 L -18.1112,12.8094 L -18,12 L -18.1112,11.1906 L -18.4367,10.4412 L -18.5,10.3635 L -18.5,9.5
 L -19.3879,9.5 L -19.6198,9.33633 L -20.3896,9.06274 L -21.2047,9.00699 L -22.0046,9.1732 L -22.6353,9.5
 L -23.5,9.5 L -23.5,10.391 L -23.7516,10.8048 L -23.972,11.5915 L -23.972,12.4085 L -23.7516,13.1952
 L -23.5,13.609 L -23.5,14.5 L -22.6353,14.5 L -22.0046,14.8268 L -21.2047,14.993 z
M -38.9137,25.8723 L -38.8277,25.8642 L -38.7423,25.8506 L -38.6581,25.8318 L -38.5751,25.8077 L -38.4938,25.7784
 L -38.4146,25.7441 L -38.3376,25.7049 L -38.2632,25.6609 L -38.1918,25.6124 L -38.1235,25.5594 L -38.0587,25.5023
 L -37.9977,25.4412 L -37.9405,25.3764 L -37.8876,25.3082 L -37.839,25.2368 L -37.7951,25.1624 L -37.7559,25.0854
 L -37.7216,25.0062 L -37.6923,24.9249 L -37.6682,24.8419 L -37.6494,24.7576 L -37.6358,24.6723 L -37.6277,24.5863
 L -37.625,24.5 L -37.6277,24.4137 L -37.6358,24.3277 L -37.6494,24.2423 L -37.6682,24.1581 L -37.6923,24.0751
 L -37.7216,23.9938 L -37.7559,23.9146 L -37.7951,23.8376 L -37.839,23.7632 L -37.8876,23.6918 L -37.9405,23.6235
 L -37.9977,23.5587 L -38.0587,23.4977 L -38.1235,23.4405 L -38.1918,23.3876 L -38.2632,23.339 L -38.3376,23.2951
 L -38.4146,23.2559 L -38.4938,23.2216 L -38.5751,23.1923 L -38.6581,23.1682 L -38.7423,23.1494 L -38.8277,23.1358
 L -38.9137,23.1277 L -39,23.125 L -39.0863,23.1277 L -39.1723,23.1358 L -39.2576,23.1494 L -39.3419,23.1682
 L -39.4249,23.1923 L -39.5062,23.2216 L -39.5854,23.2559 L -39.6624,23.2951 L -39.7368,23.339 L -39.8082,23.3876
 L -39.8764,23.4405 L -39.9412,23.4977 L -40.0023,23.5587 L -40.0594,23.6235 L -40.1124,23.6918 L -40.1609,23.7632
 L -40.2049,23.8376 L -40.2441,23.9146 L -40.2784,23.9938 L -40.3077,24.0751 L -40.3318,24.1581 L -40.3506,24.2423
 L -40.3642,24.3277 L -40.3723,24.4137 L -40.375,24.5 L -40.3723,24.5863 L -40.3642,24.6723 L -40.3506,24.7576
 L -40.3318,24.8419 L -40.3077,24.9249 L -40.2784,25.0062 L -40.2441,25.0854 L -40.2049,25.1624 L -40.1609,25.2368
 L -40.1124,25.3082 L -40.0594,25.3764 L -40.0023,25.4412 L -39.9412,25.5023 L -39.8764,25.5594 L -39.8082,25.6124
 L -39.7368,25.6609 L -39.6624,25.7049 L -39.5854,25.7441 L -39.5062,25.7784 L -39.4249,25.8077 L -39.3419,25.8318
 L -39.2576,25.8506 L -39.1723,25.8642 L -39.0863,25.8723 L -39,25.875 z
M -39.0707,25.6227 L -39.141,25.616 L -39.2108,25.6049 L -39.2797,25.5896 L -39.3476,25.5698 L -39.414,25.5459
 L -39.4791,25.5177 L -39.5418,25.4858 L -39.6028,25.4497 L -39.6612,25.41 L -39.717,25.3667 L -39.7701,25.3199
 L -39.8199,25.2701 L -39.8667,25.217 L -39.91,25.1612 L -39.9497,25.1028 L -39.9858,25.0418 L -40.0177,24.9791
 L -40.0459,24.914 L -40.0698,24.8476 L -40.0896,24.7797 L -40.1049,24.7108 L -40.116,24.641 L -40.1227,24.5707
 L -40.1249,24.5 L -40.1227,24.4293 L -40.116,24.359 L -40.1049,24.2893 L -40.0895,24.2202 L -40.0698,24.1525
 L -40.0459,24.0859 L -40.0177,24.0209 L -39.9858,23.9582 L -39.9497,23.8972 L -39.91,23.8388 L -39.8667,23.783
 L -39.8199,23.7299 L -39.7701,23.6801 L -39.717,23.6332 L -39.6612,23.5899 L -39.6028,23.5503 L -39.5418,23.5142
 L -39.4791,23.4823 L -39.414,23.4541 L -39.3477,23.4302 L -39.2796,23.4104 L -39.2108,23.3951 L -39.141,23.384
 L -39.0707,23.3773 L -39,23.3751 L -38.9293,23.3773 L -38.859,23.384 L -38.7892,23.3951 L -38.7203,23.4104
 L -38.6524,23.4302 L -38.586,23.4541 L -38.5209,23.4823 L -38.4582,23.5142 L -38.3972,23.5503 L -38.3388,23.5899
 L -38.283,23.6332 L -38.2299,23.6801 L -38.1801,23.7299 L -38.1332,23.783 L -38.0899,23.8388 L -38.0503,23.8972
 L -38.0142,23.9582 L -37.9823,24.0209 L -37.9541,24.086 L -37.9302,24.1524 L -37.9104,24.2203 L -37.8951,24.2892
 L -37.884,24.359 L -37.8773,24.4293 L -37.8751,24.5 L -37.8773,24.5707 L -37.884,24.641 L -37.8951,24.7108
 L -37.9104,24.7796 L -37.9302,24.8477 L -37.9541,24.914 L -37.9823,24.9791 L -38.0142,25.0418 L -38.0503,25.1028
 L -38.0899,25.1612 L -38.1332,25.217 L -38.1801,25.2701 L -38.2299,25.3199 L -38.283,25.3667 L -38.3388,25.41
 L -38.3972,25.4497 L -38.4582,25.4858 L -38.5209,25.5177 L -38.5859,25.5459 L -38.6525,25.5698 L -38.7202,25.5895
 L -38.7893,25.6049 L -38.859,25.616 L -38.9293,25.6227 L -39,25.6249 z
M 19.0863,25.8723 L 19.1723,25.8642 L 19.2576,25.8506 L 19.3419,25.8318 L 19.4249,25.8077 L 19.5062,25.7784
 L 19.5854,25.7441 L 19.6624,25.7049 L 19.7368,25.6609 L 19.8082,25.6124 L 19.8764,25.5594 L 19.9412,25.5023
 L 20.0023,25.4412 L 20.0594,25.3764 L 20.1124,25.3082 L 20.1609,25.2368 L 20.2049,25.1624 L 20.2441,25.0854
 L 20.2784,25.0062 L 20.3077,24.9249 L 20.3318,24.8419 L 20.3506,24.7576 L 20.3642,24.6723 L 20.3723,24.5863
 L 20.375,24.5 L 20.3723,24.4137 L 20.3642,24.3277 L 20.3506,24.2423 L 20.3318,24.1581 L 20.3077,24.0751
 L 20.2784,23.9938 L 20.2441,23.9146 L 20.2049,23.8376 L 20.1609,23.7632 L 20.1124,23.6918 L 20.0594,23.6235
 L 20.0023,23.5587 L 19.9412,23.4977 L 19.8764,23.4405 L 19.8082,23.3876 L 19.7368,23.339 L 19.6624,23.2951
 L 19.5854,23.2559 L 19.5062,23.2216 L 19.4249,23.1923 L 19.3419,23.1682 L 19.2576,23.1494 L 19.1723,23.1358
 L 19.0863,23.1277 L 19,23.125 L 18.9137,23.1277 L 18.8277,23.1358 L 18.7423,23.1494 L 18.6581,23.1682
 L 18.5751,23.1923 L 18.4938,23.2216 L 18.4146,23.2559 L 18.3376,23.2951 L 18.2632,23.339 L 18.1918,23.3876
 L 18.1235,23.4405 L 18.0587,23.4977 L 17.9977,23.5587 L 17.9405,23.6235 L 17.8876,23.6918 L 17.839,23.7632
 L 17.7951,23.8376 L 17.7559,23.9146 L 17.7216,23.9938 L 17.6923,24.0751 L 17.6682,24.1581 L 17.6494,24.2423
 L 17.6358,24.3277 L 17.6277,24.4137 L 17.625,24.5 L 17.6277,24.5863 L 17.6358,24.6723 L 17.6494,24.7576
 L 17.6682,24.8419 L 17.6923,24.9249 L 17.7216,25.0062 L 17.7559,25.0854 L 17.7951,25.1624 L 17.839,25.2368
 L 17.8876,25.3082 L 17.9405,25.3764 L 17.9977,25.4412 L 18.0587,25.5023 L 18.1235,25.5594 L 18.1918,25.6124
 L 18.2632,25.6609 L 18.3376,25.7049 L 18.4146,25.7441 L 18.4938,25.7784 L 18.5751,25.8077 L 18.6581,25.8318
 L 18.7423,25.8506 L 18.8277,25.8642 L 18.9137,25.8723 L 19,25.875 z
M 18.9293,25.6227 L 18.859,25.616 L 18.7893,25.6049 L 18.7202,25.5895 L 18.6525,25.5698 L 18.5859,25.5459
 L 18.5209,25.5177 L 18.4582,25.4858 L 18.3972,25.4497 L 18.3388,25.41 L 18.283,25.3667 L 18.2299,25.3199
 L 18.1801,25.2701 L 18.1332,25.217 L 18.0899,25.1612 L 18.0503,25.1028 L 18.0142,25.0418 L 17.9823,24.9791
 L 17.9541,24.914 L 17.9302,24.8477 L 17.9104,24.7796 L 17.8951,24.7108 L 17.884,24.641 L 17.8773,24.5707
 L 17.8751,24.5 L 17.8773,24.4293 L 17.884,24.359 L 17.8951,24.2892 L 17.9104,24.2203 L 17.9302,24.1524
 L 17.9541,24.086 L 17.9823,24.0209 L 18.0142,23.9582 L 18.0503,23.8972 L 18.0899,23.8388 L 18.1332,23.783
 L 18.1801,23.7299 L 18.2299,23.6801 L 18.283,23.6332 L 18.3388,23.5899 L 18.3972,23.5503 L 18.4582,23.5142
 L 18.5209,23.4823 L 18.586,23.4541 L 18.6524,23.4302 L 18.7203,23.4104 L 18.7892,23.3951 L 18.859,23.384
 L 18.9293,23.3773 L 19,23.3751 L 19.0707,23.3773 L 19.141,23.384 L 19.2108,23.3951 L 19.2796,23.4104
 L 19.3477,23.4302 L 19.414,23.4541 L 19.4791,23.4823 L 19.5418,23.5142 L 19.6028,23.5503 L 19.6612,23.5899
 L 19.717,23.6332 L 19.7701,23.6801 L 19.8199,23.7299 L 19.8667,23.783 L 19.91,23.8388 L 19.9497,23.8972
 L 19.9858,23.9582 L 20.0177,24.0209 L 20.0459,24.0859 L 20.0698,24.1525 L 20.0895,24.2202 L 20.1049,24.2893
 L 20.116,24.359 L 20.1227,24.4293 L 20.1249,24.5 L 20.1227,24.5707 L 20.116,24.641 L 20.1049,24.7108
 L 20.0896,24.7797 L 20.0698,24.8476 L 20.0459,24.914 L 20.0177,24.9791 L 19.9858,25.0418 L 19.9497,25.1028
 L 19.91,25.1612 L 19.8667,25.217 L 19.8199,25.2701 L 19.7701,25.3199 L 19.717,25.3667 L 19.6612,25.41
 L 19.6028,25.4497 L 19.5418,25.4858 L 19.4791,25.5177 L 19.414,25.5459 L 19.3476,25.5698 L 19.2797,25.5896
 L 19.2108,25.6049 L 19.141,25.616 L 19.0707,25.6227 L 19,25.6249 z
M 22.5,7.67499 L 21.54,7.67499 L 21.54,5.735 L 22.5,5.735 z
M 22.5,10.215 L 21.54,10.215 L 21.54,8.27499 L 22.5,8.27499 z
" stroke="black" fill="lightgray" stroke-width="0.5"/></svg>
