  0
SECTION
  2
BLOCKS
  0
ENDSEC
  0
SECTION
  2
ENTITIES
  0
LINE
  8
0
 10
-29.9326
 20
-28.4907
 11
-29.8701
 21
-28.4636
  0
LINE
  8
0
 10
-29.8701
 20
-28.4636
 11
-29.8173
 21
-28.4206
  0
LINE
  8
0
 10
-29.8173
 20
-28.4206
 11
-29.778
 21
-28.365
  0
LINE
  8
0
 10
-29.778
 20
-28.365
 11
-29.7552
 21
-28.3009
  0
LINE
  8
0
 10
-29.7552
 20
-28.3009
 11
-29.75
 21
-28.25
  0
LINE
  8
0
 10
-29.75
 20
-28.25
 11
-29.75
 21
-16
  0
LINE
  8
0
 10
-29.75
 20
-16
 11
-1.25
 21
-16
  0
LINE
  8
0
 10
-1.25
 20
-16
 11
-1.25
 21
-28.25
  0
LINE
  8
0
 10
-1.25
 20
-28.25
 11
-1.24072
 21
-28.3174
  0
LINE
  8
0
 10
-1.24072
 20
-28.3174
 11
-1.21361
 21
-28.3799
  0
LINE
  8
0
 10
-1.21361
 20
-28.3799
 11
-1.17064
 21
-28.4327
  0
LINE
  8
0
 10
-1.17064
 20
-28.4327
 11
-1.11502
 21
-28.472
  0
LINE
  8
0
 10
-1.11502
 20
-28.472
 11
-1.05086
 21
-28.4948
  0
LINE
  8
0
 10
-1.05086
 20
-28.4948
 11
-1
 21
-28.5
  0
LINE
  8
0
 10
-1
 20
-28.5
 11
19.5079
 21
-28.4999
  0
LINE
  8
0
 10
19.5079
 20
-28.4999
 11
19.7119
 21
-28.493
  0
LINE
  8
0
 10
19.7119
 20
-28.493
 11
19.9151
 21
-28.4733
  0
LINE
  8
0
 10
19.9151
 20
-28.4733
 11
20.1167
 21
-28.4408
  0
LINE
  8
0
 10
20.1167
 20
-28.4408
 11
20.3158
 21
-28.3958
  0
LINE
  8
0
 10
20.3158
 20
-28.3958
 11
20.5117
 21
-28.3384
  0
LINE
  8
0
 10
20.5117
 20
-28.3384
 11
20.7037
 21
-28.2688
  0
LINE
  8
0
 10
20.7037
 20
-28.2688
 11
20.8908
 21
-28.1872
  0
LINE
  8
0
 10
20.8908
 20
-28.1872
 11
21.0725
 21
-28.0941
  0
LINE
  8
0
 10
21.0725
 20
-28.0941
 11
21.248
 21
-27.9897
  0
LINE
  8
0
 10
21.248
 20
-27.9897
 11
21.4166
 21
-27.8746
  0
LINE
  8
0
 10
21.4166
 20
-27.8746
 11
21.5776
 21
-27.7491
  0
LINE
  8
0
 10
21.5776
 20
-27.7491
 11
21.7304
 21
-27.6137
  0
LINE
  8
0
 10
21.7304
 20
-27.6137
 11
21.8744
 21
-27.469
  0
LINE
  8
0
 10
21.8744
 20
-27.469
 11
22.0091
 21
-27.3155
  0
LINE
  8
0
 10
22.0091
 20
-27.3155
 11
22.1338
 21
-27.1539
  0
LINE
  8
0
 10
22.1338
 20
-27.1539
 11
22.2482
 21
-26.9847
  0
LINE
  8
0
 10
22.2482
 20
-26.9847
 11
22.3517
 21
-26.8087
  0
LINE
  8
0
 10
22.3517
 20
-26.8087
 11
22.4439
 21
-26.6266
  0
LINE
  8
0
 10
22.4439
 20
-26.6266
 11
22.5245
 21
-26.4391
  0
LINE
  8
0
 10
22.5245
 20
-26.4391
 11
22.5932
 21
-26.2468
  0
LINE
  8
0
 10
22.5932
 20
-26.2468
 11
22.6497
 21
-26.0506
  0
LINE
  8
0
 10
22.6497
 20
-26.0506
 11
22.6938
 21
-25.8512
  0
LINE
  8
0
 10
22.6938
 20
-25.8512
 11
22.7252
 21
-25.6495
  0
LINE
  8
0
 10
22.7252
 20
-25.6495
 11
22.744
 21
-25.4462
  0
LINE
  8
0
 10
22.744
 20
-25.4462
 11
22.75
 21
-25.25
  0
LINE
  8
0
 10
22.75
 20
-25.25
 11
22.75
 21
-19.4918
  0
LINE
  8
0
 10
22.75
 20
-19.4918
 11
26.5
 21
-19.4918
  0
LINE
  8
0
 10
26.5
 20
-19.4918
 11
26.5
 21
-12.5081
  0
LINE
  8
0
 10
26.5
 20
-12.5081
 11
22.75
 21
-12.5081
  0
LINE
  8
0
 10
22.75
 20
-12.5081
 11
22.75
 21
-10.815
  0
LINE
  8
0
 10
22.75
 20
-10.815
 11
27
 21
-10.815
  0
LINE
  8
0
 10
27
 20
-10.815
 11
27
 21
-10.215
  0
LINE
  8
0
 10
27
 20
-10.215
 11
22.75
 21
-10.215
  0
LINE
  8
0
 10
22.75
 20
-10.215
 11
22.75
 21
-8.27499
  0
LINE
  8
0
 10
22.75
 20
-8.27499
 11
27
 21
-8.27499
  0
LINE
  8
0
 10
27
 20
-8.27499
 11
27
 21
-7.67499
  0
LINE
  8
0
 10
27
 20
-7.67499
 11
22.75
 21
-7.67499
  0
LINE
  8
0
 10
22.75
 20
-7.67499
 11
22.75
 21
-5.735
  0
LINE
  8
0
 10
22.75
 20
-5.735
 11
27
 21
-5.735
  0
LINE
  8
0
 10
27
 20
-5.735
 11
27
 21
-5.13499
  0
LINE
  8
0
 10
27
 20
-5.13499
 11
22.75
 21
-5.13499
  0
LINE
  8
0
 10
22.75
 20
-5.13499
 11
22.75
 21
-3.49184
  0
LINE
  8
0
 10
22.75
 20
-3.49184
 11
26.5
 21
-3.49184
  0
LINE
  8
0
 10
26.5
 20
-3.49184
 11
26.5
 21
3.49184
  0
LINE
  8
0
 10
26.5
 20
3.49184
 11
22.7499
 21
3.49184
  0
LINE
  8
0
 10
22.7499
 20
3.49184
 11
22.7499
 21
12.5081
  0
LINE
  8
0
 10
22.7499
 20
12.5081
 11
26.5
 21
12.5081
  0
LINE
  8
0
 10
26.5
 20
12.5081
 11
26.5
 21
19.4918
  0
LINE
  8
0
 10
26.5
 20
19.4918
 11
22.7499
 21
19.4918
  0
LINE
  8
0
 10
22.7499
 20
19.4918
 11
22.7499
 21
25.2579
  0
LINE
  8
0
 10
22.7499
 20
25.2579
 11
22.743
 21
25.4619
  0
LINE
  8
0
 10
22.743
 20
25.4619
 11
22.7233
 21
25.6651
  0
LINE
  8
0
 10
22.7233
 20
25.6651
 11
22.6908
 21
25.8667
  0
LINE
  8
0
 10
22.6908
 20
25.8667
 11
22.6458
 21
26.0658
  0
LINE
  8
0
 10
22.6458
 20
26.0658
 11
22.5884
 21
26.2617
  0
LINE
  8
0
 10
22.5884
 20
26.2617
 11
22.5188
 21
26.4537
  0
LINE
  8
0
 10
22.5188
 20
26.4537
 11
22.4372
 21
26.6408
  0
LINE
  8
0
 10
22.4372
 20
26.6408
 11
22.3441
 21
26.8225
  0
LINE
  8
0
 10
22.3441
 20
26.8225
 11
22.2397
 21
26.998
  0
LINE
  8
0
 10
22.2397
 20
26.998
 11
22.1246
 21
27.1666
  0
LINE
  8
0
 10
22.1246
 20
27.1666
 11
21.9991
 21
27.3276
  0
LINE
  8
0
 10
21.9991
 20
27.3276
 11
21.8637
 21
27.4804
  0
LINE
  8
0
 10
21.8637
 20
27.4804
 11
21.719
 21
27.6244
  0
LINE
  8
0
 10
21.719
 20
27.6244
 11
21.5655
 21
27.7591
  0
LINE
  8
0
 10
21.5655
 20
27.7591
 11
21.4039
 21
27.8838
  0
LINE
  8
0
 10
21.4039
 20
27.8838
 11
21.2347
 21
27.9982
  0
LINE
  8
0
 10
21.2347
 20
27.9982
 11
21.0588
 21
28.1017
  0
LINE
  8
0
 10
21.0588
 20
28.1017
 11
20.8766
 21
28.1939
  0
LINE
  8
0
 10
20.8766
 20
28.1939
 11
20.6891
 21
28.2745
  0
LINE
  8
0
 10
20.6891
 20
28.2745
 11
20.4968
 21
28.3432
  0
LINE
  8
0
 10
20.4968
 20
28.3432
 11
20.3006
 21
28.3997
  0
LINE
  8
0
 10
20.3006
 20
28.3997
 11
20.1012
 21
28.4438
  0
LINE
  8
0
 10
20.1012
 20
28.4438
 11
19.8995
 21
28.4752
  0
LINE
  8
0
 10
19.8995
 20
28.4752
 11
19.6962
 21
28.494
  0
LINE
  8
0
 10
19.6962
 20
28.494
 11
19.5
 21
28.5
  0
LINE
  8
0
 10
19.5
 20
28.5
 11
-39.5079
 21
28.4999
  0
LINE
  8
0
 10
-39.5079
 20
28.4999
 11
-39.7119
 21
28.493
  0
LINE
  8
0
 10
-39.7119
 20
28.493
 11
-39.9151
 21
28.4733
  0
LINE
  8
0
 10
-39.9151
 20
28.4733
 11
-40.1167
 21
28.4408
  0
LINE
  8
0
 10
-40.1167
 20
28.4408
 11
-40.3158
 21
28.3958
  0
LINE
  8
0
 10
-40.3158
 20
28.3958
 11
-40.5117
 21
28.3384
  0
LINE
  8
0
 10
-40.5117
 20
28.3384
 11
-40.7037
 21
28.2688
  0
LINE
  8
0
 10
-40.7037
 20
28.2688
 11
-40.8908
 21
28.1872
  0
LINE
  8
0
 10
-40.8908
 20
28.1872
 11
-41.0725
 21
28.0941
  0
LINE
  8
0
 10
-41.0725
 20
28.0941
 11
-41.248
 21
27.9897
  0
LINE
  8
0
 10
-41.248
 20
27.9897
 11
-41.4166
 21
27.8746
  0
LINE
  8
0
 10
-41.4166
 20
27.8746
 11
-41.5776
 21
27.7491
  0
LINE
  8
0
 10
-41.5776
 20
27.7491
 11
-41.7304
 21
27.6137
  0
LINE
  8
0
 10
-41.7304
 20
27.6137
 11
-41.8744
 21
27.469
  0
LINE
  8
0
 10
-41.8744
 20
27.469
 11
-42.0091
 21
27.3155
  0
LINE
  8
0
 10
-42.0091
 20
27.3155
 11
-42.1338
 21
27.1539
  0
LINE
  8
0
 10
-42.1338
 20
27.1539
 11
-42.2482
 21
26.9847
  0
LINE
  8
0
 10
-42.2482
 20
26.9847
 11
-42.3517
 21
26.8087
  0
LINE
  8
0
 10
-42.3517
 20
26.8087
 11
-42.4439
 21
26.6266
  0
LINE
  8
0
 10
-42.4439
 20
26.6266
 11
-42.5245
 21
26.4391
  0
LINE
  8
0
 10
-42.5245
 20
26.4391
 11
-42.5932
 21
26.2468
  0
LINE
  8
0
 10
-42.5932
 20
26.2468
 11
-42.6497
 21
26.0506
  0
LINE
  8
0
 10
-42.6497
 20
26.0506
 11
-42.6938
 21
25.8512
  0
LINE
  8
0
 10
-42.6938
 20
25.8512
 11
-42.7252
 21
25.6495
  0
LINE
  8
0
 10
-42.7252
 20
25.6495
 11
-42.744
 21
25.4462
  0
LINE
  8
0
 10
-42.744
 20
25.4462
 11
-42.75
 21
25.25
  0
LINE
  8
0
 10
-42.75
 20
25.25
 11
-42.7499
 21
-25.2579
  0
LINE
  8
0
 10
-42.7499
 20
-25.2579
 11
-42.743
 21
-25.4619
  0
LINE
  8
0
 10
-42.743
 20
-25.4619
 11
-42.7233
 21
-25.6651
  0
LINE
  8
0
 10
-42.7233
 20
-25.6651
 11
-42.6908
 21
-25.8667
  0
LINE
  8
0
 10
-42.6908
 20
-25.8667
 11
-42.6458
 21
-26.0658
  0
LINE
  8
0
 10
-42.6458
 20
-26.0658
 11
-42.5884
 21
-26.2617
  0
LINE
  8
0
 10
-42.5884
 20
-26.2617
 11
-42.5188
 21
-26.4537
  0
LINE
  8
0
 10
-42.5188
 20
-26.4537
 11
-42.4372
 21
-26.6408
  0
LINE
  8
0
 10
-42.4372
 20
-26.6408
 11
-42.3441
 21
-26.8225
  0
LINE
  8
0
 10
-42.3441
 20
-26.8225
 11
-42.2397
 21
-26.998
  0
LINE
  8
0
 10
-42.2397
 20
-26.998
 11
-42.1246
 21
-27.1666
  0
LINE
  8
0
 10
-42.1246
 20
-27.1666
 11
-41.9991
 21
-27.3276
  0
LINE
  8
0
 10
-41.9991
 20
-27.3276
 11
-41.8637
 21
-27.4804
  0
LINE
  8
0
 10
-41.8637
 20
-27.4804
 11
-41.719
 21
-27.6244
  0
LINE
  8
0
 10
-41.719
 20
-27.6244
 11
-41.5655
 21
-27.7591
  0
LINE
  8
0
 10
-41.5655
 20
-27.7591
 11
-41.4039
 21
-27.8838
  0
LINE
  8
0
 10
-41.4039
 20
-27.8838
 11
-41.2347
 21
-27.9982
  0
LINE
  8
0
 10
-41.2347
 20
-27.9982
 11
-41.0588
 21
-28.1017
  0
LINE
  8
0
 10
-41.0588
 20
-28.1017
 11
-40.8766
 21
-28.1939
  0
LINE
  8
0
 10
-40.8766
 20
-28.1939
 11
-40.6891
 21
-28.2745
  0
LINE
  8
0
 10
-40.6891
 20
-28.2745
 11
-40.4968
 21
-28.3432
  0
LINE
  8
0
 10
-40.4968
 20
-28.3432
 11
-40.3006
 21
-28.3997
  0
LINE
  8
0
 10
-40.3006
 20
-28.3997
 11
-40.1012
 21
-28.4438
  0
LINE
  8
0
 10
-40.1012
 20
-28.4438
 11
-39.8995
 21
-28.4752
  0
LINE
  8
0
 10
-39.8995
 20
-28.4752
 11
-39.6962
 21
-28.494
  0
LINE
  8
0
 10
-39.6962
 20
-28.494
 11
-39.5
 21
-28.5
  0
LINE
  8
0
 10
-39.5
 20
-28.5
 11
-30
 21
-28.5
  0
LINE
  8
0
 10
-30
 20
-28.5
 11
-29.9326
 21
-28.4907
  0
LINE
  8
0
 10
-39.496
 20
-28
 11
-39.6727
 21
-27.9944
  0
LINE
  8
0
 10
-39.6727
 20
-27.9944
 11
-39.8447
 21
-27.9782
  0
LINE
  8
0
 10
-39.8447
 20
-27.9782
 11
-40.0151
 21
-27.9512
  0
LINE
  8
0
 10
-40.0151
 20
-27.9512
 11
-40.1841
 21
-27.9134
  0
LINE
  8
0
 10
-40.1841
 20
-27.9134
 11
-40.3497
 21
-27.8653
  0
LINE
  8
0
 10
-40.3497
 20
-27.8653
 11
-40.5121
 21
-27.8068
  0
LINE
  8
0
 10
-40.5121
 20
-27.8068
 11
-40.6709
 21
-27.7381
  0
LINE
  8
0
 10
-40.6709
 20
-27.7381
 11
-40.8249
 21
-27.6597
  0
LINE
  8
0
 10
-40.8249
 20
-27.6597
 11
-40.9735
 21
-27.5718
  0
LINE
  8
0
 10
-40.9735
 20
-27.5718
 11
-41.1162
 21
-27.4748
  0
LINE
  8
0
 10
-41.1162
 20
-27.4748
 11
-41.2528
 21
-27.3688
  0
LINE
  8
0
 10
-41.2528
 20
-27.3688
 11
-41.3825
 21
-27.2545
  0
LINE
  8
0
 10
-41.3825
 20
-27.2545
 11
-41.5045
 21
-27.1325
  0
LINE
  8
0
 10
-41.5045
 20
-27.1325
 11
-41.6188
 21
-27.0028
  0
LINE
  8
0
 10
-41.6188
 20
-27.0028
 11
-41.7248
 21
-26.8662
  0
LINE
  8
0
 10
-41.7248
 20
-26.8662
 11
-41.8217
 21
-26.7236
  0
LINE
  8
0
 10
-41.8217
 20
-26.7236
 11
-41.9098
 21
-26.5747
  0
LINE
  8
0
 10
-41.9098
 20
-26.5747
 11
-41.9881
 21
-26.421
  0
LINE
  8
0
 10
-41.9881
 20
-26.421
 11
-42.0568
 21
-26.2621
  0
LINE
  8
0
 10
-42.0568
 20
-26.2621
 11
-42.1153
 21
-26.0997
  0
LINE
  8
0
 10
-42.1153
 20
-26.0997
 11
-42.1634
 21
-25.9341
  0
LINE
  8
0
 10
-42.1634
 20
-25.9341
 11
-42.2012
 21
-25.7651
  0
LINE
  8
0
 10
-42.2012
 20
-25.7651
 11
-42.2282
 21
-25.5947
  0
LINE
  8
0
 10
-42.2282
 20
-25.5947
 11
-42.2444
 21
-25.4227
  0
LINE
  8
0
 10
-42.2444
 20
-25.4227
 11
-42.25
 21
-25.246
  0
LINE
  8
0
 10
-42.25
 20
-25.246
 11
-42.25
 21
25.246
  0
LINE
  8
0
 10
-42.25
 20
25.246
 11
-42.2444
 21
25.4227
  0
LINE
  8
0
 10
-42.2444
 20
25.4227
 11
-42.2282
 21
25.5947
  0
LINE
  8
0
 10
-42.2282
 20
25.5947
 11
-42.2012
 21
25.7651
  0
LINE
  8
0
 10
-42.2012
 20
25.7651
 11
-42.1634
 21
25.9341
  0
LINE
  8
0
 10
-42.1634
 20
25.9341
 11
-42.1153
 21
26.0997
  0
LINE
  8
0
 10
-42.1153
 20
26.0997
 11
-42.0568
 21
26.2621
  0
LINE
  8
0
 10
-42.0568
 20
26.2621
 11
-41.9881
 21
26.421
  0
LINE
  8
0
 10
-41.9881
 20
26.421
 11
-41.9098
 21
26.5747
  0
LINE
  8
0
 10
-41.9098
 20
26.5747
 11
-41.8217
 21
26.7236
  0
LINE
  8
0
 10
-41.8217
 20
26.7236
 11
-41.7248
 21
26.8662
  0
LINE
  8
0
 10
-41.7248
 20
26.8662
 11
-41.6188
 21
27.0028
  0
LINE
  8
0
 10
-41.6188
 20
27.0028
 11
-41.5045
 21
27.1325
  0
LINE
  8
0
 10
-41.5045
 20
27.1325
 11
-41.3825
 21
27.2545
  0
LINE
  8
0
 10
-41.3825
 20
27.2545
 11
-41.2528
 21
27.3688
  0
LINE
  8
0
 10
-41.2528
 20
27.3688
 11
-41.1162
 21
27.4748
  0
LINE
  8
0
 10
-41.1162
 20
27.4748
 11
-40.9735
 21
27.5718
  0
LINE
  8
0
 10
-40.9735
 20
27.5718
 11
-40.8249
 21
27.6597
  0
LINE
  8
0
 10
-40.8249
 20
27.6597
 11
-40.6709
 21
27.7381
  0
LINE
  8
0
 10
-40.6709
 20
27.7381
 11
-40.5121
 21
27.8068
  0
LINE
  8
0
 10
-40.5121
 20
27.8068
 11
-40.3497
 21
27.8653
  0
LINE
  8
0
 10
-40.3497
 20
27.8653
 11
-40.1841
 21
27.9134
  0
LINE
  8
0
 10
-40.1841
 20
27.9134
 11
-40.0151
 21
27.9512
  0
LINE
  8
0
 10
-40.0151
 20
27.9512
 11
-39.8447
 21
27.9782
  0
LINE
  8
0
 10
-39.8447
 20
27.9782
 11
-39.6727
 21
27.9944
  0
LINE
  8
0
 10
-39.6727
 20
27.9944
 11
-39.496
 21
28
  0
LINE
  8
0
 10
-39.496
 20
28
 11
19.496
 21
28
  0
LINE
  8
0
 10
19.496
 20
28
 11
19.6727
 21
27.9944
  0
LINE
  8
0
 10
19.6727
 20
27.9944
 11
19.8447
 21
27.9782
  0
LINE
  8
0
 10
19.8447
 20
27.9782
 11
20.0151
 21
27.9512
  0
LINE
  8
0
 10
20.0151
 20
27.9512
 11
20.1841
 21
27.9134
  0
LINE
  8
0
 10
20.1841
 20
27.9134
 11
20.3497
 21
27.8653
  0
LINE
  8
0
 10
20.3497
 20
27.8653
 11
20.5121
 21
27.8068
  0
LINE
  8
0
 10
20.5121
 20
27.8068
 11
20.6709
 21
27.7381
  0
LINE
  8
0
 10
20.6709
 20
27.7381
 11
20.8249
 21
27.6597
  0
LINE
  8
0
 10
20.8249
 20
27.6597
 11
20.9735
 21
27.5718
  0
LINE
  8
0
 10
20.9735
 20
27.5718
 11
21.1162
 21
27.4748
  0
LINE
  8
0
 10
21.1162
 20
27.4748
 11
21.2528
 21
27.3688
  0
LINE
  8
0
 10
21.2528
 20
27.3688
 11
21.3825
 21
27.2545
  0
LINE
  8
0
 10
21.3825
 20
27.2545
 11
21.5045
 21
27.1325
  0
LINE
  8
0
 10
21.5045
 20
27.1325
 11
21.6188
 21
27.0028
  0
LINE
  8
0
 10
21.6188
 20
27.0028
 11
21.7248
 21
26.8662
  0
LINE
  8
0
 10
21.7248
 20
26.8662
 11
21.8217
 21
26.7236
  0
LINE
  8
0
 10
21.8217
 20
26.7236
 11
21.9098
 21
26.5747
  0
LINE
  8
0
 10
21.9098
 20
26.5747
 11
21.9881
 21
26.421
  0
LINE
  8
0
 10
21.9881
 20
26.421
 11
22.0568
 21
26.2621
  0
LINE
  8
0
 10
22.0568
 20
26.2621
 11
22.1153
 21
26.0997
  0
LINE
  8
0
 10
22.1153
 20
26.0997
 11
22.1634
 21
25.9341
  0
LINE
  8
0
 10
22.1634
 20
25.9341
 11
22.2012
 21
25.7651
  0
LINE
  8
0
 10
22.2012
 20
25.7651
 11
22.2282
 21
25.5947
  0
LINE
  8
0
 10
22.2282
 20
25.5947
 11
22.2444
 21
25.4227
  0
LINE
  8
0
 10
22.2444
 20
25.4227
 11
22.25
 21
25.246
  0
LINE
  8
0
 10
22.25
 20
25.246
 11
22.25
 21
19.4918
  0
LINE
  8
0
 10
22.25
 20
19.4918
 11
16
 21
19.4918
  0
LINE
  8
0
 10
16
 20
19.4918
 11
16
 21
19.5
  0
LINE
  8
0
 10
16
 20
19.5
 11
9
 21
19.5
  0
LINE
  8
0
 10
9
 20
19.5
 11
9
 21
12.5
  0
LINE
  8
0
 10
9
 20
12.5
 11
16
 21
12.5
  0
LINE
  8
0
 10
16
 20
12.5
 11
16
 21
12.5081
  0
LINE
  8
0
 10
16
 20
12.5081
 11
22.25
 21
12.5081
  0
LINE
  8
0
 10
22.25
 20
12.5081
 11
22.25
 21
3.49184
  0
LINE
  8
0
 10
22.25
 20
3.49184
 11
16
 21
3.49184
  0
LINE
  8
0
 10
16
 20
3.49184
 11
16
 21
3.5
  0
LINE
  8
0
 10
16
 20
3.5
 11
9
 21
3.5
  0
LINE
  8
0
 10
9
 20
3.5
 11
9
 21
-3.5
  0
LINE
  8
0
 10
9
 20
-3.5
 11
16
 21
-3.5
  0
LINE
  8
0
 10
16
 20
-3.5
 11
16
 21
-3.49184
  0
LINE
  8
0
 10
16
 20
-3.49184
 11
22.25
 21
-3.49184
  0
LINE
  8
0
 10
22.25
 20
-3.49184
 11
22.25
 21
-5.13499
  0
LINE
  8
0
 10
22.25
 20
-5.13499
 11
21.54
 21
-5.13499
  0
LINE
  8
0
 10
21.54
 20
-5.13499
 11
21.54
 21
-4.12999
  0
LINE
  8
0
 10
21.54
 20
-4.12999
 11
19
 21
-4.12999
  0
LINE
  8
0
 10
19
 20
-4.12999
 11
19
 21
-5.13499
  0
LINE
  8
0
 10
19
 20
-5.13499
 11
15.5
 21
-5.13499
  0
LINE
  8
0
 10
15.5
 20
-5.13499
 11
15.5
 21
-5.735
  0
LINE
  8
0
 10
15.5
 20
-5.735
 11
19
 21
-5.735
  0
LINE
  8
0
 10
19
 20
-5.735
 11
19
 21
-7.67499
  0
LINE
  8
0
 10
19
 20
-7.67499
 11
15.5
 21
-7.67499
  0
LINE
  8
0
 10
15.5
 20
-7.67499
 11
15.5
 21
-8.27499
  0
LINE
  8
0
 10
15.5
 20
-8.27499
 11
19
 21
-8.27499
  0
LINE
  8
0
 10
19
 20
-8.27499
 11
19
 21
-10.215
  0
LINE
  8
0
 10
19
 20
-10.215
 11
15.5
 21
-10.215
  0
LINE
  8
0
 10
15.5
 20
-10.215
 11
15.5
 21
-10.815
  0
LINE
  8
0
 10
15.5
 20
-10.815
 11
19
 21
-10.815
  0
LINE
  8
0
 10
19
 20
-10.815
 11
19
 21
-11.75
  0
LINE
  8
0
 10
19
 20
-11.75
 11
21.54
 21
-11.75
  0
LINE
  8
0
 10
21.54
 20
-11.75
 11
21.54
 21
-10.815
  0
LINE
  8
0
 10
21.54
 20
-10.815
 11
22.25
 21
-10.815
  0
LINE
  8
0
 10
22.25
 20
-10.815
 11
22.25
 21
-12.5081
  0
LINE
  8
0
 10
22.25
 20
-12.5081
 11
16
 21
-12.5081
  0
LINE
  8
0
 10
16
 20
-12.5081
 11
16
 21
-12.5
  0
LINE
  8
0
 10
16
 20
-12.5
 11
9
 21
-12.5
  0
LINE
  8
0
 10
9
 20
-12.5
 11
9
 21
-19.5
  0
LINE
  8
0
 10
9
 20
-19.5
 11
16
 21
-19.5
  0
LINE
  8
0
 10
16
 20
-19.5
 11
16
 21
-19.4918
  0
LINE
  8
0
 10
16
 20
-19.4918
 11
22.25
 21
-19.4918
  0
LINE
  8
0
 10
22.25
 20
-19.4918
 11
22.25
 21
-25.246
  0
LINE
  8
0
 10
22.25
 20
-25.246
 11
22.2444
 21
-25.4227
  0
LINE
  8
0
 10
22.2444
 20
-25.4227
 11
22.2282
 21
-25.5947
  0
LINE
  8
0
 10
22.2282
 20
-25.5947
 11
22.2012
 21
-25.7651
  0
LINE
  8
0
 10
22.2012
 20
-25.7651
 11
22.1634
 21
-25.9341
  0
LINE
  8
0
 10
22.1634
 20
-25.9341
 11
22.1153
 21
-26.0997
  0
LINE
  8
0
 10
22.1153
 20
-26.0997
 11
22.0568
 21
-26.2621
  0
LINE
  8
0
 10
22.0568
 20
-26.2621
 11
21.9881
 21
-26.421
  0
LINE
  8
0
 10
21.9881
 20
-26.421
 11
21.9098
 21
-26.5747
  0
LINE
  8
0
 10
21.9098
 20
-26.5747
 11
21.8217
 21
-26.7236
  0
LINE
  8
0
 10
21.8217
 20
-26.7236
 11
21.7248
 21
-26.8662
  0
LINE
  8
0
 10
21.7248
 20
-26.8662
 11
21.6188
 21
-27.0028
  0
LINE
  8
0
 10
21.6188
 20
-27.0028
 11
21.5045
 21
-27.1325
  0
LINE
  8
0
 10
21.5045
 20
-27.1325
 11
21.3825
 21
-27.2545
  0
LINE
  8
0
 10
21.3825
 20
-27.2545
 11
21.2528
 21
-27.3688
  0
LINE
  8
0
 10
21.2528
 20
-27.3688
 11
21.1162
 21
-27.4748
  0
LINE
  8
0
 10
21.1162
 20
-27.4748
 11
20.9735
 21
-27.5718
  0
LINE
  8
0
 10
20.9735
 20
-27.5718
 11
20.8249
 21
-27.6597
  0
LINE
  8
0
 10
20.8249
 20
-27.6597
 11
20.6709
 21
-27.7381
  0
LINE
  8
0
 10
20.6709
 20
-27.7381
 11
20.5121
 21
-27.8068
  0
LINE
  8
0
 10
20.5121
 20
-27.8068
 11
20.3497
 21
-27.8653
  0
LINE
  8
0
 10
20.3497
 20
-27.8653
 11
20.1841
 21
-27.9134
  0
LINE
  8
0
 10
20.1841
 20
-27.9134
 11
20.0151
 21
-27.9512
  0
LINE
  8
0
 10
20.0151
 20
-27.9512
 11
19.8447
 21
-27.9782
  0
LINE
  8
0
 10
19.8447
 20
-27.9782
 11
19.6727
 21
-27.9944
  0
LINE
  8
0
 10
19.6727
 20
-27.9944
 11
19.496
 21
-28
  0
LINE
  8
0
 10
19.496
 20
-28
 11
-0.75
 21
-28
  0
LINE
  8
0
 10
-0.75
 20
-28
 11
-0.75
 21
-15.75
  0
LINE
  8
0
 10
-0.75
 20
-15.75
 11
-0.755234
 21
-15.6991
  0
LINE
  8
0
 10
-0.755234
 20
-15.6991
 11
-0.77803
 21
-15.635
  0
LINE
  8
0
 10
-0.77803
 20
-15.635
 11
-0.817291
 21
-15.5794
  0
LINE
  8
0
 10
-0.817291
 20
-15.5794
 11
-0.870102
 21
-15.5364
  0
LINE
  8
0
 10
-0.870102
 20
-15.5364
 11
-0.932556
 21
-15.5093
  0
LINE
  8
0
 10
-0.932556
 20
-15.5093
 11
-1
 21
-15.5
  0
LINE
  8
0
 10
-1
 20
-15.5
 11
-30
 21
-15.5
  0
LINE
  8
0
 10
-30
 20
-15.5
 11
-30.0509
 21
-15.5052
  0
LINE
  8
0
 10
-30.0509
 20
-15.5052
 11
-30.115
 21
-15.528
  0
LINE
  8
0
 10
-30.115
 20
-15.528
 11
-30.1706
 21
-15.5673
  0
LINE
  8
0
 10
-30.1706
 20
-15.5673
 11
-30.2136
 21
-15.6201
  0
LINE
  8
0
 10
-30.2136
 20
-15.6201
 11
-30.2407
 21
-15.6826
  0
LINE
  8
0
 10
-30.2407
 20
-15.6826
 11
-30.25
 21
-15.75
  0
LINE
  8
0
 10
-30.25
 20
-15.75
 11
-30.25
 21
-28
  0
LINE
  8
0
 10
-30.25
 20
-28
 11
-39.496
 21
-28
  0
LINE
  8
0
 10
-22.5
 20
27
 11
-30
 21
27
  0
LINE
  8
0
 10
-30
 20
27
 11
-30
 21
24.5
  0
LINE
  8
0
 10
-30
 20
24.5
 11
-22.5
 21
24.5
  0
LINE
  8
0
 10
-22.5
 20
24.5
 11
-22.5
 21
27
  0
LINE
  8
0
 10
-38.9058
 20
22.8778
 11
-38.8041
 21
22.8869
  0
LINE
  8
0
 10
-38.8041
 20
22.8869
 11
-38.7032
 21
22.9024
  0
LINE
  8
0
 10
-38.7032
 20
22.9024
 11
-38.6035
 21
22.9242
  0
LINE
  8
0
 10
-38.6035
 20
22.9242
 11
-38.5054
 21
22.9522
  0
LINE
  8
0
 10
-38.5054
 20
22.9522
 11
-38.4091
 21
22.9863
  0
LINE
  8
0
 10
-38.4091
 20
22.9863
 11
-38.3153
 21
23.0264
  0
LINE
  8
0
 10
-38.3153
 20
23.0264
 11
-38.2241
 21
23.0723
  0
LINE
  8
0
 10
-38.2241
 20
23.0723
 11
-38.136
 21
23.1238
  0
LINE
  8
0
 10
-38.136
 20
23.1238
 11
-38.0513
 21
23.1808
  0
LINE
  8
0
 10
-38.0513
 20
23.1808
 11
-37.9703
 21
23.243
  0
LINE
  8
0
 10
-37.9703
 20
23.243
 11
-37.8934
 21
23.3102
  0
LINE
  8
0
 10
-37.8934
 20
23.3102
 11
-37.8209
 21
23.382
  0
LINE
  8
0
 10
-37.8209
 20
23.382
 11
-37.753
 21
23.4582
  0
LINE
  8
0
 10
-37.753
 20
23.4582
 11
-37.6901
 21
23.5385
  0
LINE
  8
0
 10
-37.6901
 20
23.5385
 11
-37.6323
 21
23.6227
  0
LINE
  8
0
 10
-37.6323
 20
23.6227
 11
-37.5799
 21
23.7104
  0
LINE
  8
0
 10
-37.5799
 20
23.7104
 11
-37.5331
 21
23.8011
  0
LINE
  8
0
 10
-37.5331
 20
23.8011
 11
-37.4921
 21
23.8945
  0
LINE
  8
0
 10
-37.4921
 20
23.8945
 11
-37.4571
 21
23.9904
  0
LINE
  8
0
 10
-37.4571
 20
23.9904
 11
-37.4281
 21
24.0883
  0
LINE
  8
0
 10
-37.4281
 20
24.0883
 11
-37.4054
 21
24.1878
  0
LINE
  8
0
 10
-37.4054
 20
24.1878
 11
-37.3889
 21
24.2885
  0
LINE
  8
0
 10
-37.3889
 20
24.2885
 11
-37.3788
 21
24.3901
  0
LINE
  8
0
 10
-37.3788
 20
24.3901
 11
-37.3751
 21
24.4922
  0
LINE
  8
0
 10
-37.3751
 20
24.4922
 11
-37.3778
 21
24.5941
  0
LINE
  8
0
 10
-37.3778
 20
24.5941
 11
-37.3869
 21
24.6959
  0
LINE
  8
0
 10
-37.3869
 20
24.6959
 11
-37.4024
 21
24.7968
  0
LINE
  8
0
 10
-37.4024
 20
24.7968
 11
-37.4242
 21
24.8965
  0
LINE
  8
0
 10
-37.4242
 20
24.8965
 11
-37.4522
 21
24.9946
  0
LINE
  8
0
 10
-37.4522
 20
24.9946
 11
-37.4863
 21
25.0909
  0
LINE
  8
0
 10
-37.4863
 20
25.0909
 11
-37.5264
 21
25.1847
  0
LINE
  8
0
 10
-37.5264
 20
25.1847
 11
-37.5723
 21
25.2759
  0
LINE
  8
0
 10
-37.5723
 20
25.2759
 11
-37.6238
 21
25.364
  0
LINE
  8
0
 10
-37.6238
 20
25.364
 11
-37.6808
 21
25.4487
  0
LINE
  8
0
 10
-37.6808
 20
25.4487
 11
-37.743
 21
25.5297
  0
LINE
  8
0
 10
-37.743
 20
25.5297
 11
-37.8102
 21
25.6066
  0
LINE
  8
0
 10
-37.8102
 20
25.6066
 11
-37.882
 21
25.6791
  0
LINE
  8
0
 10
-37.882
 20
25.6791
 11
-37.9582
 21
25.747
  0
LINE
  8
0
 10
-37.9582
 20
25.747
 11
-38.0385
 21
25.8099
  0
LINE
  8
0
 10
-38.0385
 20
25.8099
 11
-38.1227
 21
25.8677
  0
LINE
  8
0
 10
-38.1227
 20
25.8677
 11
-38.2104
 21
25.9201
  0
LINE
  8
0
 10
-38.2104
 20
25.9201
 11
-38.3011
 21
25.9669
  0
LINE
  8
0
 10
-38.3011
 20
25.9669
 11
-38.3945
 21
26.0079
  0
LINE
  8
0
 10
-38.3945
 20
26.0079
 11
-38.4904
 21
26.0429
  0
LINE
  8
0
 10
-38.4904
 20
26.0429
 11
-38.5883
 21
26.0719
  0
LINE
  8
0
 10
-38.5883
 20
26.0719
 11
-38.6878
 21
26.0946
  0
LINE
  8
0
 10
-38.6878
 20
26.0946
 11
-38.7885
 21
26.1111
  0
LINE
  8
0
 10
-38.7885
 20
26.1111
 11
-38.8901
 21
26.1212
  0
LINE
  8
0
 10
-38.8901
 20
26.1212
 11
-38.9921
 21
26.1249
  0
LINE
  8
0
 10
-38.9921
 20
26.1249
 11
-39.0942
 21
26.1222
  0
LINE
  8
0
 10
-39.0942
 20
26.1222
 11
-39.1959
 21
26.113
  0
LINE
  8
0
 10
-39.1959
 20
26.113
 11
-39.2968
 21
26.0975
  0
LINE
  8
0
 10
-39.2968
 20
26.0975
 11
-39.3964
 21
26.0758
  0
LINE
  8
0
 10
-39.3964
 20
26.0758
 11
-39.4947
 21
26.0478
  0
LINE
  8
0
 10
-39.4947
 20
26.0478
 11
-39.5908
 21
26.0137
  0
LINE
  8
0
 10
-39.5908
 20
26.0137
 11
-39.6848
 21
25.9736
  0
LINE
  8
0
 10
-39.6848
 20
25.9736
 11
-39.7759
 21
25.9277
  0
LINE
  8
0
 10
-39.7759
 20
25.9277
 11
-39.864
 21
25.8762
  0
LINE
  8
0
 10
-39.864
 20
25.8762
 11
-39.9487
 21
25.8192
  0
LINE
  8
0
 10
-39.9487
 20
25.8192
 11
-40.0297
 21
25.757
  0
LINE
  8
0
 10
-40.0297
 20
25.757
 11
-40.1066
 21
25.6898
  0
LINE
  8
0
 10
-40.1066
 20
25.6898
 11
-40.1791
 21
25.618
  0
LINE
  8
0
 10
-40.1791
 20
25.618
 11
-40.247
 21
25.5418
  0
LINE
  8
0
 10
-40.247
 20
25.5418
 11
-40.3099
 21
25.4614
  0
LINE
  8
0
 10
-40.3099
 20
25.4614
 11
-40.3677
 21
25.3773
  0
LINE
  8
0
 10
-40.3677
 20
25.3773
 11
-40.4201
 21
25.2896
  0
LINE
  8
0
 10
-40.4201
 20
25.2896
 11
-40.4669
 21
25.1989
  0
LINE
  8
0
 10
-40.4669
 20
25.1989
 11
-40.5079
 21
25.1055
  0
LINE
  8
0
 10
-40.5079
 20
25.1055
 11
-40.5429
 21
25.0096
  0
LINE
  8
0
 10
-40.5429
 20
25.0096
 11
-40.5719
 21
24.9117
  0
LINE
  8
0
 10
-40.5719
 20
24.9117
 11
-40.5946
 21
24.8121
  0
LINE
  8
0
 10
-40.5946
 20
24.8121
 11
-40.6111
 21
24.7115
  0
LINE
  8
0
 10
-40.6111
 20
24.7115
 11
-40.6212
 21
24.6099
  0
LINE
  8
0
 10
-40.6212
 20
24.6099
 11
-40.6249
 21
24.5079
  0
LINE
  8
0
 10
-40.6249
 20
24.5079
 11
-40.6222
 21
24.4058
  0
LINE
  8
0
 10
-40.6222
 20
24.4058
 11
-40.613
 21
24.3041
  0
LINE
  8
0
 10
-40.613
 20
24.3041
 11
-40.5975
 21
24.2032
  0
LINE
  8
0
 10
-40.5975
 20
24.2032
 11
-40.5758
 21
24.1035
  0
LINE
  8
0
 10
-40.5758
 20
24.1035
 11
-40.5478
 21
24.0053
  0
LINE
  8
0
 10
-40.5478
 20
24.0053
 11
-40.5137
 21
23.9091
  0
LINE
  8
0
 10
-40.5137
 20
23.9091
 11
-40.4736
 21
23.8152
  0
LINE
  8
0
 10
-40.4736
 20
23.8152
 11
-40.4277
 21
23.7241
  0
LINE
  8
0
 10
-40.4277
 20
23.7241
 11
-40.3762
 21
23.636
  0
LINE
  8
0
 10
-40.3762
 20
23.636
 11
-40.3192
 21
23.5513
  0
LINE
  8
0
 10
-40.3192
 20
23.5513
 11
-40.257
 21
23.4703
  0
LINE
  8
0
 10
-40.257
 20
23.4703
 11
-40.1898
 21
23.3934
  0
LINE
  8
0
 10
-40.1898
 20
23.3934
 11
-40.118
 21
23.3209
  0
LINE
  8
0
 10
-40.118
 20
23.3209
 11
-40.0418
 21
23.253
  0
LINE
  8
0
 10
-40.0418
 20
23.253
 11
-39.9614
 21
23.1901
  0
LINE
  8
0
 10
-39.9614
 20
23.1901
 11
-39.8773
 21
23.1323
  0
LINE
  8
0
 10
-39.8773
 20
23.1323
 11
-39.7896
 21
23.0799
  0
LINE
  8
0
 10
-39.7896
 20
23.0799
 11
-39.6989
 21
23.0331
  0
LINE
  8
0
 10
-39.6989
 20
23.0331
 11
-39.6055
 21
22.9921
  0
LINE
  8
0
 10
-39.6055
 20
22.9921
 11
-39.5096
 21
22.9571
  0
LINE
  8
0
 10
-39.5096
 20
22.9571
 11
-39.4117
 21
22.9281
  0
LINE
  8
0
 10
-39.4117
 20
22.9281
 11
-39.3122
 21
22.9054
  0
LINE
  8
0
 10
-39.3122
 20
22.9054
 11
-39.2115
 21
22.8889
  0
LINE
  8
0
 10
-39.2115
 20
22.8889
 11
-39.1099
 21
22.8788
  0
LINE
  8
0
 10
-39.1099
 20
22.8788
 11
-38.9922
 21
22.8751
  0
LINE
  8
0
 10
-38.9922
 20
22.8751
 11
-38.9058
 21
22.8778
  0
LINE
  8
0
 10
-39.0707
 20
23.3773
 11
-39.141
 21
23.384
  0
LINE
  8
0
 10
-39.141
 20
23.384
 11
-39.2108
 21
23.3951
  0
LINE
  8
0
 10
-39.2108
 20
23.3951
 11
-39.2796
 21
23.4104
  0
LINE
  8
0
 10
-39.2796
 20
23.4104
 11
-39.3477
 21
23.4302
  0
LINE
  8
0
 10
-39.3477
 20
23.4302
 11
-39.414
 21
23.4541
  0
LINE
  8
0
 10
-39.414
 20
23.4541
 11
-39.4791
 21
23.4823
  0
LINE
  8
0
 10
-39.4791
 20
23.4823
 11
-39.5418
 21
23.5142
  0
LINE
  8
0
 10
-39.5418
 20
23.5142
 11
-39.6028
 21
23.5503
  0
LINE
  8
0
 10
-39.6028
 20
23.5503
 11
-39.6612
 21
23.5899
  0
LINE
  8
0
 10
-39.6612
 20
23.5899
 11
-39.717
 21
23.6332
  0
LINE
  8
0
 10
-39.717
 20
23.6332
 11
-39.7701
 21
23.6801
  0
LINE
  8
0
 10
-39.7701
 20
23.6801
 11
-39.8199
 21
23.7299
  0
LINE
  8
0
 10
-39.8199
 20
23.7299
 11
-39.8667
 21
23.783
  0
LINE
  8
0
 10
-39.8667
 20
23.783
 11
-39.91
 21
23.8388
  0
LINE
  8
0
 10
-39.91
 20
23.8388
 11
-39.9497
 21
23.8972
  0
LINE
  8
0
 10
-39.9497
 20
23.8972
 11
-39.9858
 21
23.9582
  0
LINE
  8
0
 10
-39.9858
 20
23.9582
 11
-40.0177
 21
24.0209
  0
LINE
  8
0
 10
-40.0177
 20
24.0209
 11
-40.0459
 21
24.0859
  0
LINE
  8
0
 10
-40.0459
 20
24.0859
 11
-40.0698
 21
24.1525
  0
LINE
  8
0
 10
-40.0698
 20
24.1525
 11
-40.0895
 21
24.2202
  0
LINE
  8
0
 10
-40.0895
 20
24.2202
 11
-40.1049
 21
24.2893
  0
LINE
  8
0
 10
-40.1049
 20
24.2893
 11
-40.116
 21
24.359
  0
LINE
  8
0
 10
-40.116
 20
24.359
 11
-40.1227
 21
24.4293
  0
LINE
  8
0
 10
-40.1227
 20
24.4293
 11
-40.1249
 21
24.5
  0
LINE
  8
0
 10
-40.1249
 20
24.5
 11
-40.1227
 21
24.5707
  0
LINE
  8
0
 10
-40.1227
 20
24.5707
 11
-40.116
 21
24.641
  0
LINE
  8
0
 10
-40.116
 20
24.641
 11
-40.1049
 21
24.7108
  0
LINE
  8
0
 10
-40.1049
 20
24.7108
 11
-40.0896
 21
24.7797
  0
LINE
  8
0
 10
-40.0896
 20
24.7797
 11
-40.0698
 21
24.8476
  0
LINE
  8
0
 10
-40.0698
 20
24.8476
 11
-40.0459
 21
24.914
  0
LINE
  8
0
 10
-40.0459
 20
24.914
 11
-40.0177
 21
24.9791
  0
LINE
  8
0
 10
-40.0177
 20
24.9791
 11
-39.9858
 21
25.0418
  0
LINE
  8
0
 10
-39.9858
 20
25.0418
 11
-39.9497
 21
25.1028
  0
LINE
  8
0
 10
-39.9497
 20
25.1028
 11
-39.91
 21
25.1612
  0
LINE
  8
0
 10
-39.91
 20
25.1612
 11
-39.8667
 21
25.217
  0
LINE
  8
0
 10
-39.8667
 20
25.217
 11
-39.8199
 21
25.2701
  0
LINE
  8
0
 10
-39.8199
 20
25.2701
 11
-39.7701
 21
25.3199
  0
LINE
  8
0
 10
-39.7701
 20
25.3199
 11
-39.717
 21
25.3667
  0
LINE
  8
0
 10
-39.717
 20
25.3667
 11
-39.6612
 21
25.41
  0
LINE
  8
0
 10
-39.6612
 20
25.41
 11
-39.6028
 21
25.4497
  0
LINE
  8
0
 10
-39.6028
 20
25.4497
 11
-39.5418
 21
25.4858
  0
LINE
  8
0
 10
-39.5418
 20
25.4858
 11
-39.4791
 21
25.5177
  0
LINE
  8
0
 10
-39.4791
 20
25.5177
 11
-39.414
 21
25.5459
  0
LINE
  8
0
 10
-39.414
 20
25.5459
 11
-39.3476
 21
25.5698
  0
LINE
  8
0
 10
-39.3476
 20
25.5698
 11
-39.2797
 21
25.5896
  0
LINE
  8
0
 10
-39.2797
 20
25.5896
 11
-39.2108
 21
25.6049
  0
LINE
  8
0
 10
-39.2108
 20
25.6049
 11
-39.141
 21
25.616
  0
LINE
  8
0
 10
-39.141
 20
25.616
 11
-39.0707
 21
25.6227
  0
LINE
  8
0
 10
-39.0707
 20
25.6227
 11
-39
 21
25.6249
  0
LINE
  8
0
 10
-39
 20
25.6249
 11
-38.9293
 21
25.6227
  0
LINE
  8
0
 10
-38.9293
 20
25.6227
 11
-38.859
 21
25.616
  0
LINE
  8
0
 10
-38.859
 20
25.616
 11
-38.7893
 21
25.6049
  0
LINE
  8
0
 10
-38.7893
 20
25.6049
 11
-38.7202
 21
25.5895
  0
LINE
  8
0
 10
-38.7202
 20
25.5895
 11
-38.6525
 21
25.5698
  0
LINE
  8
0
 10
-38.6525
 20
25.5698
 11
-38.5859
 21
25.5459
  0
LINE
  8
0
 10
-38.5859
 20
25.5459
 11
-38.5209
 21
25.5177
  0
LINE
  8
0
 10
-38.5209
 20
25.5177
 11
-38.4582
 21
25.4858
  0
LINE
  8
0
 10
-38.4582
 20
25.4858
 11
-38.3972
 21
25.4497
  0
LINE
  8
0
 10
-38.3972
 20
25.4497
 11
-38.3388
 21
25.41
  0
LINE
  8
0
 10
-38.3388
 20
25.41
 11
-38.283
 21
25.3667
  0
LINE
  8
0
 10
-38.283
 20
25.3667
 11
-38.2299
 21
25.3199
  0
LINE
  8
0
 10
-38.2299
 20
25.3199
 11
-38.1801
 21
25.2701
  0
LINE
  8
0
 10
-38.1801
 20
25.2701
 11
-38.1332
 21
25.217
  0
LINE
  8
0
 10
-38.1332
 20
25.217
 11
-38.0899
 21
25.1612
  0
LINE
  8
0
 10
-38.0899
 20
25.1612
 11
-38.0503
 21
25.1028
  0
LINE
  8
0
 10
-38.0503
 20
25.1028
 11
-38.0142
 21
25.0418
  0
LINE
  8
0
 10
-38.0142
 20
25.0418
 11
-37.9823
 21
24.9791
  0
LINE
  8
0
 10
-37.9823
 20
24.9791
 11
-37.9541
 21
24.914
  0
LINE
  8
0
 10
-37.9541
 20
24.914
 11
-37.9302
 21
24.8477
  0
LINE
  8
0
 10
-37.9302
 20
24.8477
 11
-37.9104
 21
24.7796
  0
LINE
  8
0
 10
-37.9104
 20
24.7796
 11
-37.8951
 21
24.7108
  0
LINE
  8
0
 10
-37.8951
 20
24.7108
 11
-37.884
 21
24.641
  0
LINE
  8
0
 10
-37.884
 20
24.641
 11
-37.8773
 21
24.5707
  0
LINE
  8
0
 10
-37.8773
 20
24.5707
 11
-37.8751
 21
24.5
  0
LINE
  8
0
 10
-37.8751
 20
24.5
 11
-37.8773
 21
24.4293
  0
LINE
  8
0
 10
-37.8773
 20
24.4293
 11
-37.884
 21
24.359
  0
LINE
  8
0
 10
-37.884
 20
24.359
 11
-37.8951
 21
24.2892
  0
LINE
  8
0
 10
-37.8951
 20
24.2892
 11
-37.9104
 21
24.2203
  0
LINE
  8
0
 10
-37.9104
 20
24.2203
 11
-37.9302
 21
24.1524
  0
LINE
  8
0
 10
-37.9302
 20
24.1524
 11
-37.9541
 21
24.086
  0
LINE
  8
0
 10
-37.9541
 20
24.086
 11
-37.9823
 21
24.0209
  0
LINE
  8
0
 10
-37.9823
 20
24.0209
 11
-38.0142
 21
23.9582
  0
LINE
  8
0
 10
-38.0142
 20
23.9582
 11
-38.0503
 21
23.8972
  0
LINE
  8
0
 10
-38.0503
 20
23.8972
 11
-38.0899
 21
23.8388
  0
LINE
  8
0
 10
-38.0899
 20
23.8388
 11
-38.1332
 21
23.783
  0
LINE
  8
0
 10
-38.1332
 20
23.783
 11
-38.1801
 21
23.7299
  0
LINE
  8
0
 10
-38.1801
 20
23.7299
 11
-38.2299
 21
23.6801
  0
LINE
  8
0
 10
-38.2299
 20
23.6801
 11
-38.283
 21
23.6332
  0
LINE
  8
0
 10
-38.283
 20
23.6332
 11
-38.3388
 21
23.5899
  0
LINE
  8
0
 10
-38.3388
 20
23.5899
 11
-38.3972
 21
23.5503
  0
LINE
  8
0
 10
-38.3972
 20
23.5503
 11
-38.4582
 21
23.5142
  0
LINE
  8
0
 10
-38.4582
 20
23.5142
 11
-38.5209
 21
23.4823
  0
LINE
  8
0
 10
-38.5209
 20
23.4823
 11
-38.586
 21
23.4541
  0
LINE
  8
0
 10
-38.586
 20
23.4541
 11
-38.6524
 21
23.4302
  0
LINE
  8
0
 10
-38.6524
 20
23.4302
 11
-38.7203
 21
23.4104
  0
LINE
  8
0
 10
-38.7203
 20
23.4104
 11
-38.7892
 21
23.3951
  0
LINE
  8
0
 10
-38.7892
 20
23.3951
 11
-38.859
 21
23.384
  0
LINE
  8
0
 10
-38.859
 20
23.384
 11
-38.9293
 21
23.3773
  0
LINE
  8
0
 10
-38.9293
 20
23.3773
 11
-39
 21
23.3751
  0
LINE
  8
0
 10
-39
 20
23.3751
 11
-39.0707
 21
23.3773
  0
LINE
  8
0
 10
19.0941
 20
22.8778
 11
19.1959
 21
22.8869
  0
LINE
  8
0
 10
19.1959
 20
22.8869
 11
19.2968
 21
22.9024
  0
LINE
  8
0
 10
19.2968
 20
22.9024
 11
19.3965
 21
22.9242
  0
LINE
  8
0
 10
19.3965
 20
22.9242
 11
19.4946
 21
22.9522
  0
LINE
  8
0
 10
19.4946
 20
22.9522
 11
19.5909
 21
22.9863
  0
LINE
  8
0
 10
19.5909
 20
22.9863
 11
19.6847
 21
23.0264
  0
LINE
  8
0
 10
19.6847
 20
23.0264
 11
19.7759
 21
23.0723
  0
LINE
  8
0
 10
19.7759
 20
23.0723
 11
19.864
 21
23.1238
  0
LINE
  8
0
 10
19.864
 20
23.1238
 11
19.9487
 21
23.1808
  0
LINE
  8
0
 10
19.9487
 20
23.1808
 11
20.0297
 21
23.243
  0
LINE
  8
0
 10
20.0297
 20
23.243
 11
20.1066
 21
23.3102
  0
LINE
  8
0
 10
20.1066
 20
23.3102
 11
20.1791
 21
23.382
  0
LINE
  8
0
 10
20.1791
 20
23.382
 11
20.247
 21
23.4582
  0
LINE
  8
0
 10
20.247
 20
23.4582
 11
20.3099
 21
23.5385
  0
LINE
  8
0
 10
20.3099
 20
23.5385
 11
20.3677
 21
23.6227
  0
LINE
  8
0
 10
20.3677
 20
23.6227
 11
20.4201
 21
23.7104
  0
LINE
  8
0
 10
20.4201
 20
23.7104
 11
20.4669
 21
23.8011
  0
LINE
  8
0
 10
20.4669
 20
23.8011
 11
20.5079
 21
23.8945
  0
LINE
  8
0
 10
20.5079
 20
23.8945
 11
20.5429
 21
23.9904
  0
LINE
  8
0
 10
20.5429
 20
23.9904
 11
20.5719
 21
24.0883
  0
LINE
  8
0
 10
20.5719
 20
24.0883
 11
20.5946
 21
24.1878
  0
LINE
  8
0
 10
20.5946
 20
24.1878
 11
20.6111
 21
24.2885
  0
LINE
  8
0
 10
20.6111
 20
24.2885
 11
20.6212
 21
24.3901
  0
LINE
  8
0
 10
20.6212
 20
24.3901
 11
20.6249
 21
24.4921
  0
LINE
  8
0
 10
20.6249
 20
24.4921
 11
20.6222
 21
24.5942
  0
LINE
  8
0
 10
20.6222
 20
24.5942
 11
20.613
 21
24.6959
  0
LINE
  8
0
 10
20.613
 20
24.6959
 11
20.5975
 21
24.7968
  0
LINE
  8
0
 10
20.5975
 20
24.7968
 11
20.5758
 21
24.8964
  0
LINE
  8
0
 10
20.5758
 20
24.8964
 11
20.5478
 21
24.9947
  0
LINE
  8
0
 10
20.5478
 20
24.9947
 11
20.5137
 21
25.0908
  0
LINE
  8
0
 10
20.5137
 20
25.0908
 11
20.4736
 21
25.1848
  0
LINE
  8
0
 10
20.4736
 20
25.1848
 11
20.4277
 21
25.2759
  0
LINE
  8
0
 10
20.4277
 20
25.2759
 11
20.3762
 21
25.364
  0
LINE
  8
0
 10
20.3762
 20
25.364
 11
20.3192
 21
25.4487
  0
LINE
  8
0
 10
20.3192
 20
25.4487
 11
20.257
 21
25.5297
  0
LINE
  8
0
 10
20.257
 20
25.5297
 11
20.1898
 21
25.6066
  0
LINE
  8
0
 10
20.1898
 20
25.6066
 11
20.118
 21
25.6791
  0
LINE
  8
0
 10
20.118
 20
25.6791
 11
20.0418
 21
25.747
  0
LINE
  8
0
 10
20.0418
 20
25.747
 11
19.9614
 21
25.8099
  0
LINE
  8
0
 10
19.9614
 20
25.8099
 11
19.8773
 21
25.8677
  0
LINE
  8
0
 10
19.8773
 20
25.8677
 11
19.7896
 21
25.9201
  0
LINE
  8
0
 10
19.7896
 20
25.9201
 11
19.6989
 21
25.9669
  0
LINE
  8
0
 10
19.6989
 20
25.9669
 11
19.6055
 21
26.0079
  0
LINE
  8
0
 10
19.6055
 20
26.0079
 11
19.5096
 21
26.0429
  0
LINE
  8
0
 10
19.5096
 20
26.0429
 11
19.4117
 21
26.0719
  0
LINE
  8
0
 10
19.4117
 20
26.0719
 11
19.3121
 21
26.0946
  0
LINE
  8
0
 10
19.3121
 20
26.0946
 11
19.2115
 21
26.1111
  0
LINE
  8
0
 10
19.2115
 20
26.1111
 11
19.1099
 21
26.1212
  0
LINE
  8
0
 10
19.1099
 20
26.1212
 11
19.0079
 21
26.1249
  0
LINE
  8
0
 10
19.0079
 20
26.1249
 11
18.9058
 21
26.1222
  0
LINE
  8
0
 10
18.9058
 20
26.1222
 11
18.8041
 21
26.113
  0
LINE
  8
0
 10
18.8041
 20
26.113
 11
18.7032
 21
26.0975
  0
LINE
  8
0
 10
18.7032
 20
26.0975
 11
18.6035
 21
26.0758
  0
LINE
  8
0
 10
18.6035
 20
26.0758
 11
18.5053
 21
26.0478
  0
LINE
  8
0
 10
18.5053
 20
26.0478
 11
18.4091
 21
26.0137
  0
LINE
  8
0
 10
18.4091
 20
26.0137
 11
18.3152
 21
25.9736
  0
LINE
  8
0
 10
18.3152
 20
25.9736
 11
18.2241
 21
25.9277
  0
LINE
  8
0
 10
18.2241
 20
25.9277
 11
18.136
 21
25.8762
  0
LINE
  8
0
 10
18.136
 20
25.8762
 11
18.0513
 21
25.8192
  0
LINE
  8
0
 10
18.0513
 20
25.8192
 11
17.9703
 21
25.757
  0
LINE
  8
0
 10
17.9703
 20
25.757
 11
17.8934
 21
25.6898
  0
LINE
  8
0
 10
17.8934
 20
25.6898
 11
17.8209
 21
25.618
  0
LINE
  8
0
 10
17.8209
 20
25.618
 11
17.753
 21
25.5418
  0
LINE
  8
0
 10
17.753
 20
25.5418
 11
17.6901
 21
25.4614
  0
LINE
  8
0
 10
17.6901
 20
25.4614
 11
17.6323
 21
25.3773
  0
LINE
  8
0
 10
17.6323
 20
25.3773
 11
17.5799
 21
25.2896
  0
LINE
  8
0
 10
17.5799
 20
25.2896
 11
17.5331
 21
25.1989
  0
LINE
  8
0
 10
17.5331
 20
25.1989
 11
17.4921
 21
25.1055
  0
LINE
  8
0
 10
17.4921
 20
25.1055
 11
17.4571
 21
25.0096
  0
LINE
  8
0
 10
17.4571
 20
25.0096
 11
17.4281
 21
24.9117
  0
LINE
  8
0
 10
17.4281
 20
24.9117
 11
17.4054
 21
24.8122
  0
LINE
  8
0
 10
17.4054
 20
24.8122
 11
17.3889
 21
24.7115
  0
LINE
  8
0
 10
17.3889
 20
24.7115
 11
17.3788
 21
24.6099
  0
LINE
  8
0
 10
17.3788
 20
24.6099
 11
17.3751
 21
24.5078
  0
LINE
  8
0
 10
17.3751
 20
24.5078
 11
17.3778
 21
24.4058
  0
LINE
  8
0
 10
17.3778
 20
24.4058
 11
17.3869
 21
24.3041
  0
LINE
  8
0
 10
17.3869
 20
24.3041
 11
17.4024
 21
24.2032
  0
LINE
  8
0
 10
17.4024
 20
24.2032
 11
17.4242
 21
24.1035
  0
LINE
  8
0
 10
17.4242
 20
24.1035
 11
17.4522
 21
24.0054
  0
LINE
  8
0
 10
17.4522
 20
24.0054
 11
17.4863
 21
23.9091
  0
LINE
  8
0
 10
17.4863
 20
23.9091
 11
17.5264
 21
23.8153
  0
LINE
  8
0
 10
17.5264
 20
23.8153
 11
17.5723
 21
23.7241
  0
LINE
  8
0
 10
17.5723
 20
23.7241
 11
17.6238
 21
23.636
  0
LINE
  8
0
 10
17.6238
 20
23.636
 11
17.6808
 21
23.5513
  0
LINE
  8
0
 10
17.6808
 20
23.5513
 11
17.743
 21
23.4703
  0
LINE
  8
0
 10
17.743
 20
23.4703
 11
17.8102
 21
23.3934
  0
LINE
  8
0
 10
17.8102
 20
23.3934
 11
17.882
 21
23.3209
  0
LINE
  8
0
 10
17.882
 20
23.3209
 11
17.9582
 21
23.253
  0
LINE
  8
0
 10
17.9582
 20
23.253
 11
18.0385
 21
23.1901
  0
LINE
  8
0
 10
18.0385
 20
23.1901
 11
18.1227
 21
23.1323
  0
LINE
  8
0
 10
18.1227
 20
23.1323
 11
18.2104
 21
23.0799
  0
LINE
  8
0
 10
18.2104
 20
23.0799
 11
18.3011
 21
23.0331
  0
LINE
  8
0
 10
18.3011
 20
23.0331
 11
18.3945
 21
22.9921
  0
LINE
  8
0
 10
18.3945
 20
22.9921
 11
18.4904
 21
22.9571
  0
LINE
  8
0
 10
18.4904
 20
22.9571
 11
18.5883
 21
22.9281
  0
LINE
  8
0
 10
18.5883
 20
22.9281
 11
18.6878
 21
22.9054
  0
LINE
  8
0
 10
18.6878
 20
22.9054
 11
18.7885
 21
22.8889
  0
LINE
  8
0
 10
18.7885
 20
22.8889
 11
18.8901
 21
22.8788
  0
LINE
  8
0
 10
18.8901
 20
22.8788
 11
19.0078
 21
22.8751
  0
LINE
  8
0
 10
19.0078
 20
22.8751
 11
19.0941
 21
22.8778
  0
LINE
  8
0
 10
18.9293
 20
23.3773
 11
18.859
 21
23.384
  0
LINE
  8
0
 10
18.859
 20
23.384
 11
18.7892
 21
23.3951
  0
LINE
  8
0
 10
18.7892
 20
23.3951
 11
18.7203
 21
23.4104
  0
LINE
  8
0
 10
18.7203
 20
23.4104
 11
18.6524
 21
23.4302
  0
LINE
  8
0
 10
18.6524
 20
23.4302
 11
18.586
 21
23.4541
  0
LINE
  8
0
 10
18.586
 20
23.4541
 11
18.5209
 21
23.4823
  0
LINE
  8
0
 10
18.5209
 20
23.4823
 11
18.4582
 21
23.5142
  0
LINE
  8
0
 10
18.4582
 20
23.5142
 11
18.3972
 21
23.5503
  0
LINE
  8
0
 10
18.3972
 20
23.5503
 11
18.3388
 21
23.5899
  0
LINE
  8
0
 10
18.3388
 20
23.5899
 11
18.283
 21
23.6332
  0
LINE
  8
0
 10
18.283
 20
23.6332
 11
18.2299
 21
23.6801
  0
LINE
  8
0
 10
18.2299
 20
23.6801
 11
18.1801
 21
23.7299
  0
LINE
  8
0
 10
18.1801
 20
23.7299
 11
18.1332
 21
23.783
  0
LINE
  8
0
 10
18.1332
 20
23.783
 11
18.0899
 21
23.8388
  0
LINE
  8
0
 10
18.0899
 20
23.8388
 11
18.0503
 21
23.8972
  0
LINE
  8
0
 10
18.0503
 20
23.8972
 11
18.0142
 21
23.9582
  0
LINE
  8
0
 10
18.0142
 20
23.9582
 11
17.9823
 21
24.0209
  0
LINE
  8
0
 10
17.9823
 20
24.0209
 11
17.9541
 21
24.086
  0
LINE
  8
0
 10
17.9541
 20
24.086
 11
17.9302
 21
24.1524
  0
LINE
  8
0
 10
17.9302
 20
24.1524
 11
17.9104
 21
24.2203
  0
LINE
  8
0
 10
17.9104
 20
24.2203
 11
17.8951
 21
24.2892
  0
LINE
  8
0
 10
17.8951
 20
24.2892
 11
17.884
 21
24.359
  0
LINE
  8
0
 10
17.884
 20
24.359
 11
17.8773
 21
24.4293
  0
LINE
  8
0
 10
17.8773
 20
24.4293
 11
17.8751
 21
24.5
  0
LINE
  8
0
 10
17.8751
 20
24.5
 11
17.8773
 21
24.5707
  0
LINE
  8
0
 10
17.8773
 20
24.5707
 11
17.884
 21
24.641
  0
LINE
  8
0
 10
17.884
 20
24.641
 11
17.8951
 21
24.7108
  0
LINE
  8
0
 10
17.8951
 20
24.7108
 11
17.9104
 21
24.7796
  0
LINE
  8
0
 10
17.9104
 20
24.7796
 11
17.9302
 21
24.8477
  0
LINE
  8
0
 10
17.9302
 20
24.8477
 11
17.9541
 21
24.914
  0
LINE
  8
0
 10
17.9541
 20
24.914
 11
17.9823
 21
24.9791
  0
LINE
  8
0
 10
17.9823
 20
24.9791
 11
18.0142
 21
25.0418
  0
LINE
  8
0
 10
18.0142
 20
25.0418
 11
18.0503
 21
25.1028
  0
LINE
  8
0
 10
18.0503
 20
25.1028
 11
18.0899
 21
25.1612
  0
LINE
  8
0
 10
18.0899
 20
25.1612
 11
18.1332
 21
25.217
  0
LINE
  8
0
 10
18.1332
 20
25.217
 11
18.1801
 21
25.2701
  0
LINE
  8
0
 10
18.1801
 20
25.2701
 11
18.2299
 21
25.3199
  0
LINE
  8
0
 10
18.2299
 20
25.3199
 11
18.283
 21
25.3667
  0
LINE
  8
0
 10
18.283
 20
25.3667
 11
18.3388
 21
25.41
  0
LINE
  8
0
 10
18.3388
 20
25.41
 11
18.3972
 21
25.4497
  0
LINE
  8
0
 10
18.3972
 20
25.4497
 11
18.4582
 21
25.4858
  0
LINE
  8
0
 10
18.4582
 20
25.4858
 11
18.5209
 21
25.5177
  0
LINE
  8
0
 10
18.5209
 20
25.5177
 11
18.5859
 21
25.5459
  0
LINE
  8
0
 10
18.5859
 20
25.5459
 11
18.6525
 21
25.5698
  0
LINE
  8
0
 10
18.6525
 20
25.5698
 11
18.7202
 21
25.5895
  0
LINE
  8
0
 10
18.7202
 20
25.5895
 11
18.7893
 21
25.6049
  0
LINE
  8
0
 10
18.7893
 20
25.6049
 11
18.859
 21
25.616
  0
LINE
  8
0
 10
18.859
 20
25.616
 11
18.9293
 21
25.6227
  0
LINE
  8
0
 10
18.9293
 20
25.6227
 11
19
 21
25.6249
  0
LINE
  8
0
 10
19
 20
25.6249
 11
19.0707
 21
25.6227
  0
LINE
  8
0
 10
19.0707
 20
25.6227
 11
19.141
 21
25.616
  0
LINE
  8
0
 10
19.141
 20
25.616
 11
19.2108
 21
25.6049
  0
LINE
  8
0
 10
19.2108
 20
25.6049
 11
19.2797
 21
25.5896
  0
LINE
  8
0
 10
19.2797
 20
25.5896
 11
19.3476
 21
25.5698
  0
LINE
  8
0
 10
19.3476
 20
25.5698
 11
19.414
 21
25.5459
  0
LINE
  8
0
 10
19.414
 20
25.5459
 11
19.4791
 21
25.5177
  0
LINE
  8
0
 10
19.4791
 20
25.5177
 11
19.5418
 21
25.4858
  0
LINE
  8
0
 10
19.5418
 20
25.4858
 11
19.6028
 21
25.4497
  0
LINE
  8
0
 10
19.6028
 20
25.4497
 11
19.6612
 21
25.41
  0
LINE
  8
0
 10
19.6612
 20
25.41
 11
19.717
 21
25.3667
  0
LINE
  8
0
 10
19.717
 20
25.3667
 11
19.7701
 21
25.3199
  0
LINE
  8
0
 10
19.7701
 20
25.3199
 11
19.8199
 21
25.2701
  0
LINE
  8
0
 10
19.8199
 20
25.2701
 11
19.8667
 21
25.217
  0
LINE
  8
0
 10
19.8667
 20
25.217
 11
19.91
 21
25.1612
  0
LINE
  8
0
 10
19.91
 20
25.1612
 11
19.9497
 21
25.1028
  0
LINE
  8
0
 10
19.9497
 20
25.1028
 11
19.9858
 21
25.0418
  0
LINE
  8
0
 10
19.9858
 20
25.0418
 11
20.0177
 21
24.9791
  0
LINE
  8
0
 10
20.0177
 20
24.9791
 11
20.0459
 21
24.914
  0
LINE
  8
0
 10
20.0459
 20
24.914
 11
20.0698
 21
24.8476
  0
LINE
  8
0
 10
20.0698
 20
24.8476
 11
20.0896
 21
24.7797
  0
LINE
  8
0
 10
20.0896
 20
24.7797
 11
20.1049
 21
24.7108
  0
LINE
  8
0
 10
20.1049
 20
24.7108
 11
20.116
 21
24.641
  0
LINE
  8
0
 10
20.116
 20
24.641
 11
20.1227
 21
24.5707
  0
LINE
  8
0
 10
20.1227
 20
24.5707
 11
20.1249
 21
24.5
  0
LINE
  8
0
 10
20.1249
 20
24.5
 11
20.1227
 21
24.4293
  0
LINE
  8
0
 10
20.1227
 20
24.4293
 11
20.116
 21
24.359
  0
LINE
  8
0
 10
20.116
 20
24.359
 11
20.1049
 21
24.2893
  0
LINE
  8
0
 10
20.1049
 20
24.2893
 11
20.0895
 21
24.2202
  0
LINE
  8
0
 10
20.0895
 20
24.2202
 11
20.0698
 21
24.1525
  0
LINE
  8
0
 10
20.0698
 20
24.1525
 11
20.0459
 21
24.0859
  0
LINE
  8
0
 10
20.0459
 20
24.0859
 11
20.0177
 21
24.0209
  0
LINE
  8
0
 10
20.0177
 20
24.0209
 11
19.9858
 21
23.9582
  0
LINE
  8
0
 10
19.9858
 20
23.9582
 11
19.9497
 21
23.8972
  0
LINE
  8
0
 10
19.9497
 20
23.8972
 11
19.91
 21
23.8388
  0
LINE
  8
0
 10
19.91
 20
23.8388
 11
19.8667
 21
23.783
  0
LINE
  8
0
 10
19.8667
 20
23.783
 11
19.8199
 21
23.7299
  0
LINE
  8
0
 10
19.8199
 20
23.7299
 11
19.7701
 21
23.6801
  0
LINE
  8
0
 10
19.7701
 20
23.6801
 11
19.717
 21
23.6332
  0
LINE
  8
0
 10
19.717
 20
23.6332
 11
19.6612
 21
23.5899
  0
LINE
  8
0
 10
19.6612
 20
23.5899
 11
19.6028
 21
23.5503
  0
LINE
  8
0
 10
19.6028
 20
23.5503
 11
19.5418
 21
23.5142
  0
LINE
  8
0
 10
19.5418
 20
23.5142
 11
19.4791
 21
23.4823
  0
LINE
  8
0
 10
19.4791
 20
23.4823
 11
19.414
 21
23.4541
  0
LINE
  8
0
 10
19.414
 20
23.4541
 11
19.3477
 21
23.4302
  0
LINE
  8
0
 10
19.3477
 20
23.4302
 11
19.2796
 21
23.4104
  0
LINE
  8
0
 10
19.2796
 20
23.4104
 11
19.2108
 21
23.3951
  0
LINE
  8
0
 10
19.2108
 20
23.3951
 11
19.141
 21
23.384
  0
LINE
  8
0
 10
19.141
 20
23.384
 11
19.0707
 21
23.3773
  0
LINE
  8
0
 10
19.0707
 20
23.3773
 11
19
 21
23.3751
  0
LINE
  8
0
 10
19
 20
23.3751
 11
18.9293
 21
23.3773
  0
LINE
  8
0
 10
-37.6246
 20
14.1936
 11
-37.1512
 21
14.3618
  0
LINE
  8
0
 10
-37.1512
 20
14.3618
 11
-36.7407
 21
14.6516
  0
LINE
  8
0
 10
-36.7407
 20
14.6516
 11
-36.4236
 21
15.0414
  0
LINE
  8
0
 10
-36.4236
 20
15.0414
 11
-36.2234
 21
15.5022
  0
LINE
  8
0
 10
-36.2234
 20
15.5022
 11
-36.155
 21
16
  0
LINE
  8
0
 10
-36.155
 20
16
 11
-36.2234
 21
16.4978
  0
LINE
  8
0
 10
-36.2234
 20
16.4978
 11
-36.4236
 21
16.9586
  0
LINE
  8
0
 10
-36.4236
 20
16.9586
 11
-36.7407
 21
17.3484
  0
LINE
  8
0
 10
-36.7407
 20
17.3484
 11
-37.1512
 21
17.6381
  0
LINE
  8
0
 10
-37.1512
 20
17.6381
 11
-37.6246
 21
17.8064
  0
LINE
  8
0
 10
-37.6246
 20
17.8064
 11
-38.1259
 21
17.8407
  0
LINE
  8
0
 10
-38.1259
 20
17.8407
 11
-38.6178
 21
17.7385
  0
LINE
  8
0
 10
-38.6178
 20
17.7385
 11
-39.064
 21
17.5073
  0
LINE
  8
0
 10
-39.064
 20
17.5073
 11
-39.4312
 21
17.1644
  0
LINE
  8
0
 10
-39.4312
 20
17.1644
 11
-39.6922
 21
16.735
  0
LINE
  8
0
 10
-39.6922
 20
16.735
 11
-39.8278
 21
16.2512
  0
LINE
  8
0
 10
-39.8278
 20
16.2512
 11
-39.8278
 21
15.7488
  0
LINE
  8
0
 10
-39.8278
 20
15.7488
 11
-39.6922
 21
15.2649
  0
LINE
  8
0
 10
-39.6922
 20
15.2649
 11
-39.4312
 21
14.8356
  0
LINE
  8
0
 10
-39.4312
 20
14.8356
 11
-39.064
 21
14.4927
  0
LINE
  8
0
 10
-39.064
 20
14.4927
 11
-38.6178
 21
14.2615
  0
LINE
  8
0
 10
-38.6178
 20
14.2615
 11
-38.1259
 21
14.1593
  0
LINE
  8
0
 10
-38.1259
 20
14.1593
 11
-37.6246
 21
14.1936
  0
LINE
  8
0
 10
-12
 20
5.185
 11
-8.5
 21
5.185
  0
LINE
  8
0
 10
-8.5
 20
5.185
 11
-8.5
 21
5.78499
  0
LINE
  8
0
 10
-8.5
 20
5.78499
 11
-12
 21
5.78499
  0
LINE
  8
0
 10
-12
 20
5.78499
 11
-12
 21
7.72499
  0
LINE
  8
0
 10
-12
 20
7.72499
 11
-8.5
 21
7.72499
  0
LINE
  8
0
 10
-8.5
 20
7.72499
 11
-8.5
 21
8.325
  0
LINE
  8
0
 10
-8.5
 20
8.325
 11
-12
 21
8.325
  0
LINE
  8
0
 10
-12
 20
8.325
 11
-12
 21
10.265
  0
LINE
  8
0
 10
-12
 20
10.265
 11
-8.5
 21
10.265
  0
LINE
  8
0
 10
-8.5
 20
10.265
 11
-8.5
 21
10.865
  0
LINE
  8
0
 10
-8.5
 20
10.865
 11
-12
 21
10.865
  0
LINE
  8
0
 10
-12
 20
10.865
 11
-12
 21
12.805
  0
LINE
  8
0
 10
-12
 20
12.805
 11
-8.5
 21
12.805
  0
LINE
  8
0
 10
-8.5
 20
12.805
 11
-8.5
 21
13.405
  0
LINE
  8
0
 10
-8.5
 20
13.405
 11
-12
 21
13.405
  0
LINE
  8
0
 10
-12
 20
13.405
 11
-12
 21
14.41
  0
LINE
  8
0
 10
-12
 20
14.41
 11
-14.54
 21
14.41
  0
LINE
  8
0
 10
-14.54
 20
14.41
 11
-14.54
 21
13.405
  0
LINE
  8
0
 10
-14.54
 20
13.405
 11
-20
 21
13.405
  0
LINE
  8
0
 10
-20
 20
13.405
 11
-20
 21
12.805
  0
LINE
  8
0
 10
-20
 20
12.805
 11
-14.54
 21
12.805
  0
LINE
  8
0
 10
-14.54
 20
12.805
 11
-14.54
 21
10.865
  0
LINE
  8
0
 10
-14.54
 20
10.865
 11
-20
 21
10.865
  0
LINE
  8
0
 10
-20
 20
10.865
 11
-20
 21
10.265
  0
LINE
  8
0
 10
-20
 20
10.265
 11
-14.54
 21
10.265
  0
LINE
  8
0
 10
-14.54
 20
10.265
 11
-14.54
 21
8.325
  0
LINE
  8
0
 10
-14.54
 20
8.325
 11
-20
 21
8.325
  0
LINE
  8
0
 10
-20
 20
8.325
 11
-20
 21
7.72499
  0
LINE
  8
0
 10
-20
 20
7.72499
 11
-14.54
 21
7.72499
  0
LINE
  8
0
 10
-14.54
 20
7.72499
 11
-14.54
 21
5.78499
  0
LINE
  8
0
 10
-14.54
 20
5.78499
 11
-20
 21
5.78499
  0
LINE
  8
0
 10
-20
 20
5.78499
 11
-20
 21
5.185
  0
LINE
  8
0
 10
-20
 20
5.185
 11
-14.54
 21
5.185
  0
LINE
  8
0
 10
-14.54
 20
5.185
 11
-14.54
 21
4.25
  0
LINE
  8
0
 10
-14.54
 20
4.25
 11
-12
 21
4.25
  0
LINE
  8
0
 10
-12
 20
4.25
 11
-12
 21
5.185
  0
LINE
  8
0
 10
-37.6246
 20
6.19359
 11
-37.1512
 21
6.36185
  0
LINE
  8
0
 10
-37.1512
 20
6.36185
 11
-36.7407
 21
6.6516
  0
LINE
  8
0
 10
-36.7407
 20
6.6516
 11
-36.4236
 21
7.04137
  0
LINE
  8
0
 10
-36.4236
 20
7.04137
 11
-36.2234
 21
7.50221
  0
LINE
  8
0
 10
-36.2234
 20
7.50221
 11
-36.155
 21
8
  0
LINE
  8
0
 10
-36.155
 20
8
 11
-36.2234
 21
8.49777
  0
LINE
  8
0
 10
-36.2234
 20
8.49777
 11
-36.4236
 21
8.95862
  0
LINE
  8
0
 10
-36.4236
 20
8.95862
 11
-36.7407
 21
9.34839
  0
LINE
  8
0
 10
-36.7407
 20
9.34839
 11
-37.1512
 21
9.63814
  0
LINE
  8
0
 10
-37.1512
 20
9.63814
 11
-37.6246
 21
9.8064
  0
LINE
  8
0
 10
-37.6246
 20
9.8064
 11
-38.1259
 21
9.8407
  0
LINE
  8
0
 10
-38.1259
 20
9.8407
 11
-38.6178
 21
9.73846
  0
LINE
  8
0
 10
-38.6178
 20
9.73846
 11
-39.064
 21
9.50731
  0
LINE
  8
0
 10
-39.064
 20
9.50731
 11
-39.4312
 21
9.16435
  0
LINE
  8
0
 10
-39.4312
 20
9.16435
 11
-39.6922
 21
8.73505
  0
LINE
  8
0
 10
-39.6922
 20
8.73505
 11
-39.8278
 21
8.25122
  0
LINE
  8
0
 10
-39.8278
 20
8.25122
 11
-39.8278
 21
7.74876
  0
LINE
  8
0
 10
-39.8278
 20
7.74876
 11
-39.6922
 21
7.26494
  0
LINE
  8
0
 10
-39.6922
 20
7.26494
 11
-39.4312
 21
6.83563
  0
LINE
  8
0
 10
-39.4312
 20
6.83563
 11
-39.064
 21
6.49269
  0
LINE
  8
0
 10
-39.064
 20
6.49269
 11
-38.6178
 21
6.26152
  0
LINE
  8
0
 10
-38.6178
 20
6.26152
 11
-38.1259
 21
6.1593
  0
LINE
  8
0
 10
-38.1259
 20
6.1593
 11
-37.6246
 21
6.19359
  0
LINE
  8
0
 10
-30.6246
 20
-1.8064
 11
-30.1512
 21
-1.63814
  0
LINE
  8
0
 10
-30.1512
 20
-1.63814
 11
-29.7407
 21
-1.34839
  0
LINE
  8
0
 10
-29.7407
 20
-1.34839
 11
-29.4236
 21
-0.958618
  0
LINE
  8
0
 10
-29.4236
 20
-0.958618
 11
-29.2234
 21
-0.497772
  0
LINE
  8
0
 10
-29.2234
 20
-0.497772
 11
-29.155
 21
0
  0
LINE
  8
0
 10
-29.155
 20
0
 11
-29.2234
 21
0.497772
  0
LINE
  8
0
 10
-29.2234
 20
0.497772
 11
-29.4236
 21
0.958618
  0
LINE
  8
0
 10
-29.4236
 20
0.958618
 11
-29.7407
 21
1.34839
  0
LINE
  8
0
 10
-29.7407
 20
1.34839
 11
-30.1512
 21
1.63814
  0
LINE
  8
0
 10
-30.1512
 20
1.63814
 11
-30.6246
 21
1.8064
  0
LINE
  8
0
 10
-30.6246
 20
1.8064
 11
-31.1259
 21
1.8407
  0
LINE
  8
0
 10
-31.1259
 20
1.8407
 11
-31.6178
 21
1.73846
  0
LINE
  8
0
 10
-31.6178
 20
1.73846
 11
-32.064
 21
1.50731
  0
LINE
  8
0
 10
-32.064
 20
1.50731
 11
-32.4312
 21
1.16435
  0
LINE
  8
0
 10
-32.4312
 20
1.16435
 11
-32.6922
 21
0.735046
  0
LINE
  8
0
 10
-32.6922
 20
0.735046
 11
-32.8278
 21
0.251221
  0
LINE
  8
0
 10
-32.8278
 20
0.251221
 11
-32.8278
 21
-0.251221
  0
LINE
  8
0
 10
-32.8278
 20
-0.251221
 11
-32.6922
 21
-0.735046
  0
LINE
  8
0
 10
-32.6922
 20
-0.735046
 11
-32.4312
 21
-1.16435
  0
LINE
  8
0
 10
-32.4312
 20
-1.16435
 11
-32.064
 21
-1.50731
  0
LINE
  8
0
 10
-32.064
 20
-1.50731
 11
-31.6178
 21
-1.73846
  0
LINE
  8
0
 10
-31.6178
 20
-1.73846
 11
-31.1259
 21
-1.8407
  0
LINE
  8
0
 10
-31.1259
 20
-1.8407
 11
-30.6246
 21
-1.8064
  0
LINE
  8
0
 10
-0.624619
 20
-1.8064
 11
-0.151169
 21
-1.63814
  0
LINE
  8
0
 10
-0.151169
 20
-1.63814
 11
0.259308
 21
-1.34839
  0
LINE
  8
0
 10
0.259308
 20
-1.34839
 11
0.576401
 21
-0.958618
  0
LINE
  8
0
 10
0.576401
 20
-0.958618
 11
0.776581
 21
-0.497772
  0
LINE
  8
0
 10
0.776581
 20
-0.497772
 11
0.844986
 21
0
  0
LINE
  8
0
 10
0.844986
 20
0
 11
0.776581
 21
0.497772
  0
LINE
  8
0
 10
0.776581
 20
0.497772
 11
0.576401
 21
0.958618
  0
LINE
  8
0
 10
0.576401
 20
0.958618
 11
0.259308
 21
1.34839
  0
LINE
  8
0
 10
0.259308
 20
1.34839
 11
-0.151169
 21
1.63814
  0
LINE
  8
0
 10
-0.151169
 20
1.63814
 11
-0.624619
 21
1.8064
  0
LINE
  8
0
 10
-0.624619
 20
1.8064
 11
-1.1259
 21
1.8407
  0
LINE
  8
0
 10
-1.1259
 20
1.8407
 11
-1.61784
 21
1.73846
  0
LINE
  8
0
 10
-1.61784
 20
1.73846
 11
-2.06396
 21
1.50731
  0
LINE
  8
0
 10
-2.06396
 20
1.50731
 11
-2.43118
 21
1.16435
  0
LINE
  8
0
 10
-2.43118
 20
1.16435
 11
-2.69225
 21
0.735046
  0
LINE
  8
0
 10
-2.69225
 20
0.735046
 11
-2.8278
 21
0.251221
  0
LINE
  8
0
 10
-2.8278
 20
0.251221
 11
-2.8278
 21
-0.251221
  0
LINE
  8
0
 10
-2.8278
 20
-0.251221
 11
-2.69225
 21
-0.735046
  0
LINE
  8
0
 10
-2.69225
 20
-0.735046
 11
-2.43118
 21
-1.16435
  0
LINE
  8
0
 10
-2.43118
 20
-1.16435
 11
-2.06396
 21
-1.50731
  0
LINE
  8
0
 10
-2.06396
 20
-1.50731
 11
-1.61784
 21
-1.73846
  0
LINE
  8
0
 10
-1.61784
 20
-1.73846
 11
-1.1259
 21
-1.8407
  0
LINE
  8
0
 10
-1.1259
 20
-1.8407
 11
-0.624619
 21
-1.8064
  0
LINE
  8
0
 10
-10.6246
 20
-1.8064
 11
-10.1512
 21
-1.63814
  0
LINE
  8
0
 10
-10.1512
 20
-1.63814
 11
-9.74068
 21
-1.34839
  0
LINE
  8
0
 10
-9.74068
 20
-1.34839
 11
-9.42358
 21
-0.958618
  0
LINE
  8
0
 10
-9.42358
 20
-0.958618
 11
-9.2234
 21
-0.497772
  0
LINE
  8
0
 10
-9.2234
 20
-0.497772
 11
-9.155
 21
0
  0
LINE
  8
0
 10
-9.155
 20
0
 11
-9.2234
 21
0.497772
  0
LINE
  8
0
 10
-9.2234
 20
0.497772
 11
-9.42358
 21
0.958618
  0
LINE
  8
0
 10
-9.42358
 20
0.958618
 11
-9.74068
 21
1.34839
  0
LINE
  8
0
 10
-9.74068
 20
1.34839
 11
-10.1512
 21
1.63814
  0
LINE
  8
0
 10
-10.1512
 20
1.63814
 11
-10.6246
 21
1.8064
  0
LINE
  8
0
 10
-10.6246
 20
1.8064
 11
-11.1259
 21
1.8407
  0
LINE
  8
0
 10
-11.1259
 20
1.8407
 11
-11.6178
 21
1.73846
  0
LINE
  8
0
 10
-11.6178
 20
1.73846
 11
-12.064
 21
1.50731
  0
LINE
  8
0
 10
-12.064
 20
1.50731
 11
-12.4312
 21
1.16435
  0
LINE
  8
0
 10
-12.4312
 20
1.16435
 11
-12.6922
 21
0.735046
  0
LINE
  8
0
 10
-12.6922
 20
0.735046
 11
-12.8278
 21
0.251221
  0
LINE
  8
0
 10
-12.8278
 20
0.251221
 11
-12.8278
 21
-0.251221
  0
LINE
  8
0
 10
-12.8278
 20
-0.251221
 11
-12.6922
 21
-0.735046
  0
LINE
  8
0
 10
-12.6922
 20
-0.735046
 11
-12.4312
 21
-1.16435
  0
LINE
  8
0
 10
-12.4312
 20
-1.16435
 11
-12.064
 21
-1.50731
  0
LINE
  8
0
 10
-12.064
 20
-1.50731
 11
-11.6178
 21
-1.73846
  0
LINE
  8
0
 10
-11.6178
 20
-1.73846
 11
-11.1259
 21
-1.8407
  0
LINE
  8
0
 10
-11.1259
 20
-1.8407
 11
-10.6246
 21
-1.8064
  0
LINE
  8
0
 10
-20.6246
 20
-1.8064
 11
-20.1512
 21
-1.63814
  0
LINE
  8
0
 10
-20.1512
 20
-1.63814
 11
-19.7407
 21
-1.34839
  0
LINE
  8
0
 10
-19.7407
 20
-1.34839
 11
-19.4236
 21
-0.958618
  0
LINE
  8
0
 10
-19.4236
 20
-0.958618
 11
-19.2234
 21
-0.497772
  0
LINE
  8
0
 10
-19.2234
 20
-0.497772
 11
-19.155
 21
0
  0
LINE
  8
0
 10
-19.155
 20
0
 11
-19.2234
 21
0.497772
  0
LINE
  8
0
 10
-19.2234
 20
0.497772
 11
-19.4236
 21
0.958618
  0
LINE
  8
0
 10
-19.4236
 20
0.958618
 11
-19.7407
 21
1.34839
  0
LINE
  8
0
 10
-19.7407
 20
1.34839
 11
-20.1512
 21
1.63814
  0
LINE
  8
0
 10
-20.1512
 20
1.63814
 11
-20.6246
 21
1.8064
  0
LINE
  8
0
 10
-20.6246
 20
1.8064
 11
-21.1259
 21
1.8407
  0
LINE
  8
0
 10
-21.1259
 20
1.8407
 11
-21.6178
 21
1.73846
  0
LINE
  8
0
 10
-21.6178
 20
1.73846
 11
-22.064
 21
1.50731
  0
LINE
  8
0
 10
-22.064
 20
1.50731
 11
-22.4312
 21
1.16435
  0
LINE
  8
0
 10
-22.4312
 20
1.16435
 11
-22.6922
 21
0.735046
  0
LINE
  8
0
 10
-22.6922
 20
0.735046
 11
-22.8278
 21
0.251221
  0
LINE
  8
0
 10
-22.8278
 20
0.251221
 11
-22.8278
 21
-0.251221
  0
LINE
  8
0
 10
-22.8278
 20
-0.251221
 11
-22.6922
 21
-0.735046
  0
LINE
  8
0
 10
-22.6922
 20
-0.735046
 11
-22.4312
 21
-1.16435
  0
LINE
  8
0
 10
-22.4312
 20
-1.16435
 11
-22.064
 21
-1.50731
  0
LINE
  8
0
 10
-22.064
 20
-1.50731
 11
-21.6178
 21
-1.73846
  0
LINE
  8
0
 10
-21.6178
 20
-1.73846
 11
-21.1259
 21
-1.8407
  0
LINE
  8
0
 10
-21.1259
 20
-1.8407
 11
-20.6246
 21
-1.8064
  0
LINE
  8
0
 10
-20.3896
 20
-14.9372
 11
-19.6198
 21
-14.6637
  0
LINE
  8
0
 10
-19.6198
 20
-14.6637
 11
-19.388
 21
-14.5
  0
LINE
  8
0
 10
-19.388
 20
-14.5
 11
-18.5
 21
-14.5
  0
LINE
  8
0
 10
-18.5
 20
-14.5
 11
-18.5
 21
-13.6365
  0
LINE
  8
0
 10
-18.5
 20
-13.6365
 11
-18.4367
 21
-13.5587
  0
LINE
  8
0
 10
-18.4367
 20
-13.5587
 11
-18.1112
 21
-12.8094
  0
LINE
  8
0
 10
-18.1112
 20
-12.8094
 11
-18
 21
-12
  0
LINE
  8
0
 10
-18
 20
-12
 11
-18.1112
 21
-11.1906
  0
LINE
  8
0
 10
-18.1112
 20
-11.1906
 11
-18.4367
 21
-10.4412
  0
LINE
  8
0
 10
-18.4367
 20
-10.4412
 11
-18.5
 21
-10.3635
  0
LINE
  8
0
 10
-18.5
 20
-10.3635
 11
-18.5
 21
-9.5
  0
LINE
  8
0
 10
-18.5
 20
-9.5
 11
-19.3879
 21
-9.5
  0
LINE
  8
0
 10
-19.3879
 20
-9.5
 11
-19.6198
 21
-9.33633
  0
LINE
  8
0
 10
-19.6198
 20
-9.33633
 11
-20.3896
 21
-9.06274
  0
LINE
  8
0
 10
-20.3896
 20
-9.06274
 11
-21.2047
 21
-9.00699
  0
LINE
  8
0
 10
-21.2047
 20
-9.00699
 11
-22.0046
 21
-9.1732
  0
LINE
  8
0
 10
-22.0046
 20
-9.1732
 11
-22.6353
 21
-9.5
  0
LINE
  8
0
 10
-22.6353
 20
-9.5
 11
-23.5
 21
-9.5
  0
LINE
  8
0
 10
-23.5
 20
-9.5
 11
-23.5
 21
-10.391
  0
LINE
  8
0
 10
-23.5
 20
-10.391
 11
-23.7516
 21
-10.8048
  0
LINE
  8
0
 10
-23.7516
 20
-10.8048
 11
-23.972
 21
-11.5915
  0
LINE
  8
0
 10
-23.972
 20
-11.5915
 11
-23.972
 21
-12.4085
  0
LINE
  8
0
 10
-23.972
 20
-12.4085
 11
-23.7516
 21
-13.1952
  0
LINE
  8
0
 10
-23.7516
 20
-13.1952
 11
-23.5
 21
-13.609
  0
LINE
  8
0
 10
-23.5
 20
-13.609
 11
-23.5
 21
-14.5
  0
LINE
  8
0
 10
-23.5
 20
-14.5
 11
-22.6353
 21
-14.5
  0
LINE
  8
0
 10
-22.6353
 20
-14.5
 11
-22.0046
 21
-14.8268
  0
LINE
  8
0
 10
-22.0046
 20
-14.8268
 11
-21.2047
 21
-14.993
  0
LINE
  8
0
 10
-21.2047
 20
-14.993
 11
-20.3896
 21
-14.9372
  0
LINE
  8
0
 10
-10.3896
 20
-14.9372
 11
-9.6198
 21
-14.6637
  0
LINE
  8
0
 10
-9.6198
 20
-14.6637
 11
-9.38795
 21
-14.5
  0
LINE
  8
0
 10
-9.38795
 20
-14.5
 11
-8.5
 21
-14.5
  0
LINE
  8
0
 10
-8.5
 20
-14.5
 11
-8.5
 21
-13.6365
  0
LINE
  8
0
 10
-8.5
 20
-13.6365
 11
-8.43674
 21
-13.5587
  0
LINE
  8
0
 10
-8.43674
 20
-13.5587
 11
-8.11124
 21
-12.8094
  0
LINE
  8
0
 10
-8.11124
 20
-12.8094
 11
-8
 21
-12
  0
LINE
  8
0
 10
-8
 20
-12
 11
-8.11124
 21
-11.1906
  0
LINE
  8
0
 10
-8.11124
 20
-11.1906
 11
-8.43674
 21
-10.4412
  0
LINE
  8
0
 10
-8.43674
 20
-10.4412
 11
-8.5
 21
-10.3635
  0
LINE
  8
0
 10
-8.5
 20
-10.3635
 11
-8.5
 21
-9.5
  0
LINE
  8
0
 10
-8.5
 20
-9.5
 11
-9.38794
 21
-9.5
  0
LINE
  8
0
 10
-9.38794
 20
-9.5
 11
-9.6198
 21
-9.33633
  0
LINE
  8
0
 10
-9.6198
 20
-9.33633
 11
-10.3896
 21
-9.06274
  0
LINE
  8
0
 10
-10.3896
 20
-9.06274
 11
-11.2047
 21
-9.00699
  0
LINE
  8
0
 10
-11.2047
 20
-9.00699
 11
-12.0046
 21
-9.1732
  0
LINE
  8
0
 10
-12.0046
 20
-9.1732
 11
-12.6353
 21
-9.5
  0
LINE
  8
0
 10
-12.6353
 20
-9.5
 11
-13.5
 21
-9.5
  0
LINE
  8
0
 10
-13.5
 20
-9.5
 11
-13.5
 21
-10.391
  0
LINE
  8
0
 10
-13.5
 20
-10.391
 11
-13.7516
 21
-10.8048
  0
LINE
  8
0
 10
-13.7516
 20
-10.8048
 11
-13.972
 21
-11.5915
  0
LINE
  8
0
 10
-13.972
 20
-11.5915
 11
-13.972
 21
-12.4085
  0
LINE
  8
0
 10
-13.972
 20
-12.4085
 11
-13.7516
 21
-13.1952
  0
LINE
  8
0
 10
-13.7516
 20
-13.1952
 11
-13.5
 21
-13.609
  0
LINE
  8
0
 10
-13.5
 20
-13.609
 11
-13.5
 21
-14.5
  0
LINE
  8
0
 10
-13.5
 20
-14.5
 11
-12.6353
 21
-14.5
  0
LINE
  8
0
 10
-12.6353
 20
-14.5
 11
-12.0046
 21
-14.8268
  0
LINE
  8
0
 10
-12.0046
 20
-14.8268
 11
-11.2047
 21
-14.993
  0
LINE
  8
0
 10
-11.2047
 20
-14.993
 11
-10.3896
 21
-14.9372
  0
LINE
  8
0
 10
-30.3896
 20
-14.9372
 11
-29.6198
 21
-14.6637
  0
LINE
  8
0
 10
-29.6198
 20
-14.6637
 11
-29.388
 21
-14.5
  0
LINE
  8
0
 10
-29.388
 20
-14.5
 11
-28.5
 21
-14.5
  0
LINE
  8
0
 10
-28.5
 20
-14.5
 11
-28.5
 21
-13.6365
  0
LINE
  8
0
 10
-28.5
 20
-13.6365
 11
-28.4367
 21
-13.5587
  0
LINE
  8
0
 10
-28.4367
 20
-13.5587
 11
-28.1112
 21
-12.8094
  0
LINE
  8
0
 10
-28.1112
 20
-12.8094
 11
-28
 21
-12
  0
LINE
  8
0
 10
-28
 20
-12
 11
-28.1112
 21
-11.1906
  0
LINE
  8
0
 10
-28.1112
 20
-11.1906
 11
-28.4367
 21
-10.4412
  0
LINE
  8
0
 10
-28.4367
 20
-10.4412
 11
-28.5
 21
-10.3635
  0
LINE
  8
0
 10
-28.5
 20
-10.3635
 11
-28.5
 21
-9.5
  0
LINE
  8
0
 10
-28.5
 20
-9.5
 11
-29.3879
 21
-9.5
  0
LINE
  8
0
 10
-29.3879
 20
-9.5
 11
-29.6198
 21
-9.33633
  0
LINE
  8
0
 10
-29.6198
 20
-9.33633
 11
-30.3896
 21
-9.06274
  0
LINE
  8
0
 10
-30.3896
 20
-9.06274
 11
-31.2047
 21
-9.00699
  0
LINE
  8
0
 10
-31.2047
 20
-9.00699
 11
-32.0046
 21
-9.1732
  0
LINE
  8
0
 10
-32.0046
 20
-9.1732
 11
-32.6353
 21
-9.5
  0
LINE
  8
0
 10
-32.6353
 20
-9.5
 11
-33.5
 21
-9.5
  0
LINE
  8
0
 10
-33.5
 20
-9.5
 11
-33.5
 21
-10.391
  0
LINE
  8
0
 10
-33.5
 20
-10.391
 11
-33.7516
 21
-10.8048
  0
LINE
  8
0
 10
-33.7516
 20
-10.8048
 11
-33.972
 21
-11.5915
  0
LINE
  8
0
 10
-33.972
 20
-11.5915
 11
-33.972
 21
-12.4085
  0
LINE
  8
0
 10
-33.972
 20
-12.4085
 11
-33.7516
 21
-13.1952
  0
LINE
  8
0
 10
-33.7516
 20
-13.1952
 11
-33.5
 21
-13.609
  0
LINE
  8
0
 10
-33.5
 20
-13.609
 11
-33.5
 21
-14.5
  0
LINE
  8
0
 10
-33.5
 20
-14.5
 11
-32.6353
 21
-14.5
  0
LINE
  8
0
 10
-32.6353
 20
-14.5
 11
-32.0046
 21
-14.8268
  0
LINE
  8
0
 10
-32.0046
 20
-14.8268
 11
-31.2047
 21
-14.993
  0
LINE
  8
0
 10
-31.2047
 20
-14.993
 11
-30.3896
 21
-14.9372
  0
LINE
  8
0
 10
-0.389618
 20
-14.9372
 11
0.380188
 21
-14.6637
  0
LINE
  8
0
 10
0.380188
 20
-14.6637
 11
0.61203
 21
-14.5
  0
LINE
  8
0
 10
0.61203
 20
-14.5
 11
1.5
 21
-14.5
  0
LINE
  8
0
 10
1.5
 20
-14.5
 11
1.5
 21
-13.6365
  0
LINE
  8
0
 10
1.5
 20
-13.6365
 11
1.56325
 21
-13.5587
  0
LINE
  8
0
 10
1.56325
 20
-13.5587
 11
1.88875
 21
-12.8094
  0
LINE
  8
0
 10
1.88875
 20
-12.8094
 11
2
 21
-12
  0
LINE
  8
0
 10
2
 20
-12
 11
1.88875
 21
-11.1906
  0
LINE
  8
0
 10
1.88875
 20
-11.1906
 11
1.56325
 21
-10.4412
  0
LINE
  8
0
 10
1.56325
 20
-10.4412
 11
1.5
 21
-10.3635
  0
LINE
  8
0
 10
1.5
 20
-10.3635
 11
1.5
 21
-9.5
  0
LINE
  8
0
 10
1.5
 20
-9.5
 11
0.612045
 21
-9.5
  0
LINE
  8
0
 10
0.612045
 20
-9.5
 11
0.380188
 21
-9.33633
  0
LINE
  8
0
 10
0.380188
 20
-9.33633
 11
-0.389618
 21
-9.06274
  0
LINE
  8
0
 10
-0.389618
 20
-9.06274
 11
-1.20473
 21
-9.00699
  0
LINE
  8
0
 10
-1.20473
 20
-9.00699
 11
-2.00464
 21
-9.1732
  0
LINE
  8
0
 10
-2.00464
 20
-9.1732
 11
-2.6353
 21
-9.5
  0
LINE
  8
0
 10
-2.6353
 20
-9.5
 11
-3.5
 21
-9.5
  0
LINE
  8
0
 10
-3.5
 20
-9.5
 11
-3.5
 21
-10.391
  0
LINE
  8
0
 10
-3.5
 20
-10.391
 11
-3.75163
 21
-10.8048
  0
LINE
  8
0
 10
-3.75163
 20
-10.8048
 11
-3.97205
 21
-11.5915
  0
LINE
  8
0
 10
-3.97205
 20
-11.5915
 11
-3.97205
 21
-12.4085
  0
LINE
  8
0
 10
-3.97205
 20
-12.4085
 11
-3.75163
 21
-13.1952
  0
LINE
  8
0
 10
-3.75163
 20
-13.1952
 11
-3.5
 21
-13.609
  0
LINE
  8
0
 10
-3.5
 20
-13.609
 11
-3.5
 21
-14.5
  0
LINE
  8
0
 10
-3.5
 20
-14.5
 11
-2.63527
 21
-14.5
  0
LINE
  8
0
 10
-2.63527
 20
-14.5
 11
-2.00464
 21
-14.8268
  0
LINE
  8
0
 10
-2.00464
 20
-14.8268
 11
-1.20473
 21
-14.993
  0
LINE
  8
0
 10
-1.20473
 20
-14.993
 11
-0.389618
 21
-14.9372
  0
LINE
  8
0
 10
19.0942
 20
-26.1222
 11
19.1959
 21
-26.113
  0
LINE
  8
0
 10
19.1959
 20
-26.113
 11
19.2968
 21
-26.0975
  0
LINE
  8
0
 10
19.2968
 20
-26.0975
 11
19.3964
 21
-26.0758
  0
LINE
  8
0
 10
19.3964
 20
-26.0758
 11
19.4947
 21
-26.0478
  0
LINE
  8
0
 10
19.4947
 20
-26.0478
 11
19.5908
 21
-26.0137
  0
LINE
  8
0
 10
19.5908
 20
-26.0137
 11
19.6848
 21
-25.9736
  0
LINE
  8
0
 10
19.6848
 20
-25.9736
 11
19.7759
 21
-25.9277
  0
LINE
  8
0
 10
19.7759
 20
-25.9277
 11
19.864
 21
-25.8762
  0
LINE
  8
0
 10
19.864
 20
-25.8762
 11
19.9487
 21
-25.8192
  0
LINE
  8
0
 10
19.9487
 20
-25.8192
 11
20.0297
 21
-25.757
  0
LINE
  8
0
 10
20.0297
 20
-25.757
 11
20.1066
 21
-25.6898
  0
LINE
  8
0
 10
20.1066
 20
-25.6898
 11
20.1791
 21
-25.618
  0
LINE
  8
0
 10
20.1791
 20
-25.618
 11
20.247
 21
-25.5418
  0
LINE
  8
0
 10
20.247
 20
-25.5418
 11
20.3099
 21
-25.4614
  0
LINE
  8
0
 10
20.3099
 20
-25.4614
 11
20.3677
 21
-25.3773
  0
LINE
  8
0
 10
20.3677
 20
-25.3773
 11
20.4201
 21
-25.2896
  0
LINE
  8
0
 10
20.4201
 20
-25.2896
 11
20.4669
 21
-25.1989
  0
LINE
  8
0
 10
20.4669
 20
-25.1989
 11
20.5079
 21
-25.1055
  0
LINE
  8
0
 10
20.5079
 20
-25.1055
 11
20.5429
 21
-25.0096
  0
LINE
  8
0
 10
20.5429
 20
-25.0096
 11
20.5719
 21
-24.9117
  0
LINE
  8
0
 10
20.5719
 20
-24.9117
 11
20.5946
 21
-24.8121
  0
LINE
  8
0
 10
20.5946
 20
-24.8121
 11
20.6111
 21
-24.7115
  0
LINE
  8
0
 10
20.6111
 20
-24.7115
 11
20.6212
 21
-24.6099
  0
LINE
  8
0
 10
20.6212
 20
-24.6099
 11
20.6249
 21
-24.5079
  0
LINE
  8
0
 10
20.6249
 20
-24.5079
 11
20.6222
 21
-24.4058
  0
LINE
  8
0
 10
20.6222
 20
-24.4058
 11
20.613
 21
-24.3041
  0
LINE
  8
0
 10
20.613
 20
-24.3041
 11
20.5975
 21
-24.2032
  0
LINE
  8
0
 10
20.5975
 20
-24.2032
 11
20.5758
 21
-24.1035
  0
LINE
  8
0
 10
20.5758
 20
-24.1035
 11
20.5478
 21
-24.0053
  0
LINE
  8
0
 10
20.5478
 20
-24.0053
 11
20.5137
 21
-23.9091
  0
LINE
  8
0
 10
20.5137
 20
-23.9091
 11
20.4736
 21
-23.8152
  0
LINE
  8
0
 10
20.4736
 20
-23.8152
 11
20.4277
 21
-23.7241
  0
LINE
  8
0
 10
20.4277
 20
-23.7241
 11
20.3762
 21
-23.636
  0
LINE
  8
0
 10
20.3762
 20
-23.636
 11
20.3192
 21
-23.5513
  0
LINE
  8
0
 10
20.3192
 20
-23.5513
 11
20.257
 21
-23.4703
  0
LINE
  8
0
 10
20.257
 20
-23.4703
 11
20.1898
 21
-23.3934
  0
LINE
  8
0
 10
20.1898
 20
-23.3934
 11
20.118
 21
-23.3209
  0
LINE
  8
0
 10
20.118
 20
-23.3209
 11
20.0418
 21
-23.253
  0
LINE
  8
0
 10
20.0418
 20
-23.253
 11
19.9614
 21
-23.1901
  0
LINE
  8
0
 10
19.9614
 20
-23.1901
 11
19.8773
 21
-23.1323
  0
LINE
  8
0
 10
19.8773
 20
-23.1323
 11
19.7896
 21
-23.0799
  0
LINE
  8
0
 10
19.7896
 20
-23.0799
 11
19.6989
 21
-23.0331
  0
LINE
  8
0
 10
19.6989
 20
-23.0331
 11
19.6055
 21
-22.9921
  0
LINE
  8
0
 10
19.6055
 20
-22.9921
 11
19.5096
 21
-22.9571
  0
LINE
  8
0
 10
19.5096
 20
-22.9571
 11
19.4117
 21
-22.9281
  0
LINE
  8
0
 10
19.4117
 20
-22.9281
 11
19.3122
 21
-22.9054
  0
LINE
  8
0
 10
19.3122
 20
-22.9054
 11
19.2115
 21
-22.8889
  0
LINE
  8
0
 10
19.2115
 20
-22.8889
 11
19.1099
 21
-22.8788
  0
LINE
  8
0
 10
19.1099
 20
-22.8788
 11
19.0078
 21
-22.8751
  0
LINE
  8
0
 10
19.0078
 20
-22.8751
 11
18.9058
 21
-22.8778
  0
LINE
  8
0
 10
18.9058
 20
-22.8778
 11
18.8041
 21
-22.8869
  0
LINE
  8
0
 10
18.8041
 20
-22.8869
 11
18.7032
 21
-22.9024
  0
LINE
  8
0
 10
18.7032
 20
-22.9024
 11
18.6035
 21
-22.9242
  0
LINE
  8
0
 10
18.6035
 20
-22.9242
 11
18.5054
 21
-22.9522
  0
LINE
  8
0
 10
18.5054
 20
-22.9522
 11
18.4091
 21
-22.9863
  0
LINE
  8
0
 10
18.4091
 20
-22.9863
 11
18.3153
 21
-23.0264
  0
LINE
  8
0
 10
18.3153
 20
-23.0264
 11
18.2241
 21
-23.0723
  0
LINE
  8
0
 10
18.2241
 20
-23.0723
 11
18.136
 21
-23.1238
  0
LINE
  8
0
 10
18.136
 20
-23.1238
 11
18.0513
 21
-23.1808
  0
LINE
  8
0
 10
18.0513
 20
-23.1808
 11
17.9703
 21
-23.243
  0
LINE
  8
0
 10
17.9703
 20
-23.243
 11
17.8934
 21
-23.3102
  0
LINE
  8
0
 10
17.8934
 20
-23.3102
 11
17.8209
 21
-23.382
  0
LINE
  8
0
 10
17.8209
 20
-23.382
 11
17.753
 21
-23.4582
  0
LINE
  8
0
 10
17.753
 20
-23.4582
 11
17.6901
 21
-23.5385
  0
LINE
  8
0
 10
17.6901
 20
-23.5385
 11
17.6323
 21
-23.6227
  0
LINE
  8
0
 10
17.6323
 20
-23.6227
 11
17.5799
 21
-23.7104
  0
LINE
  8
0
 10
17.5799
 20
-23.7104
 11
17.5331
 21
-23.8011
  0
LINE
  8
0
 10
17.5331
 20
-23.8011
 11
17.4921
 21
-23.8945
  0
LINE
  8
0
 10
17.4921
 20
-23.8945
 11
17.4571
 21
-23.9904
  0
LINE
  8
0
 10
17.4571
 20
-23.9904
 11
17.4281
 21
-24.0883
  0
LINE
  8
0
 10
17.4281
 20
-24.0883
 11
17.4054
 21
-24.1878
  0
LINE
  8
0
 10
17.4054
 20
-24.1878
 11
17.3889
 21
-24.2885
  0
LINE
  8
0
 10
17.3889
 20
-24.2885
 11
17.3788
 21
-24.3901
  0
LINE
  8
0
 10
17.3788
 20
-24.3901
 11
17.3751
 21
-24.4922
  0
LINE
  8
0
 10
17.3751
 20
-24.4922
 11
17.3778
 21
-24.5941
  0
LINE
  8
0
 10
17.3778
 20
-24.5941
 11
17.3869
 21
-24.6959
  0
LINE
  8
0
 10
17.3869
 20
-24.6959
 11
17.4024
 21
-24.7968
  0
LINE
  8
0
 10
17.4024
 20
-24.7968
 11
17.4242
 21
-24.8965
  0
LINE
  8
0
 10
17.4242
 20
-24.8965
 11
17.4522
 21
-24.9946
  0
LINE
  8
0
 10
17.4522
 20
-24.9946
 11
17.4863
 21
-25.0909
  0
LINE
  8
0
 10
17.4863
 20
-25.0909
 11
17.5264
 21
-25.1847
  0
LINE
  8
0
 10
17.5264
 20
-25.1847
 11
17.5723
 21
-25.2759
  0
LINE
  8
0
 10
17.5723
 20
-25.2759
 11
17.6238
 21
-25.364
  0
LINE
  8
0
 10
17.6238
 20
-25.364
 11
17.6808
 21
-25.4487
  0
LINE
  8
0
 10
17.6808
 20
-25.4487
 11
17.743
 21
-25.5297
  0
LINE
  8
0
 10
17.743
 20
-25.5297
 11
17.8102
 21
-25.6066
  0
LINE
  8
0
 10
17.8102
 20
-25.6066
 11
17.882
 21
-25.6791
  0
LINE
  8
0
 10
17.882
 20
-25.6791
 11
17.9582
 21
-25.747
  0
LINE
  8
0
 10
17.9582
 20
-25.747
 11
18.0385
 21
-25.8099
  0
LINE
  8
0
 10
18.0385
 20
-25.8099
 11
18.1227
 21
-25.8677
  0
LINE
  8
0
 10
18.1227
 20
-25.8677
 11
18.2104
 21
-25.9201
  0
LINE
  8
0
 10
18.2104
 20
-25.9201
 11
18.3011
 21
-25.9669
  0
LINE
  8
0
 10
18.3011
 20
-25.9669
 11
18.3945
 21
-26.0079
  0
LINE
  8
0
 10
18.3945
 20
-26.0079
 11
18.4904
 21
-26.0429
  0
LINE
  8
0
 10
18.4904
 20
-26.0429
 11
18.5883
 21
-26.0719
  0
LINE
  8
0
 10
18.5883
 20
-26.0719
 11
18.6878
 21
-26.0946
  0
LINE
  8
0
 10
18.6878
 20
-26.0946
 11
18.7885
 21
-26.1111
  0
LINE
  8
0
 10
18.7885
 20
-26.1111
 11
18.8901
 21
-26.1212
  0
LINE
  8
0
 10
18.8901
 20
-26.1212
 11
19.0079
 21
-26.1249
  0
LINE
  8
0
 10
19.0079
 20
-26.1249
 11
19.0942
 21
-26.1222
  0
LINE
  8
0
 10
18.9293
 20
-25.6227
 11
18.859
 21
-25.616
  0
LINE
  8
0
 10
18.859
 20
-25.616
 11
18.7893
 21
-25.6049
  0
LINE
  8
0
 10
18.7893
 20
-25.6049
 11
18.7202
 21
-25.5895
  0
LINE
  8
0
 10
18.7202
 20
-25.5895
 11
18.6525
 21
-25.5698
  0
LINE
  8
0
 10
18.6525
 20
-25.5698
 11
18.5859
 21
-25.5459
  0
LINE
  8
0
 10
18.5859
 20
-25.5459
 11
18.5209
 21
-25.5177
  0
LINE
  8
0
 10
18.5209
 20
-25.5177
 11
18.4582
 21
-25.4858
  0
LINE
  8
0
 10
18.4582
 20
-25.4858
 11
18.3972
 21
-25.4497
  0
LINE
  8
0
 10
18.3972
 20
-25.4497
 11
18.3388
 21
-25.41
  0
LINE
  8
0
 10
18.3388
 20
-25.41
 11
18.283
 21
-25.3667
  0
LINE
  8
0
 10
18.283
 20
-25.3667
 11
18.2299
 21
-25.3199
  0
LINE
  8
0
 10
18.2299
 20
-25.3199
 11
18.1801
 21
-25.2701
  0
LINE
  8
0
 10
18.1801
 20
-25.2701
 11
18.1332
 21
-25.217
  0
LINE
  8
0
 10
18.1332
 20
-25.217
 11
18.0899
 21
-25.1612
  0
LINE
  8
0
 10
18.0899
 20
-25.1612
 11
18.0503
 21
-25.1028
  0
LINE
  8
0
 10
18.0503
 20
-25.1028
 11
18.0142
 21
-25.0418
  0
LINE
  8
0
 10
18.0142
 20
-25.0418
 11
17.9823
 21
-24.9791
  0
LINE
  8
0
 10
17.9823
 20
-24.9791
 11
17.9541
 21
-24.914
  0
LINE
  8
0
 10
17.9541
 20
-24.914
 11
17.9302
 21
-24.8477
  0
LINE
  8
0
 10
17.9302
 20
-24.8477
 11
17.9104
 21
-24.7796
  0
LINE
  8
0
 10
17.9104
 20
-24.7796
 11
17.8951
 21
-24.7108
  0
LINE
  8
0
 10
17.8951
 20
-24.7108
 11
17.884
 21
-24.641
  0
LINE
  8
0
 10
17.884
 20
-24.641
 11
17.8773
 21
-24.5707
  0
LINE
  8
0
 10
17.8773
 20
-24.5707
 11
17.8751
 21
-24.5
  0
LINE
  8
0
 10
17.8751
 20
-24.5
 11
17.8773
 21
-24.4293
  0
LINE
  8
0
 10
17.8773
 20
-24.4293
 11
17.884
 21
-24.359
  0
LINE
  8
0
 10
17.884
 20
-24.359
 11
17.8951
 21
-24.2892
  0
LINE
  8
0
 10
17.8951
 20
-24.2892
 11
17.9104
 21
-24.2203
  0
LINE
  8
0
 10
17.9104
 20
-24.2203
 11
17.9302
 21
-24.1524
  0
LINE
  8
0
 10
17.9302
 20
-24.1524
 11
17.9541
 21
-24.086
  0
LINE
  8
0
 10
17.9541
 20
-24.086
 11
17.9823
 21
-24.0209
  0
LINE
  8
0
 10
17.9823
 20
-24.0209
 11
18.0142
 21
-23.9582
  0
LINE
  8
0
 10
18.0142
 20
-23.9582
 11
18.0503
 21
-23.8972
  0
LINE
  8
0
 10
18.0503
 20
-23.8972
 11
18.0899
 21
-23.8388
  0
LINE
  8
0
 10
18.0899
 20
-23.8388
 11
18.1332
 21
-23.783
  0
LINE
  8
0
 10
18.1332
 20
-23.783
 11
18.1801
 21
-23.7299
  0
LINE
  8
0
 10
18.1801
 20
-23.7299
 11
18.2299
 21
-23.6801
  0
LINE
  8
0
 10
18.2299
 20
-23.6801
 11
18.283
 21
-23.6332
  0
LINE
  8
0
 10
18.283
 20
-23.6332
 11
18.3388
 21
-23.5899
  0
LINE
  8
0
 10
18.3388
 20
-23.5899
 11
18.3972
 21
-23.5503
  0
LINE
  8
0
 10
18.3972
 20
-23.5503
 11
18.4582
 21
-23.5142
  0
LINE
  8
0
 10
18.4582
 20
-23.5142
 11
18.5209
 21
-23.4823
  0
LINE
  8
0
 10
18.5209
 20
-23.4823
 11
18.586
 21
-23.4541
  0
LINE
  8
0
 10
18.586
 20
-23.4541
 11
18.6524
 21
-23.4302
  0
LINE
  8
0
 10
18.6524
 20
-23.4302
 11
18.7203
 21
-23.4104
  0
LINE
  8
0
 10
18.7203
 20
-23.4104
 11
18.7892
 21
-23.3951
  0
LINE
  8
0
 10
18.7892
 20
-23.3951
 11
18.859
 21
-23.384
  0
LINE
  8
0
 10
18.859
 20
-23.384
 11
18.9293
 21
-23.3773
  0
LINE
  8
0
 10
18.9293
 20
-23.3773
 11
19
 21
-23.3751
  0
LINE
  8
0
 10
19
 20
-23.3751
 11
19.0707
 21
-23.3773
  0
LINE
  8
0
 10
19.0707
 20
-23.3773
 11
19.141
 21
-23.384
  0
LINE
  8
0
 10
19.141
 20
-23.384
 11
19.2108
 21
-23.3951
  0
LINE
  8
0
 10
19.2108
 20
-23.3951
 11
19.2796
 21
-23.4104
  0
LINE
  8
0
 10
19.2796
 20
-23.4104
 11
19.3477
 21
-23.4302
  0
LINE
  8
0
 10
19.3477
 20
-23.4302
 11
19.414
 21
-23.4541
  0
LINE
  8
0
 10
19.414
 20
-23.4541
 11
19.4791
 21
-23.4823
  0
LINE
  8
0
 10
19.4791
 20
-23.4823
 11
19.5418
 21
-23.5142
  0
LINE
  8
0
 10
19.5418
 20
-23.5142
 11
19.6028
 21
-23.5503
  0
LINE
  8
0
 10
19.6028
 20
-23.5503
 11
19.6612
 21
-23.5899
  0
LINE
  8
0
 10
19.6612
 20
-23.5899
 11
19.717
 21
-23.6332
  0
LINE
  8
0
 10
19.717
 20
-23.6332
 11
19.7701
 21
-23.6801
  0
LINE
  8
0
 10
19.7701
 20
-23.6801
 11
19.8199
 21
-23.7299
  0
LINE
  8
0
 10
19.8199
 20
-23.7299
 11
19.8667
 21
-23.783
  0
LINE
  8
0
 10
19.8667
 20
-23.783
 11
19.91
 21
-23.8388
  0
LINE
  8
0
 10
19.91
 20
-23.8388
 11
19.9497
 21
-23.8972
  0
LINE
  8
0
 10
19.9497
 20
-23.8972
 11
19.9858
 21
-23.9582
  0
LINE
  8
0
 10
19.9858
 20
-23.9582
 11
20.0177
 21
-24.0209
  0
LINE
  8
0
 10
20.0177
 20
-24.0209
 11
20.0459
 21
-24.0859
  0
LINE
  8
0
 10
20.0459
 20
-24.0859
 11
20.0698
 21
-24.1525
  0
LINE
  8
0
 10
20.0698
 20
-24.1525
 11
20.0895
 21
-24.2202
  0
LINE
  8
0
 10
20.0895
 20
-24.2202
 11
20.1049
 21
-24.2893
  0
LINE
  8
0
 10
20.1049
 20
-24.2893
 11
20.116
 21
-24.359
  0
LINE
  8
0
 10
20.116
 20
-24.359
 11
20.1227
 21
-24.4293
  0
LINE
  8
0
 10
20.1227
 20
-24.4293
 11
20.1249
 21
-24.5
  0
LINE
  8
0
 10
20.1249
 20
-24.5
 11
20.1227
 21
-24.5707
  0
LINE
  8
0
 10
20.1227
 20
-24.5707
 11
20.116
 21
-24.641
  0
LINE
  8
0
 10
20.116
 20
-24.641
 11
20.1049
 21
-24.7108
  0
LINE
  8
0
 10
20.1049
 20
-24.7108
 11
20.0896
 21
-24.7797
  0
LINE
  8
0
 10
20.0896
 20
-24.7797
 11
20.0698
 21
-24.8476
  0
LINE
  8
0
 10
20.0698
 20
-24.8476
 11
20.0459
 21
-24.914
  0
LINE
  8
0
 10
20.0459
 20
-24.914
 11
20.0177
 21
-24.9791
  0
LINE
  8
0
 10
20.0177
 20
-24.9791
 11
19.9858
 21
-25.0418
  0
LINE
  8
0
 10
19.9858
 20
-25.0418
 11
19.9497
 21
-25.1028
  0
LINE
  8
0
 10
19.9497
 20
-25.1028
 11
19.91
 21
-25.1612
  0
LINE
  8
0
 10
19.91
 20
-25.1612
 11
19.8667
 21
-25.217
  0
LINE
  8
0
 10
19.8667
 20
-25.217
 11
19.8199
 21
-25.2701
  0
LINE
  8
0
 10
19.8199
 20
-25.2701
 11
19.7701
 21
-25.3199
  0
LINE
  8
0
 10
19.7701
 20
-25.3199
 11
19.717
 21
-25.3667
  0
LINE
  8
0
 10
19.717
 20
-25.3667
 11
19.6612
 21
-25.41
  0
LINE
  8
0
 10
19.6612
 20
-25.41
 11
19.6028
 21
-25.4497
  0
LINE
  8
0
 10
19.6028
 20
-25.4497
 11
19.5418
 21
-25.4858
  0
LINE
  8
0
 10
19.5418
 20
-25.4858
 11
19.4791
 21
-25.5177
  0
LINE
  8
0
 10
19.4791
 20
-25.5177
 11
19.414
 21
-25.5459
  0
LINE
  8
0
 10
19.414
 20
-25.5459
 11
19.3476
 21
-25.5698
  0
LINE
  8
0
 10
19.3476
 20
-25.5698
 11
19.2797
 21
-25.5896
  0
LINE
  8
0
 10
19.2797
 20
-25.5896
 11
19.2108
 21
-25.6049
  0
LINE
  8
0
 10
19.2108
 20
-25.6049
 11
19.141
 21
-25.616
  0
LINE
  8
0
 10
19.141
 20
-25.616
 11
19.0707
 21
-25.6227
  0
LINE
  8
0
 10
19.0707
 20
-25.6227
 11
19
 21
-25.6249
  0
LINE
  8
0
 10
19
 20
-25.6249
 11
18.9293
 21
-25.6227
  0
LINE
  8
0
 10
-38.9058
 20
-26.1222
 11
-38.8041
 21
-26.113
  0
LINE
  8
0
 10
-38.8041
 20
-26.113
 11
-38.7032
 21
-26.0975
  0
LINE
  8
0
 10
-38.7032
 20
-26.0975
 11
-38.6035
 21
-26.0758
  0
LINE
  8
0
 10
-38.6035
 20
-26.0758
 11
-38.5053
 21
-26.0478
  0
LINE
  8
0
 10
-38.5053
 20
-26.0478
 11
-38.4091
 21
-26.0137
  0
LINE
  8
0
 10
-38.4091
 20
-26.0137
 11
-38.3152
 21
-25.9736
  0
LINE
  8
0
 10
-38.3152
 20
-25.9736
 11
-38.2241
 21
-25.9277
  0
LINE
  8
0
 10
-38.2241
 20
-25.9277
 11
-38.136
 21
-25.8762
  0
LINE
  8
0
 10
-38.136
 20
-25.8762
 11
-38.0513
 21
-25.8192
  0
LINE
  8
0
 10
-38.0513
 20
-25.8192
 11
-37.9703
 21
-25.757
  0
LINE
  8
0
 10
-37.9703
 20
-25.757
 11
-37.8934
 21
-25.6898
  0
LINE
  8
0
 10
-37.8934
 20
-25.6898
 11
-37.8209
 21
-25.618
  0
LINE
  8
0
 10
-37.8209
 20
-25.618
 11
-37.753
 21
-25.5418
  0
LINE
  8
0
 10
-37.753
 20
-25.5418
 11
-37.6901
 21
-25.4614
  0
LINE
  8
0
 10
-37.6901
 20
-25.4614
 11
-37.6323
 21
-25.3773
  0
LINE
  8
0
 10
-37.6323
 20
-25.3773
 11
-37.5799
 21
-25.2896
  0
LINE
  8
0
 10
-37.5799
 20
-25.2896
 11
-37.5331
 21
-25.1989
  0
LINE
  8
0
 10
-37.5331
 20
-25.1989
 11
-37.4921
 21
-25.1055
  0
LINE
  8
0
 10
-37.4921
 20
-25.1055
 11
-37.4571
 21
-25.0096
  0
LINE
  8
0
 10
-37.4571
 20
-25.0096
 11
-37.4281
 21
-24.9117
  0
LINE
  8
0
 10
-37.4281
 20
-24.9117
 11
-37.4054
 21
-24.8122
  0
LINE
  8
0
 10
-37.4054
 20
-24.8122
 11
-37.3889
 21
-24.7115
  0
LINE
  8
0
 10
-37.3889
 20
-24.7115
 11
-37.3788
 21
-24.6099
  0
LINE
  8
0
 10
-37.3788
 20
-24.6099
 11
-37.3751
 21
-24.5078
  0
LINE
  8
0
 10
-37.3751
 20
-24.5078
 11
-37.3778
 21
-24.4058
  0
LINE
  8
0
 10
-37.3778
 20
-24.4058
 11
-37.3869
 21
-24.3041
  0
LINE
  8
0
 10
-37.3869
 20
-24.3041
 11
-37.4024
 21
-24.2032
  0
LINE
  8
0
 10
-37.4024
 20
-24.2032
 11
-37.4242
 21
-24.1035
  0
LINE
  8
0
 10
-37.4242
 20
-24.1035
 11
-37.4522
 21
-24.0054
  0
LINE
  8
0
 10
-37.4522
 20
-24.0054
 11
-37.4863
 21
-23.9091
  0
LINE
  8
0
 10
-37.4863
 20
-23.9091
 11
-37.5264
 21
-23.8153
  0
LINE
  8
0
 10
-37.5264
 20
-23.8153
 11
-37.5723
 21
-23.7241
  0
LINE
  8
0
 10
-37.5723
 20
-23.7241
 11
-37.6238
 21
-23.636
  0
LINE
  8
0
 10
-37.6238
 20
-23.636
 11
-37.6808
 21
-23.5513
  0
LINE
  8
0
 10
-37.6808
 20
-23.5513
 11
-37.743
 21
-23.4703
  0
LINE
  8
0
 10
-37.743
 20
-23.4703
 11
-37.8102
 21
-23.3934
  0
LINE
  8
0
 10
-37.8102
 20
-23.3934
 11
-37.882
 21
-23.3209
  0
LINE
  8
0
 10
-37.882
 20
-23.3209
 11
-37.9582
 21
-23.253
  0
LINE
  8
0
 10
-37.9582
 20
-23.253
 11
-38.0385
 21
-23.1901
  0
LINE
  8
0
 10
-38.0385
 20
-23.1901
 11
-38.1227
 21
-23.1323
  0
LINE
  8
0
 10
-38.1227
 20
-23.1323
 11
-38.2104
 21
-23.0799
  0
LINE
  8
0
 10
-38.2104
 20
-23.0799
 11
-38.3011
 21
-23.0331
  0
LINE
  8
0
 10
-38.3011
 20
-23.0331
 11
-38.3945
 21
-22.9921
  0
LINE
  8
0
 10
-38.3945
 20
-22.9921
 11
-38.4904
 21
-22.9571
  0
LINE
  8
0
 10
-38.4904
 20
-22.9571
 11
-38.5883
 21
-22.9281
  0
LINE
  8
0
 10
-38.5883
 20
-22.9281
 11
-38.6878
 21
-22.9054
  0
LINE
  8
0
 10
-38.6878
 20
-22.9054
 11
-38.7885
 21
-22.8889
  0
LINE
  8
0
 10
-38.7885
 20
-22.8889
 11
-38.8901
 21
-22.8788
  0
LINE
  8
0
 10
-38.8901
 20
-22.8788
 11
-38.9922
 21
-22.8751
  0
LINE
  8
0
 10
-38.9922
 20
-22.8751
 11
-39.0941
 21
-22.8778
  0
LINE
  8
0
 10
-39.0941
 20
-22.8778
 11
-39.1959
 21
-22.8869
  0
LINE
  8
0
 10
-39.1959
 20
-22.8869
 11
-39.2968
 21
-22.9024
  0
LINE
  8
0
 10
-39.2968
 20
-22.9024
 11
-39.3965
 21
-22.9242
  0
LINE
  8
0
 10
-39.3965
 20
-22.9242
 11
-39.4946
 21
-22.9522
  0
LINE
  8
0
 10
-39.4946
 20
-22.9522
 11
-39.5909
 21
-22.9863
  0
LINE
  8
0
 10
-39.5909
 20
-22.9863
 11
-39.6847
 21
-23.0264
  0
LINE
  8
0
 10
-39.6847
 20
-23.0264
 11
-39.7759
 21
-23.0723
  0
LINE
  8
0
 10
-39.7759
 20
-23.0723
 11
-39.864
 21
-23.1238
  0
LINE
  8
0
 10
-39.864
 20
-23.1238
 11
-39.9487
 21
-23.1808
  0
LINE
  8
0
 10
-39.9487
 20
-23.1808
 11
-40.0297
 21
-23.243
  0
LINE
  8
0
 10
-40.0297
 20
-23.243
 11
-40.1066
 21
-23.3102
  0
LINE
  8
0
 10
-40.1066
 20
-23.3102
 11
-40.1791
 21
-23.382
  0
LINE
  8
0
 10
-40.1791
 20
-23.382
 11
-40.247
 21
-23.4582
  0
LINE
  8
0
 10
-40.247
 20
-23.4582
 11
-40.3099
 21
-23.5385
  0
LINE
  8
0
 10
-40.3099
 20
-23.5385
 11
-40.3677
 21
-23.6227
  0
LINE
  8
0
 10
-40.3677
 20
-23.6227
 11
-40.4201
 21
-23.7104
  0
LINE
  8
0
 10
-40.4201
 20
-23.7104
 11
-40.4669
 21
-23.8011
  0
LINE
  8
0
 10
-40.4669
 20
-23.8011
 11
-40.5079
 21
-23.8945
  0
LINE
  8
0
 10
-40.5079
 20
-23.8945
 11
-40.5429
 21
-23.9904
  0
LINE
  8
0
 10
-40.5429
 20
-23.9904
 11
-40.5719
 21
-24.0883
  0
LINE
  8
0
 10
-40.5719
 20
-24.0883
 11
-40.5946
 21
-24.1878
  0
LINE
  8
0
 10
-40.5946
 20
-24.1878
 11
-40.6111
 21
-24.2885
  0
LINE
  8
0
 10
-40.6111
 20
-24.2885
 11
-40.6212
 21
-24.3901
  0
LINE
  8
0
 10
-40.6212
 20
-24.3901
 11
-40.6249
 21
-24.4921
  0
LINE
  8
0
 10
-40.6249
 20
-24.4921
 11
-40.6222
 21
-24.5942
  0
LINE
  8
0
 10
-40.6222
 20
-24.5942
 11
-40.613
 21
-24.6959
  0
LINE
  8
0
 10
-40.613
 20
-24.6959
 11
-40.5975
 21
-24.7968
  0
LINE
  8
0
 10
-40.5975
 20
-24.7968
 11
-40.5758
 21
-24.8964
  0
LINE
  8
0
 10
-40.5758
 20
-24.8964
 11
-40.5478
 21
-24.9947
  0
LINE
  8
0
 10
-40.5478
 20
-24.9947
 11
-40.5137
 21
-25.0908
  0
LINE
  8
0
 10
-40.5137
 20
-25.0908
 11
-40.4736
 21
-25.1848
  0
LINE
  8
0
 10
-40.4736
 20
-25.1848
 11
-40.4277
 21
-25.2759
  0
LINE
  8
0
 10
-40.4277
 20
-25.2759
 11
-40.3762
 21
-25.364
  0
LINE
  8
0
 10
-40.3762
 20
-25.364
 11
-40.3192
 21
-25.4487
  0
LINE
  8
0
 10
-40.3192
 20
-25.4487
 11
-40.257
 21
-25.5297
  0
LINE
  8
0
 10
-40.257
 20
-25.5297
 11
-40.1898
 21
-25.6066
  0
LINE
  8
0
 10
-40.1898
 20
-25.6066
 11
-40.118
 21
-25.6791
  0
LINE
  8
0
 10
-40.118
 20
-25.6791
 11
-40.0418
 21
-25.747
  0
LINE
  8
0
 10
-40.0418
 20
-25.747
 11
-39.9614
 21
-25.8099
  0
LINE
  8
0
 10
-39.9614
 20
-25.8099
 11
-39.8773
 21
-25.8677
  0
LINE
  8
0
 10
-39.8773
 20
-25.8677
 11
-39.7896
 21
-25.9201
  0
LINE
  8
0
 10
-39.7896
 20
-25.9201
 11
-39.6989
 21
-25.9669
  0
LINE
  8
0
 10
-39.6989
 20
-25.9669
 11
-39.6055
 21
-26.0079
  0
LINE
  8
0
 10
-39.6055
 20
-26.0079
 11
-39.5096
 21
-26.0429
  0
LINE
  8
0
 10
-39.5096
 20
-26.0429
 11
-39.4117
 21
-26.0719
  0
LINE
  8
0
 10
-39.4117
 20
-26.0719
 11
-39.3121
 21
-26.0946
  0
LINE
  8
0
 10
-39.3121
 20
-26.0946
 11
-39.2115
 21
-26.1111
  0
LINE
  8
0
 10
-39.2115
 20
-26.1111
 11
-39.1099
 21
-26.1212
  0
LINE
  8
0
 10
-39.1099
 20
-26.1212
 11
-38.9921
 21
-26.1249
  0
LINE
  8
0
 10
-38.9921
 20
-26.1249
 11
-38.9058
 21
-26.1222
  0
LINE
  8
0
 10
-39.0707
 20
-25.6227
 11
-39.141
 21
-25.616
  0
LINE
  8
0
 10
-39.141
 20
-25.616
 11
-39.2108
 21
-25.6049
  0
LINE
  8
0
 10
-39.2108
 20
-25.6049
 11
-39.2797
 21
-25.5896
  0
LINE
  8
0
 10
-39.2797
 20
-25.5896
 11
-39.3476
 21
-25.5698
  0
LINE
  8
0
 10
-39.3476
 20
-25.5698
 11
-39.414
 21
-25.5459
  0
LINE
  8
0
 10
-39.414
 20
-25.5459
 11
-39.4791
 21
-25.5177
  0
LINE
  8
0
 10
-39.4791
 20
-25.5177
 11
-39.5418
 21
-25.4858
  0
LINE
  8
0
 10
-39.5418
 20
-25.4858
 11
-39.6028
 21
-25.4497
  0
LINE
  8
0
 10
-39.6028
 20
-25.4497
 11
-39.6612
 21
-25.41
  0
LINE
  8
0
 10
-39.6612
 20
-25.41
 11
-39.717
 21
-25.3667
  0
LINE
  8
0
 10
-39.717
 20
-25.3667
 11
-39.7701
 21
-25.3199
  0
LINE
  8
0
 10
-39.7701
 20
-25.3199
 11
-39.8199
 21
-25.2701
  0
LINE
  8
0
 10
-39.8199
 20
-25.2701
 11
-39.8667
 21
-25.217
  0
LINE
  8
0
 10
-39.8667
 20
-25.217
 11
-39.91
 21
-25.1612
  0
LINE
  8
0
 10
-39.91
 20
-25.1612
 11
-39.9497
 21
-25.1028
  0
LINE
  8
0
 10
-39.9497
 20
-25.1028
 11
-39.9858
 21
-25.0418
  0
LINE
  8
0
 10
-39.9858
 20
-25.0418
 11
-40.0177
 21
-24.9791
  0
LINE
  8
0
 10
-40.0177
 20
-24.9791
 11
-40.0459
 21
-24.914
  0
LINE
  8
0
 10
-40.0459
 20
-24.914
 11
-40.0698
 21
-24.8476
  0
LINE
  8
0
 10
-40.0698
 20
-24.8476
 11
-40.0896
 21
-24.7797
  0
LINE
  8
0
 10
-40.0896
 20
-24.7797
 11
-40.1049
 21
-24.7108
  0
LINE
  8
0
 10
-40.1049
 20
-24.7108
 11
-40.116
 21
-24.641
  0
LINE
  8
0
 10
-40.116
 20
-24.641
 11
-40.1227
 21
-24.5707
  0
LINE
  8
0
 10
-40.1227
 20
-24.5707
 11
-40.1249
 21
-24.5
  0
LINE
  8
0
 10
-40.1249
 20
-24.5
 11
-40.1227
 21
-24.4293
  0
LINE
  8
0
 10
-40.1227
 20
-24.4293
 11
-40.116
 21
-24.359
  0
LINE
  8
0
 10
-40.116
 20
-24.359
 11
-40.1049
 21
-24.2893
  0
LINE
  8
0
 10
-40.1049
 20
-24.2893
 11
-40.0895
 21
-24.2202
  0
LINE
  8
0
 10
-40.0895
 20
-24.2202
 11
-40.0698
 21
-24.1525
  0
LINE
  8
0
 10
-40.0698
 20
-24.1525
 11
-40.0459
 21
-24.0859
  0
LINE
  8
0
 10
-40.0459
 20
-24.0859
 11
-40.0177
 21
-24.0209
  0
LINE
  8
0
 10
-40.0177
 20
-24.0209
 11
-39.9858
 21
-23.9582
  0
LINE
  8
0
 10
-39.9858
 20
-23.9582
 11
-39.9497
 21
-23.8972
  0
LINE
  8
0
 10
-39.9497
 20
-23.8972
 11
-39.91
 21
-23.8388
  0
LINE
  8
0
 10
-39.91
 20
-23.8388
 11
-39.8667
 21
-23.783
  0
LINE
  8
0
 10
-39.8667
 20
-23.783
 11
-39.8199
 21
-23.7299
  0
LINE
  8
0
 10
-39.8199
 20
-23.7299
 11
-39.7701
 21
-23.6801
  0
LINE
  8
0
 10
-39.7701
 20
-23.6801
 11
-39.717
 21
-23.6332
  0
LINE
  8
0
 10
-39.717
 20
-23.6332
 11
-39.6612
 21
-23.5899
  0
LINE
  8
0
 10
-39.6612
 20
-23.5899
 11
-39.6028
 21
-23.5503
  0
LINE
  8
0
 10
-39.6028
 20
-23.5503
 11
-39.5418
 21
-23.5142
  0
LINE
  8
0
 10
-39.5418
 20
-23.5142
 11
-39.4791
 21
-23.4823
  0
LINE
  8
0
 10
-39.4791
 20
-23.4823
 11
-39.414
 21
-23.4541
  0
LINE
  8
0
 10
-39.414
 20
-23.4541
 11
-39.3477
 21
-23.4302
  0
LINE
  8
0
 10
-39.3477
 20
-23.4302
 11
-39.2796
 21
-23.4104
  0
LINE
  8
0
 10
-39.2796
 20
-23.4104
 11
-39.2108
 21
-23.3951
  0
LINE
  8
0
 10
-39.2108
 20
-23.3951
 11
-39.141
 21
-23.384
  0
LINE
  8
0
 10
-39.141
 20
-23.384
 11
-39.0707
 21
-23.3773
  0
LINE
  8
0
 10
-39.0707
 20
-23.3773
 11
-39
 21
-23.3751
  0
LINE
  8
0
 10
-39
 20
-23.3751
 11
-38.9293
 21
-23.3773
  0
LINE
  8
0
 10
-38.9293
 20
-23.3773
 11
-38.859
 21
-23.384
  0
LINE
  8
0
 10
-38.859
 20
-23.384
 11
-38.7892
 21
-23.3951
  0
LINE
  8
0
 10
-38.7892
 20
-23.3951
 11
-38.7203
 21
-23.4104
  0
LINE
  8
0
 10
-38.7203
 20
-23.4104
 11
-38.6524
 21
-23.4302
  0
LINE
  8
0
 10
-38.6524
 20
-23.4302
 11
-38.586
 21
-23.4541
  0
LINE
  8
0
 10
-38.586
 20
-23.4541
 11
-38.5209
 21
-23.4823
  0
LINE
  8
0
 10
-38.5209
 20
-23.4823
 11
-38.4582
 21
-23.5142
  0
LINE
  8
0
 10
-38.4582
 20
-23.5142
 11
-38.3972
 21
-23.5503
  0
LINE
  8
0
 10
-38.3972
 20
-23.5503
 11
-38.3388
 21
-23.5899
  0
LINE
  8
0
 10
-38.3388
 20
-23.5899
 11
-38.283
 21
-23.6332
  0
LINE
  8
0
 10
-38.283
 20
-23.6332
 11
-38.2299
 21
-23.6801
  0
LINE
  8
0
 10
-38.2299
 20
-23.6801
 11
-38.1801
 21
-23.7299
  0
LINE
  8
0
 10
-38.1801
 20
-23.7299
 11
-38.1332
 21
-23.783
  0
LINE
  8
0
 10
-38.1332
 20
-23.783
 11
-38.0899
 21
-23.8388
  0
LINE
  8
0
 10
-38.0899
 20
-23.8388
 11
-38.0503
 21
-23.8972
  0
LINE
  8
0
 10
-38.0503
 20
-23.8972
 11
-38.0142
 21
-23.9582
  0
LINE
  8
0
 10
-38.0142
 20
-23.9582
 11
-37.9823
 21
-24.0209
  0
LINE
  8
0
 10
-37.9823
 20
-24.0209
 11
-37.9541
 21
-24.086
  0
LINE
  8
0
 10
-37.9541
 20
-24.086
 11
-37.9302
 21
-24.1524
  0
LINE
  8
0
 10
-37.9302
 20
-24.1524
 11
-37.9104
 21
-24.2203
  0
LINE
  8
0
 10
-37.9104
 20
-24.2203
 11
-37.8951
 21
-24.2892
  0
LINE
  8
0
 10
-37.8951
 20
-24.2892
 11
-37.884
 21
-24.359
  0
LINE
  8
0
 10
-37.884
 20
-24.359
 11
-37.8773
 21
-24.4293
  0
LINE
  8
0
 10
-37.8773
 20
-24.4293
 11
-37.8751
 21
-24.5
  0
LINE
  8
0
 10
-37.8751
 20
-24.5
 11
-37.8773
 21
-24.5707
  0
LINE
  8
0
 10
-37.8773
 20
-24.5707
 11
-37.884
 21
-24.641
  0
LINE
  8
0
 10
-37.884
 20
-24.641
 11
-37.8951
 21
-24.7108
  0
LINE
  8
0
 10
-37.8951
 20
-24.7108
 11
-37.9104
 21
-24.7796
  0
LINE
  8
0
 10
-37.9104
 20
-24.7796
 11
-37.9302
 21
-24.8477
  0
LINE
  8
0
 10
-37.9302
 20
-24.8477
 11
-37.9541
 21
-24.914
  0
LINE
  8
0
 10
-37.9541
 20
-24.914
 11
-37.9823
 21
-24.9791
  0
LINE
  8
0
 10
-37.9823
 20
-24.9791
 11
-38.0142
 21
-25.0418
  0
LINE
  8
0
 10
-38.0142
 20
-25.0418
 11
-38.0503
 21
-25.1028
  0
LINE
  8
0
 10
-38.0503
 20
-25.1028
 11
-38.0899
 21
-25.1612
  0
LINE
  8
0
 10
-38.0899
 20
-25.1612
 11
-38.1332
 21
-25.217
  0
LINE
  8
0
 10
-38.1332
 20
-25.217
 11
-38.1801
 21
-25.2701
  0
LINE
  8
0
 10
-38.1801
 20
-25.2701
 11
-38.2299
 21
-25.3199
  0
LINE
  8
0
 10
-38.2299
 20
-25.3199
 11
-38.283
 21
-25.3667
  0
LINE
  8
0
 10
-38.283
 20
-25.3667
 11
-38.3388
 21
-25.41
  0
LINE
  8
0
 10
-38.3388
 20
-25.41
 11
-38.3972
 21
-25.4497
  0
LINE
  8
0
 10
-38.3972
 20
-25.4497
 11
-38.4582
 21
-25.4858
  0
LINE
  8
0
 10
-38.4582
 20
-25.4858
 11
-38.5209
 21
-25.5177
  0
LINE
  8
0
 10
-38.5209
 20
-25.5177
 11
-38.5859
 21
-25.5459
  0
LINE
  8
0
 10
-38.5859
 20
-25.5459
 11
-38.6525
 21
-25.5698
  0
LINE
  8
0
 10
-38.6525
 20
-25.5698
 11
-38.7202
 21
-25.5895
  0
LINE
  8
0
 10
-38.7202
 20
-25.5895
 11
-38.7893
 21
-25.6049
  0
LINE
  8
0
 10
-38.7893
 20
-25.6049
 11
-38.859
 21
-25.616
  0
LINE
  8
0
 10
-38.859
 20
-25.616
 11
-38.9293
 21
-25.6227
  0
LINE
  8
0
 10
-38.9293
 20
-25.6227
 11
-39
 21
-25.6249
  0
LINE
  8
0
 10
-39
 20
-25.6249
 11
-39.0707
 21
-25.6227
  0
LINE
  8
0
 10
22.25
 20
-7.67499
 11
21.54
 21
-7.67499
  0
LINE
  8
0
 10
21.54
 20
-7.67499
 11
21.54
 21
-5.735
  0
LINE
  8
0
 10
21.54
 20
-5.735
 11
22.25
 21
-5.735
  0
LINE
  8
0
 10
22.25
 20
-5.735
 11
22.25
 21
-7.67499
  0
LINE
  8
0
 10
22.25
 20
-10.215
 11
21.54
 21
-10.215
  0
LINE
  8
0
 10
21.54
 20
-10.215
 11
21.54
 21
-8.27499
  0
LINE
  8
0
 10
21.54
 20
-8.27499
 11
22.25
 21
-8.27499
  0
LINE
  8
0
 10
22.25
 20
-8.27499
 11
22.25
 21
-10.215
  0
ENDSEC
  0
SECTION
  2
OBJECTS
  0
DICTIONARY
  0
ENDSEC
  0
EOF
